<svg id="Grupo_123" data-name="Grupo 123" xmlns="http://www.w3.org/2000/svg" width="116.28" height="140.015" viewBox="0 0 116.28 140.015">
  <path id="Trazado_418" data-name="Trazado 418" d="M503.8,0q-1.459,0-2.9.059c-50.559,2.05-73.418,64.59-37.226,99.951l40.947,40L545.1,99.533C579.867,64.765,558.744,4.343,509.743.247Q506.8,0,503.8,0" transform="translate(-446 0)" fill="#101820"/>
  <path id="Trazado_419" data-name="Trazado 419" d="M531.176,64.321H515.54V56.907a11.075,11.075,0,0,0,8.2-5.823,10.85,10.85,0,0,0,6.033-3.858,12.372,12.372,0,0,0,2.645-7.7,12.041,12.041,0,0,0-5.661-10.337c-.36-7.164-5.882-12.876-12.608-12.876a11.926,11.926,0,0,0-6,1.634,1.208,1.208,0,0,0,1.218,2.086,9.494,9.494,0,0,1,4.785-1.305c5.62,0,10.2,5.018,10.212,11.186a1.206,1.206,0,0,0,.662,1.074A9.527,9.527,0,0,1,530,39.531c0,4.613-3.123,8.606-7.266,9.29a1.206,1.206,0,0,0-.891.667,8.783,8.783,0,0,1-6.3,4.975V43.777l5.943-5.465a1.208,1.208,0,0,0-1.636-1.778L515.542,40.5V32.435a1.208,1.208,0,0,0-2.415,0V47.051l-4.309-3.961a1.208,1.208,0,0,0-1.634,1.778l5.943,5.465V54.52a8.736,8.736,0,0,1-6.706-5.1,1.212,1.212,0,0,0-.842-.665c-4.007-.852-6.916-4.729-6.916-9.221a9.51,9.51,0,0,1,4.662-8.366,1.206,1.206,0,0,0,.614-1.069c0-.031,0-.062,0-.095s0-.039,0-.059a11.8,11.8,0,0,1,2.181-6.922,1.208,1.208,0,1,0-1.964-1.407,14.154,14.154,0,0,0-2.625,7.818,11.991,11.991,0,0,0-5.281,10.1A11.705,11.705,0,0,0,504.5,50.974a11.027,11.027,0,0,0,8.625,5.976v7.372h-20.4V59.729h3.714a1.208,1.208,0,1,0,0-2.415h-3.714v-2.83h1.351a1.208,1.208,0,0,0,0-2.415h-1.351V49.24h1.351a1.208,1.208,0,0,0,0-2.415H467.555a1.208,1.208,0,1,0,0,2.415H468.9v2.828h-1.349a1.208,1.208,0,1,0,0,2.415H468.9v2.83h-3.714a1.208,1.208,0,0,0,0,2.415H468.9v4.592h-8.573a1.208,1.208,0,0,0,0,2.415h70.844a1.208,1.208,0,0,0,0-2.415M471.32,49.24h18.988v2.83H471.32Zm0,5.244h18.988v2.83H471.32Zm0,5.245h18.988v4.592H471.32Z" transform="translate(-437.632 10.404)" fill="#fff"/>
</svg>
