<svg xmlns="http://www.w3.org/2000/svg" width="116.28" height="140.015" viewBox="0 0 116.28 140.015">
  <g id="Grupo_124" data-name="Grupo 124" transform="translate(0)">
    <path id="Trazado_422" data-name="Trazado 422" d="M621.8,0q-1.459,0-2.9.059c-50.559,2.05-73.418,64.59-37.226,99.951l40.946,40L663.1,99.533C697.867,64.765,676.744,4.343,627.743.247Q624.8,0,621.8,0" transform="translate(-564 0)" fill="#101820"/>
    <path id="Trazado_423" data-name="Trazado 423" d="M639.266,40.021l-.008-.051c-.008-.064-.016-.124-.029-.183l-.016-.062-.2.057.187-.1a1.429,1.429,0,0,0-.041-.149l-.025-.067-.193.079.175-.126c-.016-.044-.033-.09-.052-.138l-.031-.062-.185.1.156-.157c-.02-.041-.039-.079-.062-.121l-.038-.061-.175.111.144-.162c-.025-.041-.049-.082-.075-.12l-.047-.067-.167.124.124-.182c-.024-.034-.051-.069-.079-.1s-.041-.051-.062-.077l-.157.138.128-.17c-.033-.038-.064-.074-.1-.111l-.067-.07-.147.147.11-.185c-.036-.034-.07-.07-.106-.1l-.084-.077-.139.157.088-.2-.1-.084-.154-.124c-.033-.028-.065-.052-.1-.077l-.108-.079-.121.17.074-.2-.27-.182c-.044-.031-.088-.059-.134-.088l-1.331-.7-.193-.084-1.2-.463-2.741-.8-3.658-.735-5.1-.671-7.977-.527V25.8a1.212,1.212,0,0,0-1.127-1.21v-5.7a1.214,1.214,0,0,0-1.212-1.213h-.27V14.4a1.212,1.212,0,1,0-2.424,0v3.28h-.269a1.214,1.214,0,0,0-1.212,1.213v5.7a1.213,1.213,0,0,0-1.128,1.21v7.569l-1.227.046-7.985.612-5.036.74-3.052.668-2.253.681-1.335.526c-.077.033-.152.069-.254.118l-.106.049c-.061.028-.12.059-.179.088l-.164.084c-.072.036-.143.075-.211.113l-.116.064c-.069.038-.134.077-.2.118l-.108.064c-.065.039-.128.082-.192.123l-.1.065c-.062.043-.123.085-.211.149l-.062.044c-.059.044-.115.09-.192.151l-.061.051c-.052.043-.1.088-.151.131l.139.156-.18-.118-.043.039c-.054.051-.1.1-.167.165l-.044.046c-.052.056-.1.11-.162.187l-.029.034c-.049.059-.093.121-.138.182l-.033.044c-.046.069-.087.138-.147.237a2.685,2.685,0,0,0-.328.979c-.442,1-1.808,4.715-1.808,12.454,0,7.576,1.366,11.406,1.8,12.441.152,1.341,1.333,2.465,3.608,3.434a1.212,1.212,0,0,0,.95-2.23c-1.785-.76-2.149-1.377-2.149-1.5a1.22,1.22,0,0,0-.126-.535c-.016-.034-1.664-3.555-1.664-11.609a39.468,39.468,0,0,1,.968-9.511c1.893,1.39,5.448,2.491,10.579,3.267a103.564,103.564,0,0,0,14.881,1.107c.739.008,1.421.008,2.16,0A103.553,103.553,0,0,0,627.1,46.216c5.117-.773,8.668-1.868,10.564-3.257a38.669,38.669,0,0,1,1.032,9.5c0,8.7-1.467,11.219-1.575,11.394a1.219,1.219,0,0,0-.26.75c0,.93-4.656,3.162-15.408,4.141V59.035a1.213,1.213,0,0,0-1.213-1.21H602.091a1.213,1.213,0,0,0-1.212,1.21v9.713a74.2,74.2,0,0,1-7.584-1.037,1.213,1.213,0,1,0-.465,2.381,96.9,96.9,0,0,0,16.193,1.5c.73.016,1.471.025,2.14.018.164,0,.329,0,.5,0,.688,0,1.451-.015,2.266-.039,4.078-.1,24.423-.9,25.327-6.577.578-1.022,1.867-4.232,1.867-12.542,0-7.408-1.4-11.363-1.854-12.439M610.9,20.1h.539v4.485H610.9Zm25.964,20.215c0,.409-1.158,1.467-5.524,2.569a11.306,11.306,0,0,0-5.045-2.232l3.274-3.313c5.312,1.112,7.3,2.415,7.3,2.976m-38.208-.2-3.233-3.272c2.563-.413,5.391-.717,8.412-.9l1.821,3.413a69.461,69.461,0,0,0-7,.76m14.476-.909c-.7-.018-1.363-.025-1.986-.025-.894,0-1.839.015-2.809.047l-1.823-3.418q4.183-.157,8.443-.026Zm14.717,4.415c-1.014.182-2.086.342-3.2.488a106.737,106.737,0,0,1-10.992.766l-.372.008c-.269,0-.539.01-.807.011-.879.01-1.792.01-2.676,0-.269,0-.536-.007-.8-.011l-.377-.008a106.774,106.774,0,0,1-10.988-.766c-1.112-.146-2.185-.306-3.2-.488,2.75-.981,8.476-2.016,16.7-2.016s13.954,1.035,16.7,2.016m-12.025-4.312,1.821-3.413h0c.264.015.527.026.784.043.532.031,1.05.07,1.561.108,2.373.182,4.62.439,6.686.763l-3.233,3.272a71.737,71.737,0,0,0-7.623-.773m-6.052-12.3h2.794v6.216h-2.794ZM595.819,40.7a11.007,11.007,0,0,0-4.87,2.188c-4.366-1.1-5.524-2.16-5.524-2.569,0-.549,1.934-1.831,7.114-2.936Zm23.208,19.551V68.88c-1.271.092-3.544.237-5.743.293-.3,0-.6.007-.907.011V60.248Zm-9.074,0v8.938c-.278,0-.557-.01-.835-.011-2.234-.056-4.531-.2-5.815-.295V60.248Z" transform="translate(-553.026 8.405)" fill="#fff"/>
  </g>
</svg>
