<svg id="Grupo_121" data-name="Grupo 121" xmlns="http://www.w3.org/2000/svg" width="116.28" height="140.015" viewBox="0 0 116.28 140.015">
  <path id="Trazado_414" data-name="Trazado 414" d="M293.8,0q-1.459,0-2.9.059c-50.559,2.05-73.418,64.59-37.226,99.951l40.947,40L335.1,99.533C369.867,64.765,348.744,4.343,299.743.247Q296.8,0,293.8,0" transform="translate(-236 0)" fill="#101820"/>
  <path id="Trazado_415" data-name="Trazado 415" d="M281.123,13.794c.493.046.987.095,1.484.136a36.406,36.406,0,0,1,32.253,26.735,35.123,35.123,0,0,1,1.32,10.6,36.519,36.519,0,0,1-3.213,14c-.038.082-.085.159-.17.321-.075-.807-.139-1.521-.206-2.237a81.419,81.419,0,0,0-1.323-8.619,192.5,192.5,0,0,0-7.02-24.991.668.668,0,0,0-.578-.509q-2.621-.521-5.227-1.089c-.287-.062-.378.09-.5.273q-4.851,7.276-9.708,14.552-4.775,7.158-9.552,14.316c-.07.106-.147.211-.254.362a1.634,1.634,0,0,1-.062-.262q-.226-3.842-.45-7.684-.268-4.483-.54-8.964c-.131-2.171-.254-4.341-.383-6.511-.172-2.93-.35-5.858-.514-8.787a.521.521,0,0,0-.427-.54c-2.373-.8-4.738-1.618-7.1-2.43-.11-.038-.221-.072-.359-.116l-9.852,18.7-.074-.023c.057-.573.111-1.145.17-1.716q.383-3.65.768-7.3.413-3.9.827-7.793c.126-1.192.244-2.386.38-3.578.031-.278-.051-.406-.328-.467a9.446,9.446,0,0,1-.942-.308c1.11-.64,2.117-1.263,3.162-1.818a36.323,36.323,0,0,1,11.889-3.863c1.081-.156,2.173-.215,3.26-.319.188-.02.375-.047.562-.07Z" transform="translate(-221.551 8.795)" fill="#fff"/>
  <path id="Trazado_416" data-name="Trazado 416" d="M249.212,45.53c.044-.506.088-1.012.136-1.516a36.885,36.885,0,0,1,11.594-23.978c.221-.211.454-.411.727-.655.013.131.028.206.028.28a65.346,65.346,0,0,1-.771,9.08,200.864,200.864,0,0,1-5.982,26.175c-.675,2.36-1.405,4.7-2.109,7.056-.026.088-.061.175-.108.313a2.446,2.446,0,0,1-.142-.233A36.086,36.086,0,0,1,249.5,51.139c-.1-.884-.151-1.775-.229-2.663-.01-.126-.039-.252-.061-.378Z" transform="translate(-227.576 12.357)" fill="#fff"/>
  <path id="Trazado_417" data-name="Trazado 417" d="M271.2,30.119c.034.791.074,1.582.1,2.373q.265,6.858.529,13.713.268,6.839.545,13.677a.358.358,0,0,0,.272.383q3.67,1.358,7.333,2.745c.28.106.35-.052.46-.219L289.1,49.762q6.529-9.821,13.057-19.645c.07-.106.144-.21.254-.368.3.835.581,1.615.863,2.391,2.14,5.9,4.318,11.787,6.909,17.509a40.774,40.774,0,0,0,3.293,6.185,12.5,12.5,0,0,0,.929,1.171.316.316,0,0,1,.044.432,36.551,36.551,0,0,1-26.909,18.818,35.591,35.591,0,0,1-9.487.111A36.152,36.152,0,0,1,257.548,66.9c-1.022-.937-1.941-1.99-2.892-3a.488.488,0,0,1-.077-.426c3.76-8.989,7.594-17.946,12.138-26.577a41.9,41.9,0,0,1,3.563-5.828c.2-.265.426-.513.639-.768.061-.072.118-.147.177-.221l.106.036" transform="translate(-224.167 18.968)" fill="#fff"/>
</svg>
