<?xml version="1.0" encoding="utf-8"?>
<!-- Generator: Adobe Illustrator 23.0.1, SVG Export Plug-In . SVG Version: 6.00 Build 0)  -->
<svg version="1.1" id="Capa_1" xmlns="http://www.w3.org/2000/svg" xmlns:xlink="http://www.w3.org/1999/xlink" x="0px" y="0px"
	 viewBox="0 0 474 96" style="enable-background:new 0 0 474 96;" xml:space="preserve">
<path id="XMLID_517_" style="fill:#70881D;" d="M422.33,53.23c-1.53-0.03-7.08,0.8-8-1.53c0.43-0.81,2.73-1.02,3.35-1.24
	c1.57-0.55,1.36-0.85,2.5-2.64c0.99-1.57,3.99-2.47,1.15-4.12c-1.03-0.6-2.18-0.72-3.34-0.77c-1.07-0.04-6.41,0.96-7-0.12
	c-1.2-2.18,5.12-2.06,5.81-3.42c-1.16-1.39-3.45-0.31-4.98-0.33c-1.61-0.03-3.36-0.59-4.75-0.62c-0.27-1.12,2.12-1.36,2.28-1.77
	c-0.06,0.15-4.23-0.87-4.77-0.96c-1.9-0.31-3.85-0.06-6.01-0.1c-2.54-0.04-5.29,0.37-7.8-0.13c-0.74-0.15-3.38-0.5-1.7-2.51
	c-0.67-0.38-2.86,0.4-2.8-1.08c0.05-1.19,2.04-0.7,2.47-0.75c0.69-0.09,2.48-0.12,3.27-0.48c0.13-0.06,2.05-1.61,2.13-1.75
	c0.45-0.88-2.17-0.94-2.23-0.94c-0.44-1.82,6.07-4.36,6.73-5.67c1.03-2.06-2.24-3.23-2.36-5.34c-0.06-0.97,1.17-1.45,0.91-3.24
	c0.05,0.35-1.31-1.97-1.08-1.82c-0.55-0.36-1.46,0.12-2.06-0.04c0.06,0.02-0.54-1-0.67-1.06c-1.59-0.71-1.9-0.42-3.36-1.7
	c-1.09-0.95-2.41-2.8-3.76-3.06c-0.98-0.19-2.75,0.25-3.96,0.23c-0.99-0.02-1.72-0.78-2.76-1.08c-0.99-0.29-2.36-0.48-3.25-0.6
	c-1.81-0.24-3.48-0.92-5.13-1.19c-6.55-1.05-13.28-0.71-19.75-0.05c-4.82,0.49-9.73,1.68-14.59,1.6c-5.83-0.1-11.67,1.45-17.57,1.35
	c-5.16-0.09-10.48,1.73-15.62,2.42c-6.88,0.94-14.22-0.35-20.84-1.42c-3.58-0.58-7.37,0.01-10.9-0.45c-3.1-0.4-6.41-0.83-9.41-0.96
	c-14.08-0.62-28.34-1.83-42.55-2.04c-21.62-0.32-45.08,0.62-66.69,2.82c-11.36,1.16-22.2,3.26-33.56,4.39
	c-5.84,0.58-11.77,1.73-17.64,0.85c-3.37-0.51-6.63-0.74-9.89-0.8c-0.73-0.01-2.08-0.34-2.71-0.05c-0.53,0.25-0.57,1.26-0.89,1.43
	c-0.49,0.26-2.81,0.53-3,0.83c0.05,0.34,0.17,0.46,0.37,0.37c0.28,1.4-5.44,1.24-6.07,1.24c-1.43,0.02-3.56,0.24-4.9,0.19
	c-0.47-0.02-2.34-0.13-2.39-0.16c0.38,0.22,3.95,2.13,3.95,2.13c-0.86,1.98-6.21,0.64-7.51,0.62c-1.11-0.02-2.24-0.17-3.35-0.06
	c-0.18,0.02-0.31,1.08-0.26,1.07c-0.64,0.07-0.99-0.76-1.93-0.57c-0.3,0.06-0.86,0.69-1.33,1.05c-1.19,0.92-1.61,1.06-3.12,1.03
	c-1.96-0.03-6.33-1.76-8.01,0.18c0.82,0.99,5.31,1.77,3.59,4.77c-1.02,1.77-1.68-0.84-1.41,1.41c0.19,1.59,1,1.73,1.82,2.18
	c1.33,0.74,3.9,0.16,4.98,1.86c0.89,1.41-0.1,2.78,0.04,3.61c0.03,0.18,0.91,0.85,0.91,0.84c-0.3,1.89-0.17,0.22-0.87,1.48
	c-0.23,0.41,5.19,1.49,5.43,1.75c2.39,2.68-4.39,1.89-4.54,1.7c1.45,1.83,3.99,0.78,5.43,2.4c0.58,0.65,0.7,2.05,1.57,2.7
	c-0.01-0.01,1.06-0.28,1.23-0.23c0.26,0.08,0.4,0.63,0.56,0.72c1.26,0.66,2.58,1.05,3.54,1.24c1.46,0.28,3.11,0.23,4.64,0.62
	c0.35,0.09,1.68,0.94,2.24,1.11c0.75,0.23,3.32,0.11,3.76,1.4c1.4,4.1-7.41,1.79-8.58,1.76c-1.44-0.04-2.66-0.04-3.99-0.35
	c-0.51-0.12-4.75-1.36-3.28,1.16c0.42,0.72,3.25,0.28,1.55,2.68c-0.18,0.26-4.04,0.56-3.86,1c0.95,2.28,4.65,1.18,6.34,3.2
	c-0.7,0.82-1.57-0.19-2.27,0.57c2.28,2.89-1.4,2.54-2.09,2.45c-0.9-0.12-3.6-0.74-2.19,1.49c0.06,0.09,1.51,0.53,1.81,0.74
	c0.19,0.13,1.11,1.67,1.56,1.91c0.73,0.4,4.04,0.29,2.61,2.04c0.94,1.13,2.3,0.92,3.42,1.39c1.09,0.45,2.18,1.2,3.26,1.67
	c4.15,1.79-2.13,0.75-0.66,4.16c0.51,1.17,4.46,1.61,5.33,1.84c2.17,0.57,4.28,1.31,6.65,1.73c5.09,0.89,10.01,2.85,15.24,2.94
	c7.78,0.14,15.42,1.94,23.4,0.93c7.04-0.89,14.93-1.25,21.79-0.26c2.28,0.33,3.18,2.23,5.36,2.58c2.6,0.42,4.81,1.03,7.19,2
	c11.7,4.73,24.61,2.83,36.6,3.33c3.46,0.14,6.54-0.03,9.41,0.15c0.83,0.05,0.75,0.44,1.28,0.52c0.97,0.14,2.03-0.87,2.6-0.86
	c1.04,0.01,1.9,1.3,3.03,1.53c0.26,0.06,1.18-0.33,1.63-0.24c0.45,0.09,1.16,0.73,1.65,0.93c0.86,0.36,1.59,0.42,2.62-0.07
	c2.2-1.06,4.7,0.15,6.85-2.26c-1.96-2.66,0.16-2.44,1.92-2.41c2.02,0.03,4.05,0.07,6.07,0.1c4.68,0.08,9.55-0.38,14.38-0.3
	c6.57,0.11,12.96-1.57,19.56-2.36c8.01-0.96,15.86,0.28,23.71-0.68c7.55-0.92,15.62-1.89,23.36-1.76c7.65,0.13,14.93-0.3,22.04-3.39
	c2.03-0.88,3.76-1.32,5.52-3.56c1.13-1.43,1.65-3.93,2.96-4.92c0.82-0.62,2.09-0.89,3.04-1.26c5.8-2.28,12.01-2.15,18.11-2.7
	c3.19-0.29,6.36-1.14,9.52-1.45c3.05-0.29,6.33-1.98,9.47-2.54c5.53-0.99,10.92-3.3,16.11-5.65c1.43-0.65,2.49,0.12,3.99-0.52
	c1.23-0.52,2.49-1.75,3.66-2.04c2.07-0.51,3.97-0.19,6.05-0.44c1.37-0.16,4.3,0.6,5.32-0.69C422.78,53.8,422.55,53.51,422.33,53.23
	C420.8,53.2,422.6,53.48,422.33,53.23z"/>
</svg>
