<svg xmlns="http://www.w3.org/2000/svg" width="52.027" height="52.011" viewBox="0 0 52.027 52.011">
  <g id="Grupo_128" data-name="Grupo 128" transform="translate(-2447.393 -1367.344)">
    <path id="Trazado_426" data-name="Trazado 426" d="M240.714,83.834c0-1.741-.017-3.481.011-5.221.008-.484-.116-.686-.621-.788a9.765,9.765,0,0,1-7.914-8.018,12.168,12.168,0,0,1,.07-4.1A50.1,50.1,0,0,1,235.592,53.3a15.7,15.7,0,0,1,3.424-5.44,3.827,3.827,0,0,1,5.714-.009,15.211,15.211,0,0,1,3.34,5.249,48.968,48.968,0,0,1,3.521,13.484,9.752,9.752,0,0,1-4.417,9.862,8.787,8.787,0,0,1-3.619,1.413c-.385.061-.527.2-.525.6q.018,5.378,0,10.756c0,.441.163.575.584.565.835-.021,1.671-.019,2.506,0a1.155,1.155,0,0,1,1.115.723,1.073,1.073,0,0,1-.2,1.168,1.207,1.207,0,0,1-.983.407c-2.785.009-5.57.018-8.354,0a1.159,1.159,0,1,1,.034-2.3c.8-.014,1.6-.027,2.4,0,.469.018.6-.163.591-.609-.019-1.775-.008-3.551-.008-5.326m2.315-13.116c.269-.031.352-.2.469-.318.634-.622,1.242-1.27,1.893-1.873a1.12,1.12,0,0,1,1.91.572,1.225,1.225,0,0,1-.445,1.162c-1.061,1.056-2.1,2.138-3.186,3.165a1.771,1.771,0,0,0-.645,1.548c.056.678.024.689.681.521a7.489,7.489,0,0,0,5.687-7.345,30.254,30.254,0,0,0-1.17-7.348,40.2,40.2,0,0,0-3.07-8.526,9.635,9.635,0,0,0-1.967-2.808,1.685,1.685,0,0,0-2.586-.024,6.191,6.191,0,0,0-.9,1.012,17.132,17.132,0,0,0-1.757,3.2,46.87,46.87,0,0,0-3.522,13,7.936,7.936,0,0,0,1.615,6.289,7.46,7.46,0,0,0,4.133,2.573c.19.045.513.24.54-.21a2.035,2.035,0,0,0-.606-1.874c-1.079-.956-2.059-2.025-3.081-3.047-.086-.086-.175-.17-.256-.261a1.133,1.133,0,0,1-.032-1.6,1.1,1.1,0,0,1,1.63,0c.642.612,1.258,1.253,1.891,1.875.117.115.2.286.48.319,0-.5-.029-.978.008-1.456a1.092,1.092,0,0,1,.823-1.032,1.06,1.06,0,0,1,1.171.366,1.54,1.54,0,0,1,.292,1.033c.01.358,0,.716,0,1.087" transform="translate(2247.732 1327.273)" fill="#fff"/>
    <path id="Trazado_427" data-name="Trazado 427" d="M43.157,247.648c2.784,0,5.568,0,8.352,0a3.346,3.346,0,0,1,3.35,2.031,3.284,3.284,0,0,1-2.885,4.576c-.626.017-1.253.015-1.879,0a.989.989,0,0,0-.789.311q-2.074,2.1-4.173,4.168c-.284.279-.267.442.006.71,1.192,1.17,2.363,2.362,3.544,3.543a1.243,1.243,0,0,1,.457,1.109,1.057,1.057,0,0,1-.711.892,1.1,1.1,0,0,1-1.2-.283c-.818-.806-1.627-1.621-2.44-2.432-.406-.406-.829-.8-1.212-1.223-.273-.3-.46-.306-.752-.007-1.118,1.146-2.261,2.267-3.395,3.4-.111.111-.218.226-.339.325a1.116,1.116,0,0,1-1.557-1.6c.424-.46.88-.892,1.319-1.338.793-.806,1.574-1.625,2.383-2.414.287-.28.254-.454-.015-.718q-2.083-2.051-4.136-4.132a.929.929,0,0,0-.736-.308c-.608.016-1.218.009-1.827,0a3.291,3.291,0,0,1-.443-6.548,8.825,8.825,0,0,1,1.3-.064h7.778m.019,2.317h-7.26c-.47,0-.941-.013-1.41.012a.974.974,0,0,0-.971.911,1.015,1.015,0,0,0,.8,1.07,2.257,2.257,0,0,0,.518.041l16.608,0a1.766,1.766,0,0,0,.815-.137.938.938,0,0,0,.513-1.093.894.894,0,0,0-.793-.786,3.806,3.806,0,0,0-.625-.021h-8.2m-3.2,4.325c1.064,1.054,2.027,2,2.984,2.959.229.228.365.062.516-.089q1.071-1.07,2.141-2.141c.213-.214.42-.435.7-.729Z" transform="translate(2420.49 1154.257)" fill="#fff"/>
    <path id="Trazado_428" data-name="Trazado 428" d="M28.1,40.424c-2.628,0-5.257.016-7.885,0a4.526,4.526,0,0,1-1.189-8.912.631.631,0,0,0,.572-.74,5.086,5.086,0,0,1,5.242-5.081.609.609,0,0,0,.644-.372,6.553,6.553,0,0,1,5.854-3.588,6.7,6.7,0,0,1,6.885,6.592,1.777,1.777,0,0,0,.935,1.775,5.5,5.5,0,0,1,2.251,6.267,5.671,5.671,0,0,1-5.372,4.057c-2.646.027-5.291.006-7.937.007m-.059-2.253c2.489,0,4.978,0,7.467,0a4.585,4.585,0,0,0,1.693-.252,3.39,3.39,0,0,0-.391-6.441c-.963-.271-1.26-.746-1-1.7a4.532,4.532,0,0,0-.093-2.769,4.519,4.519,0,0,0-8.512.035c-.388,1.1-.712,1.274-1.822,1.018a2.812,2.812,0,0,0-3.29,3.825,1.181,1.181,0,0,1-1.2,1.749c-.313.006-.627-.008-.94.012A2.241,2.241,0,0,0,17.951,36.3a2.3,2.3,0,0,0,2.524,1.87c2.524.009,5.047,0,7.571,0" transform="translate(2433.949 1348.65)" fill="#fca701"/>
    <path id="Trazado_429" data-name="Trazado 429" d="M0,242.212q0-4.046,0-8.091a4.588,4.588,0,0,1,.017-.573,1.144,1.144,0,0,1,1.133-1.08,1.1,1.1,0,0,1,1.123,1.019,4.467,4.467,0,0,1,.042.727c0,2.784.014,5.568-.009,8.352,0,.529.157.7.685.68,1.113-.035,2.227-.015,3.34-.009a2.189,2.189,0,0,1,2.424,2.184c.079,1.789.032,3.583.016,5.375a1.119,1.119,0,0,1-.817,1.149,1.052,1.052,0,0,1-1.176-.349,1.488,1.488,0,0,1-.3-1.028c0-1.462-.015-2.924.008-4.385.008-.474-.143-.649-.625-.635-.991.028-1.984.023-2.975,0-.435-.009-.578.16-.573.584.017,1.357.006,2.714.006,4.072,0,.157,0,.314-.006.47-.052.833-.5,1.319-1.187,1.3S.007,251.459,0,250.616c-.008-2.8,0-5.6,0-8.4" transform="translate(2447.392 1167.318)" fill="#fff"/>
    <path id="Trazado_430" data-name="Trazado 430" d="M179.223,242.231q0,4.2,0,8.406c0,.824-.4,1.3-1.083,1.327a1.084,1.084,0,0,1-1.168-1.175c-.012-1.514,0-3.028,0-4.542,0-.7,0-.7-.691-.7q-1.41,0-2.819,0c-.7,0-.706,0-.706.686,0,1.5.007,2.994,0,4.49a1.132,1.132,0,0,1-1.259,1.254,1.081,1.081,0,0,1-.986-1.1c-.014-1.862-.031-3.725.007-5.586a2.2,2.2,0,0,1,2.276-2.062c1.2-.019,2.4-.023,3.6,0,.462.01.6-.145.593-.6-.017-2.958-.011-5.917-.006-8.876,0-.783.406-1.267,1.057-1.3a1.1,1.1,0,0,1,1.191,1.211c.013,1.375,0,2.75,0,4.125q0,2.219,0,4.438" transform="translate(2300.703 1167.328)" fill="#fff"/>
    <path id="Trazado_431" data-name="Trazado 431" d="M2.511,7.642A5.168,5.168,0,0,0,3.585,10.8c.081.113.172.219.253.332a1.134,1.134,0,0,1-.15,1.628A1.151,1.151,0,0,1,2.1,12.567,7.258,7.258,0,0,1,.322,8.737,7.554,7.554,0,0,1,6.566.128,7.319,7.319,0,0,1,13.1,2.122a1.129,1.129,0,0,1,.188,1.739,1.184,1.184,0,0,1-1.754-.1A5.328,5.328,0,0,0,2.614,6.606a9.163,9.163,0,0,0-.1,1.035" transform="translate(2447.181 1367.344)" fill="#fca701"/>
  </g>
</svg>
