<svg xmlns="http://www.w3.org/2000/svg" viewBox="0 0 885.84 448.36"><defs><style>.cls-1{fill:#004a43;}</style></defs><title>Recurso 1icono-new</title><g id="Capa_2" data-name="Capa 2"><g id="Capa_1-2" data-name="Capa 1"><path class="cls-1" d="M885.84,23.06V412.59a35.76,35.76,0,0,1-35.77,35.77H35.77A35.77,35.77,0,0,1,0,412.59V23.06c0-.35,0-.69,0-1,1-.15,2-.1,3-.25,1.48-.19,2.83-.83,4.3-1.09s3.3.07,3.83,1.16a3.64,3.64,0,0,1,4.12-1c.67.3,1.47.82,2.1.42.31-.19.39-.54.67-.78,1.09-.95,3.2.94,4.52.17.81-.47.58-1.65,1.48-2,1.15-.49,2.58.94,3.62.31.67-.39.56-1.37,1.35-1.58s1.21.42,1.61.89c1.28,1.4,4.22,2.69,6.26,1.93a4.51,4.51,0,0,0,3.47-.57,9,9,0,0,1,1.34-.91c1.31-.62,2.93,0,4.21.6a2.43,2.43,0,0,1,2.56-.41,5.48,5.48,0,0,1,2,1.48c-.19-1.63,2-2.84,3.85-3.66L60,14.22a39.42,39.42,0,0,0-3.35,5.71,32.51,32.51,0,0,1,8.81-.18c.18-.75.36-1.51.52-2.27a8.82,8.82,0,0,1,2.6.77,11.28,11.28,0,0,1,.3-2.76l2.33.35a1.41,1.41,0,0,1,.26-1c.41.17.81.33,1.22.48.11-.91,1.4-1.56,2.59-1.58a8.34,8.34,0,0,1,3.27.89,9.64,9.64,0,0,1-.62-3.75,1.83,1.83,0,0,1,.49-1.35,3.55,3.55,0,0,1,2-.51l5.44-.21c1.22,0,2.73-.23,3.21-1.13.27-.47.34-1.17,1-1.25a1.25,1.25,0,0,1,.69.18,13.65,13.65,0,0,1,2.71,1.66c1.34-.67,2.71-1,4-1.72.27-1.11,2.38-1,3.62-.46s3.09,1,3.85,0c.26-.34.36-.86.86-.94a1.16,1.16,0,0,1,.82.29L108.79,7a3.9,3.9,0,0,1,3.68,0c.2-.5.39-1,.58-1.51A1.74,1.74,0,0,0,115,5.8c.89,1,2.77,1.07,4.37,1,4.35-.11,9-.33,12.49-2.51a2.07,2.07,0,0,1,1.47-.48,1.4,1.4,0,0,1,.78.73c1.53,2.71,3.55,5.74,7.25,6.3a3.91,3.91,0,0,1,.33-2.72c1.1.91,2.22,1.85,3.31,2.78.43-.45.88-.88,1.31-1.31.62.42,1.26.83,1.9,1.25.85-1,2.67-.72,4.14-.64a9.86,9.86,0,0,0,6.29-1.8,7.41,7.41,0,0,0,1.4,3.75,5.93,5.93,0,0,1,6.21-1A15.81,15.81,0,0,0,168,12c2.59.79,5.08-1.57,7.85-2,1.41-.2,2.84.12,4.25,0s2.87-1.31,2.28-2.32c2.67.48,5.83,1.32,6.31,3.45.31-.63.62-1.26.95-1.87a3.25,3.25,0,0,1,1.76,1c.41-.83,2-.83,2.87-.27a10.91,10.91,0,0,1,1.85,2.17,2.7,2.7,0,0,0,2.85.9c1.14-.47,1.44-1.94,2.71-2.07,1.52-.15,2.72,2,4,1.23.48-.31.51-.9.87-1.28.92-.91,2.74,0,3.22,1.1s.56,2.4,1.81,2.93c1,.39,2.19.08,3.31,0s3.09.75,2.86,1.62a4,4,0,0,0,2.69.4c.9-.26,1.51-1.22,1-1.82a43.27,43.27,0,0,1,13.22-1.38c1.48.09,3.11.19,4.29-.55.63-.38,1.06-1,1.84-1.13,1.58-.3,2.2,1.53,3.46,2.3,1.66,1,4.11,0,6-.91A61.7,61.7,0,0,1,264.94,8.4c.16-1.45.31-2.9.46-4.33a5.79,5.79,0,0,1,2.69.92c-.1-.39-.19-.8-.29-1.2a2.13,2.13,0,0,0,1.35.17c.23-1.31.46-2.64.71-4,1.82,1.62,3.7,3.2,5.62,4.72a3.84,3.84,0,0,0,1.39.8c1.54.41,3.2-.72,4.8-.51a3.38,3.38,0,0,1,2.58,2.26,8.28,8.28,0,0,0,1.46,3c1,1,2.73,1.39,4.34,1.71l17.22,3.49a2.67,2.67,0,0,0,1.05.07c.93-.15,1.5-1.15,2.41-1s1,1.17,1.65,1.75c1.28,1.17,4.23-.13,5.83.77a4.6,4.6,0,0,1,4,2.19,1.59,1.59,0,0,1,2.08-.31l1.46-1.47c-.44,1,1,2.15,2.28,1.8.86-.22,1.42-.9,2.22-1.21a3.49,3.49,0,0,1,4,1.37,6,6,0,0,1,.36,3.85c1.63,1.18,4.37-.2,6.51.25,1.26.24,2.19,1.1,3.45,1.33a11.12,11.12,0,0,0,3.52-.31c1.17-.18,2.58-.12,3.22.65,1,1.19-.25,3.45,1.45,3.93.35.11.75.08,1.11.16A1.57,1.57,0,0,1,355,31.14a5,5,0,0,1-1.49,2.07,3.11,3.11,0,0,0,3.68-.6c.75-1,.54-2.5,1.84-3,.87-.34,2,0,2.73-.43a1.81,1.81,0,0,0,.77-1.44c.2-1.33.4-2.63.59-4a11.56,11.56,0,0,0,4.47,3.61c.89-.56.42-2.07,1.51-2.22.56-.08,1,.34,1.51.53a3.31,3.31,0,0,0,3-.87,7.12,7.12,0,0,1,2.88-1.48,6.66,6.66,0,0,0,4.4-.59,7,7,0,0,1,2-1c1.3-.25,2.62.8,2.3,1.81a5.91,5.91,0,0,1,4.58,2.19c1.1,1.18,2.11,2.53,3.82,3.12s4.35-.29,4.25-1.77c.21.73,1.61.65,2.33.16s1.16-1.27,2-1.62a3.38,3.38,0,0,1,2.94.29,6.54,6.54,0,0,1,1.89,1.93c2.37-.93,5.05-1.66,7.55-1.14,1.48.28,3.36.91,4.33-.06.62-.61.5-1.69,1.4-2a3,3,0,0,1,1.78.12,9.38,9.38,0,0,0,5-.22,10.23,10.23,0,0,1-1.37,3.64,12.36,12.36,0,0,0,8.39.49,2.73,2.73,0,0,1,2-.14c.67.36.53,1.2,1.1,1.65a2.52,2.52,0,0,0,1.16.37l4.09.65a8.87,8.87,0,0,0,3,.15c1.38-.23,3.09-1,3.92-.14-.19-.27.19-.62.57-.66a2.08,2.08,0,0,1,1.13.27q1.06.51,2.13,1C453,30.78,455.08,30,456,30.71c-.18-.73,1.17-1.19,2.05-.95s1.53.87,2.39,1.18a4.82,4.82,0,0,0,4-.5,6.19,6.19,0,0,0,2.38-2.74,2.08,2.08,0,0,1,1.1-1.23c1.35-.47,3.18,1.77,4.62,1.57l3.55-.51a2.87,2.87,0,0,1,1.45-3.71c.66-.34,1.52-.6,1.81-1.17.45-.9-.74-2-.08-2.76a6.59,6.59,0,0,1,3.43.5,6.42,6.42,0,0,0,1.82.75,4.82,4.82,0,0,0,1.77-.19c2.59-.6,5.27-1.22,7.37-2.6,1.43-.94,2.84-2.27,4.64-2.08,1.09.12,1.91.8,2.94,1.09a8.39,8.39,0,0,0,3.38-.06l6.1-.94c2.07-.33,4.27-.69,5.79-1.88a4.32,4.32,0,0,1,1-.7c1.16-.54,2.51.09,3.64.59s2.86.75,3.54-.13a5.51,5.51,0,0,1,.45-.75c.64-.71,2-.42,2.94-.07a2.31,2.31,0,0,1,.51-1.42c1.31-.43,2,1.38,3.42,1.52.9.08,1.62-.59,2.34-1a6.62,6.62,0,0,1,5.95-.48,6.58,6.58,0,0,1,.38-3.16c1.58.29,2.52,2.15,4.08,1.73S545.67,8,546.9,7a2.47,2.47,0,0,1,2.77.07,2,2,0,0,1,.67,2.23,6.47,6.47,0,0,1,2.77-.43c.94.12,1.79.84,1.5,1.58S553,12,553.7,12.55a1.57,1.57,0,0,0,1.16.07,7.53,7.53,0,0,0,2.87-1.31,2.42,2.42,0,0,0,2.16,1.78,2.94,2.94,0,0,0,2.8-.94c-.85-.24-.56-1.34.25-1.67a4.56,4.56,0,0,1,2.63.1c.15-.39.32-.78.45-1.19l3.6-.11c0-.5.11-1,.13-1.48l3.87,1.7a9,9,0,0,1,2-2.63,4.52,4.52,0,0,1,3.51-1c1.37.26,2.7,1.35,3.91.74.83-.42.9-1.43,1.7-1.91a2.65,2.65,0,0,1,2.54.24c.69.46,1.15,1.08,1.82,1.57a6,6,0,0,0,5.43.63c-1-.45-.19-1.81.9-2.25a7.09,7.09,0,0,1,5-.09,8,8,0,0,0,1.88.65,5.21,5.21,0,0,0,3.51-1.24,5.16,5.16,0,0,0,1.21,2.17c1.05-.48,2.1-1,3.16-1.44.59,2.54,4.59,4.08,7.65,3,1.38-.46,2.86.26,4,.94l6.58,3.87a11.43,11.43,0,0,0,3.35,1.51,4.57,4.57,0,0,0,3.69-.68c.7-.6,1-1.54,2-1.78a2.88,2.88,0,0,1,2.21.57,9.24,9.24,0,0,1,3.2,3.46c1-.47,2.1-.92,3.13-1.37a1.92,1.92,0,0,1,1.21-.25c1.15.23.7,1.94,1.84,2.17.75-1.14,2.77-1.21,4.36-1.11l7.37.47a24.59,24.59,0,0,0,.57-4.33,11.42,11.42,0,0,1,3.74,2.8c2.21-.55,3.83-2,5.75-3s4.86-1.43,6.22,0c0-.49.11-1,.16-1.47,2.05.92,4.93,1.75,6.59.35.63-.53,1-1.35,1.9-1.54s2.13.56,3,.07c.37-.22.52-.61.8-.87.69-.67,2-.53,3-.21a6,6,0,0,0,3,.62c.84-.15,1.51-.72,2.35-.87,1.34-.24,2.47.62,3.58,1.21,2.44,1.31,5.61,1.48,8.61,1.62a15.42,15.42,0,0,0,5.39-.41c1.28-.42,2.37-1.17,3.69-1.5s2.68.83,3.55,1.64c1.2,1.15,3.64.35,5.25-.55s3.84-1.86,5.28-.88q.28-1.35.54-2.7a5.23,5.23,0,0,0,4.31-1.2c-.34,1.45,1.52,2.71,3.37,2.66A7.2,7.2,0,0,0,746.11,5a3.69,3.69,0,0,1,.46,2.91,5.21,5.21,0,0,0,3.19-.69A3.69,3.69,0,0,1,751,9.54c1.75.1,3.4-1.35,3.1-2.71a2.63,2.63,0,0,0,1.6.42c.58-.08,1-.76.51-1,3.07,2,7.78.31,11.85.11,3.84-.19,7.67,1.09,11.45.42,1.46-.26,2.82-.79,4.3-1a8.11,8.11,0,0,1,5.75,1.43c1.28,1,2.82,2.53,4.42,1.8a3.06,3.06,0,0,1,.41-3.88,5.48,5.48,0,0,1,4.66-1.43,9,9,0,0,1-1.8-3.65c2.94-.57,4.7,2.88,7.7,3,1.53.07,3.6-.61,4.28.46.28.44.13,1,.34,1.43.45.86,2.12.9,3,.29a4.44,4.44,0,0,0,1.66-2.48,43.14,43.14,0,0,0,7.19,9,6,6,0,0,1,5.69,1.2,5.76,5.76,0,0,0,1.3,1.21,4.72,4.72,0,0,0,1.93.3c2.61,0,5.23,0,7.84,0-.36-.84-.66-1.93.25-2.48a3.34,3.34,0,0,1,1.9-.27c4.78.27,9.55.75,14.26,1.43a6.07,6.07,0,0,1,3,1,28.87,28.87,0,0,1,4.17-1.94c1.2-.39,2.38-.8,3.58-1.21a2.36,2.36,0,0,1,1.08-.17,1.61,1.61,0,0,1,1.1.94c.8,1.4,2.31,2.92,4.25,2.6a18.69,18.69,0,0,1,1.89-.48c1.65-.14,2.59,1.35,3.08,2.59,2.59-.09,5.16,0,7.73.12a15.92,15.92,0,0,0,.64,5.94,4.89,4.89,0,0,0,.66-.05C885.84,22.64,885.84,22.86,885.84,23.06Z"/></g></g></svg>