<svg xmlns="http://www.w3.org/2000/svg" viewBox="0 0 633.39 452.76"><defs><style>.cls-1{fill:#141c23;}</style></defs><title>Recurso 3icono-new</title><g id="Capa_2" data-name="Capa 2"><g id="Capa_1-2" data-name="Capa 1"><path class="cls-1" d="M633.39,15.72V428.38c0,13.47-11.45,24.38-25.58,24.38H25.58C11.46,452.76,0,441.85,0,428.38V15.72c0-.24,0-.47,0-.7.7-.1,1.41-.07,2.11-.17,1.06-.13,2-.56,3.08-.74s2.35.05,2.73.79a2.71,2.71,0,0,1,3-.7c.48.21,1.06.56,1.5.29.23-.13.29-.37.48-.53.78-.65,2.29.64,3.23.11.59-.31.42-1.12,1.06-1.38.82-.34,1.84.64,2.59.21.48-.27.4-.94,1-1.07s.86.28,1.15.6a4.92,4.92,0,0,0,4.47,1.32,3.45,3.45,0,0,0,2.49-.39,5.54,5.54,0,0,1,1-.62,3.92,3.92,0,0,1,3,.4,1.84,1.84,0,0,1,1.83-.28,3.94,3.94,0,0,1,1.41,1c-.13-1.12,1.41-1.94,2.76-2.5L42.88,9.7a25.19,25.19,0,0,0-2.4,3.89,24.17,24.17,0,0,1,6.3-.12c.13-.51.25-1,.37-1.55a6.56,6.56,0,0,1,1.86.53,7.66,7.66,0,0,1,.21-1.89l1.67.24a.94.94,0,0,1,.18-.66l.88.32c.08-.62,1-1.07,1.85-1.08a6.19,6.19,0,0,1,2.34.61,6.24,6.24,0,0,1-.44-2.55,1.17,1.17,0,0,1,.35-.92,2.61,2.61,0,0,1,1.45-.36c1.29,0,2.59-.09,3.88-.14.88,0,2-.15,2.3-.77.2-.32.24-.79.7-.85a1.06,1.06,0,0,1,.5.12,11.2,11.2,0,0,1,1.94,1.13c1-.45,1.93-.71,2.89-1.17.19-.76,1.7-.67,2.59-.31s2.21.69,2.75,0c.19-.24.26-.59.62-.64a.86.86,0,0,1,.58.19c.52.34,1,.69,1.54,1a2.9,2.9,0,0,1,2.63,0l.42-1A1.26,1.26,0,0,0,82.21,4c.63.69,2,.74,3.12.7,3.11-.07,6.47-.22,8.93-1.71a1.51,1.51,0,0,1,1-.32,1,1,0,0,1,.56.49C97,5,98.41,7,101.06,7.41a2.58,2.58,0,0,1,.23-1.86l2.37,1.89c.31-.3.63-.59.93-.89l1.36.86c.61-.67,1.91-.49,3-.44a7.38,7.38,0,0,0,4.5-1.22,4.92,4.92,0,0,0,1,2.55,4.42,4.42,0,0,1,4.44-.71,11.8,11.8,0,0,0,1.3.6c1.85.54,3.63-1.08,5.61-1.35,1-.14,2,.08,3,0s2.06-.89,1.64-1.57c1.91.32,4.17.9,4.51,2.34l.68-1.27a2.32,2.32,0,0,1,1.25.69c.3-.57,1.46-.57,2.06-.19a7.43,7.43,0,0,1,1.32,1.49,2,2,0,0,0,2,.61c.82-.32,1-1.33,1.94-1.41,1.09-.1,1.94,1.36,2.84.84.34-.22.36-.62.62-.88.65-.62,2,0,2.3.76s.4,1.63,1.29,2a6.27,6.27,0,0,0,2.37,0c.82,0,2.21.51,2,1.1a2.92,2.92,0,0,0,1.93.27c.64-.17,1.08-.82.69-1.23a32.32,32.32,0,0,1,9.46-.95,5.45,5.45,0,0,0,3.06-.37c.45-.26.76-.68,1.32-.77,1.13-.2,1.57,1,2.47,1.57,1.19.7,2.94,0,4.26-.62a45.79,45.79,0,0,1,10.56-3.5c.11-1,.22-2,.33-3a4.16,4.16,0,0,1,1.92.63l-.21-.82a1.59,1.59,0,0,0,1,.11c.16-.89.33-1.8.5-2.7,1.31,1.1,2.65,2.18,4,3.22a3,3,0,0,0,1,.55c1.1.28,2.28-.49,3.43-.35A2.36,2.36,0,0,1,203.24,5a5.79,5.79,0,0,0,1,2,6.32,6.32,0,0,0,3.1,1.17l12.32,2.38a2.1,2.1,0,0,0,.75,0c.66-.1,1.07-.78,1.72-.7s.72.79,1.18,1.18c.91.8,3-.08,4.16.53a3.31,3.31,0,0,1,2.83,1.5,1.18,1.18,0,0,1,1.49-.22l1-1c-.31.7.71,1.47,1.63,1.23.62-.15,1-.62,1.59-.83a2.56,2.56,0,0,1,2.88.94,3.9,3.9,0,0,1,.26,2.63c1.16.79,3.12-.14,4.65.16.91.17,1.57.75,2.47.91a8.24,8.24,0,0,0,2.51-.21,2.72,2.72,0,0,1,2.31.44c.72.81-.18,2.35,1,2.68.26.07.54.05.8.11a1.06,1.06,0,0,1,.84,1.3,3.36,3.36,0,0,1-1.06,1.41,2.29,2.29,0,0,0,2.63-.41c.53-.67.39-1.7,1.31-2,.62-.23,1.41,0,2-.3a1.17,1.17,0,0,0,.54-1c.15-.9.3-1.79.43-2.7a8.26,8.26,0,0,0,3.2,2.46c.63-.39.3-1.42,1.08-1.52.4-.05.72.23,1.08.36a2.41,2.41,0,0,0,2.16-.59,5.16,5.16,0,0,1,2.06-1,5,5,0,0,0,3.15-.4,5,5,0,0,1,1.43-.66c.92-.17,1.87.55,1.64,1.23a4.28,4.28,0,0,1,3.27,1.5,6.87,6.87,0,0,0,2.74,2.13c1.24.39,3.11-.2,3-1.21.14.5,1.15.44,1.66.11s.83-.86,1.42-1.1a2.55,2.55,0,0,1,2.11.19A4.73,4.73,0,0,1,291.05,19a10.24,10.24,0,0,1,5.39-.78c1.06.19,2.41.62,3.1,0,.45-.42.36-1.15,1-1.39a2.25,2.25,0,0,1,1.28.08,6.91,6.91,0,0,0,3.58-.15,6.92,6.92,0,0,1-1,2.48,9.28,9.28,0,0,0,6,.34,2.1,2.1,0,0,1,1.45-.1c.47.25.38.82.78,1.13a2,2,0,0,0,.83.25l2.92.44a6.72,6.72,0,0,0,2.14.11c1-.16,2.21-.68,2.81-.1-.14-.18.13-.42.41-.45a1.55,1.55,0,0,1,.8.18c.51.24,1,.46,1.52.68-.14-.72,1.32-1.29,2-.77-.13-.5.84-.82,1.47-.65s1.09.59,1.7.81a3.63,3.63,0,0,0,2.84-.35,4.32,4.32,0,0,0,1.7-1.86,1.49,1.49,0,0,1,.79-.85c1-.31,2.27,1.21,3.3,1.08l2.54-.35a1.92,1.92,0,0,1,1-2.53c.48-.23,1.09-.4,1.3-.79.32-.62-.53-1.34-.06-1.89a5,5,0,0,1,2.45.34,4.76,4.76,0,0,0,1.31.51,3.58,3.58,0,0,0,1.26-.12A16.9,16.9,0,0,0,353,12.51c1-.64,2-1.55,3.32-1.42a15.38,15.38,0,0,1,2.1.74,6.17,6.17,0,0,0,2.42,0c1.45-.23,2.91-.43,4.36-.64a9.56,9.56,0,0,0,4.14-1.28,3,3,0,0,1,.71-.49,3.46,3.46,0,0,1,2.6.41c.8.35,2,.51,2.53-.09a3.68,3.68,0,0,1,.32-.51c.46-.48,1.42-.29,2.1,0a1.52,1.52,0,0,1,.37-1c.94-.3,1.45.93,2.45,1a2.92,2.92,0,0,0,1.67-.72,4.92,4.92,0,0,1,4.25-.32A4.22,4.22,0,0,1,386.58,6c1.13.2,1.8,1.47,2.91,1.18s.67-1.75,1.56-2.41a1.82,1.82,0,0,1,2,0,1.34,1.34,0,0,1,.48,1.52,4.85,4.85,0,0,1,2-.3c.67.08,1.27.58,1.07,1.08s-1.17,1.06-.66,1.42a1.12,1.12,0,0,0,.83,0,5.38,5.38,0,0,0,2.06-.89,1.7,1.7,0,0,0,1.54,1.22,2.16,2.16,0,0,0,2-.64c-.6-.17-.4-.92.18-1.14a3.36,3.36,0,0,1,1.88.06c.11-.26.23-.53.32-.81l2.58-.07c0-.34.07-.68.09-1l2.77,1.16a6.21,6.21,0,0,1,1.43-1.79A3.28,3.28,0,0,1,414.09,4c1,.17,1.93.92,2.79.5.6-.29.65-1,1.22-1.3a1.94,1.94,0,0,1,1.81.16c.5.31.83.74,1.31,1.07a4.44,4.44,0,0,0,3.88.43c-.75-.3-.13-1.23.64-1.53a5.31,5.31,0,0,1,3.6-.06,5.85,5.85,0,0,0,1.34.44,3.88,3.88,0,0,0,2.51-.84,3.48,3.48,0,0,0,.87,1.47l2.26-1c.42,1.73,3.28,2.78,5.47,2.07a3.74,3.74,0,0,1,2.87.64l4.7,2.63a8.18,8.18,0,0,0,2.4,1,3.37,3.37,0,0,0,2.64-.46c.5-.41.75-1.05,1.45-1.22a2.18,2.18,0,0,1,1.57.39,6.44,6.44,0,0,1,2.29,2.36L462,9.9a1.4,1.4,0,0,1,.87-.17c.82.16.49,1.33,1.31,1.48.54-.78,2-.82,3.12-.76l5.26.33a15.06,15.06,0,0,0,.41-3,8.34,8.34,0,0,1,2.68,1.91c1.58-.37,2.74-1.39,4.11-2.08s3.47-1,4.45,0c0-.33.08-.67.12-1,1.46.63,3.52,1.19,4.71.24.45-.36.72-.92,1.35-1s1.53.38,2.11,0c.27-.15.37-.42.58-.6a2.33,2.33,0,0,1,2.12-.14,4.54,4.54,0,0,0,2.16.42c.61-.1,1.08-.49,1.69-.59a4.27,4.27,0,0,1,2.56.82c1.74.89,4,1,6.15,1.11a11.77,11.77,0,0,0,3.85-.28c.92-.29,1.7-.8,2.64-1s1.92.56,2.54,1.11c.86.79,2.6.24,3.75-.37s2.75-1.27,3.78-.6c.14-.62.26-1.23.39-1.84a3.87,3.87,0,0,0,3.08-.82c-.25,1,1.09,1.85,2.41,1.81a5.29,5.29,0,0,0,3.33-1.48,2.41,2.41,0,0,1,.33,2,3.85,3.85,0,0,0,2.28-.47,2.45,2.45,0,0,1,.88,1.6c1.26.06,2.44-.92,2.22-1.85a2,2,0,0,0,1.14.29c.42-.06.7-.52.37-.7,2.19,1.38,5.56.21,8.47.08,2.75-.13,5.49.74,8.19.28,1-.17,2-.54,3.08-.65a6.05,6.05,0,0,1,4.11,1c.91.67,2,1.72,3.16,1.22A2,2,0,0,1,568,3.52a4.1,4.1,0,0,1,3.33-1A6,6,0,0,1,570.05.06c2.1-.39,3.36,2,5.5,2.06,1.1,0,2.58-.42,3.06.31.2.3.09.67.25,1,.32.58,1.51.61,2.17.19a3.1,3.1,0,0,0,1.19-1.69A29.43,29.43,0,0,0,587.36,8a4.41,4.41,0,0,1,4.07.82,3.81,3.81,0,0,0,.92.82,3.51,3.51,0,0,0,1.38.21c1.87,0,3.74,0,5.61,0-.26-.58-.47-1.32.18-1.69A2.54,2.54,0,0,1,600.88,8c3.42.19,6.83.51,10.19,1a4.51,4.51,0,0,1,2.17.66,20.43,20.43,0,0,1,3-1.32l2.56-.83a2.07,2.07,0,0,1,.77-.12,1.15,1.15,0,0,1,.79.64,3.17,3.17,0,0,0,3,1.78c.47-.08.89-.3,1.35-.33,1.18-.09,1.85.92,2.2,1.76,1.85,0,3.69,0,5.53.09a10.25,10.25,0,0,0,.46,4,3.7,3.7,0,0,0,.47,0C633.39,15.44,633.39,15.58,633.39,15.72Z"/></g></g></svg>