<?xml version="1.0" encoding="utf-8"?>
<!-- Generator: Adobe Illustrator 23.0.1, SVG Export Plug-In . SVG Version: 6.00 Build 0)  -->
<svg version="1.1" id="Capa_1" xmlns="http://www.w3.org/2000/svg" xmlns:xlink="http://www.w3.org/1999/xlink" x="0px" y="0px"
	 viewBox="0 0 171.75 42.69" style="enable-background:new 0 0 171.75 42.69;" xml:space="preserve">
<g>
	<path style="fill:#FFFFFF;" d="M18.82,25.03l-1,0.62c-1.19,0.63-1.97,1.84-2.05,3.18v10.79h5.29L19,26.21L18.82,25.03z"/>
	<path style="fill:#FFFFFF;" d="M14.69,28.78c0.11-1.69,1.09-3.21,2.59-4l1.38-0.76l-2.55-16.6c-0.19-1.09-1.16-1.87-2.27-1.81H9.39
		c-1.1-0.07-2.07,0.7-2.26,1.78L2,39.62h12.69V28.78z"/>
	<path style="fill:#FFFFFF;" d="M24.87,39.62h8.8V17.85c0-0.06,0-0.12,0-0.17s0,0,0,0v-0.2l0,0c0-0.04,0-0.09,0-0.13l0,0l-0.06-0.12
		l0,0l-0.09-0.11l0,0l-0.09-0.07l0,0h-0.09H33l-0.19,0.08l-6.19,3.55l-8.87,5c-0.36,0.19-0.7,0.44-1,0.72
		c-0.3,0.29-0.55,0.63-0.74,1l-0.11,0.22c-0.04,0.15-0.08,0.31-0.1,0.47c-0.03,0.24-0.03,0.49,0,0.73v10.8H24.87z"/>
	<path style="fill:#FFFFFF;" d="M56.37,39.5h-1.6l-0.29,1h-0.61l1.38-4.22h0.68l1.37,4.2h-0.63L56.37,39.5z M54.93,39h1.28
		l-0.62-2.15L54.93,39z"/>
	<path style="fill:#FFFFFF;" d="M57.78,39.93c0.23,0.09,0.48,0.14,0.73,0.14h0.25c0.08-0.01,0.15-0.04,0.22-0.08
		c0.06-0.04,0.1-0.09,0.14-0.15c0.06-0.06,0.09-0.14,0.09-0.22c0.01-0.06,0.01-0.13,0-0.19c-0.03-0.05-0.07-0.1-0.12-0.13
		c-0.05-0.04-0.11-0.07-0.17-0.1l-0.2-0.07l-0.21-0.08c-0.2-0.06-0.39-0.17-0.55-0.31c-0.11-0.13-0.17-0.31-0.16-0.48
		c-0.01-0.24,0.1-0.47,0.28-0.62c0.25-0.17,0.54-0.25,0.84-0.24c0.15,0,0.3,0.02,0.44,0.05c0.13,0.02,0.26,0.06,0.39,0.1l-0.06,0.2
		c-0.02,0.08-0.05,0.15-0.08,0.22l-0.31-0.09c-0.12-0.03-0.25-0.05-0.38-0.05c-0.13,0-0.27,0.03-0.39,0.08
		c-0.11,0.05-0.18,0.15-0.17,0.27c0.01,0.07,0.04,0.14,0.08,0.2l0.11,0.11c0.05,0.04,0.11,0.07,0.17,0.09l0.2,0.07l0.25,0.09
		c0.09,0.03,0.18,0.06,0.27,0.11c0.08,0.04,0.16,0.09,0.22,0.16c0.06,0.07,0.11,0.15,0.15,0.24c0.09,0.23,0.09,0.49,0,0.72
		c-0.05,0.12-0.14,0.23-0.24,0.31c-0.12,0.09-0.25,0.16-0.4,0.2c-0.16,0.05-0.33,0.07-0.5,0.07c-0.16,0.01-0.33,0.01-0.49,0
		c-0.13-0.02-0.26-0.06-0.39-0.11c-0.02-0.08-0.02-0.15,0-0.23C57.79,40.12,57.79,40.02,57.78,39.93z"/>
	<path style="fill:#FFFFFF;" d="M61.75,40.55c-0.21,0-0.42-0.04-0.62-0.12c-0.17-0.08-0.32-0.19-0.44-0.33
		c-0.12-0.15-0.21-0.32-0.27-0.5c-0.11-0.41-0.11-0.83,0-1.24c0.06-0.18,0.15-0.35,0.27-0.5c0.12-0.14,0.27-0.26,0.44-0.34
		c0.4-0.16,0.84-0.16,1.24,0c0.35,0.16,0.6,0.47,0.7,0.84c0.12,0.4,0.12,0.84,0,1.24c-0.05,0.18-0.14,0.35-0.26,0.5
		c-0.12,0.14-0.27,0.25-0.44,0.33C62.17,40.51,61.96,40.55,61.75,40.55z M61.75,40.08c0.24,0.02,0.48-0.09,0.62-0.29
		c0.26-0.51,0.26-1.12,0-1.63c-0.13-0.21-0.38-0.32-0.62-0.29c-0.25-0.03-0.49,0.08-0.62,0.29c-0.26,0.51-0.26,1.12,0,1.63
		C61.26,40,61.51,40.11,61.75,40.08z"/>
	<path style="fill:#FFFFFF;" d="M65.92,39.95c0.04,0.06,0.07,0.13,0.08,0.2c0.01,0.09,0.01,0.17,0,0.26
		c-0.25,0.09-0.52,0.14-0.79,0.14c-0.42,0.03-0.83-0.13-1.13-0.43c-0.27-0.32-0.41-0.73-0.38-1.14c-0.01-0.21,0.03-0.42,0.09-0.62
		c0.11-0.37,0.38-0.68,0.74-0.84c0.2-0.08,0.41-0.12,0.62-0.12h0.44l0.36,0.09c0.01,0.08,0.01,0.15,0,0.23
		c-0.02,0.08-0.04,0.16-0.08,0.23c-0.21-0.07-0.44-0.1-0.66-0.1c-0.26-0.02-0.51,0.1-0.67,0.3c-0.16,0.23-0.24,0.51-0.22,0.79
		c-0.03,0.3,0.06,0.59,0.25,0.82c0.18,0.18,0.43,0.27,0.69,0.26h0.33C65.7,40.01,65.81,39.99,65.92,39.95z"/>
	<path style="fill:#FFFFFF;" d="M66.89,37.92h-0.4v-0.45h1v3h-0.57L66.89,37.92z M66.76,36.78v-0.6h0.62c0.01,0.05,0.01,0.1,0,0.15
		v0.3c0.01,0.05,0.01,0.1,0,0.15L66.76,36.78z"/>
	<path style="fill:#FFFFFF;" d="M70,38.49c0.01-0.18-0.05-0.35-0.18-0.48c-0.15-0.1-0.33-0.14-0.51-0.13
		c-0.13-0.01-0.25-0.01-0.38,0c-0.12,0.02-0.24,0.05-0.35,0.09c-0.08-0.14-0.12-0.3-0.11-0.46c0.14-0.05,0.29-0.08,0.44-0.1
		c0.15-0.02,0.31-0.02,0.46,0c0.32-0.02,0.64,0.07,0.89,0.27c0.22,0.22,0.33,0.54,0.3,0.85v1.85l-0.49,0.1
		c-0.21,0.02-0.42,0.02-0.63,0c-0.17,0.02-0.34,0.02-0.51,0c-0.14-0.02-0.27-0.08-0.39-0.16c-0.11-0.08-0.2-0.18-0.25-0.3
		c-0.07-0.14-0.1-0.29-0.09-0.44c-0.01-0.3,0.13-0.59,0.38-0.76c0.12-0.09,0.26-0.15,0.4-0.19c0.16-0.04,0.32-0.06,0.48-0.06H70
		V38.49z M70,39.06h-0.46c-0.19-0.01-0.38,0.04-0.55,0.14c-0.13,0.09-0.2,0.25-0.19,0.41c-0.01,0.09,0.01,0.19,0.06,0.27
		c0.04,0.07,0.09,0.12,0.16,0.16c0.07,0.03,0.14,0.05,0.21,0.06h0.51c0.08,0.01,0.17,0.01,0.25,0L70,39.06z"/>
	<path style="fill:#FFFFFF;" d="M73.44,39.95c0.04,0.06,0.07,0.13,0.08,0.2c0.01,0.09,0.01,0.17,0,0.26
		c-0.25,0.09-0.52,0.14-0.79,0.14c-0.42,0.03-0.83-0.13-1.13-0.43c-0.27-0.32-0.41-0.73-0.38-1.14c-0.01-0.21,0.03-0.42,0.09-0.62
		c0.11-0.37,0.38-0.68,0.74-0.84c0.2-0.08,0.41-0.12,0.62-0.12h0.44l0.36,0.09c0.01,0.08,0.01,0.15,0,0.23
		c-0.02,0.08-0.04,0.16-0.08,0.23c-0.21-0.07-0.44-0.1-0.66-0.1c-0.26-0.02-0.51,0.1-0.67,0.3c-0.16,0.23-0.24,0.51-0.22,0.79
		c-0.03,0.3,0.06,0.59,0.25,0.82c0.18,0.18,0.43,0.27,0.69,0.26h0.33C73.22,40.01,73.33,39.99,73.44,39.95z"/>
	<path style="fill:#FFFFFF;" d="M74.42,37.92H74v-0.45h1v3h-0.56L74.42,37.92z M74.29,36.78v-0.6h0.62v0.6H74.29z"/>
	<path style="fill:#FFFFFF;" d="M77.15,40.55c-0.21,0-0.42-0.04-0.62-0.12c-0.17-0.08-0.32-0.19-0.44-0.33
		c-0.12-0.14-0.21-0.3-0.27-0.48c-0.11-0.41-0.11-0.83,0-1.24c0.05-0.18,0.14-0.36,0.26-0.5c0.12-0.15,0.27-0.26,0.44-0.34
		c0.4-0.17,0.85-0.17,1.25,0c0.17,0.08,0.32,0.19,0.44,0.34c0.12,0.14,0.21,0.32,0.26,0.5c0.11,0.41,0.11,0.83,0,1.24
		c-0.05,0.18-0.14,0.35-0.26,0.5c-0.12,0.14-0.27,0.25-0.44,0.33C77.57,40.52,77.36,40.56,77.15,40.55z M77.15,40.08
		c0.24,0.02,0.48-0.09,0.62-0.29c0.26-0.51,0.26-1.12,0-1.63c-0.29-0.34-0.8-0.39-1.14-0.1c-0.04,0.03-0.07,0.06-0.1,0.1
		c-0.26,0.51-0.26,1.12,0,1.63C76.66,40,76.91,40.11,77.15,40.08z M77.15,36.97H76.6l0.67-0.75H78L77.15,36.97z"/>
	<path style="fill:#FFFFFF;" d="M79.31,37.47h0.5c-0.01,0.08-0.01,0.15,0,0.23c0.01,0.08,0.01,0.17,0,0.25L80,37.78
		c0.06-0.07,0.13-0.13,0.21-0.18c0.18-0.12,0.4-0.18,0.62-0.18c0.29-0.02,0.57,0.09,0.76,0.3c0.19,0.25,0.28,0.57,0.25,0.88v1.9
		h-0.56v-1.78c0.03-0.22-0.02-0.43-0.13-0.62c-0.09-0.13-0.25-0.21-0.41-0.2c-0.11,0-0.21,0.02-0.31,0.06
		c-0.1,0.04-0.18,0.1-0.25,0.18c-0.08,0.09-0.15,0.2-0.18,0.32c-0.05,0.15-0.08,0.31-0.07,0.47v1.52h-0.59L79.31,37.47z"/>
	<path style="fill:#FFFFFF;" d="M86,36.17h0.57v4.22c-0.16,0.05-0.32,0.08-0.49,0.11c-0.21,0.01-0.42,0.01-0.63,0
		c-0.21,0-0.42-0.02-0.62-0.08c-0.36-0.08-0.66-0.31-0.83-0.64c-0.1-0.23-0.14-0.48-0.13-0.73c-0.01-0.23,0.03-0.45,0.1-0.67
		c0.07-0.19,0.17-0.36,0.31-0.51c0.13-0.15,0.29-0.26,0.47-0.33c0.2-0.09,0.41-0.13,0.63-0.12c0.1-0.01,0.2-0.01,0.3,0h0.27
		L86,36.17z M86,37.97l-0.26-0.07h-0.29c-0.14,0-0.29,0.03-0.42,0.09c-0.11,0.06-0.21,0.14-0.29,0.24
		c-0.08,0.11-0.14,0.23-0.17,0.36c-0.04,0.13-0.06,0.27-0.07,0.41c-0.03,0.29,0.06,0.58,0.26,0.79c0.19,0.17,0.44,0.26,0.7,0.25
		h0.28h0.23L86,37.97z"/>
	<path style="fill:#FFFFFF;" d="M88,39.12c-0.01,0.26,0.07,0.52,0.25,0.72c0.2,0.17,0.46,0.25,0.72,0.23c0.27,0,0.54-0.05,0.79-0.15
		c0.04,0.07,0.06,0.14,0.08,0.21c0.01,0.08,0.01,0.17,0,0.25c-0.14,0.06-0.28,0.1-0.43,0.12c-0.17,0.03-0.34,0.05-0.51,0.05
		c-0.24,0-0.48-0.04-0.7-0.12c-0.37-0.13-0.66-0.43-0.77-0.81c-0.12-0.4-0.12-0.84,0-1.24c0.05-0.19,0.14-0.36,0.26-0.51
		c0.12-0.14,0.27-0.26,0.44-0.34c0.2-0.09,0.41-0.13,0.62-0.13c0.19,0,0.38,0.04,0.55,0.11c0.15,0.07,0.28,0.17,0.39,0.29
		c0.11,0.13,0.19,0.28,0.24,0.44C89.98,38.42,90,38.6,90,38.78v0.33L88,39.12z M89.48,38.68c0.02-0.1,0.02-0.21,0-0.31
		c-0.03-0.09-0.07-0.18-0.13-0.26c-0.06-0.08-0.13-0.14-0.22-0.18c-0.29-0.13-0.63-0.07-0.86,0.15c-0.14,0.17-0.23,0.39-0.23,0.62
		L89.48,38.68z"/>
	<path style="fill:#FFFFFF;" d="M94.11,36.17h0.58v4.22c-0.16,0.05-0.33,0.08-0.5,0.11c-0.21,0.02-0.41,0.02-0.62,0
		c-0.21,0-0.42-0.02-0.62-0.08c-0.38-0.1-0.68-0.37-0.83-0.73c-0.09-0.23-0.14-0.48-0.13-0.73c0-0.23,0.03-0.45,0.11-0.67
		c0.06-0.19,0.17-0.36,0.3-0.51c0.13-0.15,0.3-0.26,0.48-0.33c0.19-0.09,0.41-0.13,0.62-0.12c0.1-0.01,0.21-0.01,0.31,0h0.27
		L94.11,36.17z M94.11,37.97l-0.25-0.07h-0.3c-0.14,0-0.28,0.03-0.41,0.09c-0.12,0.05-0.21,0.14-0.29,0.24
		c-0.08,0.11-0.14,0.23-0.17,0.36c-0.04,0.13-0.07,0.27-0.08,0.41c-0.02,0.29,0.07,0.57,0.26,0.79c0.2,0.17,0.45,0.26,0.71,0.25
		h0.28h0.23L94.11,37.97z"/>
	<path style="fill:#FFFFFF;" d="M96.05,39.12c-0.01,0.26,0.08,0.52,0.26,0.72c0.2,0.16,0.45,0.24,0.71,0.23
		c0.27,0,0.54-0.05,0.79-0.15c0.04,0.07,0.06,0.14,0.08,0.21c0.01,0.08,0.01,0.17,0,0.25c-0.13,0.06-0.27,0.1-0.42,0.12
		c-0.17,0.03-0.34,0.05-0.51,0.05c-0.24,0-0.48-0.04-0.7-0.12c-0.37-0.13-0.66-0.43-0.77-0.81c-0.06-0.2-0.09-0.41-0.08-0.62
		c0-0.21,0.03-0.42,0.08-0.62c0.05-0.19,0.15-0.36,0.27-0.51c0.12-0.15,0.27-0.26,0.44-0.34c0.19-0.09,0.41-0.13,0.62-0.13
		c0.19,0,0.38,0.04,0.55,0.11c0.15,0.07,0.28,0.17,0.39,0.29c0.11,0.13,0.19,0.28,0.24,0.44c0.06,0.18,0.08,0.37,0.08,0.56v0.33
		L96.05,39.12z M97.54,38.68c0.01-0.1,0.01-0.21,0-0.31c-0.03-0.09-0.07-0.18-0.13-0.26c-0.06-0.08-0.13-0.14-0.22-0.18
		c-0.29-0.13-0.63-0.07-0.86,0.15c-0.14,0.17-0.23,0.39-0.23,0.62L97.54,38.68z"/>
	<path style="fill:#FFFFFF;" d="M98.83,39.93c0.23,0.09,0.48,0.14,0.73,0.14h0.26c0.07-0.01,0.15-0.04,0.21-0.08
		c0.06-0.04,0.11-0.09,0.15-0.15c0.02-0.06,0.02-0.13,0-0.19c0.02-0.06,0.02-0.13,0-0.19c-0.03-0.05-0.07-0.1-0.12-0.13
		c-0.05-0.04-0.11-0.07-0.17-0.1l-0.2-0.07l-0.21-0.08c-0.2-0.06-0.39-0.17-0.55-0.31c-0.11-0.13-0.17-0.31-0.16-0.48
		c-0.01-0.24,0.1-0.47,0.28-0.62c0.25-0.17,0.54-0.25,0.84-0.23c0.15-0.02,0.29-0.02,0.44,0c0.13,0.02,0.26,0.06,0.39,0.1v0.17
		c-0.02,0.08-0.05,0.15-0.08,0.22l-0.31-0.09c-0.12-0.03-0.25-0.05-0.38-0.05c-0.13,0-0.27,0.03-0.39,0.08
		c-0.11,0.05-0.17,0.15-0.17,0.27c-0.01,0.05-0.01,0.11,0,0.16c0.03,0.05,0.06,0.09,0.11,0.12c0.05,0.04,0.1,0.07,0.16,0.09
		l0.2,0.07l0.26,0.08c0.09,0.03,0.18,0.07,0.26,0.12c0.08,0.04,0.16,0.09,0.22,0.16c0.06,0.07,0.11,0.15,0.15,0.23
		c0.12,0.36,0.01,0.76-0.28,1c-0.12,0.09-0.25,0.16-0.39,0.2c-0.17,0.04-0.34,0.06-0.51,0.06c-0.16,0.01-0.33,0.01-0.49,0
		c-0.13-0.03-0.26-0.06-0.39-0.11c-0.01-0.08-0.01-0.15,0-0.23C98.73,40.03,98.77,39.97,98.83,39.93z"/>
	<path style="fill:#FFFFFF;" d="M103.14,38.49c0.01-0.18-0.05-0.35-0.18-0.48c-0.15-0.1-0.33-0.14-0.51-0.13
		c-0.13-0.01-0.25-0.01-0.38,0c-0.12,0.02-0.24,0.05-0.35,0.09c-0.08-0.14-0.12-0.3-0.11-0.46c0.14-0.05,0.29-0.08,0.44-0.1
		c0.15-0.02,0.31-0.02,0.46,0c0.32-0.02,0.64,0.07,0.89,0.27c0.22,0.22,0.33,0.54,0.3,0.85v1.85l-0.49,0.1
		c-0.21,0.02-0.42,0.02-0.63,0c-0.17,0.02-0.34,0.02-0.51,0c-0.14-0.02-0.27-0.08-0.39-0.16c-0.11-0.08-0.2-0.18-0.25-0.3
		c-0.07-0.14-0.1-0.29-0.09-0.44c-0.01-0.3,0.13-0.59,0.38-0.76c0.12-0.09,0.26-0.15,0.4-0.19c0.16-0.04,0.32-0.06,0.48-0.06h0.51
		L103.14,38.49z M103.14,39.06h-0.46c-0.19-0.01-0.38,0.04-0.55,0.14c-0.13,0.09-0.2,0.25-0.19,0.41c-0.01,0.09,0.01,0.19,0.06,0.27
		c0.04,0.07,0.09,0.12,0.16,0.16c0.07,0.03,0.14,0.05,0.21,0.06h0.51c0.08,0.01,0.17,0.01,0.25,0L103.14,39.06z"/>
	<path style="fill:#FFFFFF;" d="M104.58,37.47h0.5c-0.02,0.08-0.02,0.15,0,0.23v0.24c0.08-0.14,0.19-0.26,0.32-0.35
		c0.15-0.1,0.33-0.15,0.51-0.15h0.19v0.54H106c-0.1-0.02-0.2-0.02-0.3,0c-0.1,0.03-0.18,0.08-0.25,0.16
		c-0.09,0.08-0.15,0.19-0.19,0.3c-0.05,0.16-0.07,0.33-0.06,0.5v1.49h-0.58L104.58,37.47z"/>
	<path style="fill:#FFFFFF;" d="M106.76,37.47h0.49c-0.02,0.08-0.02,0.15,0,0.23c0.01,0.08,0.01,0.16,0,0.24
		c0.09-0.14,0.2-0.25,0.33-0.35c0.15-0.1,0.33-0.15,0.51-0.15h0.18v0.24c0.01,0.05,0.01,0.1,0,0.15v0.15h-0.15
		c-0.1-0.02-0.2-0.02-0.3,0c-0.1,0.03-0.19,0.08-0.26,0.16c-0.08,0.09-0.14,0.19-0.18,0.3c-0.05,0.16-0.07,0.33-0.07,0.5v1.49h-0.58
		L106.76,37.47z"/>
	<path style="fill:#FFFFFF;" d="M110.07,40.55c-0.21,0-0.42-0.04-0.62-0.12c-0.34-0.14-0.59-0.45-0.66-0.81
		c-0.12-0.4-0.12-0.84,0-1.24c0.05-0.18,0.14-0.36,0.26-0.5c0.12-0.15,0.27-0.26,0.44-0.34c0.4-0.17,0.84-0.17,1.24,0
		c0.17,0.08,0.32,0.19,0.44,0.34c0.12,0.14,0.21,0.32,0.26,0.5c0.12,0.4,0.12,0.84,0,1.24c-0.05,0.18-0.14,0.35-0.26,0.5
		c-0.12,0.14-0.27,0.25-0.44,0.33C110.52,40.53,110.29,40.56,110.07,40.55z M110.07,40.08c0.24,0.02,0.48-0.09,0.62-0.29
		c0.26-0.51,0.26-1.12,0-1.63c-0.13-0.21-0.37-0.32-0.62-0.29c-0.24-0.03-0.49,0.08-0.62,0.29c-0.25,0.51-0.25,1.12,0,1.63
		C109.59,39.99,109.83,40.1,110.07,40.08z"/>
	<path style="fill:#FFFFFF;" d="M112.22,36.17h0.58v3.39c-0.02,0.09-0.02,0.17,0,0.26c0.01,0.05,0.04,0.1,0.08,0.14
		c0.03,0.03,0.07,0.05,0.12,0.06h0.37c0.01,0.15,0.01,0.3,0,0.45c-0.07,0.01-0.13,0.01-0.2,0H113c-0.11,0.01-0.21,0.01-0.32,0
		c-0.09-0.03-0.18-0.08-0.25-0.14c-0.08-0.07-0.14-0.16-0.17-0.26c-0.05-0.12-0.07-0.26-0.07-0.39L112.22,36.17z"/>
	<path style="fill:#FFFFFF;" d="M114,36.17h0.56v3.39c-0.02,0.09-0.02,0.17,0,0.26c0.01,0.05,0.04,0.1,0.08,0.14
		c0.03,0.03,0.07,0.05,0.12,0.06h0.37c0.03,0.15,0.05,0.3,0.05,0.45c-0.07,0.01-0.13,0.01-0.2,0h-0.22c-0.11,0.01-0.21,0.01-0.32,0
		c-0.09-0.03-0.18-0.08-0.25-0.14c-0.08-0.07-0.14-0.16-0.18-0.26c-0.04-0.13-0.06-0.26-0.06-0.39L114,36.17z"/>
	<path style="fill:#FFFFFF;" d="M117.32,38.49c0.01-0.18-0.05-0.35-0.18-0.48c-0.15-0.1-0.33-0.14-0.51-0.13h-0.38
		c-0.12,0.02-0.24,0.05-0.35,0.09c-0.07-0.14-0.11-0.3-0.11-0.46c0.14-0.05,0.29-0.08,0.44-0.1c0.15-0.01,0.31-0.01,0.46,0
		c0.32-0.02,0.64,0.07,0.89,0.27c0.22,0.22,0.33,0.54,0.3,0.85v1.85l-0.49,0.1c-0.21,0.02-0.41,0.02-0.62,0
		c-0.17,0.03-0.35,0.03-0.52,0c-0.14-0.03-0.27-0.08-0.39-0.16c-0.11-0.08-0.2-0.18-0.25-0.3c-0.06-0.14-0.09-0.29-0.09-0.44
		c-0.01-0.3,0.13-0.59,0.38-0.76c0.12-0.09,0.26-0.15,0.41-0.19c0.15-0.04,0.31-0.06,0.47-0.06h0.51L117.32,38.49z M117.32,39.06
		h-0.23L116.87,39c-0.19-0.01-0.38,0.03-0.55,0.13c-0.13,0.09-0.21,0.25-0.2,0.41c0,0.1,0.02,0.19,0.07,0.28
		c0.04,0.06,0.09,0.12,0.16,0.15c0.06,0.04,0.14,0.06,0.21,0.07h0.5h0.26V39.06z"/>
	<path style="fill:#FFFFFF;" d="M120.7,36.17h0.57v4.22c-0.16,0.05-0.32,0.08-0.49,0.11c-0.21,0.01-0.41,0.01-0.62,0
		c-0.21,0-0.42-0.02-0.63-0.08c-0.36-0.11-0.65-0.38-0.79-0.73c-0.09-0.23-0.13-0.47-0.13-0.71c0.01-0.22,0.05-0.44,0.13-0.64
		c0.12-0.39,0.41-0.7,0.78-0.85c0.2-0.08,0.41-0.12,0.62-0.12c0.1-0.01,0.21-0.01,0.31,0c0.09,0.01,0.18,0.03,0.27,0.06L120.7,36.17
		z M120.7,37.97l-0.26-0.07h-0.29c-0.14,0-0.29,0.03-0.42,0.09c-0.11,0.06-0.21,0.14-0.29,0.24c-0.08,0.11-0.14,0.23-0.17,0.36
		c-0.03,0.15-0.03,0.31,0,0.46c-0.03,0.29,0.06,0.58,0.26,0.79c0.19,0.17,0.44,0.26,0.7,0.25h0.28l0.23-0.05L120.7,37.97z"/>
	<path style="fill:#FFFFFF;" d="M123.42,40.55c-0.21,0-0.42-0.04-0.62-0.12c-0.17-0.08-0.32-0.19-0.44-0.33
		c-0.12-0.15-0.21-0.32-0.26-0.5c-0.12-0.4-0.12-0.84,0-1.24c0.1-0.37,0.35-0.68,0.7-0.84c0.4-0.16,0.84-0.16,1.24,0
		c0.17,0.08,0.32,0.2,0.44,0.34c0.12,0.15,0.21,0.32,0.27,0.5c0.11,0.41,0.11,0.83,0,1.24c-0.06,0.18-0.15,0.35-0.27,0.5
		c-0.12,0.14-0.27,0.25-0.44,0.33C123.84,40.51,123.63,40.55,123.42,40.55z M123.42,40.08c0.23,0.01,0.45-0.11,0.58-0.3
		c0.26-0.51,0.26-1.12,0-1.63c-0.29-0.34-0.8-0.39-1.14-0.1c-0.04,0.03-0.07,0.06-0.1,0.1c-0.26,0.51-0.26,1.12,0,1.63
		C122.9,40.01,123.16,40.12,123.42,40.08z"/>
	<path style="fill:#FFFFFF;" d="M125.58,37.47h0.5c-0.01,0.08-0.01,0.15,0,0.23c0.01,0.08,0.01,0.16,0,0.24
		c0.09-0.14,0.2-0.25,0.33-0.35c0.15-0.1,0.33-0.15,0.51-0.15h0.18c0.01,0.04,0.01,0.07,0,0.11v0.13c0.01,0.05,0.01,0.1,0,0.15v0.15
		H127c-0.1-0.02-0.2-0.02-0.3,0c-0.1,0.03-0.19,0.08-0.26,0.16c-0.08,0.09-0.14,0.19-0.18,0.3c-0.05,0.16-0.07,0.33-0.06,0.5v1.49
		h-0.58L125.58,37.47z"/>
	<path style="fill:#FFFFFF;" d="M128.11,39.12c-0.01,0.26,0.08,0.52,0.26,0.72c0.2,0.16,0.45,0.24,0.71,0.23
		c0.27,0,0.54-0.05,0.79-0.15c0.03,0.07,0.06,0.14,0.08,0.21c0.01,0.08,0.01,0.17,0,0.25c-0.13,0.06-0.27,0.1-0.42,0.12
		c-0.17,0.03-0.34,0.05-0.51,0.05c-0.24,0-0.48-0.04-0.7-0.12c-0.37-0.13-0.66-0.43-0.77-0.81c-0.12-0.4-0.12-0.84,0-1.24
		c0.05-0.19,0.14-0.36,0.26-0.51c0.12-0.14,0.27-0.26,0.44-0.34c0.2-0.09,0.41-0.13,0.63-0.13c0.19,0,0.37,0.04,0.54,0.11
		c0.15,0.07,0.29,0.17,0.4,0.29c0.11,0.13,0.19,0.28,0.24,0.44c0.05,0.18,0.08,0.37,0.08,0.56v0.33L128.11,39.12z M129.6,38.68
		c0.02-0.1,0.02-0.21,0-0.31c-0.02-0.1-0.07-0.18-0.13-0.26c-0.05-0.08-0.13-0.14-0.21-0.18c-0.1-0.05-0.21-0.07-0.32-0.07
		c-0.2-0.01-0.4,0.07-0.54,0.22c-0.14,0.17-0.23,0.39-0.23,0.62L129.6,38.68z"/>
	<path style="fill:#FFFFFF;" d="M130.88,39.93c0.23,0.09,0.48,0.14,0.73,0.14h0.26c0.07-0.01,0.15-0.04,0.21-0.08
		c0.06-0.04,0.11-0.09,0.15-0.15c0.04-0.05,0.06-0.12,0.05-0.19c0.02-0.06,0.02-0.13,0-0.19c-0.03-0.05-0.07-0.1-0.12-0.13
		c-0.05-0.04-0.11-0.07-0.17-0.1l-0.2-0.07l-0.21-0.08c-0.21-0.05-0.41-0.16-0.58-0.3c-0.12-0.13-0.18-0.3-0.17-0.48
		c-0.01-0.24,0.1-0.47,0.28-0.62c0.25-0.17,0.54-0.25,0.84-0.23c0.15-0.01,0.3-0.01,0.45,0c0.13,0.02,0.26,0.06,0.38,0.1
		c0,0.08,0,0.16,0,0.24c-0.02,0.07-0.05,0.14-0.08,0.21l-0.31-0.09c-0.13-0.02-0.25-0.02-0.38,0c-0.13-0.01-0.27,0.02-0.39,0.07
		c-0.11,0.05-0.18,0.15-0.17,0.27c0,0.06,0.02,0.12,0.05,0.17c0.03,0.04,0.07,0.08,0.11,0.11c0.05,0.04,0.1,0.07,0.16,0.09l0.2,0.07
		l0.25,0.09c0.09,0.03,0.18,0.07,0.27,0.11c0.08,0.04,0.16,0.09,0.22,0.16c0.06,0.07,0.11,0.15,0.15,0.24
		c0.13,0.36,0.02,0.76-0.28,1c-0.12,0.09-0.25,0.16-0.39,0.2c-0.17,0.05-0.34,0.07-0.51,0.07c-0.16,0.01-0.33,0.01-0.49,0
		c-0.13-0.02-0.26-0.06-0.39-0.11c0.01-0.08,0.03-0.15,0.05-0.23C130.85,40.12,130.86,40.03,130.88,39.93z"/>
	<path style="fill:#FFFFFF;" d="M135.17,37.92h-0.38v-0.45h1v3h-0.56L135.17,37.92z M135,36.78v-0.6h0.65v0.6H135z"/>
	<path style="fill:#FFFFFF;" d="M136.69,37.47h0.49c-0.01,0.08-0.01,0.15,0,0.23v0.25c0.05-0.07,0.11-0.14,0.18-0.2
		c0.06-0.07,0.13-0.13,0.2-0.18c0.19-0.12,0.4-0.18,0.62-0.18c0.29-0.02,0.57,0.09,0.77,0.3c0.18,0.26,0.27,0.57,0.25,0.88v1.9
		h-0.59v-1.75c0.02-0.21-0.03-0.43-0.13-0.62c-0.09-0.13-0.25-0.21-0.41-0.2c-0.11,0-0.21,0.02-0.31,0.06
		c-0.1,0.04-0.18,0.1-0.25,0.18c-0.08,0.09-0.15,0.2-0.18,0.32c-0.05,0.15-0.08,0.31-0.07,0.47v1.52h-0.59L136.69,37.47z"/>
	<path style="fill:#FFFFFF;" d="M140.08,37.47h0.49c-0.02,0.08-0.02,0.15,0,0.23v0.24c0.03-0.07,0.08-0.14,0.13-0.2
		c0.05-0.07,0.11-0.12,0.18-0.17c0.08-0.06,0.16-0.1,0.25-0.13c0.1-0.01,0.21-0.01,0.31,0c0.38-0.04,0.73,0.19,0.84,0.55
		c0.04-0.07,0.09-0.14,0.14-0.2c0.06-0.06,0.12-0.12,0.19-0.17c0.08-0.06,0.16-0.1,0.25-0.13c0.37-0.11,0.78-0.02,1.06,0.25
		c0.18,0.25,0.26,0.56,0.24,0.87v1.87h-0.59v-1.76c0.02-0.21-0.03-0.43-0.12-0.62c-0.09-0.14-0.25-0.22-0.41-0.2
		c-0.18-0.01-0.36,0.07-0.48,0.21c-0.14,0.18-0.2,0.4-0.19,0.63v1.69h-0.57v-1.74c0.01-0.2-0.03-0.41-0.12-0.59
		c-0.07-0.13-0.22-0.21-0.37-0.2c-0.1,0-0.19,0.02-0.28,0.06c-0.09,0.04-0.16,0.11-0.22,0.19c-0.07,0.1-0.12,0.21-0.16,0.32
		c-0.04,0.15-0.05,0.31-0.05,0.46v1.54h-0.59L140.08,37.47z"/>
	<path style="fill:#FFFFFF;" d="M146.3,40.55c-0.21,0-0.42-0.04-0.62-0.12c-0.17-0.08-0.32-0.19-0.44-0.33
		c-0.12-0.15-0.21-0.32-0.26-0.5c-0.11-0.41-0.11-0.83,0-1.24c0.1-0.37,0.35-0.68,0.7-0.84c0.4-0.16,0.85-0.16,1.25,0
		c0.35,0.16,0.6,0.47,0.7,0.84c0.11,0.41,0.11,0.83,0,1.24c-0.05,0.18-0.14,0.35-0.26,0.5c-0.12,0.14-0.27,0.25-0.44,0.33
		C146.73,40.51,146.52,40.55,146.3,40.55z M146.3,40.08c0.25,0.02,0.49-0.09,0.63-0.29c0.26-0.51,0.26-1.12,0-1.63
		c-0.14-0.21-0.38-0.32-0.63-0.29c-0.24-0.03-0.49,0.08-0.62,0.29c-0.25,0.51-0.25,1.12,0,1.63
		C145.82,39.99,146.06,40.1,146.3,40.08z"/>
	<path style="fill:#FFFFFF;" d="M148.46,36.17h0.59v1.66c0.08-0.13,0.19-0.24,0.33-0.31c0.17-0.09,0.35-0.13,0.54-0.13
		c0.17,0,0.34,0.03,0.5,0.09c0.15,0.06,0.28,0.15,0.39,0.27c0.11,0.14,0.2,0.3,0.25,0.47c0.07,0.22,0.1,0.44,0.1,0.67
		c0.03,0.45-0.13,0.88-0.44,1.21c-0.34,0.31-0.78,0.47-1.24,0.44c-0.18,0.02-0.35,0.02-0.53,0c-0.16-0.03-0.31-0.06-0.46-0.11
		L148.46,36.17z M149.04,39.99h0.22h0.25c0.14,0,0.28-0.03,0.41-0.07c0.12-0.05,0.23-0.12,0.32-0.21c0.09-0.1,0.16-0.22,0.21-0.35
		c0.05-0.17,0.08-0.34,0.08-0.51c0.02-0.26-0.04-0.53-0.17-0.76c-0.13-0.18-0.34-0.28-0.56-0.27c-0.09-0.01-0.18-0.01-0.27,0
		c-0.09,0.03-0.17,0.07-0.24,0.14c-0.08,0.07-0.14,0.15-0.18,0.25c-0.05,0.12-0.07,0.26-0.07,0.39L149.04,39.99z"/>
	<path style="fill:#FFFFFF;" d="M152.1,37.92h-0.4v-0.45h1v3h-0.56L152.1,37.92z M152,36.78v-0.6h0.62c0.01,0.05,0.01,0.1,0,0.15
		v0.3c0.01,0.05,0.01,0.1,0,0.15L152,36.78z"/>
	<path style="fill:#FFFFFF;" d="M153.61,36.17h0.57v3.39c-0.01,0.09-0.01,0.17,0,0.26c0.01,0.05,0.04,0.1,0.08,0.14
		c0.03,0.03,0.07,0.05,0.12,0.06h0.37c0.04,0.15,0.05,0.3,0.05,0.45c-0.07,0.01-0.13,0.01-0.2,0h-0.22c-0.1,0.01-0.21,0.01-0.31,0
		c-0.09-0.03-0.18-0.08-0.26-0.14c-0.08-0.07-0.14-0.16-0.17-0.26c-0.05-0.12-0.07-0.26-0.06-0.39L153.61,36.17z"/>
	<path style="fill:#FFFFFF;" d="M155.54,37.92h-0.38v-0.45h1v3h-0.56L155.54,37.92z M155.41,36.78v-0.6H156
		c0.01,0.05,0.01,0.1,0,0.15v0.3c0.01,0.05,0.01,0.1,0,0.15h-0.62L155.41,36.78z"/>
	<path style="fill:#FFFFFF;" d="M158.64,38.49c0.01-0.18-0.05-0.35-0.18-0.48c-0.15-0.1-0.33-0.14-0.51-0.13
		c-0.13-0.01-0.25-0.01-0.38,0c-0.12,0.02-0.24,0.05-0.35,0.09c-0.08-0.14-0.12-0.3-0.11-0.46c0.14-0.05,0.29-0.08,0.44-0.1
		c0.15-0.01,0.31-0.01,0.46,0c0.32-0.02,0.64,0.07,0.89,0.27c0.22,0.22,0.33,0.54,0.3,0.85v1.85l-0.49,0.1
		c-0.21,0.02-0.42,0.02-0.63,0c-0.17,0.02-0.34,0.02-0.51,0c-0.14-0.02-0.27-0.08-0.39-0.16c-0.11-0.08-0.2-0.18-0.25-0.3
		c-0.06-0.14-0.09-0.29-0.09-0.44c-0.01-0.3,0.13-0.59,0.38-0.76c0.12-0.09,0.26-0.15,0.4-0.19c0.16-0.04,0.32-0.06,0.48-0.06h0.51
		L158.64,38.49z M158.64,39.06h-0.46c-0.19-0.01-0.38,0.04-0.55,0.14c-0.13,0.09-0.2,0.25-0.19,0.41c-0.01,0.09,0.01,0.19,0.06,0.27
		c0.04,0.07,0.09,0.12,0.16,0.16c0.07,0.03,0.14,0.05,0.21,0.06h0.51c0.08,0.01,0.17,0.01,0.25,0L158.64,39.06z"/>
	<path style="fill:#FFFFFF;" d="M160.08,37.47h0.5c-0.02,0.08-0.02,0.15,0,0.23v0.24c0.08-0.14,0.19-0.26,0.32-0.35
		c0.15-0.1,0.34-0.15,0.52-0.15h0.2v0.54h-0.19c-0.1-0.02-0.2-0.02-0.3,0c-0.1,0.03-0.19,0.09-0.26,0.16
		c-0.08,0.09-0.14,0.19-0.18,0.3c-0.05,0.16-0.07,0.33-0.06,0.5v1.49h-0.58L160.08,37.47z"/>
	<path style="fill:#FFFFFF;" d="M162.44,37.92h-0.38v-0.45H163v3h-0.56V37.92z M162.31,36.78c-0.01-0.05-0.01-0.1,0-0.15v-0.3
		c-0.01-0.05-0.01-0.1,0-0.15h0.62v0.6H162.31z"/>
	<path style="fill:#FFFFFF;" d="M165.18,40.55c-0.22,0-0.43-0.04-0.63-0.12c-0.17-0.08-0.32-0.19-0.44-0.33
		c-0.12-0.15-0.21-0.32-0.26-0.5c-0.11-0.41-0.11-0.83,0-1.24c0.1-0.37,0.35-0.68,0.7-0.84c0.4-0.16,0.85-0.16,1.25,0
		c0.35,0.16,0.6,0.47,0.7,0.84c0.11,0.41,0.11,0.83,0,1.24c-0.05,0.18-0.14,0.35-0.26,0.5c-0.12,0.14-0.27,0.25-0.44,0.33
		C165.6,40.51,165.39,40.55,165.18,40.55z M165.18,40.08c0.24,0.02,0.48-0.09,0.62-0.29c0.26-0.51,0.26-1.12,0-1.63
		c-0.13-0.21-0.38-0.32-0.62-0.29c-0.25-0.03-0.49,0.08-0.63,0.29c-0.25,0.51-0.25,1.12,0,1.63
		C164.69,39.99,164.93,40.11,165.18,40.08z"/>
	<path style="fill:#FFFFFF;" d="M167.28,39.93c0.23,0.09,0.48,0.14,0.73,0.14h0.26c0.07-0.01,0.15-0.04,0.21-0.08
		c0.06-0.04,0.11-0.09,0.15-0.15c0.04-0.06,0.06-0.12,0.05-0.19c0.02-0.06,0.02-0.13,0-0.19c-0.03-0.05-0.07-0.1-0.12-0.13
		c-0.05-0.04-0.11-0.07-0.17-0.1l-0.2-0.07l-0.21-0.08c-0.2-0.06-0.39-0.17-0.54-0.31c-0.12-0.13-0.18-0.3-0.17-0.48
		c-0.01-0.24,0.1-0.47,0.28-0.62c0.25-0.17,0.54-0.25,0.84-0.23c0.15-0.01,0.3-0.01,0.45,0c0.13,0.02,0.26,0.06,0.38,0.1l-0.06,0.17
		c-0.02,0.08-0.05,0.15-0.08,0.22l-0.31-0.09c-0.12-0.03-0.25-0.05-0.38-0.05c-0.13,0-0.27,0.03-0.39,0.08
		c-0.11,0.05-0.17,0.15-0.17,0.27c0.01,0.07,0.04,0.14,0.09,0.2c0.03,0.05,0.06,0.08,0.11,0.11c0.05,0.04,0.1,0.07,0.16,0.09
		l0.2,0.07l0.25,0.09c0.09,0.03,0.18,0.06,0.27,0.11c0.08,0.04,0.16,0.09,0.22,0.16c0.06,0.07,0.11,0.15,0.15,0.24
		c0.12,0.36,0.01,0.76-0.28,1c-0.12,0.09-0.25,0.16-0.39,0.2c-0.17,0.05-0.34,0.07-0.51,0.07c-0.16,0.01-0.33,0.01-0.49,0
		c-0.13-0.03-0.26-0.06-0.39-0.11c-0.01-0.08-0.01-0.15,0-0.23C167.23,40.07,167.25,40,167.28,39.93z"/>
	<path style="fill:#FFFFFF;" d="M61.73,7.99c0.48-0.07,0.93-0.12,1.36-0.15c0.47-0.03,0.95-0.03,1.42,0c0.45,0,0.89,0,1.33,0
		c0.44,0,0.9,0.08,1.42,0.15l7.64,24.43c-0.9,0.13-1.8,0.2-2.71,0.2c-0.83,0-1.67-0.07-2.49-0.2l-1.36-4.9h-8.09l-1.41,4.9
		c-0.78,0.13-1.56,0.2-2.35,0.2c-0.83,0-1.66-0.07-2.48-0.2L61.73,7.99z M67.17,23.42l-2.82-10.26l-3,10.25L67.17,23.42z"/>
	<path style="fill:#FFFFFF;" d="M74.47,7.99c1-0.11,2-0.21,3-0.29s2.2-0.11,3.47-0.11c4.28,0,7.53,1.06,9.76,3.19
		s3.33,5.31,3.3,9.56c0,4.29-1.12,7.44-3.36,9.44c-2.24,2-5.6,3-10.09,3c-1.15,0-2.22,0-3.19-0.12s-1.93-0.17-2.88-0.28L74.47,7.99z
		 M79.47,28.48l0.78,0.07c0.31,0,0.7,0,1.16,0c0.98,0.01,1.95-0.11,2.9-0.36c0.88-0.22,1.68-0.67,2.33-1.3
		c0.71-0.72,1.24-1.59,1.56-2.55c0.42-1.33,0.62-2.72,0.58-4.11c0.03-1.38-0.16-2.76-0.58-4.08c-0.32-0.97-0.85-1.85-1.56-2.58
		c-0.63-0.62-1.4-1.08-2.25-1.35c-0.88-0.27-1.79-0.4-2.7-0.39h-1.13c-0.37,0.01-0.74,0.04-1.1,0.09L79.47,28.48z"/>
	<path style="fill:#FFFFFF;" d="M95.46,7.99c1.66-0.27,3.34-0.27,5,0v24.43c-1.66,0.27-3.34,0.27-5,0V7.99z"/>
	<path style="fill:#FFFFFF;" d="M105.77,7.99l1-0.12c0.41-0.06,0.86-0.1,1.34-0.13l1.5-0.1c0.51,0,1-0.05,1.37-0.05
		c1.22-0.02,2.44,0.12,3.63,0.41c1.02,0.23,1.97,0.67,2.81,1.29c0.79,0.6,1.41,1.39,1.81,2.3c0.45,1.08,0.67,2.24,0.63,3.41
		c0.03,1.26-0.22,2.52-0.73,3.67c-0.46,0.98-1.14,1.83-2,2.49c-0.86,0.65-1.84,1.12-2.89,1.39c-1.12,0.3-2.28,0.45-3.44,0.44
		c-0.53,0-1,0-1.36,0s-0.82-0.06-1.31-0.13v9.57l-0.54,0.05h-1.29c-0.17,0-0.35-0.02-0.52-0.05L105.77,7.99z M108.11,20.66
		l0.63,0.05h0.51h0.57h0.84c0.81,0,1.61-0.07,2.41-0.2c0.77-0.13,1.51-0.41,2.16-0.84c0.66-0.44,1.2-1.05,1.56-1.76
		c0.44-0.94,0.65-1.96,0.62-3c0.04-0.83-0.1-1.66-0.41-2.43c-0.28-0.65-0.73-1.2-1.3-1.62c-0.63-0.43-1.33-0.73-2.08-0.88
		c-0.89-0.19-1.8-0.28-2.71-0.27c-0.59,0-1.11,0-1.56,0.05c-0.38,0.02-0.75,0.06-1.12,0.12L108.11,20.66z"/>
	<path style="fill:#FFFFFF;" d="M121,7.99h13.06c0.01,0.16,0.01,0.33,0,0.49V9.6c0.01,0.18,0.01,0.35,0,0.53h-10.73v8.25H132
		c0,0.14,0,0.3,0.05,0.5c0.01,0.19,0.01,0.37,0,0.56V20c0,0.17-0.02,0.35-0.05,0.52h-8.62v9.77h11c0,0.14,0,0.3,0,0.49
		s0,0.38,0,0.56v0.56c0,0.18,0,0.35,0,0.53H121V7.99z"/>
	<path style="fill:#FFFFFF;" d="M136.65,7.9L138,7.78l1.09-0.1c0.35,0,0.72-0.06,1.1-0.07h1.36c1.08,0,2.15,0.12,3.21,0.34
		c1.01,0.21,1.97,0.61,2.83,1.17c0.84,0.57,1.53,1.34,2,2.24c0.54,1.1,0.81,2.32,0.76,3.55c0.01,0.83-0.15,1.65-0.47,2.42
		c-0.31,0.71-0.73,1.37-1.25,1.95c-0.51,0.58-1.11,1.09-1.77,1.5c-0.65,0.4-1.34,0.73-2.05,1l-0.28,0.1l7.8,10.51
		c-0.22,0.04-0.45,0.06-0.68,0.06h-1.35c-0.22,0-0.44-0.02-0.66-0.06l-8.57-11.32v-0.14l0.74-0.21c0.77-0.2,1.52-0.46,2.24-0.79
		c0.7-0.29,1.35-0.68,1.95-1.15c0.55-0.46,1.01-1.02,1.35-1.65c0.35-0.69,0.53-1.46,0.51-2.24c0.12-1.52-0.49-3-1.63-4
		c-1.28-0.94-2.84-1.41-4.42-1.33c-0.47,0-0.92,0-1.32,0s-0.9,0.07-1.46,0.14v22.72h-0.58h-1.25c-0.18,0.03-0.36,0.03-0.54,0
		L136.65,7.9z"/>
	<path style="fill:#FFFFFF;" d="M152.72,7.99l0.58-0.05h1.24c0.18,0,0.36,0.02,0.54,0.05v14.79c-0.02,1.22,0.1,2.43,0.36,3.62
		c0.19,0.86,0.55,1.67,1.08,2.38c0.48,0.63,1.13,1.11,1.87,1.38c0.86,0.3,1.77,0.44,2.68,0.42c1.71,0.15,3.39-0.52,4.53-1.8
		c1-1.2,1.44-3.22,1.45-6V7.99l0.54-0.05h1.24c0.19,0,0.39,0.02,0.58,0.05v15c0,3.26-0.67,5.71-2,7.34
		c-1.34,1.69-3.41,2.5-6.41,2.45s-5-0.81-6.32-2.44s-2-4.08-2-7.34L152.72,7.99z M161.72,5.99c-0.49,0.07-0.98,0.1-1.47,0.1
		c-0.4,0-0.79-0.04-1.18-0.1l3.77-3.77c0.53-0.07,1.06-0.1,1.59-0.1c0.56,0,1.12,0.03,1.67,0.1L161.72,5.99z"/>
	<path style="fill:#FFFFFF;" d="M46.47,16.71h-6c-1.25,0-3.21,0.57-3.21,2v20.91H48.7V18.78C48.7,17.23,48,16.71,46.47,16.71z"/>
	<path style="fill:#FFFFFF;" d="M37.25,18.78v20.84h2.49v-23C38.68,16.78,37.25,17.51,37.25,18.78z"/>
	<path style="fill:#FFFFFF;" d="M36.17,39.62V18.78c0.04-1.07,0.67-2.02,1.64-2.48c0.6-0.33,1.26-0.55,1.94-0.63v-2.22
		c0.05-1.05-0.53-2.03-1.48-2.49L26.06,5.47c-0.48-0.18-1.02,0.02-1.25,0.48c-0.05,0.11-0.08,0.23-0.08,0.35v14.26l1.33-0.71
		l6.22-3.6c0.26-0.16,0.56-0.25,0.86-0.27c0.94,0.04,1.67,0.84,1.63,1.79l0,0.01v21.84H36.17z"/>
</g>
</svg>
