<svg xmlns="http://www.w3.org/2000/svg" viewBox="0 0 812.9 121.77"><defs><style>.cls-1{fill:#141c23;}</style></defs><title>Recurso 3icono-new</title><g id="Capa_2" data-name="Capa 2"><g id="Capa_1-2" data-name="Capa 1"><path class="cls-1" d="M0,83.73a3.07,3.07,0,0,1,.6-.07,48.11,48.11,0,0,1,.58,10.07,42.14,42.14,0,0,0,7.1.21c.45,2.1,1.31,4.61,2.83,4.38.6-.07,1.13-.62,1.73-.81,1.78-.55,3.16,2,3.9,4.41.21.67.5,1.46,1,1.59a1.31,1.31,0,0,0,1-.3c1.1-.69,2.19-1.38,3.29-2a24.18,24.18,0,0,0,3.82-3.28,4.21,4.21,0,0,0,2.77,1.64A87.08,87.08,0,0,0,41.72,102a1.86,1.86,0,0,0,1.75-.47c.83-.92.56-2.77.22-4.2,2.4-.09,4.8-.11,7.2,0a2.6,2.6,0,0,1,1.77.5,8.64,8.64,0,0,1,1.19,2.06c1.17,2.19,3.4,3.07,5.22,2A82.52,82.52,0,0,1,65.67,117a9.47,9.47,0,0,1,1.52-4.2,1.53,1.53,0,0,1,2.79.48c.2.76.06,1.69.31,2.42.63,1.83,2.53.67,3.94.79,2.75.23,4.36,6.09,7.06,5.12a22.55,22.55,0,0,0-1.65-6.18c1.55.46,3.3-.53,4.27-2.43a8.65,8.65,0,0,0,.38-6.57c1.47-1.25,2.88,1.38,4.06,3a5.18,5.18,0,0,0,5.27,2.43c1.36-.28,2.61-1.18,3.95-1.62,3.47-1.13,7,1,10.51.72,3.73-.35,8.06-3.26,10.87.18a1.25,1.25,0,0,1,.47-1.73c.52-.16,1,.3,1.46.72-.27-2.31,1.24-4.76,2.85-4.6a8.94,8.94,0,0,0,1.14,4,3.16,3.16,0,0,1,2.92-1.18,11.16,11.16,0,0,0,.43,4.94c1.09-1.91,2.59-3.62,4.27-3.69s3.41,2.06,3.1,4.5c.95-1.66,2.54-2.49,3.95-2,.16-1.52.32-3,.5-4.57,1.32,1.66,3.39,0,4.85-1.5s3.71-2.88,4.81-.92c.8,1.36,2.06,3.27,3.26,2.77s2.21-1.83,3.39-2.54c1.56-1,3.28-.81,4.94-.69,2.75.23,5.66.53,7.9,2.74,1,1,2.06,2.45,3.29,2.06.77-.26,1.38-1.23,2.16-1.48,1-.32,1.87.46,2.77,1s2.1.78,2.73-.35a9.7,9.7,0,0,1,.73-1.48c.75-.83,1.8.44,2.71.12s1.17-1.71,1.74-2.61c1.53-2.38,4.17-1,6.05.6,0-.83.11-1.66.15-2.49,1.25,2.38,3.94,1.68,5.71,0s3.25-4.24,5.27-5.17a14.46,14.46,0,0,0,3.44,4.73,72.63,72.63,0,0,1,.52-7.34c2.25.28,4.51.53,6.76.81,1.46.16,3.31,0,4-1.89,1.05.39.64,3.3,1.69,3.69.37.16.77-.14,1.11-.44.95-.76,1.91-1.52,2.87-2.3a16.08,16.08,0,0,0,2.94,5.86c.58.69,1.31,1.29,2,1,.9-.42,1.22-2,1.87-3a2.74,2.74,0,0,1,3.38-1.15,9.51,9.51,0,0,1,3.08,2.56c2,2.19,4,4.36,6,6.56,1.06,1.15,2.43,2.37,3.69,1.59,2.81-1.78,6.48.83,7,5.15l2.9-2.45a12,12,0,0,1,1.11,3.67c.94-1.18,2.05-2.4,3.22-2.1a5.53,5.53,0,0,1,1.73,1.11,3.82,3.82,0,0,0,4.61-.16c1-.74,1.79-3,.82-3.81a3.51,3.51,0,0,1,5,1.06c.61.83,1,1.89,1.67,2.68s1.64,1.13,2.33.39.8-2.52,1.56-3.23c1.11-1,2.34.81,3.59,1.24s2.37-.39,3.22-1.63a18.23,18.23,0,0,0,1.84-4.46l3.55,2.89c0-.83.07-1.67.12-2.52,1.1,0,2.2-.12,3.3-.18.12-.7.27-1.37.41-2,.8.34,1.68.69,2.41.16s1-2.42.24-2.84a2.17,2.17,0,0,1,2.56-1.59c1,.25,1.85,1.52,2,3a6.36,6.36,0,0,1,2.63-2.22c.37-.16.8-.23,1.07.12.66.9-.57,2.24-.84,3.53a2.31,2.31,0,0,0,1.37,2.68,3.57,3.57,0,0,0,2.55-.74,5.41,5.41,0,0,0,.62,3.79,1.48,1.48,0,0,0,2.53.11c1.14-1.64.5-5.24,2-6s2.29,2.45,3.74,2.93a19.91,19.91,0,0,0,.35-5.35c1.66,1.36,3.93,1,5.46-.81.66-.79,1.32-1.92,2.15-1.78,1.27.23,1.93,3.3,3.13,2.56a6.27,6.27,0,0,0,.48-2.4c.87.6,2.11,1.09,2.7-.11.17-.37.25-.83.41-1.27.62-1.5,2.21-1.09,3.25-.23s2.27,1.91,3.33,1a5.76,5.76,0,0,0,.92-1.2c1.38-2,3.41-2.63,5.31-3.18s3.73-1,5.59-1.6a4.27,4.27,0,0,1,3.1-.09c.95.49,1.7,1.64,2.7,1.85,1.65.32,2.95-1.94,4.26-3.53,1.93-2.33,4.39-3.4,6.76-4.41a2.59,2.59,0,0,1,1.63-.32c.62.16,1.11.8,1.67,1.26a3.65,3.65,0,0,0,3.15.86c.6-1.36-.49-3.16-.08-4.69.27-1,1.05-1.4,1.67-2A7.07,7.07,0,0,0,376,75.1c1.09-.28,2.18-.58,3.26-.88,1.33-.32,3,3.46,4.24,2.68.55-.35.79-1.27,1-2.1a11.07,11.07,0,0,1,2.19-4.64c1-1.15,2.48-1.64,3.63-.85.79.53,1.36,1.59,2.19,2a1.43,1.43,0,0,0,1.89-1.61c.86,1.29,2.73-.12,2.55-1.92.64.56,1.29,1.11,1.94,1.69.32.25.67.55,1,.46a.93.93,0,0,0,.53-1.13c.76,1.45,2.33.16,3.59-.23a4.51,4.51,0,0,1,2.75.25l3.75,1.11a1.63,1.63,0,0,1,1.06.62c.53.76.4,2.19,1,2.8s1.25.11,1.85-.24a6.65,6.65,0,0,1,7.69.84,28.05,28.05,0,0,0-1.26,6.16,4.88,4.88,0,0,1,4.6-.37c.54.25,1.12.58,1.64.21.82-.6.71-2.43,1.28-3.47.89-1.63,2.61-.57,4-.09,2.28.88,4.74-.37,6.92-1.94a10.78,10.78,0,0,0,1.74,3.28,1.93,1.93,0,0,0,2.69.49c.77-.6,1.17-1.9,1.83-2.75s1.95-1,2.14.28c-.09-2.52,2.31-4,3.89-3s2.5,3.28,3.51,5.29,2.47,4,4.2,3.72c-.28,1.71.93,3.48,2.11,3.07.7-.26,1.24-1,1.84-1.64a3.69,3.69,0,0,1,4-1A6.67,6.67,0,0,0,470,79.67c.72-1.13,1.83-2.1,2.77-1.48.46.33.87,1,1.39.9,1-.25.57-2.81,1.38-3.76a15.56,15.56,0,0,1,4.1,6.12c.18-2.27.36-4.48.55-6.72a4.28,4.28,0,0,1,.7-2.45c.7-.76,1.71-.16,2.51-.74,1.19-.83,1-3.39,1.69-5.05s2.37-2.15,3.37-1A10.32,10.32,0,0,0,487.1,69c-.17,1.32.21,2.87,1.08,3.23a9.06,9.06,0,0,1,1,.28c1.56.81.4,4.64,1.33,6.65a2.29,2.29,0,0,0,3,1.11c1.07-.28,2.17-.9,3.22-.53s2,1.84,3.17,2.26c2,.76,4.48-1.57,6,.41a18,18,0,0,0,.32,6.54c.63,2,2.34,3.34,3.7,2.33.74-.53,1.25-1.69,2-2.06,1.18-.6,2.5,1.32,2.1,3l1.33-2.49c.53.78,1.59.46,1.92-.53.57,2.12,2,3.62,3.62,3.71,1.46,1.53,4.17-.67,5.35,1.32.58,1,.63,2.81,1.51,2.95s1.36-1.5,2.21-1.75a1.4,1.4,0,0,1,1,.11l15.81,5.91a6.72,6.72,0,0,1,4,2.91,21,21,0,0,1,1.34,5.06c.38,1.73,1.13,3.5,2.36,3.83,1.48.34,3-1.57,4.41-.88a4,4,0,0,1,1.28,1.36c1.76,2.59,3.48,5.27,5.16,8,.22-2.24.44-4.5.65-6.72a1.21,1.21,0,0,1,1.24.28l-.27-2a4.15,4.15,0,0,0,2.46,1.57c.14-2.42.28-4.89.43-7.34a43.53,43.53,0,0,0,13.54-8.7c1.7-1.57,4-3.3,5.48-1.55,1.15,1.32,1.72,4.41,3.17,3.9.71-.23,1.11-1.27,1.69-1.91,1.08-1.25,2.57-1.09,3.93-.93A22.64,22.64,0,0,0,609.72,96a2.64,2.64,0,0,1,.88-3.07,2.23,2.23,0,0,1,2.48.67c-.22,1.48,1.57,2.84,2.62,2.75s2.14-.6,3,.06c1.15.9,1.25,3.19,1.66,5s2.11,3.41,3,1.87c.34-.65.36-1.64.8-2.17,1.15-1.3,2.25,2.33,3.65,2.07,1.16-.2,1.43-2.7,2.48-3.5s2,.3,2.61,1.52a20.56,20.56,0,0,0,1.7,3.69,1.45,1.45,0,0,0,2.64-.46,3.3,3.3,0,0,0,1.61,1.71c.3-1,.59-2.1.88-3.16.43,3.6,3.33,5,5.78,5.84a3.32,3.32,0,0,1,2.1-3.93c1.29-.3,2.6.26,3.9-.09,2.54-.67,4.82-4.69,7.2-3.35a15.18,15.18,0,0,1,1.66,1.48c1.79,1.52,4.38.72,5.7-1.75a19.81,19.81,0,0,1,1.28,6.34,6.55,6.55,0,0,1,5.78-3c1.35.14,3,.57,3.79-1.09.59.72,1.18,1.41,1.75,2.13.39-.74.8-1.46,1.2-2.22,1,1.57,2,3.16,3,4.71a11.93,11.93,0,0,0,.3-4.62c3.4,1,5.25,6.1,6.66,10.69.16.51.35,1,.71,1.22s.95-.34,1.35-.81c3.16-3.69,7.47-4.06,11.46-4.24,1.47-.1,3.2,0,4,1.73a1.12,1.12,0,0,1,1.76.6c.18-.86.35-1.71.54-2.56a2.2,2.2,0,0,0,3.37-.07c.66.83,1.31,1.68,2,2.54.21.27.46.55.75.48.46-.14.55-1,.78-1.59.7-1.66,2.39-.81,3.54.07s3.07,1.11,3.32-.79c1.23-1.13,2.49-1.77,3.71-2.91a14.9,14.9,0,0,0,2.49,2.82c.19.16.41.35.64.3.59-.14.65-1.32.9-2.12.44-1.53,1.82-1.85,3-1.92,1.66-.11,3.32-.25,5-.35a2.21,2.21,0,0,0,1.86-.87,4.63,4.63,0,0,0,.45-2.29,29.09,29.09,0,0,0-.56-6.35,5.35,5.35,0,0,0,3,1.51,2.76,2.76,0,0,0,2.37-2.68c.38.25.75.53,1.13.81a4.21,4.21,0,0,0,.24-1.67c.72.21,1.42.42,2.13.6a35,35,0,0,0,.28-4.68,5.91,5.91,0,0,0,2.38,1.31c.15-1.29.32-2.58.48-3.85a16.29,16.29,0,0,0,8.08-.3,89.29,89.29,0,0,1-3.07,9.67l5.25-4.18c1.72-1.38,3.71-3.44,3.53-6.21a6.87,6.87,0,0,0,1.82,2.52,1.53,1.53,0,0,0,2.34-.69c1.18,1,2.67,2,3.87,1a11.17,11.17,0,0,0,1.22-1.54,2.65,2.65,0,0,1,3.19-1c1.87-1.3,4.57.9,5.74,3.27.37.79.85,1.81,1.48,1.5s.62-2,1.24-2.67c1-1.06,2.27,1.36,3.32.53.82-.65.61-2.66,1.36-3.44,1.21-1.32,3.15,1.89,4.15.28.25-.4.32-1,.61-1.32.58-.67,1.31.21,1.93.71,1.26,1,3.08.17,3.78-1.73a2.7,2.7,0,0,0,3.51,2c1.35-.44,2.59-1.53,3.95-1.85a11.5,11.5,0,0,1,1.83-.25l.91-1.82V0H0V82.67C0,83,0,83.39,0,83.73Z"/></g></g></svg>