<svg xmlns="http://www.w3.org/2000/svg" width="116.28" height="140.015" viewBox="0 0 116.28 140.015">
  <g id="Grupo_126" data-name="Grupo 126" transform="translate(0)">
    <g id="Grupo_120" data-name="Grupo 120">
      <path id="Trazado_420" data-name="Trazado 420" d="M175.8,0q-1.459,0-2.9.059c-50.559,2.05-73.418,64.59-37.226,99.951l40.946,40L217.1,99.533C251.867,64.765,230.744,4.343,181.743.247Q178.8,0,175.8,0" transform="translate(-118 0)" fill="#101820"/>
      <path id="Trazado_421" data-name="Trazado 421" d="M164.733,74.821a7.184,7.184,0,0,1-7.176-7.176V53.157H143.068a7.2,7.2,0,0,1-5.291-2.329,7.124,7.124,0,0,1-1.857-5.489A7.464,7.464,0,0,1,143.5,38.8h14.055V24.316a7.176,7.176,0,1,1,14.352,0V38.8h14.054a7.466,7.466,0,0,1,7.584,6.537,7.123,7.123,0,0,1-1.859,5.489,7.2,7.2,0,0,1-5.291,2.329H171.909V67.645a7.185,7.185,0,0,1-7.176,7.176M143.5,40.932a5.325,5.325,0,0,0-5.461,4.593,5.011,5.011,0,0,0,1.305,3.863,5.063,5.063,0,0,0,3.722,1.638H158.54a1.207,1.207,0,0,1,1.145,1.145V67.645a5.048,5.048,0,0,0,10.1,0V52.171a1.207,1.207,0,0,1,1.145-1.145H186.4a5.047,5.047,0,0,0,5.029-5.5,5.327,5.327,0,0,0-5.463-4.593H170.925a1.207,1.207,0,0,1-1.145-1.145V24.316a5.048,5.048,0,0,0-10.1,0V39.788a1.207,1.207,0,0,1-1.145,1.145Z" transform="translate(-106.592 10.927)" fill="#fff"/>
    </g>
  </g>
</svg>
