<?xml version="1.0" encoding="utf-8"?>
<!-- Generator: Adobe Illustrator 23.0.1, SVG Export Plug-In . SVG Version: 6.00 Build 0)  -->
<svg version="1.1" id="Capa_1" xmlns="http://www.w3.org/2000/svg" xmlns:xlink="http://www.w3.org/1999/xlink" x="0px" y="0px"
	 viewBox="0 0 70 64.7" style="enable-background:new 0 0 70 64.7;" xml:space="preserve">
<style type="text/css">
	.st0{fill:#F76819;}
</style>
<g>
	<path class="st0" d="M8.3,39.9c-0.3-0.3-0.4-0.4-0.7-0.4c-0.3-0.1-0.4-0.1-0.7-0.1c-0.5,0-0.9,0.1-1.3,0.5C5.3,40.3,5,40.8,5,41.5
		s0.1,1.2,0.5,1.6c0.4,0.4,0.9,0.7,1.4,0.7c0.3,0,0.5,0,0.7-0.1c0.3-0.1,0.4-0.3,0.7-0.4c0,0.4,0,0.5-0.1,0.8
		c-0.2,0-0.2,0.1-0.4,0.3c-0.1,0.1-0.4,0.1-0.7,0.1s-0.4,0-0.5-0.1c-0.1,0-0.3-0.1-0.4-0.3H5c0.1,0.3,0.3,0.5,0.4,0.8
		s0.4,0.4,0.7,0.4c0.3,0.1,0.7,0.1,1.1,0.1c0.8,0,1.3-0.3,1.7-0.7c0.4-0.5,0.5-1.1,0.5-1.7v-3.7H8.3V39.9z M8,42.3
		c-0.3,0.3-0.5,0.4-0.8,0.4c-0.4,0-0.7-0.1-0.8-0.4C6.2,42,6,41.7,6,41.4s0.1-0.7,0.4-0.8c0.3-0.3,0.5-0.4,0.8-0.4
		c0.4,0,0.7,0.1,0.8,0.4c0.3,0.3,0.3,0.5,0.3,0.8S8.3,42.1,8,42.3"/>
	<path class="st0" d="M11.4,39.4c-0.1,0.1-0.3,0.3-0.4,0.5v-0.5h-0.9v4.2h1.1v-1.7v-0.3c0-0.5,0-1.1,0.1-1.2
		c0.1-0.3,0.3-0.3,0.4-0.3c0.1,0,0.1,0,0.3,0.1l0.3-0.9c-0.1-0.1-0.3-0.1-0.4-0.1C11.8,39.2,11.7,39.4,11.4,39.4"/>
	<path class="st0" d="M15.6,41.5c0,0.4,0,0.7-0.1,0.8c0,0.1-0.1,0.3-0.3,0.4c-0.1,0.1-0.3,0.1-0.4,0.1s-0.4,0-0.4-0.1
		c-0.1-0.1-0.3-0.3-0.3-0.4c0-0.1-0.1-0.4-0.1-0.8v-2.1h-1v1.7c0,0.7,0,1.2,0.1,1.4c0.1,0.4,0.3,0.7,0.7,0.9
		c0.3,0.3,0.7,0.3,1.2,0.3c0.4,0,0.8-0.1,1.1-0.3c0.3-0.1,0.5-0.4,0.7-0.8c0.1-0.3,0.1-0.8,0.1-1.6v-1.8h-1.1v2.2L15.6,41.5
		L15.6,41.5z"/>
	<path class="st0" d="M20.2,39.2c-0.3,0-0.5,0-0.7,0.1c-0.3,0.1-0.4,0.3-0.7,0.4v-0.5h-1.1V45h1.1v-2c0.3,0.3,0.4,0.4,0.7,0.4
		c0.1,0.3,0.4,0.3,0.5,0.3c0.5,0,1.1-0.3,1.4-0.7c0.4-0.4,0.7-0.9,0.7-1.6c0-0.7-0.1-1.2-0.5-1.6C21.2,39.5,20.8,39.2,20.2,39.2
		 M20.8,42.4c-0.3,0.3-0.5,0.4-0.8,0.4c-0.4,0-0.7-0.1-0.8-0.4c-0.3-0.3-0.4-0.5-0.4-0.9s0.1-0.7,0.4-0.9s0.5-0.4,0.8-0.4
		c0.4,0,0.7,0.1,0.8,0.4c0.3,0.3,0.3,0.5,0.3,0.9C21.2,41.9,21,42.1,20.8,42.4"/>
	<path class="st0" d="M26.1,39.5c-0.4-0.3-0.8-0.3-1.2-0.3c-0.5,0-1.1,0.1-1.4,0.5c-0.5,0.4-0.8,1.1-0.8,1.7c0,0.7,0.3,1.2,0.7,1.6
		c0.4,0.4,0.9,0.7,1.6,0.7c0.4,0,0.8-0.1,1.2-0.3c0.4-0.1,0.7-0.5,0.8-0.8c0.3-0.4,0.3-0.7,0.3-1.2c0-0.4-0.1-0.8-0.3-1.1
		C26.8,40,26.5,39.8,26.1,39.5 M25.9,42.4c-0.3,0.3-0.5,0.4-0.8,0.4c-0.4,0-0.7-0.1-0.8-0.4C24,42.1,24,41.9,24,41.5
		s0.1-0.7,0.3-0.9c0.3-0.3,0.5-0.4,0.8-0.4c0.4,0,0.7,0.1,0.8,0.4c0.3,0.3,0.4,0.5,0.4,0.9C26.3,41.9,26.1,42.1,25.9,42.4"/>
	<path class="st0" d="M48.5,33.2c-1.1,0-1.8,0.4-2.5,1.1c-0.7,0.7-1.1,1.6-1.1,2.8s0.4,2.1,1.1,2.8c0.7,0.8,1.6,1.1,2.5,1.1
		c1.1,0,1.8-0.4,2.5-1.1s1-1.8,1-2.9c0-1.2-0.4-2.1-1.1-2.8C50.3,33.6,49.5,33.2,48.5,33.2"/>
	<path class="st0" d="M61,12.7H38.4c-0.1,0-0.3,0-0.4,0l0,0H8.3C3.7,12.7,0,16.4,0,21v22.7C0,48.3,3.7,52,8.3,52h29.8l0,0
		c0.1,0,0.1,0,0.3,0H61c4.6,0,8.3-3.7,8.3-8.3V21C69.2,16.5,65.6,12.7,61,12.7 M8.3,50.9c-3.9,0-7.2-3.3-7.2-7.2V21
		c0-3.9,3.3-7.2,7.2-7.2h26.1c-2.6,1.4-4.3,4.2-4.3,7.2v22.7c0,3.2,1.7,5.9,4.3,7.4H8.3V50.9z M39.3,43.6H36V23.3h3.3V43.6z
		 M55.2,43.6h-3.3v-1.4c-0.7,0.7-1.3,1.1-2,1.3c-0.7,0.3-1.3,0.4-2.1,0.4c-1.7,0-3.2-0.7-4.3-2c-1.2-1.3-1.8-2.9-1.8-4.9
		s0.7-3.7,1.8-5c1.2-1.3,2.6-2,4.3-2c0.8,0,1.6,0.1,2.2,0.4c0.7,0.3,1.3,0.8,2,1.3v-1.2h3.2C55.2,30.5,55.2,43.6,55.2,43.6z
		 M63.7,33.3C63.3,33.2,63,33,62.8,33c-0.5,0-0.9,0.3-1.3,0.9S61,35.8,61,37.7v0.7v5.3h-3.3v-13h2.9v1.6c0.3-0.7,0.7-1.2,1.2-1.4
		c0.5-0.4,1.1-0.5,1.7-0.5c0.4,0,0.9,0.1,1.3,0.4L63.7,33.3z"/>
</g>
</svg>
