<svg xmlns="http://www.w3.org/2000/svg" viewBox="0 0 571.34 335.46"><defs><style>.cls-1{fill:#f5f6f7;}</style></defs><g id="Capa_2" data-name="Capa 2"><g id="Capa_1-2" data-name="Capa 1"><path class="cls-1" d="M4,311.73c.1,1.6-1.9,2.4-1.5,5.3-.1-.6,2.1,3.3,1.7,3,.9.6,2.3-.2,3.3.1a8.15,8.15,0,0,0,1,1.7c2.5,1.2,3,.7,5.3,2.8,1.8,1.5,3.9,4.6,6,5,1.5.4,4.4-.3,6.3-.3,1.6,0,2.7,1.3,4.4,1.8a36.39,36.39,0,0,0,5.2,1c2.9.4,5.6,1.5,8.2,2,10.4,1.8,21.2,1.3,31.5.3l2.7-.3c6.8-.8,13.8-2.3,20.6-2.1,9.3.2,18.7-2.2,28.1-2,8.3.2,16.8-2.7,25-3.8,11-1.4,22.7.8,33.3,2.6,5.7,1,11.8.1,17.4.9,4.9.7,10.2,1.4,15,1.7,22.5,1.1,45.2,3.3,67.9,3.8a924.66,924.66,0,0,0,106.5-3.8c9.1-.9,18-2.1,26.9-3.4,4-.2,7.8-.4,11.6-.8a203.26,203.26,0,0,0,20.3-3.1c7.6-.9,15.4-1.8,23-.6a123.51,123.51,0,0,0,15.8,1.4c1.1,0,3.3.6,4.3.1.8-.4.9-2,1.4-2.3.8-.4,4.5-.8,4.8-1.3q-.15-.75-.6-.6c-.4-2.3,8.7-2,9.7-2h1.4c3.1.5,6.2,1.4,9.3,1.1,3.3-.3,6.7.9,10,1.6.4.1.9.1,1.3.2,5,.8,10.2,1,15.1-1,1.2-.5,2.4-1.6,3.8-2.1a10.06,10.06,0,0,0,2.4-1.1c.7-.5,1.2-1.7,2-1.8s2.3.5,3,.2c1-.5,1.9-3.5,2.7-5,1.1-2,1.3-1.6,2.5-2.8a13.64,13.64,0,0,0,.4-1.7c.5-.3,1.2.4,1.6-.2-.2.3.7-3.5.7-2.9.1-2.8-.9-3.5-.9-5a9.72,9.72,0,0,1,.9-3.9,6.84,6.84,0,0,0,.5-4.5,4.07,4.07,0,0,0-.6-1.1c-.1-3.8-.2-7.6-.4-11.5-.1-2.8-.3-5.6-.4-8.3-.6-13-1-25.5-1.6-38.5.3-4.2.7-8.5,1-12.7,1.2-15.5,1.9-31.5,3.1-47.4.2-2.1.3-4.2.5-6.3.2-2.8.4-5.6.6-8.5,1.1-17.9,1-36.3,1.4-53.8V100c0-1.9.1-3.8.1-5.6.2-13.6,0-26.7.2-40.3.1-2.8.1-5.7.2-8.6.1-4,.1-8-.1-11.9a6.58,6.58,0,0,0,1.2-1.2c.9-1.8-.2-3.2-1.5-4.7-1-1.2-2.1-2.4-2.2-4s1.9-2.4,1.5-5.3c.1.6-2.1-3.3-1.7-3-.9-.6-2.3.2-3.3-.1a8.15,8.15,0,0,0-1-1.7c-2.5-1.2-3-.7-5.3-2.8-1.8-1.5-3.9-4.6-6-5-1.5-.4-4.4.3-6.3.3-1.6,0-2.7-1.3-4.4-1.8a36.39,36.39,0,0,0-5.2-1c-2.9-.4-5.6-1.5-8.2-2C517-.47,506.21,0,495.91,1l-2.7.3c-6.8.8-13.8,2.3-20.6,2.1-9.3-.2-18.7,2.2-28.1,2-8.3-.2-16.8,2.7-25,3.8-11,1.4-22.7-.8-33.3-2.6-5.7-1-11.8-.1-17.4-.9-4.9-.7-10.2-1.4-15-1.7-22.5-1.1-45.2-3.3-67.9-3.8A924.66,924.66,0,0,0,179.41,4c-9.1.9-18,2.1-26.9,3.4-4,.2-7.8.4-11.6.8a203.26,203.26,0,0,0-20.3,3.1c-7.6.9-15.4,1.8-23,.6a123.51,123.51,0,0,0-15.8-1.4c-1.1,0-3.3-.6-4.3-.1-.8.4-.9,2-1.4,2.3-.8.4-4.5.8-4.8,1.3q.15.75.6.6c.4,2.3-8.7,2-9.7,2h-1.4c-3.1-.5-6.2-1.4-9.3-1.1-3.3.3-6.7-.9-10-1.6-.4-.1-.9-.1-1.3-.2-5-.8-10.2-1-15.1,1-1.2.5-2.4,1.6-3.8,2.1a10.06,10.06,0,0,0-2.4,1.1c-.7.5-1.2,1.7-2,1.8s-2.3-.5-3-.2c-1,.5-1.9,3.5-2.7,5-1.1,2-1.3,1.6-2.5,2.8a13.64,13.64,0,0,0-.4,1.7c-.5.3-1.2-.4-1.6.2.2-.3-.7,3.5-.7,2.9-.1,2.8.9,3.5.9,5A9.72,9.72,0,0,1,6,41a6.84,6.84,0,0,0-.5,4.5,4.07,4.07,0,0,0,.6,1.1c.1,3.8.2,7.6.4,11.5.1,2.8.3,5.6.4,8.3.6,13,1,25.5,1.6,38.5-.3,4.2-.7,8.5-1,12.7-1.2,15.5-1.9,31.5-3.1,47.4-.2,2.1-.3,4.2-.5,6.3-.2,2.8-.4,5.6-.6,8.5-1.1,17.9-1,36.3-1.4,53.8v1.8c0,1.9-.1,3.8-.1,5.6-.2,13.6,0,26.7-.2,40.3-.1,2.8-.1,5.7-.2,8.6-.1,4-.1,8,.1,11.9A6.58,6.58,0,0,0,.31,303c-.9,1.8.3,3.2,1.5,4.7C2.81,308.93,3.91,310.13,4,311.73Z"/></g></g></svg>