<svg xmlns="http://www.w3.org/2000/svg" width="116.28" height="140.015" viewBox="0 0 116.28 140.015">
  <g id="Grupo_125" data-name="Grupo 125" transform="translate(0)">
    <path id="Trazado_412" data-name="Trazado 412" d="M57.8,0Q56.34,0,54.9.059C4.338,2.109-18.521,64.649,17.671,100.01l40.946,40L99.1,99.533C133.867,64.765,112.744,4.343,63.743.247Q60.8,0,57.8,0" transform="translate(0 0)" fill="#101820"/>
    <path id="Trazado_413" data-name="Trazado 413" d="M65.736,60.006,60.549,36.744a8.235,8.235,0,0,0-7.985-6.4h-.473V24.911a8.06,8.06,0,1,0-16.121,0v5.56a1.035,1.035,0,0,0-.475-.124,8.235,8.235,0,0,0-7.985,6.4l-5.19,23.267a8.211,8.211,0,0,0,8.019,9.966H57.72a8.21,8.21,0,0,0,8.016-9.971m-3.282,5.574a6.048,6.048,0,0,1-4.734,2.266H30.341A6.079,6.079,0,0,1,24.4,60.47l5.186-23.262A6.093,6.093,0,0,1,35.5,32.477a1.035,1.035,0,0,0,.475-.124v7.571a1.064,1.064,0,1,0,2.127,0V24.911a5.932,5.932,0,0,1,11.864,0v5.435H44.031a1.065,1.065,0,0,0,0,2.131h5.931v7.446a1.064,1.064,0,1,0,2.129,0V32.477h.473a6.1,6.1,0,0,1,5.908,4.731l5.185,23.257a6.059,6.059,0,0,1-1.2,5.116" transform="translate(14.11 10.743)" fill="#fff"/>
  </g>
</svg>
