<?xml version="1.0" encoding="utf-8"?>
<!-- Generator: Adobe Illustrator 23.0.0, SVG Export Plug-In . SVG Version: 6.00 Build 0)  -->
<!DOCTYPE svg PUBLIC "-//W3C//DTD SVG 1.1//EN" "http://www.w3.org/Graphics/SVG/1.1/DTD/svg11.dtd" [
	<!ENTITY st0 "fill:#91A833;">
]>
<svg version="1.1" id="Layer_1" xmlns="http://www.w3.org/2000/svg" xmlns:xlink="http://www.w3.org/1999/xlink" x="0px" y="0px"
	 viewBox="0 0 352.1 352.1" style="enable-background:new 0 0 352.1 352.1;" xml:space="preserve">
<g>
	<path style="&st0;" d="M295.8,137.2c-2.4-8.7-11.4-13.9-20.2-11.5c-3.2,0.9-6.5,1.7-9.9,2.6l-14.1-30l-1.7-0.9
		c-1.1-0.6-27.9-14.7-75.8-14.7c-48.2,0-71.3,14.3-72.2,14.9l-1.5,0.9l-15.4,33c-3.1-0.6-6.1-1.3-9.1-2c-8.8-2-17.7,3.5-19.7,12.3
		s3.5,17.7,12.3,19.7c0.7,0.2,1.4,0.3,2.2,0.5l-5.2,11.1c-2.2,4.7-3.4,9.9-3.4,15.1v31.4V256c0,6.4,5.2,11.7,11.7,11.7h25.7
		c6.4,0,11.7-5.2,11.7-11.7v-11l15.9,0.7c16.3,0.7,32.7,1.1,49.1,1.1s32.8-0.4,49.1-1.1l15.9-0.7v11c0,6.4,5.2,11.7,11.7,11.7h25.7
		c6.4,0,11.7-5.2,11.7-11.7v-36.4v-31.4c0-5.2-1.2-10.4-3.4-15.1l-6.8-14.5c1.5-0.4,2.9-0.8,4.4-1.2c4.2-1.2,7.8-3.9,9.9-7.7
		S297,141.5,295.8,137.2z M109.7,106.8c5.4-2.8,26.1-12.3,64.4-12.3c38.2,0,62.1,9.6,68.5,12.5l11.2,23.9c-0.8,0.2-1.6,0.3-2.4,0.5
		c-0.7,0.2-1.5,0.3-2.2,0.5c-1.2,0.2-2.4,0.5-3.6,0.7c-0.7,0.1-1.3,0.3-2,0.4c-1.5,0.3-2.9,0.5-4.4,0.8c-0.4,0.1-0.8,0.1-1.2,0.2
		c-1.9,0.3-3.7,0.6-5.6,0.9c-0.4,0.1-0.9,0.1-1.3,0.2c-1.4,0.2-2.8,0.4-4.2,0.6c-0.7,0.1-1.3,0.2-2,0.3c-1.2,0.2-2.4,0.3-3.6,0.5
		c-0.7,0.1-1.5,0.2-2.2,0.3c-1.1,0.1-2.2,0.3-3.3,0.4c-0.8,0.1-1.6,0.2-2.4,0.3c-1.1,0.1-2.2,0.2-3.2,0.3c-0.8,0.1-1.6,0.2-2.4,0.2
		c-1.1,0.1-2.1,0.2-3.2,0.3c-0.8,0.1-1.6,0.1-2.4,0.2c-1.1,0.1-2.1,0.2-3.2,0.3c-0.8,0.1-1.6,0.1-2.4,0.2c-1.1,0.1-2.1,0.1-3.2,0.2
		c-0.8,0-1.6,0.1-2.4,0.1c-1.1,0.1-2.2,0.1-3.3,0.2c-0.8,0-1.6,0.1-2.4,0.1c-1.1,0-2.3,0.1-3.4,0.1c-0.7,0-1.5,0.1-2.2,0.1
		c-1.3,0-2.5,0.1-3.8,0.1c-0.6,0-1.3,0-1.9,0c-1.9,0-3.8,0-5.6,0c-2.8,0-5.5,0-8.3-0.1c-0.3,0-0.6,0-1,0c-2.6-0.1-5.3-0.1-7.9-0.3
		c-0.4,0-0.9,0-1.3-0.1c-2.6-0.1-5.2-0.3-7.8-0.4c-0.4,0-0.9-0.1-1.3-0.1c-2.6-0.2-5.2-0.4-7.8-0.6c-0.3,0-0.7-0.1-1-0.1
		c-2.7-0.2-5.5-0.5-8.2-0.8c-0.1,0-0.1,0-0.2,0c-2.7-0.3-5.4-0.6-8.1-1c-0.3,0-0.6-0.1-0.9-0.1c-2.6-0.3-5.2-0.7-7.8-1.1
		c-0.4-0.1-0.9-0.1-1.3-0.2c-2.5-0.4-5.1-0.8-7.6-1.3c-0.2,0-0.4-0.1-0.6-0.1L109.7,106.8z M99.1,244.4v11.2h-25v-15.1l0,0
		c0.4,0.2,0.8,0.4,1.2,0.6c0.1,0.1,0.2,0.1,0.3,0.2c0.3,0.1,0.6,0.3,0.9,0.4c0.1,0.1,0.3,0.1,0.4,0.2c0.3,0.1,0.6,0.2,0.9,0.3
		c0.1,0,0.3,0.1,0.4,0.1c0.4,0.1,0.8,0.3,1.2,0.4l0,0c0.4,0.1,0.9,0.2,1.3,0.3c0.1,0,0.3,0.1,0.4,0.1c0.3,0.1,0.6,0.1,1,0.2
		c0.2,0,0.3,0.1,0.5,0.1c0.3,0.1,0.6,0.1,1,0.1c0.1,0,0.3,0,0.4,0c0.5,0,0.9,0.1,1.4,0.1L99.1,244.4z M278.1,255.6h-25v-11.2
		l13.8-0.6c0.5,0,0.9-0.1,1.4-0.1c0.1,0,0.3,0,0.4-0.1c0.3,0,0.6-0.1,1-0.1c0.2,0,0.3-0.1,0.5-0.1c0.3-0.1,0.6-0.1,0.9-0.2
		c0.1,0,0.3-0.1,0.4-0.1c0.4-0.1,0.9-0.2,1.3-0.3c0,0,0,0,0.1,0c0.4-0.1,0.8-0.3,1.2-0.4c0.1,0,0.3-0.1,0.4-0.1
		c0.3-0.1,0.6-0.2,0.9-0.3c0.1-0.1,0.3-0.1,0.4-0.2c0.3-0.1,0.6-0.3,0.8-0.4c0.1-0.1,0.2-0.1,0.3-0.2c0.4-0.2,0.8-0.4,1.1-0.6l0,0
		v15H278.1z M283.8,143.7c-0.6,1-1.5,1.8-2.7,2.1c-3.7,1-7.4,2-11.2,2.9l-7.1,1.7l13,27.7c1.5,3.1,2.2,6.6,2.2,10v31.4
		c0,6.6-5.1,11.9-11.7,12.2l-41.7,1.9c-32.3,1.5-65,1.5-97.2,0l-41.7-1.9C79.1,231.4,74,226,74,219.5v-31.4c0-3.4,0.8-6.9,2.2-10
		l11.6-24.8l-7.4-1.5c-3.3-0.7-6.4-1.4-9.3-2c-2.4-0.6-3.9-2.9-3.3-5.3s2.9-3.9,5.3-3.3c2.1,0.5,4.3,1,6.5,1.5v0.1l7.5,1.5
		c26.6,5.2,53.9,7.8,81.1,7.8c32.2,0,64.3-3.7,95.4-10.9l7.2-1.7v-0.1c2.7-0.7,5.3-1.4,7.9-2.1c2.4-0.6,4.8,0.8,5.4,3.1
		C284.6,141.5,284.4,142.7,283.8,143.7z"/>
	<path style="&st0;" d="M101.3,179.6c-10.2,0-18.5,8.3-18.5,18.5s8.3,18.5,18.5,18.5s18.5-8.3,18.5-18.5S111.5,179.6,101.3,179.6z
		 M101.3,204.6c-3.6,0-6.5-2.9-6.5-6.5s2.9-6.5,6.5-6.5s6.5,2.9,6.5,6.5S104.9,204.6,101.3,204.6z"/>
	<path style="&st0;" d="M233.6,198.1c0,10.2,8.3,18.5,18.5,18.5c10.2,0,18.5-8.3,18.5-18.5s-8.3-18.5-18.5-18.5
		S233.6,187.9,233.6,198.1z M258.6,198.1c0,3.6-2.9,6.5-6.5,6.5s-6.5-2.9-6.5-6.5s2.9-6.5,6.5-6.5S258.6,194.5,258.6,198.1z"/>
	<path style="&st0;" d="M212.9,202.7h-72.2c-3.3,0-6,2.7-6,6s2.7,6,6,6h72.2c3.3,0,6-2.7,6-6S216.2,202.7,212.9,202.7z"/>
	<path style="&st0;" d="M212.9,183.6h-72.2c-3.3,0-6,2.7-6,6s2.7,6,6,6h72.2c3.3,0,6-2.7,6-6S216.2,183.6,212.9,183.6z"/>
</g>
</svg>
