<?xml version="1.0" encoding="utf-8"?>
<!-- Generator: Adobe Illustrator 21.1.0, SVG Export Plug-In . SVG Version: 6.00 Build 0)  -->
<svg version="1.1" id="Layer_1" xmlns="http://www.w3.org/2000/svg" xmlns:xlink="http://www.w3.org/1999/xlink" x="0px" y="0px"
	 viewBox="0 0 3105 1799" style="enable-background:new 0 0 3105 1799;" xml:space="preserve">
<style type="text/css">
	.st0{fill:url(#SVGID_1_);}
	.st1{fill:#E4324A;}
	.st2{fill:#294086;}
	.st3{fill:url(#SVGID_2_);}
	.st4{fill:url(#SVGID_3_);}
	.st5{fill:url(#SVGID_4_);}
	.st6{fill:#7E8080;}
</style>
<linearGradient id="SVGID_1_" gradientUnits="userSpaceOnUse" x1="2123.8708" y1="247.4232" x2="2022.3571" y2="355.5574">
	<stop  offset="0" style="stop-color:#A62436"/>
	<stop  offset="1" style="stop-color:#E4324A"/>
</linearGradient>
<path class="st0" d="M2122.3,250.8c-37.5-36-67.5-28.1-67.9-30.2c-1.1,1.6-2.2,3.3-3.3,5.1c-19.9,30.8-48.1,81.2-48.1,119.2
	c0,58.8,36.7,23.5,36.7,23.5s52-41.1,131.5-70.6C2171.2,297.8,2136.1,264,2122.3,250.8"/>
<path class="st1" d="M2079.1,206.2c-12.4,4.7-19.8,9.7-24.2,13.6c-0.1,0.2-0.3,0.5-0.5,0.7c0.4,2.1,30.4-5.8,67.9,30.2
	c13.8,13.2,48.9,47,48.9,47c23.7,22.8,1.2-1.1,89.8,93.1c10.9-9.1,98.9-82.8,192.5-161.1C2221.2,179.1,2121.4,190.4,2079.1,206.2"/>
<path class="st2" d="M2054.4,220.6c0.2-0.2,0.3-0.5,0.5-0.7C2054.5,220.2,2054.4,220.4,2054.4,220.6"/>
<path class="st2" d="M2500.7,663.9"/>
<linearGradient id="SVGID_2_" gradientUnits="userSpaceOnUse" x1="2387.3928" y1="519.299" x2="2787.6128" y2="21.8295">
	<stop  offset="0" style="stop-color:#E2413C"/>
	<stop  offset="0.1184" style="stop-color:#E6604A"/>
	<stop  offset="0.2652" style="stop-color:#EA8158"/>
	<stop  offset="0.3882" style="stop-color:#ED9561"/>
	<stop  offset="0.4714" style="stop-color:#EE9C64"/>
	<stop  offset="1" style="stop-color:#F19B3F"/>
</linearGradient>
<path class="st3" d="M2840.9,21.5c0,0,0,0-0.1,0c-3.5-1.3-95.9-34.2-158.9,17.7c-31.4,25.8-132.8,110.6-228.4,190.6
	c0.7,0.1,1.4,0.3,2.1,0.4c-0.7-0.2-1.4-0.3-2.1-0.4c-93.6,78.3-181.6,152-192.5,161.2c72.1,76.7,156.8,170.9,239.7,273
	c-2.5-4.6-9.5-20.6,0.8-42.7c10.8-23.7,39.5-100.4,86.4-205l0,0l0,0c6.5-14.4,13.2-29.2,20.4-44.6c44-94.6,101.1-206.5,171.5-320.6
	C2789,36.2,2807.3,21.5,2840.9,21.5"/>
<linearGradient id="SVGID_3_" gradientUnits="userSpaceOnUse" x1="2697.6311" y1="196.4978" x2="3054.1919" y2="196.4978">
	<stop  offset="5.757924e-02" style="stop-color:#006231"/>
	<stop  offset="0.1467" style="stop-color:#027138"/>
	<stop  offset="0.3091" style="stop-color:#048741"/>
	<stop  offset="0.4886" style="stop-color:#069648"/>
	<stop  offset="0.6967" style="stop-color:#079F4C"/>
	<stop  offset="1" style="stop-color:#07A24D"/>
</linearGradient>
<path class="st4" d="M2840.8,21.5c0.1,0,0.1,0,0.1,0c-33.6,0-52,14.7-61.2,29.4C2709.3,165,2652.2,277,2608.3,371.5
	C2813.1,174.6,3048.9,192,3048.9,192s76.5,11.7,36.7-47C3045.8,86.2,2841,21.5,2840.8,21.5"/>
<path class="st2" d="M2500.7,663.9L2500.7,663.9L2500.7,663.9z"/>
<linearGradient id="SVGID_4_" gradientUnits="userSpaceOnUse" x1="2527.4717" y1="571.7053" x2="2721.9807" y2="684.7533">
	<stop  offset="0" style="stop-color:#A62436"/>
	<stop  offset="4.546583e-02" style="stop-color:#AC2538"/>
	<stop  offset="0.257" style="stop-color:#C52B40"/>
	<stop  offset="0.4794" style="stop-color:#D62F46"/>
	<stop  offset="0.7178" style="stop-color:#E13149"/>
	<stop  offset="1" style="stop-color:#E4324A"/>
</linearGradient>
<path class="st5" d="M2500.7,663.9L2500.7,663.9c36.7,45.3,73.1,92.1,107.8,139.5c12.2,17.6,20.9,17.6,30.6,17.6
	c12.2,0,24.5-8.8,21.4-29.4c-2.8-19.2-64.9-337.4-72.7-375.5c-46.9,104.5-75.6,181.3-86.4,205
	C2491.2,643.3,2498.2,659.3,2500.7,663.9"/>
<g>
	<line class="st6" x1="1074.7" y1="1271.8" x2="1073.5" y2="1271.8"/>
	<path class="st6" d="M542.8,1200.6v237.8c0,14.1-4.5,27.1-12,37.9h0c-0.6,0.9-1.2,1.7-1.8,2.5c0,0,0,0,0,0.1
		c-4.3,5.1-10.8,8.5-18,8.6h-68.8c-7.3-0.4-13.7-3.8-17.9-9.2c-0.4-0.4-0.7-0.9-1-1.3c-7.9-10.9-12.5-24.2-12.5-38.6v-237.8
		c0-74.2-60.4-134.6-134.6-134.6c-35.8,0-69.6,14-95,39.4c-25.4,25.7-39.4,59.4-39.4,95.2v237.8c0,14.3-4.6,27.5-12.4,38.4
		c-0.4,0.6-0.8,1.1-1.3,1.7c-4.5,5.5-11.3,9-18.9,9H42c-7.5,0-14.3-3.5-18.7-8.9c0,0,0,0,0,0c-0.4-0.6-0.9-1.2-1.3-1.7
		c0,0,0-0.1,0-0.1c-7.8-10.8-12.3-24-12.3-38.4v-237.8c0-147,119.6-266.6,266.6-266.6C423.2,934,542.8,1053.6,542.8,1200.6"/>
	<path class="st6" d="M2822.9,1200.2l-0.1,0.1c0,0.7,0,1.3,0,1.9v236.5c0,6.7-1,13.2-2.9,19.3c-1.4,4.6-3.3,8.9-5.6,13.1
		c-1.4,2.4-2.9,4.8-4.6,7.1c0,0,0,0,0,0.1c-4.4,5.9-11.5,9.7-19.5,9.7h-68.4c-6.8-0.4-12.9-3.7-17-8.5v0c-0.6-0.7-1.2-1.5-1.7-2.3h0
		c-7.7-10.8-12.3-24.1-12.3-38.3v-256.6c0,0-5.7-116.6-134.4-116.6c-17.4,0-34.1,3.2-49.5,9.2c-1.1,0.4-2.3,0.8-3.4,1.3
		c-22.2,9.2-41.6,24.3-56.1,43.5c-0.9,1.1-1.7,2.3-2.5,3.5c-15.7,22.2-25,49.7-25.1,80.4c-0.8,52.9,16.9,96,50.8,121.1
		c11.9,9,26.6,17,42,22.7c0,0,0.1,0,0.1,0c14.4,5.3,29.4,8.5,43.6,8.5c1.3,0,2.7,0,4,0.2c12.7,0.8,24.5,5.2,34.4,12.2
		c0.3,0.2,0.6,0.4,0.9,0.6l0,0.1c5.7,4.3,9.4,11.2,9.5,18.9v67.9c0,7.8-3.6,14.7-9.3,19.1c-0.5,0.4-0.9,0.7-1.4,1c0,0,0,0,0,0
		c-10.6,7.5-23.4,12-37.3,12.1h-1.2c-14.5,0-28.7-1-42.4-3c-2.1-0.3-4.3-0.7-6.4-1c-4-0.7-7.9-1.5-11.8-2.3
		c-1.2-0.3-2.4-0.6-3.6-0.8c-44.5-10.3-83.7-31.3-115.4-60.9c-0.9-0.8-1.8-1.6-2.6-2.4c-52.6-50.4-83.9-124.3-83.9-210.8
		c0-17,1.4-33.4,4.2-49.4c0.2-1.1,0.4-2.2,0.6-3.3c24.9-122.4,132.6-218.1,261.2-218.1c105,0,169.1,53,204.9,96.9
		c45.4,55.8,57.3,110.7,60.3,135.9c0.2,2.1,0.6,4.9,0.9,6.8c0,0.3,0,0.5,0.1,0.7C2822.5,1184,2822.9,1192.1,2822.9,1200.2"/>
	<path class="st6" d="M2220.3,1385.5L2220.3,1385.5c0,0.4,0,0.8,0,1.2c0,16.8,0,48.4,0,65.7v1.4c-0.2,7.1-3.5,13.5-8.5,17.8
		c-0.9,0.7-1.8,1.3-2.7,2c-10.9,7.7-24.1,12-38,12H2087c-131.5-16.9-231.4-129.3-232.5-262l-0.1-17.8h0V1073h-50.7
		c-3.8,0-8.1-0.7-11.7-1.3l-1.6-0.3h-0.7c-8.8-1.9-16.9-5.6-24-10.5l0,0c-0.9-0.6-1.8-1.3-2.7-2c-5.2-4.4-8.5-11-8.6-18.3v-0.3
		v-66.1v-1.3c0.2-7.2,3.5-13.6,8.6-17.9c0,0,0,0,0,0c0.8-0.6,1.6-1.2,2.4-1.8c10.6-7.5,23.6-12,37.5-12.1l50.6-0.1v-71.4
		c0-14.8,4.9-28.5,13.1-39.6c0,0,0.1-0.1,0.1-0.1c0.3-0.4,0.6-0.8,0.9-1.2c0,0,0.1-0.1,0.1-0.1c4.3-5.2,10.8-8.6,18-8.8h68.1
		c7,0,13.4,3,17.8,7.7c1.1,1.3,2,2.6,3,4c7.6,10.8,12,24,12,38.1c0,0,0,37,0,47.3c0,27.5,23.9,23.9,25.3,24.1h159.1
		c4,0,7.8,0.4,11.7,1.1l0,0l2,0.4c1.5,0.3,3.1,0.8,4.9,1.3l1.3,0.3c6.8,2.1,13.1,5.4,18.8,9.5c0.5,0.4,1.1,0.8,1.7,1.3
		c0,0,0,0,0.1,0.1c5.2,4.3,8.6,10.8,8.8,18.1v68.7c-0.3,7.1-3.6,13.4-8.8,17.7c-0.7,0.5-1.4,1.1-2.1,1.6
		c-11.1,7.9-24.3,12.2-38.3,12.2h-148c-17.6,0-23.1-1.9-31.6,7.3c-6.7,7.2-5,21.5-5,46.6v94.3c0,42.3,20.2,82.6,53.9,107.8
		c16.9,12.5,28.5,18.7,51,23.4c10.4,1.1,12.1,1.2,12.1,1.2h67.6c13.8,0,27,4.3,38,12c0,0,0,0,0.1,0.1c0.9,0.6,1.8,1.3,2.7,2l0,0
		C2216.9,1372.1,2220.1,1378.4,2220.3,1385.5"/>
	<path class="st6" d="M1733.2,1321.8c0,91.5-74.4,165.9-165.9,165.9c0,0-305.4-0.4-308.8-0.4c-0.9,0-1.7-0.1-2.1-0.1
		c-11.5-1.5-22.1-5.8-30.9-12.2c-0.3-0.2-0.6-0.5-0.9-0.7c-5.4-4.3-9-10.9-9.3-18.3v-68.2c0.2-7.7,3.9-14.4,9.6-18.8
		c0.2-0.1,0.4-0.3,0.6-0.4c10.2-7.4,22.3-11.8,35.2-12.7h292.1c2.7,0,5.1-0.2,7.4-0.6h0.6l1.8-0.4c19.2-4,33.2-21.2,33.2-40.8
		c0-6-1.1-11.4-3.2-16c-5.3-13-17-22.6-30.7-25l-1.6-0.3h-191.3c-81.8-5.5-148.2-71.1-154.5-152.9c-0.3-4.2-0.5-8.5-0.5-13.1
		c0-91.7,74.6-166.3,166.3-166.3h84.2c5.8,0,167.9,0.2,167.9,0.2c0.9,0,5.2,0.2,8.6,0.3l0.4,0h0.4c0.1,0,0.3,0,0.4,0l1,0.2l0.5,0
		c11.4,1.3,21.8,5.4,30.6,11.7v0c0.5,0.3,0.9,0.7,1.4,1c0,0,0,0.1,0,0.1c5.5,4.3,9,11,9.2,18.4v68.1c-0.2,7.5-3.8,14.1-9.3,18.4
		c-0.1,0.1-0.2,0.2-0.4,0.3c-0.2,0.1-0.4,0.3-0.6,0.4c0,0,0,0-0.1,0c-10.4,7.6-22.7,12-35.4,12.5l-0.7,0l-0.7,0.1
		c-0.4,0-1.4,0-2.1,0h-235.6l-7.6-0.1c-2.7,0-8.2,0.6-8.2,0.6l-1.8,0.4c-19.3,4-33.2,21.2-33.2,40.8c0,5.9,1.1,11.3,3.2,16
		c5.1,12.9,16.2,22.2,30.2,25l2.9,0.4l158.4-0.1c0,0,22.1,0.2,23.1,0.2c84.4,0,155.2,63,164.9,146.7l0.1,0.7
		C1732.8,1309.4,1733.2,1315.4,1733.2,1321.8"/>
	<path class="st6" d="M1142.9,1387.5v0.8c0,17.9,0,48.2,0,66.2c0,0,0,0,0,0.1v0.6c-0.1,7.4-3.5,14-8.8,18.4
		c-0.5,0.4-1.1,0.8-1.6,1.2c-10.7,7.8-23.9,12.6-38.1,12.7c-0.5-0.1-1.1-0.1-1.8-0.1H880.4c-0.8,0-1.5,0-2.2,0.1
		c-117.9,0-214.1-72-251-178c-10.8-30.9-15.4-67.1-15.4-102.3c0-147,119.6-272,266.6-272c105,0,169,53,204.9,96.9
		c60,73.6,60.8,147.3,61,150.5c0.3,4.6,0,47.8-20.6,67.3c-11.6,10.9-30.9,21.8-49,21.8c-0.4,0-195.5,0-195.5,0
		c-14.5,0-28-4.7-38.9-12.7c-0.1-0.1-0.1-0.1-0.2-0.2c-0.2-0.1-0.4-0.3-0.6-0.4c-0.1,0-0.1-0.1-0.1-0.1c-5.4-4.3-9-10.9-9.3-18.3
		v-54.2c0.3-7.3,3.8-13.8,9.1-18.1c0.5-0.4,0.9-0.7,1.4-1c10.9-7.8,24.2-12.4,38.6-12.4l124.4-0.7c-22.1-52.6-63.8-86.9-131.9-86.9
		c-66.6,0-129.2,55.8-129.2,139.2c0,74.1,61.9,149.4,136,149.4h215.1c10,0,19.3,2.1,27.8,6.1l0.4,0.2c4.1,1.9,7.8,4.1,11.2,6.7
		c0.1,0.1,0.2,0.2,0.4,0.3c0.2,0.2,0.5,0.4,0.7,0.6c0,0,0,0,0,0C1139.4,1373.5,1142.7,1380.1,1142.9,1387.5"/>
	<path class="st6" d="M1764.6,1720.5c10.5,9,23.1,13.5,37.6,13.6c17.2-0.3,25.9-6.6,26.2-19c0.1-10.2-5.6-16.3-17.2-18.4
		c-5.3-0.8-11.1-1.6-17.5-2.5c-11.4-2-20.1-6.3-26-13c-6.1-7-9.2-15.4-9.2-25.3c0-11.9,3.8-21.6,11.5-28.9
		c7.5-7.3,18-10.9,31.7-11.1c16.4,0.4,30.7,5.1,42.9,14.1l-11.2,17c-9.9-6.8-20.9-10.3-32.8-10.5c-6.2,0-11.3,1.6-15.4,4.8
		c-4.3,3.3-6.5,8.3-6.6,14.8c0,3.9,1.5,7.5,4.5,10.7c3,3.2,7.7,5.5,14.2,6.8c3.6,0.6,8.6,1.3,14.9,2.2c12.4,1.8,21.6,6.3,27.5,13.8
		c5.9,7.3,8.8,15.8,8.8,25.5c-0.7,26.1-16.1,39.4-46.4,39.8c-19.6,0-36.4-6.2-50.5-18.6L1764.6,1720.5z"/>
	<path class="st6" d="M1920.8,1745h-0.4c-1.8,3.3-4.4,5.7-8.2,7.3c-3.6,1.6-8.7,2.4-15.1,2.4c-10.5-0.1-18.6-3-24.3-8.6
		c-6-5.5-9-12.5-9-21.1c0-8.2,2.6-15,7.8-20.3c5.2-5.5,12.8-8.3,22.9-8.4h26.2V1686c0.1-8.6-6.3-12.8-19.3-12.5
		c-4.7,0-8.4,0.5-11.2,1.5c-2.9,1.2-5.1,3.2-6.7,6l-14.9-11.7c7.2-9.7,17.8-14.4,31.8-14.2c11.9-0.1,21.3,2.2,28.4,6.9
		c7.1,4.9,10.7,13.3,10.8,25.1v66.4h-18.9V1745z M1920.8,1712.4H1898c-11,0.3-16.5,4.2-16.3,11.7c0,3.3,1.4,6.1,4.3,8.4
		c2.7,2.5,7.3,3.8,13.5,3.8c7.9,0.1,13.5-0.8,16.8-2.9c3-2.1,4.5-6.8,4.5-14V1712.4z"/>
	<path class="st6" d="M1963.2,1617h18.9v111.6c0,4.4,2.4,6.7,7.1,6.7h6.6v18.4h-8.4c-6.9,0-12.6-1.8-17-5.3
		c-4.7-3.6-7.1-9.7-7.1-18.2V1617z"/>
	<path class="st6" d="M2064,1745h-0.4c-1.8,3.3-4.5,5.7-8.2,7.3c-3.6,1.6-8.7,2.4-15.1,2.4c-10.5-0.1-18.6-3-24.3-8.6
		c-6-5.5-9-12.5-9-21.1c0-8.2,2.6-15,7.8-20.3c5.2-5.5,12.8-8.3,22.9-8.4h26.2V1686c0.1-8.6-6.3-12.8-19.3-12.5
		c-4.7,0-8.5,0.5-11.2,1.5c-2.8,1.2-5.1,3.2-6.7,6l-14.9-11.7c7.2-9.7,17.8-14.4,31.8-14.2c11.9-0.1,21.3,2.2,28.4,6.9
		c7.1,4.9,10.7,13.3,10.8,25.1v66.4H2064V1745z M2064,1712.4h-22.7c-11,0.3-16.5,4.2-16.4,11.7c0,3.3,1.4,6.1,4.3,8.4
		c2.7,2.5,7.3,3.8,13.6,3.8c7.9,0.1,13.6-0.8,16.8-2.9c3-2.1,4.5-6.8,4.5-14V1712.4z"/>
	<polygon class="st6" points="2093.1,1656.4 2113.2,1656.4 2135.3,1724.5 2135.7,1724.5 2157.7,1656.4 2177.9,1656.4 2143.3,1753.6 
		2127.7,1753.6 	"/>
	<path class="st6" d="M2202.6,1712.4c0,7.8,2.2,13.8,6.5,17.8c4.1,4.1,9.4,6.2,16,6.2c7.7,0,14.6-3.2,20.6-9.5l13.7,12.1
		c-9.6,10.6-20.9,15.9-33.9,15.7c-5,0-9.8-0.7-14.5-2.2c-2.4-0.8-4.7-1.9-6.9-3.3c-2.4-1.2-4.6-2.7-6.6-4.4c-4-3.6-7.2-8.7-9.7-15.2
		c-2.7-6.3-4.1-14.4-4.1-24.4c0-9.6,1.2-17.6,3.5-24c2.4-6.5,5.4-11.6,9.1-15.4c3.7-3.8,8-6.5,12.6-8.2c4.6-1.7,9.1-2.5,13.6-2.5
		c10.8,0.1,19.9,3.8,27.3,10.9c7.5,7.3,11.4,17.4,11.5,30.2v16.1H2202.6z M2242.4,1696.3c-0.2-7.6-2.2-13.3-5.9-17.2
		c-3.6-3.7-8.3-5.6-14-5.6c-5.7,0-10.4,1.9-14,5.6c-3.6,3.9-5.5,9.6-5.9,17.2H2242.4z"/>
	<path class="st6" d="M2281.1,1656.4h18.9v10.3h0.4c6.2-7.7,14.4-11.5,24.5-11.5c7.6,0.1,14.2,2.6,19.8,7.5l-13.8,16.9
		c-4-3.2-8.2-4.9-12.5-4.9c-4.8,0-9,1.6-12.4,4.9c-3.9,3.2-5.9,8.3-6,15.5v58.6h-18.9V1656.4z"/>
	<path class="st6" d="M2357.1,1656.4h18.9v10.3h0.4c6.3-7.7,14.4-11.5,24.5-11.5c7.6,0.1,14.1,2.6,19.8,7.5l-13.8,16.9
		c-4-3.2-8.2-4.9-12.4-4.9c-4.9,0-9,1.6-12.5,4.9c-3.9,3.2-5.9,8.3-6,15.5v58.6h-18.9V1656.4z"/>
	<path class="st6" d="M2426.2,1656.4h20.1l22.3,68.1h0.3l22.2-68.1h20.1l-40.5,117.4c-2.6,7.3-6.2,12.4-10.8,15.2
		c-4.6,2.7-9.9,4-15.8,4h-6.3v-18.4h5.5c2.5,0,4.8-0.7,6.9-2c2.1-1.4,3.6-3.6,4.4-6.4l5.2-16.3L2426.2,1656.4z"/>
	<polygon class="st6" points="2561,1715 2605.2,1617 2626.3,1617 2581.6,1715 2616.2,1715 2616.2,1675.6 2635.1,1675.6 2635.1,1715 
		2645.7,1715 2645.7,1733.3 2635.1,1733.3 2635.1,1753.6 2616.2,1753.6 2616.2,1733.3 2561,1733.3 	"/>
	<polygon class="st6" points="2653.5,1617 2728.7,1617 2728.7,1636.5 2683.9,1753.6 2662.8,1753.6 2707.4,1636.5 2672.4,1636.5 
		2672.4,1656.3 2653.5,1656.3 	"/>
	<path class="st6" d="M2745.9,1617h70.5v19.5h-52.8v31.2c6.2-5,13.3-7.5,21.2-7.5c5.1,0.1,9.8,1.1,14,2.8c4,1.9,7.3,4.3,9.7,7.1
		c3.7,3.8,6.4,8.1,8,13c0.8,2.7,1.4,6,1.8,9.8c0.4,3.9,0.6,8.8,0.6,14.5c0,8.9-0.6,15.7-1.8,20.4c-1.3,4.7-3.4,8.8-6.4,12.5
		c-2.6,3.5-6.4,6.8-11.3,9.7c-4.9,3-10.6,4.6-17.2,4.7c-9,0-17.2-2.7-24.6-8.2c-7.6-5.6-12.3-14.7-14.1-27.2h19
		c2.1,10.5,8.4,15.8,19,15.9c4.6,0,8.2-0.9,10.9-2.8c2.6-1.8,4.4-4.2,5.5-7.1c1.1-2.9,1.8-6.1,2-9.6c0.1-3.4,0.2-6.7,0.2-9.9
		c0.1-7.8-1.1-14.2-3.6-19c-1.3-2.3-3.3-4.2-5.9-5.5c-2.6-1.1-5.9-1.7-9.8-1.7c-3.5,0-6.6,0.8-9.5,2.4c-2.9,1.7-5.4,4.6-7.7,8.8
		h-17.8V1617z"/>
</g>
</svg>
