<svg xmlns="http://www.w3.org/2000/svg" width="116.28" height="140.015" viewBox="0 0 116.28 140.015">
  <g id="Grupo_122" data-name="Grupo 122" transform="translate(0)">
    <path id="Trazado_424" data-name="Trazado 424" d="M385.8,0q-1.459,0-2.9.059c-50.559,2.05-73.418,64.59-37.226,99.951l40.947,40L427.1,99.533C461.867,64.765,440.744,4.343,391.743.247Q388.8,0,385.8,0" transform="translate(-328 0)" fill="#101820"/>
    <path id="Trazado_425" data-name="Trazado 425" d="M396.06,56.828h-7.726V47.494h2.239a1.135,1.135,0,0,0,0-2.27H378.193a13.328,13.328,0,0,0,7.348-11.917,1.136,1.136,0,0,0-1.135-1.135h-4.384a1.135,1.135,0,1,0,0,2.27h3.19a11.069,11.069,0,0,1-22.021,0h11.042a1.136,1.136,0,0,0,1.135-1.135V24.536a4.526,4.526,0,0,1,9.051,0v.757a1.135,1.135,0,1,0,2.27,0v-.757a6.794,6.794,0,0,0-12.456-3.757,6.795,6.795,0,0,0-12.457,3.757v.82a1.136,1.136,0,0,0,2.271,0v-.82a4.525,4.525,0,0,1,9.051,0v7.636H360a1.136,1.136,0,0,0-1.135,1.135,13.328,13.328,0,0,0,7.348,11.917h-12.22a1.135,1.135,0,1,0,0,2.27h2.239v9.334H348.5a1.136,1.136,0,0,0,0,2.271h3V69.821a1.137,1.137,0,0,0,1.136,1.136h39.293a1.137,1.137,0,0,0,1.135-1.136V59.1h3a1.136,1.136,0,0,0,0-2.271M358.5,47.494h27.562v9.334H358.5Zm32.293,21.192H353.77V59.1h37.023Z" transform="translate(-315.65 11.311)" fill="#fff"/>
  </g>
</svg>
