<?xml version="1.0" encoding="utf-8"?>
<!-- Generator: Adobe Illustrator 23.0.1, SVG Export Plug-In . SVG Version: 6.00 Build 0)  -->
<svg version="1.1" id="Capa_1" xmlns="http://www.w3.org/2000/svg" xmlns:xlink="http://www.w3.org/1999/xlink" x="0px" y="0px"
	 viewBox="0 0 578.28 117.12" style="enable-background:new 0 0 578.28 117.12;" xml:space="preserve">
<path id="XMLID_321_" style="fill:#90A733;" d="M573.78,65.74c-2.34-0.04-10.87,0.97-12.28-1.96c0.66-1.02,4.18-1.26,5.14-1.54
	c2.41-0.69,2.08-1.05,3.82-3.3c1.52-1.96,6.12-3.07,1.75-5.16c-1.58-0.76-3.35-0.91-5.13-0.98c-1.64-0.06-9.84,1.17-10.76-0.18
	c-1.85-2.74,7.85-2.56,8.91-4.26c-1.78-1.74-5.29-0.4-7.64-0.44c-2.48-0.04-5.15-0.76-7.3-0.8c-0.42-1.41,3.26-1.7,3.5-2.21
	c-0.09,0.18-6.5-1.11-7.33-1.23c-2.92-0.4-5.92-0.1-9.24-0.15c-3.9-0.06-8.12,0.43-11.98-0.2c-1.13-0.19-5.19-0.65-2.62-3.15
	c-1.03-0.48-4.39,0.49-4.31-1.37c0.07-1.49,3.13-0.87,3.79-0.93c1.07-0.11,3.81-0.14,5.02-0.59c0.19-0.07,3.15-2.01,3.26-2.19
	c0.69-1.1-3.33-1.19-3.42-1.19c-0.68-2.28,9.3-5.45,10.31-7.08c1.58-2.58-3.45-4.07-3.65-6.71c-0.09-1.22,1.79-1.81,1.38-4.06
	c0.08,0.44-2.03-2.48-1.67-2.29c-0.84-0.46-2.24,0.15-3.17-0.06c0.09,0.02-0.83-1.26-1.03-1.33c-2.44-0.9-2.91-0.54-5.16-2.14
	c-1.67-1.19-3.72-3.53-5.79-3.86c-1.51-0.24-4.23,0.3-6.07,0.27c-1.52-0.03-2.64-0.98-4.24-1.37c-1.53-0.37-3.62-0.62-4.99-0.77
	c-2.78-0.31-5.34-1.17-7.88-1.52c-10.06-1.35-20.39-0.96-30.33-0.16c-7.39,0.59-14.94,2.06-22.39,1.94
	c-8.96-0.15-17.92,1.76-26.97,1.61c-7.93-0.13-16.09,2.12-23.97,2.97c-10.56,1.14-21.84-0.51-32.01-1.88
	c-5.5-0.74-11.31-0.03-16.73-0.62c-4.76-0.52-9.84-1.07-14.45-1.25c-21.63-0.84-43.52-2.43-65.35-2.75
	c-33.2-0.5-69.21,0.57-102.39,3.23c-17.44,1.4-34.07,3.99-51.51,5.35c-8.97,0.7-18.07,2.12-27.09,0.98
	c-5.17-0.65-10.18-0.96-15.2-1.05c-1.12-0.02-3.19-0.44-4.16-0.07c-0.81,0.31-0.88,1.57-1.37,1.79c-0.75,0.33-4.31,0.65-4.61,1.03
	c0.07,0.43,0.26,0.58,0.57,0.47c0.43,1.76-8.34,1.53-9.31,1.53c-2.2,0.02-5.47,0.28-7.52,0.21c-0.72-0.02-3.59-0.17-3.68-0.21
	c0.59,0.28,6.08,2.69,6.07,2.69c-1.32,2.48-9.52,0.78-11.52,0.74c-1.7-0.03-3.44-0.23-5.14-0.09c-0.28,0.02-0.46,1.35-0.4,1.34
	c-0.99,0.08-1.53-0.96-2.97-0.73c-0.46,0.07-1.31,0.86-2.03,1.31c-1.83,1.15-2.47,1.32-4.78,1.28c-3-0.05-9.73-2.24-12.3,0.19
	c1.27,1.25,8.17,2.24,5.53,6c-1.55,2.22-2.59-1.06-2.16,1.76c0.3,1.99,1.55,2.17,2.81,2.75c2.05,0.94,6,0.22,7.66,2.36
	c1.38,1.78-0.15,3.49,0.08,4.53c0.05,0.22,1.4,1.08,1.41,1.06c-0.46,2.37-0.26,0.27-1.33,1.86c-0.35,0.52,7.98,1.89,8.34,2.22
	c3.68,3.37-6.73,2.35-6.96,2.11c2.24,2.3,6.12,1,8.36,3.03c0.89,0.81,1.08,2.57,2.42,3.39c-0.02-0.01,1.62-0.35,1.88-0.28
	c0.4,0.1,0.61,0.79,0.87,0.9c1.93,0.84,3.97,1.34,5.44,1.57c2.25,0.35,4.77,0.3,7.12,0.79c0.54,0.11,2.59,1.19,3.44,1.41
	c1.16,0.3,5.1,0.15,5.79,1.77c2.17,5.15-11.37,2.22-13.16,2.17c-2.2-0.06-4.09-0.07-6.13-0.46c-0.78-0.15-7.3-1.73-5.02,1.44
	c0.65,0.9,4.99,0.37,2.4,3.37c-0.28,0.33-6.2,0.68-5.92,1.23c1.47,2.86,7.15,1.51,9.74,4.05c-1.07,1.03-2.41-0.25-3.48,0.7
	c3.51,3.64-2.14,3.18-3.2,3.06c-1.38-0.15-5.52-0.94-3.35,1.86c0.09,0.12,2.31,0.67,2.79,0.94c0.29,0.17,1.71,2.1,2.4,2.4
	c1.12,0.5,6.21,0.38,4.01,2.57c1.46,1.42,3.53,1.17,5.26,1.75c1.67,0.57,3.35,1.51,5.02,2.11c6.37,2.27-3.27,0.93-1,5.21
	c0.78,1.47,6.85,2.04,8.19,2.33c3.33,0.73,6.58,1.66,10.22,2.2c7.82,1.14,15.38,3.63,23.41,3.77c11.94,0.21,23.69,2.5,35.93,1.27
	c10.8-1.09,22.92-1.5,33.46-0.23c3.5,0.42,4.89,2.81,8.24,3.26c4,0.54,7.4,1.32,11.05,2.54c17.99,5.99,37.8,3.67,56.22,4.35
	c5.31,0.2,10.04-0.01,14.45,0.24c1.28,0.07,1.15,0.56,1.96,0.66c1.48,0.19,3.11-1.08,3.99-1.07c1.6,0.02,2.93,1.64,4.67,1.94
	c0.4,0.07,1.81-0.41,2.5-0.3c0.7,0.12,1.78,0.92,2.53,1.18c1.32,0.46,2.45,0.54,4.02-0.08c3.37-1.32,7.22,0.21,10.51-2.81
	c-3.02-3.35,0.23-3.06,2.94-3.02c3.11,0.05,6.22,0.1,9.32,0.16c7.19,0.12,14.67-0.43,22.07-0.31c10.09,0.17,19.89-1.91,30.02-2.87
	c12.3-1.17,24.35,0.42,36.4-0.74c11.58-1.12,23.98-2.3,35.86-2.1c11.74,0.2,22.92-0.31,33.82-4.15c3.12-1.1,5.77-1.64,8.46-4.44
	c1.72-1.79,2.52-4.92,4.52-6.16c1.25-0.78,3.21-1.1,4.66-1.56c8.9-2.84,18.43-2.64,27.8-3.3c4.9-0.34,9.77-1.41,14.61-1.77
	c4.68-0.35,9.71-2.46,14.53-3.14c8.49-1.21,16.75-4.09,24.71-7.01c2.19-0.81,3.82,0.17,6.13-0.63c1.89-0.65,3.81-2.18,5.61-2.54
	c3.18-0.62,6.09-0.22,9.28-0.52c2.11-0.2,6.6,0.77,8.17-0.84C574.47,66.45,574.12,66.09,573.78,65.74
	C571.44,65.7,574.2,66.05,573.78,65.74z"/>
</svg>
