<svg xmlns="http://www.w3.org/2000/svg" viewBox="0 0 148.69 40.64"><g id="Capa_2" data-name="Capa 2"><g id="Capa_1-2" data-name="Capa 1"><rect x="62.63" y="0.63" width="2.53" height="40" fill="#fff"/><polygon points="30.4 2.02 42.88 14.49 42.88 37.78 22.87 37.78 2.86 37.78 2.86 3.48 20.01 3.48 20.01 17.77 21.44 17.77 21.44 17.77 21.44 17.77 22.87 17.77 22.87 3.48 22.87 0.62 20.01 0.62 2.86 0.62 0 0.62 0 3.48 0 37.78 0 40.64 2.86 40.64 22.87 40.64 42.88 40.64 42.88 40.64 45.73 40.64 45.73 40.64 45.73 37.78 45.73 14.91 45.73 14.91 45.73 13.31 32.42 0 30.4 2.02" fill="#fff"/><path d="M88.16,5.77,88,5.65a.71.71,0,0,1-.13-.12,2.94,2.94,0,0,0,.68-1.93,2.92,2.92,0,0,0-.23-1.18,3.35,3.35,0,0,0-.66-1A3,3,0,0,0,86.3.63H82.53V11h4.19a3.19,3.19,0,0,0,.77-.31,2.71,2.71,0,0,0,.67-.51,2.92,2.92,0,0,0,.68-1A3,3,0,0,0,89.08,8a3.06,3.06,0,0,0-.24-1.2A2.88,2.88,0,0,0,88.16,5.77ZM84.33,2.33h1.2a1.12,1.12,0,0,1,.48.1,1.46,1.46,0,0,1,.41.27,1.36,1.36,0,0,1,.26.41,1.21,1.21,0,0,1,.11.49,1.18,1.18,0,0,1-.11.5,1.16,1.16,0,0,1-.26.39,1.46,1.46,0,0,1-.41.27,1.12,1.12,0,0,1-.48.1h-1.2Zm2.56,6.54a1.23,1.23,0,0,1-.91.37H84.33V6.67H86a1.23,1.23,0,0,1,.91.37,1.28,1.28,0,0,1,.38.92A1.25,1.25,0,0,1,86.89,8.87Z" fill="#fff"/><polygon points="95.57 10.96 99.42 10.96 99.42 9.16 95.57 9.16 95.57 6.43 99.42 6.43 99.42 4.62 95.57 4.62 95.57 2.34 99.42 2.34 99.42 0.63 93.76 0.63 93.76 10.97 95.57 10.97 95.57 10.96" fill="#fff"/><path d="M107.21,9.16a.85.85,0,0,1-.42-.07,1.09,1.09,0,0,1-.35-.24l-1.18-1.2L104,8.91l1.18,1.2a2.83,2.83,0,0,0,1,.66,2.91,2.91,0,0,0,1.07.2h0a2.64,2.64,0,0,0,1.11-.24,2.53,2.53,0,0,0,.51-.28,2.79,2.79,0,0,0,.44-.4,2.71,2.71,0,0,0,.57-.89,2.83,2.83,0,0,0,.2-1,2.64,2.64,0,0,0-.18-1,3,3,0,0,0-.56-.9l0,0-2.68-2.34a1,1,0,0,1-.24-.75,1,1,0,0,1,.38-.74l0,0a1,1,0,0,1,.79-.26,1.06,1.06,0,0,1,.74.4l.86,1.07,1.42-1.12-.87-1.09a2.77,2.77,0,0,0-.89-.73,3.38,3.38,0,0,0-.52-.22,2.63,2.63,0,0,0-.56-.1,3.07,3.07,0,0,0-1.12.1,2.86,2.86,0,0,0-1,.57l0,0a3.12,3.12,0,0,0-.71.93,2.71,2.71,0,0,0-.3,1.08A2.84,2.84,0,0,0,104.71,4a3.54,3.54,0,0,0,.25.52,2.48,2.48,0,0,0,.34.48l0,0L108,7.42a1,1,0,0,1,.25.7,1.07,1.07,0,0,1-.29.71A1,1,0,0,1,107.21,9.16Z" fill="#fff"/><polygon points="117.74 10.97 119.55 10.97 119.55 2.38 122.11 2.38 122.11 0.63 115.24 0.63 115.24 2.38 117.74 2.38 117.74 10.97" fill="#fff"/><path d="M83.86,21.55l1.65,0a3,3,0,0,0,.93-.3,3.38,3.38,0,0,0,.79-.57,3,3,0,0,0,.67-3.35,2.8,2.8,0,0,0-.67-1A2.93,2.93,0,0,0,86,15.55H82.06v10.3h1.8Zm0-4.32h1.2a1.19,1.19,0,0,1,.49.1,1.09,1.09,0,0,1,.4.27A1.24,1.24,0,0,1,86.23,19a1.26,1.26,0,0,1-.28.4,1.38,1.38,0,0,1-.89.37h-1.2Z" fill="#fff"/><polygon points="94.77 25.84 98.61 25.84 98.61 24.05 94.77 24.05 94.77 15.51 92.96 15.51 92.96 25.85 94.77 25.85 94.77 25.84" fill="#fff"/><path d="M105.49,15.47l-3.93,10.38h1.93l.87-2.27h4.25l.88,2.27h1.94l-4-10.38Zm-.45,6.3L106.45,18l1.46,3.74Z" fill="#fff"/><path d="M116.62,18.3a3.23,3.23,0,0,1,1.11-.74,3.45,3.45,0,0,1,2.53,0,3.23,3.23,0,0,1,1.11.74L122.66,17A5.21,5.21,0,0,0,119,15.5a5.14,5.14,0,0,0-2,.39A5,5,0,0,0,115.33,17a5.19,5.19,0,0,0-1.14,1.7,5.38,5.38,0,0,0-.28,2.94,5.53,5.53,0,0,0,.28,1,5.34,5.34,0,0,0,1.14,1.71,5,5,0,0,0,1.72,1.14,5.32,5.32,0,0,0,3.9,0,5,5,0,0,0,1.71-1.14l-1.29-1.27a3.36,3.36,0,0,1-3.67.72,3.3,3.3,0,0,1-1.08-.72,3.45,3.45,0,0,1-.74-1.09,3.34,3.34,0,0,1,.74-3.68Z" fill="#fff"/><polygon points="132.35 24.05 128.5 24.05 128.5 21.31 132.35 21.31 132.35 19.5 128.5 19.5 128.5 17.23 132.35 17.23 132.35 15.51 126.69 15.51 126.69 25.85 128.5 25.85 128.5 25.84 132.35 25.84 132.35 24.05" fill="#fff"/><polygon points="81.4 32.05 83.91 32.05 83.91 40.64 85.71 40.64 85.71 32.05 88.27 32.05 88.27 30.3 81.4 30.3 81.4 32.05" fill="#fff"/><path d="M100.94,31.31a5.38,5.38,0,0,0-1.72-1.16,5.49,5.49,0,0,0-4.26,0,5.43,5.43,0,0,0-1.73,1.16,4.71,4.71,0,0,0-.68.81,6.78,6.78,0,0,0-.49.92,5.45,5.45,0,0,0-.44,2.13,5.38,5.38,0,0,0,.44,2.13,6.23,6.23,0,0,0,.49.92A6.08,6.08,0,0,0,94,39.71a6.23,6.23,0,0,0,.92.49,5.38,5.38,0,0,0,2.13.44,5.45,5.45,0,0,0,2.13-.44,6.12,6.12,0,0,0,.91-.49,4.71,4.71,0,0,0,.81-.68,5.3,5.3,0,0,0,1.17-1.73,5.49,5.49,0,0,0,0-4.26A5.4,5.4,0,0,0,100.94,31.31Zm-.5,5.28a3.63,3.63,0,0,1-.78,1.17,3.7,3.7,0,0,1-1.16.78,3.52,3.52,0,0,1-1.41.29,3.57,3.57,0,0,1-1.42-.29,3.59,3.59,0,0,1-2-1.95,3.57,3.57,0,0,1-.29-1.42,3.52,3.52,0,0,1,.29-1.41,3.7,3.7,0,0,1,.78-1.16,3.63,3.63,0,0,1,1.17-.78,3.41,3.41,0,0,1,1.42-.29,3.36,3.36,0,0,1,1.41.29,3.64,3.64,0,0,1,1.94,1.94,3.52,3.52,0,0,1,.29,1.41A3.57,3.57,0,0,1,100.44,36.59Z" fill="#fff"/><polygon points="114.58 30.3 112.77 30.3 112.77 40.64 114.58 40.64 114.58 40.63 118.43 40.63 118.43 38.83 114.58 38.83 114.58 30.3" fill="#fff"/><rect x="123.04" y="30.3" width="1.81" height="10.34" fill="#fff"/><polygon points="134.65 38.11 131.61 30.28 129.67 30.28 133.71 40.64 135.61 40.64 139.54 30.28 137.61 30.28 134.65 38.11" fill="#fff"/><polygon points="148.69 32.01 148.69 30.3 143.03 30.3 143.03 40.64 144.84 40.64 144.84 40.63 148.69 40.63 148.69 38.83 144.84 38.83 144.84 36.1 148.69 36.1 148.69 34.29 144.84 34.29 144.84 32.01 148.69 32.01" fill="#fff"/></g></g></svg>