<svg xmlns="http://www.w3.org/2000/svg" width="348.001" height="391.936" viewBox="0 0 348.001 391.936">
  <path id="Trazado_527" data-name="Trazado 527" d="M1.571,387.38c.473.036,1.064.009,1.291-.327.336.072.209.582.546.645a.608.608,0,0,0,.354-.073c.309-.136.618-.272.937-.409a2.681,2.681,0,0,0,.945,1.028.887.887,0,0,0,.655.172c.291-.072.391-.354.6-.527A1.35,1.35,0,0,1,8,387.68a3.5,3.5,0,0,1,.991.455c.645.381,1.3.763,1.955,1.145a1.478,1.478,0,0,0,1.191.273,1.79,1.79,0,0,1,2.263.909c.319-.145.628-.291.937-.436a1.487,1.487,0,0,1,.364.645,1.528,1.528,0,0,1,1.045-.363,2.378,2.378,0,0,1,.555.19,2.106,2.106,0,0,0,1.491-.027c.318-.127.572-.536.264-.664a1.805,1.805,0,0,1,1.618.182c.191.146.327.328.536.473a.8.8,0,0,0,.755.064c.236-.137.254-.437.5-.564.363-.182.754.137,1.164.218a1.325,1.325,0,0,0,1.036-.291,2.7,2.7,0,0,0,.6-.772c.382.163.755.327,1.146.5.009-.146.027-.291.036-.437.364-.009.718-.027,1.073-.036.036-.118.082-.237.127-.355a1.358,1.358,0,0,0,.782.037c.245-.1.327-.428.082-.5a.852.852,0,0,1,.827-.282.728.728,0,0,1,.637.527,2.147,2.147,0,0,1,.854-.382.451.451,0,0,1,.346.018c.209.155-.182.391-.273.619s.164.436.445.472a1.881,1.881,0,0,0,.828-.136.6.6,0,0,0,.191.664.741.741,0,0,0,.827.018c.364-.282.155-.909.646-1.046.454-.127.736.428,1.209.509a2.053,2.053,0,0,0,.109-.936,1.981,1.981,0,0,0,1.764-.136c.218-.137.427-.337.7-.319.409.046.618.582,1.009.455a.681.681,0,0,0,.155-.418c.281.1.681.182.872-.028.055-.063.082-.145.137-.218.2-.263.709-.191,1.045-.036a1.4,1.4,0,0,0,1.082.173,1.765,1.765,0,0,0,.291-.209,3.693,3.693,0,0,1,1.718-.555c.6-.1,1.21-.182,1.81-.282a2.485,2.485,0,0,1,1-.018,5.274,5.274,0,0,0,.873.327c.536.055.954-.345,1.382-.618a6.637,6.637,0,0,1,2.181-.773,1.291,1.291,0,0,1,.528-.054,1.987,1.987,0,0,1,.545.218,1.992,1.992,0,0,0,1.019.154c.191-.245-.164-.554-.028-.827.082-.164.337-.245.537-.345a.847.847,0,0,0,.427-1.1c.355-.045.7-.1,1.055-.154.427-.055.973.609,1.373.473a.666.666,0,0,0,.327-.373,1.864,1.864,0,0,1,.7-.809,1.466,1.466,0,0,1,1.182-.146c.254.091.436.273.709.346.255.073.655-.064.609-.282.273.227.882-.018.818-.337.21.1.419.2.637.3a.582.582,0,0,0,.327.081c.118-.018.227-.118.173-.2.245.255.755.028,1.164-.045a2.983,2.983,0,0,1,.891.045c.4.073.809.137,1.209.2a.712.712,0,0,1,.345.11c.173.127.128.381.328.481a.772.772,0,0,0,.6-.036,3.627,3.627,0,0,1,2.482.146,2.991,2.991,0,0,0-.4,1.081,2.661,2.661,0,0,1,1.482-.063.956.956,0,0,0,.527.036c.273-.109.236-.427.418-.609.291-.291.846-.1,1.282-.018a4.056,4.056,0,0,0,2.237-.337,2.084,2.084,0,0,0,.563.573.986.986,0,0,0,.873.082c.246-.1.382-.327.591-.482s.627-.164.691.055c-.027-.446.746-.7,1.264-.528a2.848,2.848,0,0,1,1.136.928,1.736,1.736,0,0,0,1.355.645c-.091.3.3.609.682.537a2.237,2.237,0,0,0,.591-.282,1.966,1.966,0,0,1,1.309-.173,2.206,2.206,0,0,0,.855-.445.979.979,0,0,1,.9-.255c.145.055.282.182.445.155.328-.046.182-.491.446-.655a3.437,3.437,0,0,1,1.327,1.064c.055-.391.118-.782.182-1.173a.5.5,0,0,1,.227-.427c.219-.137.546-.028.809-.128.382-.145.319-.591.546-.882a.906.906,0,0,1,1.091-.181,1.451,1.451,0,0,0-.446.618.468.468,0,0,0,.355.564,2.039,2.039,0,0,1,.327.045c.51.145.128.809.428,1.164a1.084,1.084,0,0,0,.954.191,3.423,3.423,0,0,1,1.046-.091c.373.072.654.327,1.027.4.637.127,1.446-.282,1.928.072a1.8,1.8,0,0,0,.109,1.137,1.026,1.026,0,0,0,1.191.409c.245-.091.409-.291.664-.355.381-.109.809.228.672.528.146-.137.291-.282.437-.437a.461.461,0,0,0,.618-.091,1.353,1.353,0,0,0,1.173.655c.473.264,1.345-.118,1.727.227.191.173.209.491.491.519s.437-.264.709-.31a.917.917,0,0,1,.319.019l5.109,1.036a2.649,2.649,0,0,1,1.291.509,2.55,2.55,0,0,1,.427.882.988.988,0,0,0,.764.673c.482.064.973-.273,1.428-.155a1.106,1.106,0,0,1,.409.246c.572.445,1.127.918,1.673,1.4.072-.391.136-.791.209-1.182a.665.665,0,0,1,.4.055c-.028-.119-.055-.237-.082-.355a1.749,1.749,0,0,0,.791.273q.067-.641.136-1.282a18.225,18.225,0,0,0,4.382-1.528c.546-.272,1.273-.572,1.764-.272.373.236.564.772,1.028.682.236-.037.363-.219.545-.337a2.281,2.281,0,0,1,1.273-.154,12.679,12.679,0,0,0,3.927-.419c-.163-.172.019-.454.282-.536a1.206,1.206,0,0,1,.8.118c-.064.264.508.5.854.482a2.736,2.736,0,0,1,.982.009c.364.164.4.564.537.873s.681.6.954.327c.109-.118.109-.291.255-.382.372-.227.727.41,1.182.364.372-.036.463-.473.8-.609a.783.783,0,0,1,.845.264,3.661,3.661,0,0,0,.546.645c.254.164.736.164.854-.082a.949.949,0,0,0,.528.3c.091-.182.181-.363.281-.554.137.627,1.073.882,1.864,1.027-.172-.3.264-.636.682-.691s.837.046,1.264-.018c.818-.118,1.555-.818,2.327-.582a4.175,4.175,0,0,1,.537.255,1.73,1.73,0,0,0,1.836-.31,2.2,2.2,0,0,1,.419,1.119,2.941,2.941,0,0,1,1.863-.537c.437.028.982.1,1.228-.191.191.128.382.246.572.373.119-.127.255-.254.382-.391.328.282.655.555.982.828a1.139,1.139,0,0,0,.1-.81,3.156,3.156,0,0,1,2.155,1.873.368.368,0,0,0,.227.209.6.6,0,0,0,.437-.136,7.466,7.466,0,0,1,3.709-.745,1.732,1.732,0,0,1,1.291.3.518.518,0,0,1,.573.109c.055-.146.109-.3.173-.446a1.134,1.134,0,0,0,1.091-.018c.218.145.427.3.636.446a.362.362,0,0,0,.246.09c.145-.027.172-.181.254-.282.146-.19.428-.19.718-.127a12.859,12.859,0,0,1,.764,1.118,1.382,1.382,0,0,1,.491-.736c.273-.182.773-.164.9.091.064.127.018.291.1.418.209.318.819.118,1.273.137.891.045,1.409,1.072,2.282.9a2.567,2.567,0,0,0-.527-1.082,1.622,1.622,0,0,0,1.382-.428.9.9,0,0,0,.118-1.145c.473-.218.937.236,1.309.527a2.44,2.44,0,0,0,1.709.428c.437-.046.846-.21,1.273-.282a26.552,26.552,0,0,1,3.4.127c1.209-.064,2.609-.573,3.518.027-.136-.072-.027-.273.154-.3a.808.808,0,0,1,.473.128c-.091-.41.4-.837.919-.81a1.143,1.143,0,0,0,.363.7,1.5,1.5,0,0,1,.946-.209,1.119,1.119,0,0,0,.136.864,2.134,2.134,0,0,1,1.382-.646c.555-.018,1.109.364,1.009.792a1.527,1.527,0,0,1,1.273-.355c.055-.273.109-.537.164-.8.427.291,1.091,0,1.564-.264s1.2-.509,1.554-.163c.264.236.673.572,1.055.481s.718-.318,1.1-.445a4.676,4.676,0,0,1,1.6-.118,5.968,5.968,0,0,1,2.546.482,1.724,1.724,0,0,0,1.064.354c.254-.036.454-.209.7-.254a1.835,1.835,0,0,1,.9.181.912.912,0,0,0,.882-.063c.081-.073.127-.191.236-.255.245-.145.582.073.873.018.263-.054.382-.3.563-.454.491-.418,1.346-.173,1.955.1.018-.146.037-.291.046-.437a1.722,1.722,0,0,0,1.854,0,7.66,7.66,0,0,1,1.7-.909,3.425,3.425,0,0,0,1.11.828,6.785,6.785,0,0,1,.173-1.282l2.182.136c.472.036,1.073.009,1.29-.327.346.072.21.582.546.645a.626.626,0,0,0,.364-.073l.927-.409a2.7,2.7,0,0,0,.955,1.028.875.875,0,0,0,.654.172c.291-.072.391-.354.6-.527a1.337,1.337,0,0,1,1.091-.209,3.445,3.445,0,0,1,1,.455c.646.381,1.3.763,1.946,1.145a1.486,1.486,0,0,0,1.191.273,1.8,1.8,0,0,1,2.273.909c.318-.145.627-.291.936-.436a1.477,1.477,0,0,1,.364.645,1.523,1.523,0,0,1,1.037-.363,2.424,2.424,0,0,1,.563.19,2.11,2.11,0,0,0,1.492-.027c.318-.127.572-.536.263-.664a1.783,1.783,0,0,1,1.609.182c.2.146.337.328.546.473a.78.78,0,0,0,.745.064c.246-.137.264-.437.509-.564.355-.182.755.137,1.155.218a1.347,1.347,0,0,0,1.046-.291,2.679,2.679,0,0,0,.591-.772c.381.163.763.327,1.154.5a3.391,3.391,0,0,1,.037-.437c.354-.009.709-.027,1.063-.036.046-.118.091-.237.137-.355a1.355,1.355,0,0,0,.782.037c.236-.1.327-.428.072-.5a.868.868,0,0,1,.828-.282.728.728,0,0,1,.645.527,2.157,2.157,0,0,1,.855-.382.427.427,0,0,1,.336.018c.218.155-.182.391-.263.619s.163.436.445.472a1.816,1.816,0,0,0,.818-.136.593.593,0,0,0,.2.664.728.728,0,0,0,.819.018c.372-.282.163-.909.645-1.046.464-.127.746.428,1.209.509a1.931,1.931,0,0,0,.119-.936,1.979,1.979,0,0,0,1.763-.136c.209-.137.428-.337.691-.319.419.046.628.582,1.019.455a.679.679,0,0,0,.154-.418c.282.1.682.182.873-.028a1.657,1.657,0,0,0,.127-.218c.209-.263.718-.191,1.055-.036a1.387,1.387,0,0,0,1.073.173,1.521,1.521,0,0,0,.3-.209,3.622,3.622,0,0,1,1.718-.555c.6-.1,1.209-.182,1.809-.282a2.483,2.483,0,0,1,1-.018,5.018,5.018,0,0,0,.873.327c.536.055.955-.345,1.382-.618a6.562,6.562,0,0,1,2.182-.773,1.288,1.288,0,0,1,.527-.054,1.938,1.938,0,0,1,.537.218,2.02,2.02,0,0,0,1.018.154c.2-.245-.154-.554-.018-.827.082-.164.336-.245.537-.345a.856.856,0,0,0,.427-1.1c.345-.045.7-.1,1.054-.154.428-.055.964.609,1.364.473a.628.628,0,0,0,.327-.373,1.888,1.888,0,0,1,.71-.809,1.444,1.444,0,0,1,1.172-.146c.255.091.446.273.71.346s.663-.064.609-.282c.281.227.891-.018.827-.337l.627.3a.615.615,0,0,0,.337.081c.118-.018.227-.118.173-.2.245.255.754.028,1.163-.045a2.91,2.91,0,0,1,.882.045c.409.073.818.137,1.218.2a.712.712,0,0,1,.346.11c.164.127.127.381.327.481a.75.75,0,0,0,.591-.036,3.649,3.649,0,0,1,2.491.146,3.028,3.028,0,0,0-.409,1.081,2.694,2.694,0,0,1,1.491-.063.96.96,0,0,0,.528.036c.263-.109.227-.427.418-.609.282-.291.845-.1,1.282-.018a4.066,4.066,0,0,0,2.236-.337,2.088,2.088,0,0,0,.564.573.983.983,0,0,0,.873.082c.245-.1.373-.327.591-.482s.627-.164.691.055c-.027-.446.745-.7,1.254-.528a2.845,2.845,0,0,1,1.137.928,1.767,1.767,0,0,0,1.364.645c-.1.3.291.609.682.537a2.231,2.231,0,0,0,.59-.282,1.949,1.949,0,0,1,1.3-.173,2.232,2.232,0,0,0,.863-.445.963.963,0,0,1,.891-.255c.155.055.282.182.455.155.318-.046.182-.491.445-.655a3.441,3.441,0,0,1,1.328,1.064c.054-.391.118-.782.172-1.173a.547.547,0,0,1,.228-.427c.227-.137.554-.028.809-.128.391-.145.327-.591.546-.882a.907.907,0,0,1,1.091-.181,1.508,1.508,0,0,0-.437.618.469.469,0,0,0,.346.564,2.149,2.149,0,0,1,.336.045c.5.145.127.809.427,1.164a1.086,1.086,0,0,0,.955.191,3.367,3.367,0,0,1,1.045-.091c.373.072.646.327,1.028.4.627.127,1.445-.282,1.927.072a1.689,1.689,0,0,0,.109,1.137,1.027,1.027,0,0,0,1.191.409c.237-.091.4-.291.655-.355.391-.109.809.228.682.528.145-.137.291-.282.436-.437a.464.464,0,0,0,.619-.091,1.351,1.351,0,0,0,1.172.655c.473.264,1.346-.118,1.728.227.191.173.2.491.482.519s.445-.264.718-.31a.872.872,0,0,1,.309.019l5.11,1.036a1.651,1.651,0,0,1,1.727,1.391.985.985,0,0,0,.764.673c.473.064.963-.273,1.427-.155a1.174,1.174,0,0,1,.409.246c.573.445,1.128.918,1.664,1.4.073-.391.146-.791.218-1.182a.664.664,0,0,1,.4.055c-.036-.119-.063-.237-.091-.355a1.748,1.748,0,0,0,.8.273c.046-.427.082-.855.137-1.282a18.393,18.393,0,0,0,4.382-1.528c.545-.272,1.273-.572,1.764-.272.373.236.554.772,1.027.682.227-.037.364-.219.546-.337a2.276,2.276,0,0,1,1.272-.154,12.657,12.657,0,0,0,3.919-.419c-.154-.172.027-.454.291-.536a1.21,1.21,0,0,1,.8.118c-.073.264.509.5.846.482a2.728,2.728,0,0,1,.981.009c.373.164.41.564.537.873.145.318.682.6.955.327.109-.118.118-.291.263-.382.373-.227.728.41,1.173.364a.7.7,0,0,0,.462-.316V12A12,12,0,0,0,336,0H12A12,12,0,0,0,0,12V387.282l1.571.1" transform="translate(0 0.001)" fill="#fff"/>
</svg>
