<?xml version="1.0" encoding="utf-8"?>
<!-- Generator: Adobe Illustrator 23.0.1, SVG Export Plug-In . SVG Version: 6.00 Build 0)  -->
<svg version="1.1" id="Capa_1" xmlns="http://www.w3.org/2000/svg" xmlns:xlink="http://www.w3.org/1999/xlink" x="0px" y="0px"
	 viewBox="0 0 474 96" style="enable-background:new 0 0 474 96;" xml:space="preserve">
<path id="XMLID_515_" style="fill:#708A1D;" d="M473.14,53.95c-1.95-0.03-9.02,0.8-10.19-1.63c0.55-0.84,3.47-1.05,4.26-1.27
	c2-0.57,1.73-0.87,3.17-2.74c1.26-1.63,5.07-2.55,1.45-4.28c-1.31-0.63-2.78-0.76-4.25-0.81c-1.36-0.05-8.16,0.97-8.92-0.15
	c-1.54-2.27,6.51-2.12,7.39-3.54c-1.48-1.45-4.39-0.33-6.34-0.37c-2.06-0.03-4.28-0.63-6.05-0.66c-0.35-1.17,2.7-1.41,2.9-1.83
	c-0.07,0.15-5.39-0.92-6.08-1.02c-2.42-0.33-4.91-0.08-7.66-0.13c-3.23-0.05-6.74,0.36-9.94-0.17c-0.94-0.15-4.3-0.54-2.17-2.62
	c-0.85-0.4-3.64,0.4-3.57-1.13c0.06-1.24,2.59-0.72,3.15-0.77c0.88-0.09,3.16-0.11,4.17-0.49c0.16-0.06,2.61-1.67,2.7-1.82
	c0.57-0.91-2.76-0.98-2.84-0.99c-0.56-1.89,7.72-4.52,8.55-5.88c1.31-2.14-2.86-3.37-3.03-5.56c-0.08-1.01,1.49-1.5,1.15-3.37
	c0.07,0.36-1.68-2.06-1.39-1.9c-0.7-0.38-1.86,0.12-2.63-0.05c0.07,0.02-0.69-1.04-0.85-1.1c-2.02-0.75-2.42-0.45-4.28-1.78
	c-1.39-0.99-3.09-2.93-4.8-3.2c-1.25-0.2-3.51,0.25-5.04,0.23c-1.26-0.02-2.19-0.81-3.51-1.13c-1.27-0.3-3.01-0.51-4.14-0.64
	c-2.31-0.26-4.43-0.97-6.53-1.26c-8.34-1.12-16.91-0.79-25.16-0.13c-6.13,0.49-12.39,1.71-18.58,1.61
	c-7.43-0.12-14.86,1.46-22.37,1.34c-6.58-0.11-13.35,1.76-19.88,2.46c-8.76,0.95-18.12-0.42-26.56-1.56
	c-4.56-0.62-9.39-0.02-13.88-0.51c-3.95-0.43-8.17-0.89-11.99-1.04c-17.94-0.7-36.1-2.01-54.21-2.29
	c-27.55-0.41-57.42,0.47-84.94,2.68c-14.47,1.16-28.27,3.31-42.73,4.44C80.03,9.49,72.48,10.66,65,9.72
	c-4.29-0.54-8.45-0.8-12.61-0.87c-0.93-0.02-2.65-0.37-3.45-0.06c-0.67,0.26-0.73,1.31-1.13,1.48c-0.62,0.27-3.57,0.54-3.82,0.85
	c0.06,0.35,0.22,0.48,0.47,0.39c0.36,1.46-6.92,1.27-7.72,1.27c-1.83,0.01-4.54,0.23-6.24,0.18c-0.6-0.02-2.98-0.14-3.05-0.18
	c0.49,0.23,5.04,2.23,5.04,2.23c-1.09,2.06-7.9,0.64-9.56,0.62c-1.41-0.02-2.86-0.19-4.27-0.07c-0.23,0.02-0.38,1.12-0.33,1.11
	c-0.82,0.07-1.27-0.8-2.46-0.61c-0.38,0.06-1.09,0.71-1.69,1.09c-1.52,0.95-2.05,1.1-3.97,1.06C7.72,18.19,2.13,16.37,0,18.39
	c1.05,1.03,6.78,1.86,4.59,4.98C3.3,25.2,2.44,22.48,2.8,24.83c0.25,1.65,1.28,1.8,2.33,2.28c1.7,0.78,4.97,0.18,6.35,1.96
	c1.14,1.47-0.12,2.89,0.07,3.75c0.04,0.19,1.16,0.89,1.17,0.88c-0.38,1.97-0.21,0.23-1.1,1.54c-0.29,0.43,6.62,1.57,6.92,1.84
	c3.05,2.8-5.58,1.95-5.78,1.75c1.86,1.91,5.08,0.83,6.93,2.52c0.74,0.67,0.9,2.13,2.01,2.81c-0.02-0.01,1.34-0.29,1.56-0.24
	c0.33,0.08,0.51,0.66,0.72,0.75c1.6,0.69,3.29,1.11,4.52,1.3c1.86,0.29,3.96,0.25,5.91,0.66c0.45,0.09,2.15,0.99,2.85,1.17
	c0.96,0.25,4.23,0.13,4.8,1.47c1.8,4.27-9.43,1.84-10.92,1.8c-1.83-0.05-3.39-0.06-5.09-0.38c-0.65-0.12-6.06-1.43-4.17,1.2
	c0.54,0.75,4.14,0.3,1.99,2.8c-0.23,0.27-5.14,0.56-4.91,1.02c1.22,2.37,5.93,1.25,8.08,3.36c-0.89,0.85-2-0.21-2.88,0.58
	c2.91,3.02-1.78,2.63-2.65,2.54c-1.15-0.13-4.58-0.78-2.78,1.54c0.08,0.1,1.92,0.56,2.31,0.78c0.24,0.14,1.42,1.74,1.99,1.99
	c0.93,0.42,5.15,0.31,3.33,2.13c1.21,1.18,2.93,0.97,4.36,1.46c1.39,0.47,2.78,1.26,4.16,1.75c5.29,1.88-2.72,0.77-0.83,4.33
	c0.65,1.22,5.68,1.69,6.8,1.93c2.76,0.61,5.45,1.38,8.48,1.82c6.49,0.95,12.76,3.01,19.42,3.12c9.91,0.17,19.65,2.08,29.81,1.06
	c8.96-0.9,19.02-1.24,27.76-0.19c2.9,0.35,4.06,2.33,6.83,2.7c3.32,0.44,6.14,1.1,9.17,2.11c14.92,4.97,31.36,3.04,46.64,3.61
	c4.41,0.16,8.33-0.01,11.99,0.2c1.06,0.06,0.96,0.47,1.63,0.55c1.23,0.15,2.58-0.9,3.31-0.89c1.32,0.02,2.43,1.36,3.87,1.61
	c0.34,0.06,1.5-0.34,2.07-0.25c0.58,0.1,1.48,0.76,2.1,0.98c1.1,0.38,2.03,0.44,3.33-0.07c2.8-1.09,5.99,0.17,8.72-2.33
	c-2.51-2.78,0.19-2.54,2.44-2.5c2.58,0.04,5.16,0.09,7.74,0.13c5.96,0.1,12.17-0.36,18.31-0.25c8.37,0.14,16.5-1.58,24.9-2.38
	c10.21-0.97,20.2,0.35,30.2-0.62c9.61-0.93,19.89-1.91,29.75-1.74c9.74,0.16,19.01-0.26,28.06-3.45c2.59-0.91,4.79-1.36,7.02-3.68
	c1.43-1.49,2.09-4.08,3.75-5.11c1.04-0.65,2.66-0.91,3.86-1.3c7.38-2.35,15.29-2.19,23.06-2.74c4.07-0.29,8.1-1.17,12.12-1.47
	c3.89-0.29,8.06-2.04,12.06-2.61c7.04-1,13.89-3.39,20.5-5.82c1.82-0.67,3.17,0.14,5.08-0.52c1.57-0.54,3.16-1.81,4.65-2.1
	c2.64-0.52,5.06-0.18,7.7-0.43c1.75-0.17,5.48,0.64,6.78-0.7C473.71,54.55,473.43,54.25,473.14,53.95
	C471.2,53.92,473.49,54.22,473.14,53.95z"/>
</svg>
