<?xml version="1.0" encoding="utf-8"?>
<!-- Generator: Adobe Illustrator 23.0.1, SVG Export Plug-In . SVG Version: 6.00 Build 0)  -->
<svg version="1.1" id="Capa_1" xmlns="http://www.w3.org/2000/svg" xmlns:xlink="http://www.w3.org/1999/xlink" x="0px" y="0px"
	 viewBox="0 0 474 96" style="enable-background:new 0 0 474 96;" xml:space="preserve">
<path id="XMLID_461_" style="fill:#8FA633;" d="M428.75,53.43c-1.58-0.03-7.33,0.83-8.27-1.59c0.45-0.85,2.82-1.06,3.46-1.29
	c1.63-0.57,1.4-0.88,2.58-2.75c1.03-1.63,4.13-2.57,1.19-4.29c-1.06-0.62-2.26-0.75-3.45-0.8c-1.11-0.04-6.63,1-7.25-0.12
	c-1.24-2.27,5.3-2.14,6.01-3.56c-1.2-1.44-3.57-0.32-5.15-0.35c-1.67-0.03-3.47-0.62-4.91-0.64c-0.28-1.17,2.2-1.42,2.36-1.84
	c-0.06,0.15-4.38-0.91-4.94-1c-1.97-0.33-3.99-0.07-6.22-0.1c-2.63-0.04-5.47,0.38-8.07-0.13c-0.76-0.15-3.49-0.52-1.76-2.61
	c-0.69-0.39-2.96,0.41-2.9-1.12c0.05-1.24,2.11-0.73,2.56-0.78c0.72-0.09,2.57-0.12,3.39-0.5c0.13-0.06,2.13-1.67,2.2-1.82
	c0.47-0.91-2.24-0.98-2.3-0.98c-0.45-1.89,6.28-4.54,6.96-5.9c1.07-2.14-2.32-3.37-2.44-5.55c-0.06-1.01,1.21-1.51,0.94-3.37
	c0.05,0.36-1.36-2.05-1.12-1.89c-0.57-0.38-1.51,0.13-2.14-0.04c0.06,0.02-0.56-1.04-0.69-1.1c-1.64-0.74-1.96-0.44-3.47-1.76
	c-1.13-0.99-2.5-2.92-3.89-3.19c-1.02-0.2-2.85,0.26-4.09,0.24c-1.02-0.02-1.78-0.81-2.85-1.12c-1.03-0.3-2.44-0.5-3.36-0.62
	c-1.87-0.25-3.6-0.96-5.3-1.24c-6.77-1.1-13.74-0.74-20.44-0.05c-4.98,0.51-10.07,1.75-15.09,1.67c-6.03-0.1-12.08,1.51-18.18,1.41
	c-5.34-0.09-10.85,1.8-16.16,2.52c-7.12,0.97-14.72-0.36-21.56-1.47c-3.7-0.6-7.62,0.01-11.27-0.47c-3.21-0.42-6.63-0.86-9.73-1
	c-14.57-0.64-29.32-1.9-44.03-2.12c-22.37-0.33-46.64,0.65-69,2.94c-11.75,1.21-22.97,3.4-34.72,4.57
	c-6.04,0.61-12.18,1.8-18.25,0.89c-3.48-0.53-6.86-0.77-10.24-0.83C86.39,9.64,85,9.29,84.34,9.6c-0.55,0.26-0.59,1.31-0.92,1.49
	c-0.51,0.27-2.9,0.55-3.11,0.86c0.05,0.35,0.17,0.48,0.38,0.39c0.29,1.46-5.63,1.29-6.28,1.3c-1.48,0.02-3.69,0.25-5.07,0.2
	c-0.48-0.02-2.42-0.13-2.48-0.17c0.4,0.23,4.09,2.21,4.09,2.22c-0.89,2.06-6.42,0.67-7.77,0.65c-1.14-0.02-2.32-0.18-3.46-0.06
	c-0.19,0.02-0.32,1.12-0.27,1.12c-0.67,0.07-1.03-0.79-2-0.6c-0.31,0.06-0.89,0.72-1.37,1.09c-1.23,0.96-1.67,1.1-3.23,1.08
	c-2.02-0.03-6.55-1.83-8.29,0.19c0.85,1.03,5.5,1.84,3.71,4.96c-1.05,1.84-1.74-0.88-1.46,1.47c0.2,1.65,1.04,1.8,1.89,2.27
	c1.38,0.77,4.04,0.17,5.15,1.94c0.93,1.47-0.11,2.89,0.04,3.75c0.03,0.19,0.94,0.89,0.94,0.88c-0.31,1.97-0.17,0.23-0.9,1.54
	c-0.24,0.43,5.37,1.55,5.62,1.82c2.47,2.79-4.54,1.96-4.7,1.77c1.5,1.9,4.12,0.81,5.62,2.49c0.6,0.67,0.72,2.13,1.62,2.81
	c-0.01-0.01,1.09-0.3,1.27-0.24c0.27,0.08,0.41,0.65,0.58,0.75c1.3,0.69,2.67,1.1,3.66,1.29c1.51,0.29,3.22,0.24,4.8,0.64
	c0.36,0.09,1.74,0.98,2.31,1.16c0.78,0.24,3.44,0.11,3.89,1.46c1.45,4.27-7.66,1.87-8.87,1.84c-1.49-0.04-2.76-0.05-4.13-0.36
	c-0.53-0.12-4.92-1.42-3.39,1.21c0.44,0.75,3.36,0.29,1.61,2.79c-0.19,0.27-4.18,0.58-3.99,1.04c0.99,2.37,4.81,1.23,6.55,3.33
	c-0.72,0.86-1.62-0.2-2.35,0.59c2.35,3.01-1.45,2.64-2.16,2.55c-0.93-0.12-3.72-0.77-2.27,1.55c0.06,0.1,1.56,0.55,1.88,0.77
	c0.2,0.14,1.15,1.73,1.61,1.99c0.76,0.41,4.18,0.3,2.7,2.12c0.98,1.18,2.38,0.96,3.54,1.44c1.12,0.47,2.26,1.25,3.38,1.74
	c4.29,1.87-2.21,0.78-0.68,4.33c0.52,1.22,4.61,1.67,5.51,1.91c2.24,0.6,4.43,1.36,6.88,1.79c5.27,0.93,10.36,2.97,15.77,3.06
	c8.05,0.14,15.96,2.02,24.21,0.96c7.28-0.93,15.45-1.3,22.54-0.28c2.36,0.34,3.29,2.32,5.54,2.68c2.69,0.43,4.98,1.08,7.44,2.08
	c12.1,4.92,25.46,2.94,37.87,3.46c3.58,0.15,6.77-0.03,9.74,0.16c0.86,0.06,0.78,0.46,1.32,0.54c1,0.15,2.1-0.91,2.69-0.9
	c1.08,0.01,1.97,1.35,3.14,1.6c0.27,0.06,1.22-0.35,1.69-0.25c0.47,0.09,1.2,0.76,1.71,0.97c0.89,0.38,1.65,0.44,2.71-0.08
	c2.28-1.1,4.86,0.15,7.09-2.36c-2.03-2.77,0.16-2.54,1.99-2.51c2.09,0.03,4.19,0.07,6.28,0.1c4.84,0.08,9.88-0.4,14.88-0.31
	c6.8,0.11,13.41-1.64,20.23-2.46c8.29-1,16.4,0.29,24.53-0.71c7.81-0.96,16.16-1.97,24.17-1.84c7.91,0.13,15.44-0.32,22.8-3.53
	c2.1-0.92,3.9-1.38,5.71-3.7c1.17-1.49,1.71-4.09,3.06-5.13c0.84-0.65,2.17-0.92,3.14-1.31c6-2.38,12.43-2.24,18.74-2.81
	c3.3-0.3,6.58-1.19,9.85-1.51c3.16-0.31,6.55-2.06,9.8-2.65c5.72-1.03,11.29-3.43,16.67-5.88c1.48-0.67,2.57,0.13,4.13-0.54
	c1.27-0.55,2.57-1.82,3.79-2.12c2.15-0.53,4.11-0.2,6.26-0.46c1.42-0.17,4.45,0.62,5.51-0.72
	C429.21,54.02,428.98,53.72,428.75,53.43C427.17,53.4,429.03,53.69,428.75,53.43z"/>
</svg>
