<?xml version="1.0" encoding="utf-8"?>
<!-- Generator: Adobe Illustrator 23.0.1, SVG Export Plug-In . SVG Version: 6.00 Build 0)  -->
<svg version="1.1" id="Capa_1" xmlns="http://www.w3.org/2000/svg" xmlns:xlink="http://www.w3.org/1999/xlink" x="0px" y="0px"
	 viewBox="0 0 64.98 67.04" style="enable-background:new 0 0 64.98 67.04;" xml:space="preserve">
<g id="XMLID_2_">
	<path id="XMLID_303_" style="fill:#21A1DB;" d="M36.35,22.33c0-0.04-0.01-0.08-0.01-0.12c0,0.03,0.01,0.06,0.01,0.1L36.35,22.33z"
		/>
	<path id="XMLID_300_" style="fill:#DDB560;" d="M36.35,22.33l0-0.02c0-0.04-0.01-0.07-0.01-0.1l-0.04-0.38
		c0-0.03-0.01-0.04-0.01-0.04c-0.11-0.51-0.35-0.99-0.68-1.4c-0.4-0.49-0.95-0.87-1.61-1.07l-21.7-6.7
		c-0.65-0.2-1.33,0.17-1.53,0.82c-0.15,0.48,0.02,0.99,0.38,1.29l0.01,0.01l24.16,27.98c1.81-10.7,1.27-18.14,1.04-20.29
		L36.35,22.33z"/>
	<path id="XMLID_293_" style="fill:#EB8A24;" d="M53.72,40.69l-9.29-10.4L35.6,20.4c0.33,0.41,0.57,0.89,0.68,1.4
		c0,0,0,0.01,0.01,0.04c0,0.02,0.01,0.05,0.01,0.08c0.01,0.03,0.01,0.08,0.02,0.13c0.01,0.05,0.01,0.11,0.02,0.17
		c0.01,0.04,0.01,0.08,0.01,0.12l0.01,0.11c0.23,2.16,0.77,9.6-1.04,20.29c-0.65,3.88-1.62,8.2-3.02,12.84
		c-0.14,0.47,0.12,0.96,0.59,1.11c0.24,0.07,0.49,0.04,0.69-0.08l0.03-0.03l0.09-0.06l19.71-13.37c0.33-0.19,0.6-0.5,0.72-0.9
		c0.05-0.18,0.07-0.37,0.06-0.55l0,0.08l0-0.08c0,0,0,0,0-0.01l0-0.01C54.16,41.31,53.99,40.95,53.72,40.69"/>
	<path id="XMLID_289_" style="fill:#DDB560;" d="M53.72,40.69l-9.29-10.4L35.6,20.4c0.33,0.41,0.57,0.89,0.68,1.4
		c0,0,0,0.01,0.01,0.04c0,0.02,0.01,0.05,0.01,0.08c0.01,0.03,0.01,0.08,0.02,0.13c0.01,0.05,0.01,0.11,0.02,0.17
		c0.01,0.04,0.01,0.08,0.01,0.12l0.01,0.11c0.23,2.16,0.77,9.6-1.04,20.29c-0.65,3.88-1.62,8.2-3.02,12.84
		c-0.14,0.47,0.12,0.96,0.59,1.11c0.24,0.07,0.49,0.04,0.69-0.08l0.03-0.03l0.09-0.06l19.71-13.37c0.33-0.19,0.6-0.5,0.72-0.9
		c0.05-0.18,0.07-0.37,0.06-0.55l0,0.08l0-0.08c0,0,0,0,0-0.01l0-0.01C54.16,41.31,53.99,40.95,53.72,40.69"/>
	<g id="XMLID_267_">
		<g id="XMLID_268_">
			<defs>
				
					<rect id="XMLID_269_" x="23.38" y="28.44" transform="matrix(0.395 -0.9187 0.9187 0.395 -13.3572 62.259)" width="34.41" height="25.66"/>
			</defs>
			<clipPath id="XMLID_464_">
				<use xlink:href="#XMLID_269_"  style="overflow:visible;"/>
			</clipPath>
			<g id="XMLID_270_" style="clip-path:url(#XMLID_464_);">
				<defs>
					<path id="XMLID_271_" d="M53.72,40.69l-9.29-10.4L35.6,20.4c0.33,0.41,0.57,0.89,0.68,1.4c0,0,0,0.01,0.01,0.04
						c0,0.02,0.01,0.05,0.01,0.08c0.01,0.03,0.01,0.08,0.02,0.13c0.01,0.05,0.01,0.11,0.02,0.17c0,0.04,0.01,0.08,0.01,0.12
						l0.01,0.11c0.23,2.16,0.77,9.6-1.04,20.29c-0.65,3.88-1.62,8.2-3.02,12.84c-0.14,0.47,0.12,0.96,0.59,1.11
						c0.24,0.07,0.48,0.04,0.69-0.08l0.04-0.03l0.09-0.06l19.71-13.37c0.34-0.19,0.6-0.5,0.72-0.9c0.06-0.18,0.08-0.37,0.06-0.55
						l0,0.08l0-0.08c0,0,0,0,0,0l0-0.01C54.16,41.31,53.99,40.95,53.72,40.69"/>
				</defs>
				<clipPath id="XMLID_465_">
					<use xlink:href="#XMLID_271_"  style="overflow:visible;"/>
				</clipPath>
				<defs>
					<filter id="Adobe_OpacityMaskFilter" filterUnits="userSpaceOnUse" x="11.86" y="13.38" width="53.12" height="53.66">
						<feColorMatrix  type="matrix" values="1 0 0 0 0  0 1 0 0 0  0 0 1 0 0  0 0 0 1 0"/>
					</filter>
				</defs>
				<mask maskUnits="userSpaceOnUse" x="11.86" y="13.38" width="53.12" height="53.66" id="XMLID_466_">
					<g id="XMLID_280_" style="filter:url(#Adobe_OpacityMaskFilter);">
						
							<linearGradient id="XMLID_467_" gradientUnits="userSpaceOnUse" x1="886.7765" y1="7.2748" x2="887.8441" y2="7.2748" gradientTransform="matrix(24.3994 21.2704 21.2704 -24.3994 -21762.7676 -18652.7129)">
							<stop  offset="0" style="stop-color:#000000"/>
							<stop  offset="0.1671" style="stop-color:#424242"/>
							<stop  offset="0.3325" style="stop-color:#7C7C7C"/>
							<stop  offset="0.4905" style="stop-color:#ABABAB"/>
							<stop  offset="0.64" style="stop-color:#CFCFCF"/>
							<stop  offset="0.7788" style="stop-color:#EAEAEA"/>
							<stop  offset="0.9029" style="stop-color:#F9F9F9"/>
							<stop  offset="1" style="stop-color:#FFFFFF"/>
						</linearGradient>
						<polygon id="XMLID_288_" style="clip-path:url(#XMLID_465_);fill:url(#XMLID_467_);" points="38.59,13.38 64.98,36.39 
							38.25,67.04 11.86,44.04 						"/>
					</g>
				</mask>
				
					<linearGradient id="XMLID_468_" gradientUnits="userSpaceOnUse" x1="886.7765" y1="7.2748" x2="887.8441" y2="7.2748" gradientTransform="matrix(24.3994 21.2704 21.2704 -24.3994 -21762.7676 -18652.7129)">
					<stop  offset="0" style="stop-color:#FFFFFF"/>
					<stop  offset="0.0657" style="stop-color:#FBF7E9"/>
					<stop  offset="0.2489" style="stop-color:#F1E1B0"/>
					<stop  offset="0.4267" style="stop-color:#E9CF81"/>
					<stop  offset="0.5949" style="stop-color:#E2C15D"/>
					<stop  offset="0.751" style="stop-color:#DEB742"/>
					<stop  offset="0.8907" style="stop-color:#DBB133"/>
					<stop  offset="1" style="stop-color:#DAAF2D"/>
				</linearGradient>
				<polygon id="XMLID_279_" style="clip-path:url(#XMLID_465_);mask:url(#XMLID_466_);fill:url(#XMLID_468_);" points="
					38.59,13.38 64.98,36.39 38.25,67.04 11.86,44.04 				"/>
			</g>
		</g>
	</g>
	<path id="XMLID_265_" style="fill:#DDB560;" d="M54.28,33.99l0.07-5.71l0.02-1.09l0-0.07c0-0.07,0.02-0.14,0.04-0.22
		c0.15-0.51,0.69-0.79,1.2-0.64c0.01,0,0.02,0,0.02,0.01c0.15,0.06,0.29,0.14,0.39,0.25l-0.61-0.69l-0.22-0.25l0,0
		c-0.16-0.15-0.36-0.26-0.59-0.33c-0.41-0.12-0.83-0.07-1.18,0.12l-8.98,4.91l9.29,10.4c0.27,0.27,0.44,0.62,0.47,1l0.1-7.67
		l-0.01,0L54.28,33.99z"/>
	<path id="XMLID_263_" style="fill:#DDB560;" d="M61.19,32.28L61.19,32.28l-5.16-5.76c-0.11-0.11-0.24-0.2-0.39-0.25
		c-0.01,0-0.02-0.01-0.02-0.01c-0.51-0.15-1.04,0.13-1.2,0.64c-0.02,0.07-0.04,0.14-0.04,0.22l0,0.07l-0.01,1.09l-0.07,5.71l0,0.03
		l6.28-0.21l0.12,0l0,0l0,0c0.34-0.04,0.64-0.27,0.74-0.62C61.54,32.85,61.43,32.5,61.19,32.28"/>
	<g id="XMLID_255_">
		<g id="XMLID_256_">
			<defs>
				
					<rect id="XMLID_257_" x="53.6" y="26.73" transform="matrix(0.395 -0.9187 0.9187 0.395 6.0759 71.6349)" width="7.65" height="8.95"/>
			</defs>
			<clipPath id="XMLID_469_">
				<use xlink:href="#XMLID_257_"  style="overflow:visible;"/>
			</clipPath>
			<g id="XMLID_258_" style="clip-path:url(#XMLID_469_);">
				<defs>
					<path id="XMLID_259_" d="M61.19,32.28L61.19,32.28l-5.16-5.76c-0.11-0.11-0.24-0.2-0.39-0.25c-0.01,0-0.02-0.01-0.02-0.01
						c-0.51-0.15-1.04,0.13-1.2,0.64c-0.02,0.07-0.04,0.14-0.04,0.22l0,0.07l-0.01,1.09l-0.07,5.71l0,0.03l6.28-0.21l0.12,0l0,0l0,0
						c0.34-0.04,0.64-0.27,0.74-0.62C61.54,32.85,61.43,32.5,61.19,32.28"/>
				</defs>
				<clipPath id="XMLID_470_">
					<use xlink:href="#XMLID_259_"  style="overflow:visible;"/>
				</clipPath>
				<defs>
					<filter id="Adobe_OpacityMaskFilter_1_" filterUnits="userSpaceOnUse" x="51.08" y="24.7" width="13.9" height="12.83">
						<feColorMatrix  type="matrix" values="1 0 0 0 0  0 1 0 0 0  0 0 1 0 0  0 0 0 1 0"/>
					</filter>
				</defs>
				<mask maskUnits="userSpaceOnUse" x="51.08" y="24.7" width="13.9" height="12.83" id="XMLID_471_">
					<g id="XMLID_261_" style="filter:url(#Adobe_OpacityMaskFilter_1_);">
						
							<linearGradient id="XMLID_472_" gradientUnits="userSpaceOnUse" x1="1730.1462" y1="329.6065" x2="1731.2139" y2="329.6065" gradientTransform="matrix(-15.1633 -4.6332 -4.3869 14.7324 27744.0508 3192.9109)">
							<stop  offset="0" style="stop-color:#000000"/>
							<stop  offset="0.1671" style="stop-color:#424242"/>
							<stop  offset="0.3325" style="stop-color:#7C7C7C"/>
							<stop  offset="0.4905" style="stop-color:#ABABAB"/>
							<stop  offset="0.64" style="stop-color:#CFCFCF"/>
							<stop  offset="0.7788" style="stop-color:#EAEAEA"/>
							<stop  offset="0.9029" style="stop-color:#F9F9F9"/>
							<stop  offset="1" style="stop-color:#FFFFFF"/>
						</linearGradient>
						<polygon id="XMLID_262_" style="clip-path:url(#XMLID_470_);fill:url(#XMLID_472_);" points="62.16,37.53 51.08,34.14 
							53.89,24.7 64.98,28.08 						"/>
					</g>
				</mask>
				
					<linearGradient id="XMLID_473_" gradientUnits="userSpaceOnUse" x1="1730.1462" y1="329.6065" x2="1731.2139" y2="329.6065" gradientTransform="matrix(-15.1633 -4.6332 -4.3869 14.7324 27744.0508 3192.9109)">
					<stop  offset="0" style="stop-color:#FFFFFF"/>
					<stop  offset="0.0657" style="stop-color:#FBF7E9"/>
					<stop  offset="0.2489" style="stop-color:#F1E1B0"/>
					<stop  offset="0.4267" style="stop-color:#E9CF81"/>
					<stop  offset="0.5949" style="stop-color:#E2C15D"/>
					<stop  offset="0.751" style="stop-color:#DEB742"/>
					<stop  offset="0.8907" style="stop-color:#DBB133"/>
					<stop  offset="1" style="stop-color:#DAAF2D"/>
				</linearGradient>
				<polygon id="XMLID_260_" style="clip-path:url(#XMLID_470_);mask:url(#XMLID_471_);fill:url(#XMLID_473_);" points="
					62.16,37.53 51.08,34.14 53.89,24.7 64.98,28.08 				"/>
			</g>
		</g>
	</g>
	<polygon id="XMLID_254_" style="fill:#21A1DB;" points="54.28,34.02 54.29,34.02 54.28,33.99 	"/>
	<g id="XMLID_10_">
		<g id="XMLID_21_">
			<defs>
				
					<rect id="XMLID_25_" x="13.3" y="9.28" transform="matrix(0.395 -0.9187 0.9187 0.395 -9.8113 37.8022)" width="21" height="34.13"/>
			</defs>
			<clipPath id="XMLID_474_">
				<use xlink:href="#XMLID_25_"  style="overflow:visible;"/>
			</clipPath>
			<g id="XMLID_33_" style="clip-path:url(#XMLID_474_);">
				<defs>
					<path id="XMLID_34_" d="M36.36,22.34l0-0.02c0-0.03-0.01-0.07-0.01-0.1l-0.04-0.38c0-0.03-0.01-0.04-0.01-0.04
						c-0.12-0.51-0.35-0.99-0.68-1.4c-0.4-0.49-0.95-0.87-1.61-1.07l-21.7-6.7c-0.65-0.19-1.33,0.17-1.53,0.82
						c-0.14,0.48,0.02,0.99,0.38,1.29l0.01,0.01l24.16,27.98c1.81-10.7,1.27-18.14,1.04-20.29L36.36,22.34z"/>
				</defs>
				<clipPath id="XMLID_475_">
					<use xlink:href="#XMLID_34_"  style="overflow:visible;"/>
				</clipPath>
				<defs>
					<filter id="Adobe_OpacityMaskFilter_2_" filterUnits="userSpaceOnUse" x="0" y="0" width="51.91" height="52.62">
						<feColorMatrix  type="matrix" values="1 0 0 0 0  0 1 0 0 0  0 0 1 0 0  0 0 0 1 0"/>
					</filter>
				</defs>
				<mask maskUnits="userSpaceOnUse" x="0" y="0" width="51.91" height="52.62" id="XMLID_476_">
					<g id="XMLID_39_" style="filter:url(#Adobe_OpacityMaskFilter_2_);">
						
							<linearGradient id="XMLID_477_" gradientUnits="userSpaceOnUse" x1="900.7125" y1="-41.5518" x2="901.7802" y2="-41.5518" gradientTransform="matrix(19.2553 22.9248 22.9248 -19.2553 -16370.7646 -21429.2695)">
							<stop  offset="0" style="stop-color:#000000"/>
							<stop  offset="0.1671" style="stop-color:#424242"/>
							<stop  offset="0.3325" style="stop-color:#7C7C7C"/>
							<stop  offset="0.4905" style="stop-color:#ABABAB"/>
							<stop  offset="0.64" style="stop-color:#CFCFCF"/>
							<stop  offset="0.7788" style="stop-color:#EAEAEA"/>
							<stop  offset="0.9029" style="stop-color:#F9F9F9"/>
							<stop  offset="1" style="stop-color:#FFFFFF"/>
						</linearGradient>
						<polygon id="XMLID_253_" style="clip-path:url(#XMLID_475_);fill:url(#XMLID_477_);" points="26.17,0 51.91,30.64 
							25.74,52.62 0,21.98 						"/>
					</g>
				</mask>
				
					<linearGradient id="XMLID_479_" gradientUnits="userSpaceOnUse" x1="900.7125" y1="-41.5518" x2="901.7802" y2="-41.5518" gradientTransform="matrix(19.2553 22.9248 22.9248 -19.2553 -16370.7646 -21429.2676)">
					<stop  offset="0" style="stop-color:#FFFFFF"/>
					<stop  offset="0.0657" style="stop-color:#FBF7E9"/>
					<stop  offset="0.2489" style="stop-color:#F1E1B0"/>
					<stop  offset="0.4267" style="stop-color:#E9CF81"/>
					<stop  offset="0.5949" style="stop-color:#E2C15D"/>
					<stop  offset="0.751" style="stop-color:#DEB742"/>
					<stop  offset="0.8907" style="stop-color:#DBB133"/>
					<stop  offset="1" style="stop-color:#DAAF2D"/>
				</linearGradient>
				<polygon id="XMLID_38_" style="clip-path:url(#XMLID_475_);mask:url(#XMLID_476_);fill:url(#XMLID_479_);" points="26.17,0 
					51.91,30.64 25.74,52.62 0,21.98 				"/>
			</g>
		</g>
	</g>
</g>
</svg>
