<?xml version="1.0" encoding="utf-8"?>
<!-- Generator: Adobe Illustrator 23.0.0, SVG Export Plug-In . SVG Version: 6.00 Build 0)  -->
<!DOCTYPE svg PUBLIC "-//W3C//DTD SVG 1.1//EN" "http://www.w3.org/Graphics/SVG/1.1/DTD/svg11.dtd" [
	<!ENTITY st0 "fill:#F5F6F7;">
	<!ENTITY st1 "fill:#353535;">
]>
<svg version="1.1" id="Capa_1" xmlns="http://www.w3.org/2000/svg" xmlns:xlink="http://www.w3.org/1999/xlink" x="0px" y="0px"
	 viewBox="0 0 60 60" style="enable-background:new 0 0 60 60;" xml:space="preserve">
<path style="&st0;" d="M30,0C13.5,0,0,13.5,0,30s13.5,30,30,30s30-13.5,30-30S46.5,0,30,0z M45.6,30.8l-22,15
	c-0.2,0.1,3.4-1.9,3.2-1.9s-2.3-2.9-2.5-3c-0.3-0.2,3.6,4.1,3.6,3.7l-3.4-27.8c0-0.4-2.3-2.5-2-2.7s-1.6,4.8-1.3,5.1l24.3,10
	c0.3,0.2,0.4,0.5,0.4,0.8S45.8,30.6,45.6,30.8z"/>
<path style="&st1;" d="M23.2,44.7c0.4,0.2,0.8,0.3,1.2,0.3c0.5,0,0.9-0.1,1.3-0.4l20.1-12.5c0.7-0.5,1.2-1.3,1.2-2.1
	s-0.4-1.7-1.2-2.1L25.7,15.3c-0.8-0.5-1.8-0.5-2.5-0.1c-0.8,0.4-1.3,1.3-1.3,2.2v25.1C21.9,43.4,22.4,44.3,23.2,44.7z"/>
</svg>
