<svg xmlns="http://www.w3.org/2000/svg" xmlns:xlink="http://www.w3.org/1999/xlink" viewBox="0 0 412 49"><defs><path id="A" d="M0-452.1h411.36V49H0z"/></defs><clipPath id="B"><use xlink:href="#A"/></clipPath><g clip-path="url(#B)"><path d="M1062.04 244.92c-10.3.1-47.62 5.47-54.17-7.08 2.78-4.5 18.2-5.98 22.37-7.26 10.52-3.26 9-4.82 16.4-14.8 6.44-8.7 26.5-14.06 7.07-22.62-7.04-3.1-14.83-3.57-22.62-3.64-7.23-.07-43.07 6.24-47.25.46-8.45-11.68 34.17-12.02 38.62-19.54-8.04-7.37-23.3-1.13-33.6-1.03-10.9.1-22.72-2.7-32.13-2.6-2-6.1 14.1-7.75 15.1-10-.35.8-28.68-4.08-32.32-4.48-12.87-1.4-26 .26-40.57.4-17.1.17-35.6 2.83-52.64.52-5-.68-22.84-2.2-11.87-13.4-4.58-1.96-19.22 2.62-19.07-5.43.12-6.48 13.62-4.13 16.54-4.5 4.67-.6 16.72-1.03 21.98-3.14.84-.34 13.58-9.1 14.06-9.9 2.9-4.85-14.76-4.77-15.16-4.76-3.25-9.82 40.22-24.73 44.43-31.96 6.62-11.37-15.63-17.26-16.82-28.7-.55-5.28 7.65-8.08 5.6-17.78.4 1.9-9.2-10.53-7.62-9.74-3.75-1.88-9.8.9-13.93.1.38.07-3.8-5.37-4.67-5.66-10.82-3.62-12.86-2-22.92-8.7-7.5-5-16.75-14.9-25.86-16.1-6.65-.88-18.53 1.82-26.63 1.9-6.66.07-11.7-3.96-18.76-5.44-6.74-1.42-15.98-2.26-22-2.76-12.25-1-23.6-4.48-34.76-5.67-44.32-4.7-89.63-1.78-133.18 2.83-32.4 3.43-65.35 10.7-98.08 11.02-39.33.38-78.46 9.74-118.2 10.14-34.82.35-70.4 11.06-104.9 15.67-46.24 6.2-95.97.34-140.76-4.43-24.24-2.58-49.68 1.2-73.54-.73-20.95-1.7-43.35-3.52-63.6-3.76L-310.7 8c-145.83 1.68-303.8 10.5-449.18 25.9-76.4 8.1-149.14 21.27-225.53 29.22-39.3 4.1-79.1 11.3-118.8 7.42-22.78-2.22-44.82-3-66.85-2.78-4.92.05-14.05-1.55-18.28.18-3.54 1.45-3.66 6.93-5.8 7.92-3.26 1.5-18.84 3.33-20.12 5 .36 1.84 1.2 2.5 2.55 1.98 2.1 7.6-36.46 7.6-40.7 7.74-9.67.33-24 1.85-33 1.8-3.16-.02-15.78-.33-16.17-.5 2.63 1.14 27 10.96 26.98 10.98-5.5 10.9-41.73 4.48-50.5 4.57-7.46.07-15.15-.58-22.6.22-1.23.13-1.88 5.9-1.6 5.88-4.34.47-6.83-4-13.1-2.83-2.03.38-5.66 3.88-8.77 5.92-7.9 5.2-10.7 6.03-20.86 6.13-13.2.13-43-8.6-54 2.26 5.72 5.26 36.12 8.8 25 25.4-6.57 9.8-11.5-4.32-9.3 7.9 1.55 8.62 7.05 9.25 12.65 11.6 9.1 3.83 26.35.26 33.9 9.37 6.27 7.55-.24 15.15.87 19.64.24.97 6.28 4.5 6.3 4.44-1.73 10.34-1.1 1.22-5.63 8.2-1.48 2.28 35.26 7.28 36.9 8.7 16.55 14.22-29.27 10.97-30.32 9.96 10.1 9.7 27 3.62 37.04 12.2 4 3.43 5.05 11.05 11 14.45-.1-.05 7.07-1.7 8.22-1.45 1.76.4 2.78 3.36 3.92 3.8 8.58 3.4 17.6 5.34 24.08 6.17 9.9 1.28 21 .77 31.36 2.62 2.4.43 11.52 4.88 15.26 5.72 5.12 1.15 22.42.06 25.6 7.02 10.15 22.12-49.64 10.94-57.54 10.96-9.7.02-17.96.18-26.98-1.27-3.45-.55-32.26-6.66-21.9 6.85 2.96 3.85 21.96 1 10.93 14.36-1.2 1.46-27.14 3.67-25.83 6.04 6.8 12.26 31.56 5.7 43.25 16.44-4.57 4.6-10.62-.8-15.2 3.46 15.83 15.4-9.05 14.04-13.68 13.66-6.1-.5-24.37-3.45-14.5 8.47.4.5 10.24 2.64 12.35 3.75 1.3.68 7.75 8.9 10.8 10.16 5 2.05 27.3.93 17.93 10.7 6.56 6.02 15.66 4.67 23.3 7 7.4 2.27 14.9 6.2 22.27 8.57 28.25 9.12-14.27 4.42-3.77 22.76 3.6 6.3 30.3 8.05 36.24 9.17 14.7 2.78 29.06 6.46 45.15 8.35 34.5 4.04 67.96 13.96 103.23 13.63 52.47-.5 104.3 8.13 157.93 1.36 47.3-5.97 100.46-9.17 146.87-4.88 15.4 1.42 21.8 11.64 36.55 13.2 17.6 1.86 32.63 4.87 48.83 9.74 79.67 23.93 166.4 11.54 247.35 12.36 23.35.24 44.08-1.2 63.5-.65 5.6.16 5.13 2.3 8.7 2.65 6.54.64 13.55-5.06 17.4-5.1 7-.1 13.03 6.77 20.72 7.88 1.78.26 7.9-2 10.94-1.6 3.07.43 7.93 3.8 11.27 4.83 5.86 1.84 10.8 2.04 17.64-.82 14.65-6.12 31.72.06 45.83-13.4-13.67-14.2.65-13.33 12.54-13.45l40.96-.4c31.58-.3 64.34-3.57 96.88-3.9 44.3-.44 87.1-10.6 131.46-15.97 53.88-6.52 106.95-1 159.75-7.45 50.73-6.2 105.02-12.77 157.2-13.3 51.58-.5 100.58-4 148.03-21.97 13.56-5.13 25.16-7.8 36.64-20.25 7.36-8 10.5-21.65 19.14-27.3 5.4-3.52 13.97-5.15 20.27-7.33 38.74-13.36 80.63-13.6 121.66-17.55 21.5-2.07 42.72-7.24 63.95-9.4 20.52-2.08 42.36-11.8 63.44-15.34 37.13-6.24 73.05-19.7 107.7-33.33 9.53-3.75 16.8.28 26.82-3.44 8.22-3.05 16.47-9.92 24.33-11.66 13.9-3.08 26.74-1.66 40.7-3.34 9.23-1.1 29.08 2.56 35.78-4.6l-4.64-4.54c-10.3.1 1.88 1.32 0 0z" fill="#353535"/></g></svg>