<svg xmlns="http://www.w3.org/2000/svg" xmlns:xlink="http://www.w3.org/1999/xlink" viewBox="0 0 1496 49"><defs><path id="A" d="M-13.02 0h1508.97v49H-13.02z"/></defs><clipPath id="B"><use xlink:href="#A"/></clipPath><g clip-path="url(#B)"><path d="M2259.54 304.33c-12.47.08-57.68 6.44-65.55-8.8 3.4-5.43 22.07-7.16 27.1-8.7 12.75-3.9 10.93-5.8 19.9-17.84 7.83-10.5 32.14-16.92 8.65-27.35-8.5-3.78-17.94-4.38-27.37-4.5-8.75-.1-52.17 7.38-57.2.37-10.2-14.18 41.4-14.42 46.83-23.5-9.7-8.95-28.2-1.46-40.7-1.38-13.2.1-27.5-3.36-38.9-3.3-2.4-7.38 17.1-9.33 18.3-12.06-.43.97-34.7-5.06-39.12-5.55-15.57-1.75-31.48.2-49.12.33-20.72.14-43.13 3.3-63.74.43-6.05-.84-27.65-2.76-14.32-16.26-5.53-2.4-23.28 3.1-23.06-6.65.17-7.85 16.5-4.94 20.05-5.37 5.65-.7 20.24-1.18 26.63-3.72 1.02-.4 16.48-10.95 17.06-11.9 3.53-5.86-17.85-5.83-18.33-5.83-3.9-11.9 48.8-29.78 53.92-38.52 8.06-13.74-18.86-20.96-20.25-34.8-.64-6.4 9.3-9.76 6.84-21.5.48 2.3-11.1-12.8-9.18-11.82-4.53-2.3-11.88 1.06-16.86.07.46.1-4.57-6.5-5.63-6.87-13.1-4.42-15.56-2.48-27.72-10.63-9.05-6.07-20.22-18.1-31.25-19.6-8.05-1.1-22.44 2.12-32.25 2.2-8.06.05-14.15-4.84-22.7-6.66-8.16-1.74-19.34-2.8-26.64-3.42-14.82-1.27-28.54-5.52-42.06-7-53.64-5.87-108.5-2.5-161.26 2.9-39.22 4.03-79.16 12.7-118.8 12.96-47.63.32-95.03 11.5-143.16 11.82-42.16.3-85.26 13.1-127.05 18.56-56 7.3-116.2.03-170.4-5.92-29.33-3.22-60.16 1.25-89.03-1.18-25.36-2.13-52.47-4.43-76.97-4.8L598.5 12.12C421.9 13.56 230.6 23.6 54.54 41.7-38 51.2-126.12 66.86-218.63 76.18c-47.6 4.8-95.8 13.37-143.87 8.52-27.57-2.78-54.25-3.8-80.92-3.63-5.96.04-17-1.93-22.13.15-4.3 1.74-4.46 8.38-7.04 9.56-3.95 1.82-22.82 3.96-24.38 5.97.43 2.23 1.46 3.03 3.08 2.4 2.53 9.2-44.17 9.05-49.3 9.2-11.7.36-29.06 2.14-39.96 2.05-3.82-.03-19.1-.46-19.58-.67 3.18 1.4 32.63 13.38 32.62 13.4-6.7 13.2-50.54 5.26-61.17 5.33-9.03.06-18.34-.77-27.35.18-1.5.16-2.3 7.15-1.95 7.1-5.25.56-8.25-4.86-15.86-3.47-2.45.45-6.87 4.67-10.64 7.13-9.58 6.25-12.98 7.25-25.27 7.34-15.97.1-52.02-10.57-65.4 2.52 6.9 6.4 43.7 10.78 30.17 30.85-8 11.85-13.9-5.27-11.28 9.54 1.85 10.44 8.5 11.23 15.27 14.1 11.02 4.67 31.9.42 41 11.48 7.56 9.17-.35 18.34.98 23.8.3 1.18 7.6 5.48 7.6 5.4-2.14 12.52-1.33 1.47-6.85 9.92-1.8 2.76 42.66 8.95 44.64 10.66 19.98 17.3-35.48 13.16-36.75 11.94 12.18 11.8 32.7 4.5 44.8 14.9 4.84 4.16 6.07 13.4 13.27 17.54-.1-.07 8.57-2.05 9.96-1.73 2.13.5 3.35 4.08 4.73 4.63 10.37 4.16 21.27 6.53 29.13 7.57 11.98 1.58 25.42 1 37.96 3.3 2.9.53 13.92 5.95 18.45 6.98 6.2 1.4 27.14.16 30.98 8.6 12.2 26.82-60.15 13.05-69.7 13.04-11.73-.02-21.75.14-32.66-1.64-4.17-.68-39.04-8.2-26.53 8.2 3.56 4.67 26.58 1.3 13.17 17.43-1.46 1.76-32.88 4.34-31.3 7.2 8.2 14.87 38.2 7.04 52.3 20.07-5.56 5.53-12.85-1.03-18.4 4.13 19.1 18.7-11 16.96-16.6 16.48-7.37-.63-29.5-4.27-17.6 10.2.5.6 12.4 3.24 14.94 4.6 1.57.83 9.34 10.8 13.04 12.34 6.03 2.5 33.06 1.23 21.66 13.02 7.92 7.3 18.94 5.72 28.18 8.58 8.96 2.77 18.02 7.55 26.93 10.46 34.17 11.15-17.3 5.3-4.65 27.54 4.34 7.63 36.66 9.86 43.84 11.24 17.8 3.43 35.16 7.94 54.63 10.28 41.74 5.03 82.22 17.17 124.93 16.9 63.52-.4 126.25 10.25 191.2 2.27 57.3-7.04 121.67-10.7 177.84-5.34 18.65 1.78 26.36 14.18 44.2 16.12 21.32 2.33 39.5 6.03 59.08 11.98 96.37 29.28 201.43 14.62 299.42 15.94 28.27.38 53.37-1.3 76.87-.54 6.8.22 6.2 2.8 10.5 3.24 7.9.8 16.42-6.07 21.1-6.12 8.5-.1 15.76 8.24 25.05 9.62 2.16.32 9.57-2.4 13.25-1.88 3.72.53 9.6 4.62 13.62 5.9 7.1 2.25 13.06 2.5 21.36-.92 17.76-7.35 38.4.2 55.54-16.05-16.5-17.23.84-16.14 15.24-16.24l49.6-.33c38.23-.26 77.9-4.07 117.3-4.34 53.64-.36 105.5-12.5 159.22-18.82 65.25-7.68 129.5-.8 193.44-8.4 61.45-7.3 127.2-15.05 190.4-15.48 62.45-.42 121.8-4.46 179.3-26.02 16.43-6.16 30.5-9.34 44.44-24.37 8.94-9.64 12.8-26.17 23.28-32.97 6.55-4.25 16.93-6.2 24.57-8.8 46.95-16.02 97.68-16.15 147.37-20.77 26.02-2.42 51.75-8.6 77.46-11.1C1928 393 1954.47 381.3 1980 377.1c44.98-7.4 88.52-23.55 130.52-39.93 11.55-4.5 20.33.4 32.5-4.06 9.96-3.66 19.98-11.95 29.5-14.03 16.84-3.68 32.38-1.9 49.28-3.88 11.18-1.3 35.2 3.22 43.34-5.4l-5.6-5.45c-12.47.1 2.27 1.6 0 0z" fill="#353535"/></g></svg>