<svg xmlns="http://www.w3.org/2000/svg" viewBox="0 0 48.1 36.2"><path d="M39.7 14.3c-.3-1-1.1-1.7-2.1-1.8l-7.7-1.1v-.1l-3.4-6.9C26 3.5 25 3 24 3s-1.9.6-2.4 1.5l-3.4 7h-.1l-7.6 1.1c-1 .1-1.8.8-2.1 1.8s-.1 2 .7 2.7l5.6 5.4-1.3 7.7a2.49 2.49 0 0 0 1.1 2.6c.5.3 1 .5 1.6.5.4 0 .9-.1 1.2-.3l6.9-3.6h.1l6.8 3.6c.9.5 2 .4 2.8-.2s1.2-1.6 1.1-2.6l-1.3-7.6 5.5-5.4c.5-.9.8-1.9.5-2.9zm-2.5.9l-5.5 5.4c-.6.6-.9 1.5-.8 2.3l1.4 7.8-7-3.7c-.8-.4-1.7-.4-2.5 0l-7 3.7 1.3-7.8c.1-.9-.1-1.7-.8-2.3l-5.7-5.5 7.9-1.1c.9-.1 1.6-.7 2-1.5L24 5.4l3.5 7.1c.4.8 1.1 1.3 2 1.5l7.9 1.1-.2.1z" opacity=".7" fill="#353535"/></svg>