<?xml version="1.0" encoding="utf-8"?>
<!-- Generator: Adobe Illustrator 23.0.1, SVG Export Plug-In . SVG Version: 6.00 Build 0)  -->
<svg version="1.1" id="Capa_1" xmlns="http://www.w3.org/2000/svg" xmlns:xlink="http://www.w3.org/1999/xlink" x="0px" y="0px"
	 viewBox="0 0 242.28 42.69" style="enable-background:new 0 0 242.28 42.69;" xml:space="preserve">
<g>
	<path style="fill:#FFFFFF;" d="M91.1,28.07c-0.04,0.04-0.06,0.1-0.06,0.15h-0.15l-0.06-1.68l0.03-0.03h0.12
		c0.12,0.31,0.32,0.58,0.58,0.79c0.23,0.19,0.48,0.33,0.76,0.43c0.26,0.09,0.55,0.12,0.82,0.09c0.26-0.01,0.52-0.07,0.76-0.18
		c0.22-0.12,0.4-0.29,0.55-0.49c0.31-0.48,0.28-1.1-0.06-1.56c-0.21-0.23-0.44-0.44-0.7-0.61c-0.29-0.2-0.6-0.37-0.92-0.52
		c-0.33-0.15-0.63-0.33-0.92-0.55c-0.27-0.21-0.51-0.45-0.7-0.73c-0.19-0.31-0.29-0.67-0.27-1.04c-0.01-0.28,0.05-0.55,0.18-0.79
		c0.13-0.24,0.31-0.44,0.52-0.61c0.22-0.18,0.46-0.31,0.73-0.4c0.44-0.12,0.89-0.15,1.34-0.09c0.17,0.03,0.33,0.07,0.49,0.12
		c0.04,0.02,0.08,0.03,0.12,0.03c0.09,0.03,0.15,0.03,0.24,0.06c0.08,0.01,0.17,0.03,0.24,0.06c0.04,0,0.08,0.01,0.12,0.03
		c0.12-0.01,0.22-0.09,0.24-0.21h0.12c0.03,0.27,0.06,0.58,0.09,0.88c0.02,0.28,0.04,0.57,0.03,0.85h-0.18
		c-0.09-0.28-0.24-0.53-0.46-0.73c-0.2-0.19-0.44-0.33-0.7-0.43c-0.25-0.1-0.52-0.15-0.79-0.15c-0.25-0.01-0.5,0.03-0.73,0.12
		c-0.21,0.1-0.4,0.24-0.55,0.43c-0.15,0.19-0.23,0.43-0.21,0.67c-0.01,0.2,0.06,0.39,0.18,0.55c0.12,0.16,0.26,0.31,0.43,0.43
		l0.64,0.46c0.24,0.15,0.46,0.27,0.7,0.4L93.6,23.8c0.26,0.12,0.52,0.27,0.76,0.43c0.23,0.15,0.45,0.32,0.64,0.52
		c0.2,0.18,0.35,0.4,0.46,0.64c0.13,0.27,0.19,0.56,0.18,0.85c-0.01,0.31-0.08,0.61-0.21,0.88c-0.16,0.24-0.36,0.46-0.58,0.64
		c-0.25,0.18-0.53,0.31-0.82,0.4c-0.6,0.19-1.25,0.2-1.86,0.03c-0.31-0.09-0.61-0.15-0.95-0.24C91.19,28.04,91.13,28.04,91.1,28.07z
		"/>
	<path style="fill:#FFFFFF;" d="M104.4,25.91c-0.16,0.47-0.41,0.91-0.73,1.28c-0.33,0.37-0.73,0.66-1.19,0.85
		c-1.04,0.41-2.19,0.41-3.23,0c-0.46-0.19-0.87-0.48-1.19-0.85c-0.34-0.37-0.59-0.81-0.73-1.28c-0.16-0.51-0.24-1.05-0.24-1.59
		c-0.01-0.62,0.11-1.23,0.34-1.8c0.2-0.48,0.49-0.91,0.85-1.28c0.35-0.34,0.76-0.6,1.22-0.76c0.45-0.16,0.93-0.24,1.4-0.24
		c0.47,0,0.93,0.09,1.37,0.24c0.46,0.17,0.87,0.43,1.22,0.76c0.38,0.36,0.67,0.8,0.85,1.28c0.23,0.56,0.34,1.16,0.34,1.77
		C104.69,24.84,104.59,25.39,104.4,25.91z M103.43,23.13c-0.09-0.4-0.26-0.79-0.49-1.13c-0.21-0.33-0.49-0.61-0.82-0.82
		c-0.38-0.23-0.81-0.35-1.25-0.34c-0.45-0.02-0.9,0.09-1.28,0.34c-0.33,0.22-0.62,0.5-0.85,0.82c-0.22,0.35-0.37,0.73-0.46,1.13
		c-0.09,0.4-0.15,0.81-0.15,1.22c0.01,0.42,0.06,0.84,0.15,1.25c0.08,0.4,0.24,0.78,0.46,1.13c0.21,0.34,0.51,0.62,0.85,0.82
		c0.39,0.22,0.83,0.33,1.28,0.31c0.44,0.02,0.87-0.09,1.25-0.31c0.34-0.21,0.63-0.49,0.85-0.82c0.22-0.35,0.37-0.73,0.46-1.13
		c0.1-0.41,0.15-0.83,0.15-1.25C103.59,23.94,103.54,23.53,103.43,23.13L103.43,23.13z"/>
	<path style="fill:#FFFFFF;" d="M111.82,28.17c-0.46,0.15-0.95,0.22-1.43,0.21c-0.58,0.02-1.17-0.09-1.71-0.31
		c-0.49-0.16-0.93-0.45-1.28-0.82c-0.35-0.36-0.63-0.8-0.79-1.28c-0.19-0.53-0.28-1.09-0.27-1.65c-0.01-0.55,0.1-1.1,0.31-1.62
		c0.17-0.49,0.45-0.92,0.82-1.28c0.36-0.37,0.8-0.66,1.28-0.85c0.53-0.22,1.1-0.32,1.68-0.31c0.43,0,0.86,0.04,1.28,0.12
		c0.06,0.03,0.12,0.03,0.18,0.06c0.06,0.03,0.15,0.03,0.24,0.06c0.08,0,0.15,0.02,0.21,0.06c0.06,0.02,0.12,0.04,0.18,0.03
		c0.13,0.02,0.26-0.08,0.27-0.21l0,0h0.12c0,0.12-0.06,1.68-0.09,1.77c-0.24-0.4-0.56-0.74-0.95-1.01
		c-0.41-0.24-0.87-0.35-1.34-0.34c-0.48-0.01-0.96,0.08-1.4,0.27c-0.38,0.18-0.71,0.44-0.98,0.76c-0.25,0.33-0.43,0.7-0.55,1.1
		c-0.12,0.44-0.18,0.89-0.18,1.34c0,0.46,0.06,0.93,0.18,1.37c0.12,0.4,0.32,0.77,0.58,1.1c0.26,0.32,0.6,0.57,0.98,0.73
		c0.44,0.19,0.92,0.29,1.4,0.27h0.64c0.22-0.01,0.45-0.03,0.67-0.06c0.22-0.04,0.43-0.09,0.64-0.15c0.2-0.07,0.38-0.17,0.55-0.31
		l0.06,0.18C112.75,27.76,112.3,28.01,111.82,28.17z"/>
	<path style="fill:#FFFFFF;" d="M114.11,28.38v-0.12h0.34c0.08,0,0.15-0.02,0.21-0.06c0.06-0.04,0.1-0.11,0.09-0.18
		c0.03-0.11,0.04-0.22,0.03-0.34v-6.71c0.01-0.11,0-0.23-0.03-0.34c0-0.07-0.03-0.14-0.09-0.18c-0.06-0.04-0.14-0.06-0.21-0.06
		h-0.34v-0.12h2.32v0.12h-0.34c-0.07,0-0.13,0.02-0.18,0.06c-0.06,0.04-0.1,0.11-0.09,0.18c0,0.09-0.03,0.18-0.03,0.34v6.71
		c-0.01,0.11,0,0.23,0.03,0.34c0.02,0.07,0.05,0.13,0.09,0.18c0.06,0.03,0.12,0.05,0.18,0.06h0.34v0.12H114.11z"/>
	<path style="fill:#FFFFFF;" d="M123.81,28.38v-0.12c0.14,0.01,0.28-0.02,0.4-0.09c0.09-0.06,0.09-0.21,0-0.4l-0.76-1.8h-3.6
		l-0.67,1.65c-0.08,0.15-0.11,0.32-0.09,0.49c0.03,0.12,0.18,0.15,0.43,0.15v0.12h-1.68v-0.12c0.09,0,0.18-0.03,0.24-0.09
		c0.06-0.06,0.12-0.09,0.18-0.15c0.06-0.06,0.1-0.13,0.12-0.21c0.04-0.08,0.07-0.16,0.09-0.24l3.05-7.29h0.67l3.17,7.6
		c0.1,0.21,0.29,0.36,0.52,0.4v0.12L123.81,28.38z M121.7,21.51l-1.59,3.88h3.17L121.7,21.51z"/>
	<path style="fill:#FFFFFF;" d="M131.62,28.17c-0.46,0.15-0.95,0.22-1.43,0.21c-0.58,0.02-1.17-0.09-1.71-0.31
		c-0.48-0.18-0.92-0.46-1.28-0.82c-0.34-0.37-0.61-0.81-0.79-1.28c-0.19-0.53-0.28-1.09-0.27-1.65c0-0.55,0.09-1.1,0.27-1.62
		c0.18-0.48,0.46-0.92,0.82-1.28c0.36-0.37,0.8-0.66,1.28-0.85c0.53-0.21,1.1-0.32,1.68-0.31c0.43,0,0.86,0.04,1.28,0.12
		c0.03,0.03,0.12,0.03,0.18,0.06s0.15,0.03,0.24,0.06c0.08,0,0.15,0.02,0.21,0.06c0.06,0.02,0.12,0.04,0.18,0.03
		c0.13,0.02,0.26-0.08,0.27-0.21l0,0h0.12c0,0.12-0.06,1.68-0.09,1.77c-0.24-0.39-0.55-0.73-0.92-1.01
		c-0.41-0.24-0.87-0.35-1.34-0.34c-0.48-0.01-0.96,0.08-1.4,0.27c-0.37,0.18-0.71,0.44-0.98,0.76c-0.26,0.33-0.45,0.7-0.58,1.1
		c-0.12,0.44-0.18,0.89-0.18,1.34c0,0.46,0.06,0.93,0.18,1.37c0.12,0.4,0.32,0.77,0.58,1.1c0.27,0.31,0.6,0.56,0.98,0.73
		c0.44,0.19,0.92,0.28,1.4,0.27h0.61c0.22-0.01,0.45-0.03,0.67-0.06c0.22-0.04,0.43-0.09,0.64-0.15c0.2-0.08,0.38-0.18,0.55-0.31
		l0.06,0.18C132.52,27.78,132.09,28.03,131.62,28.17z"/>
	<path style="fill:#FFFFFF;" d="M133.91,28.38v-0.12h0.34c0.08,0,0.15-0.02,0.21-0.06c0.05-0.05,0.09-0.11,0.09-0.18
		c0.03-0.11,0.04-0.22,0.03-0.34v-6.71c0.01-0.11,0-0.23-0.03-0.34c0-0.09-0.06-0.12-0.09-0.18c-0.06-0.04-0.14-0.06-0.21-0.06
		h-0.34v-0.12h2.32v0.12h-0.34c-0.08,0-0.15,0.02-0.21,0.06c-0.06,0.04-0.1,0.11-0.09,0.18c0,0.09-0.03,0.18-0.03,0.34v6.71
		c-0.01,0.11,0,0.23,0.03,0.34c0.02,0.07,0.05,0.13,0.09,0.18c0.06,0.04,0.14,0.06,0.21,0.06h0.34v0.12H133.91z"/>
	<path style="fill:#FFFFFF;" d="M144.74,25.91c-0.17,0.47-0.42,0.9-0.73,1.28c-0.33,0.37-0.73,0.66-1.19,0.85
		c-0.51,0.21-1.06,0.32-1.62,0.31c-0.55,0.02-1.11-0.09-1.62-0.31c-0.45-0.2-0.85-0.49-1.19-0.85c-0.34-0.37-0.59-0.81-0.73-1.28
		c-0.16-0.51-0.24-1.05-0.24-1.59c-0.02-0.61,0.09-1.23,0.31-1.8c0.2-0.48,0.49-0.91,0.85-1.28c0.35-0.34,0.76-0.6,1.22-0.76
		c0.91-0.33,1.9-0.33,2.81,0c0.46,0.17,0.87,0.43,1.22,0.76c0.38,0.36,0.67,0.8,0.85,1.28c0.22,0.56,0.32,1.17,0.31,1.77
		C145,24.84,144.92,25.39,144.74,25.91z M143.77,23.13c-0.08-0.4-0.24-0.78-0.46-1.13c-0.21-0.34-0.51-0.62-0.85-0.82
		c-0.38-0.23-0.81-0.35-1.25-0.34c-0.44-0.03-0.88,0.09-1.25,0.34c-0.34,0.21-0.63,0.49-0.85,0.82c-0.22,0.35-0.37,0.73-0.46,1.13
		c-0.09,0.4-0.15,0.81-0.15,1.22c0.01,0.42,0.06,0.84,0.15,1.25c0.08,0.4,0.24,0.78,0.46,1.13c0.21,0.34,0.51,0.62,0.85,0.82
		c0.38,0.22,0.81,0.32,1.25,0.31c0.45,0.02,0.89-0.09,1.28-0.31c0.34-0.21,0.63-0.49,0.85-0.82c0.22-0.35,0.37-0.73,0.46-1.13
		c0.1-0.41,0.15-0.83,0.15-1.25C143.93,23.94,143.87,23.53,143.77,23.13z M140.38,19.59c0.15-0.13,0.28-0.27,0.4-0.43l0.37-0.46
		l0.37-0.46c0.12-0.15,0.25-0.28,0.4-0.4c0.08-0.07,0.17-0.13,0.27-0.15c0.09-0.03,0.19-0.03,0.27,0c0.08,0.01,0.15,0.04,0.21,0.09
		c0.05,0.05,0.09,0.11,0.09,0.18c0.01,0.05-0.02,0.1-0.06,0.12l-0.09,0.09c-0.3,0.21-0.58,0.43-0.85,0.67
		c-0.27,0.24-0.55,0.49-0.82,0.7L140.38,19.59z"/>
	<path style="fill:#FFFFFF;" d="M153.1,20.45c-0.08,0.02-0.15,0.08-0.18,0.15c-0.04,0.09-0.06,0.18-0.06,0.27v7.51h-0.61l-4.82-6.8
		v6.22c0,0.09,0.02,0.19,0.06,0.27c0.04,0.07,0.1,0.13,0.18,0.15c0.12,0.04,0.24,0.06,0.37,0.06v0.12h-1.92v-0.12
		c0.13,0,0.27-0.02,0.4-0.06c0.08-0.02,0.15-0.08,0.18-0.15c0.04-0.09,0.06-0.18,0.06-0.27v-6.9c-0.03-0.09-0.07-0.17-0.12-0.24
		c-0.02-0.05-0.05-0.11-0.09-0.15c-0.06-0.03-0.09-0.06-0.15-0.06c-0.09-0.03-0.18-0.04-0.27-0.03v-0.12h1.59
		c0.73,1.1,1.5,2.14,2.23,3.2s1.5,2.17,2.26,3.26v-5.55c0.01-0.11,0-0.23-0.03-0.34c-0.01-0.09-0.03-0.19-0.06-0.27
		c-0.04-0.07-0.1-0.13-0.18-0.15c-0.13-0.03-0.26-0.04-0.4-0.03v-0.12h1.95v0.12C153.35,20.39,153.22,20.4,153.1,20.45z"/>
	<path style="fill:#FFFFFF;" d="M158.38,28.26h0.31c0.07,0,0.13-0.02,0.18-0.06c0.04-0.05,0.07-0.12,0.09-0.18
		c0.03-0.11,0.04-0.22,0.03-0.34v-6.71c0.01-0.11,0-0.23-0.03-0.34c0.01-0.07-0.03-0.15-0.09-0.18c-0.06-0.04-0.12-0.07-0.18-0.09
		h-0.31v-0.12h2.78c0.61,0,1.21,0.08,1.8,0.24c0.51,0.16,0.99,0.42,1.4,0.76c0.4,0.35,0.72,0.79,0.92,1.28
		c0.22,0.57,0.32,1.19,0.31,1.8c0,0.56-0.09,1.12-0.27,1.65c-0.21,0.51-0.53,0.97-0.95,1.34c-0.45,0.39-0.98,0.67-1.56,0.82
		c-0.58,0.15-1.17,0.22-1.77,0.21h-2.69v-0.09L158.38,28.26z M159.97,27.52c0,0.07,0.04,0.14,0.09,0.18
		c0.07,0.04,0.14,0.07,0.21,0.09c0.08,0.03,0.16,0.04,0.24,0.03h0.18c0.53,0.01,1.07-0.05,1.59-0.18c0.45-0.11,0.86-0.32,1.22-0.61
		c0.34-0.3,0.62-0.68,0.79-1.1c0.2-0.51,0.29-1.04,0.27-1.59c0-0.53-0.08-1.05-0.24-1.56c-0.16-0.41-0.43-0.78-0.76-1.07
		c-0.33-0.32-0.74-0.54-1.19-0.64c-0.49-0.15-1.01-0.22-1.53-0.21c-0.15-0.01-0.31,0.01-0.46,0.03c-0.15,0.03-0.3,0.09-0.43,0.18
		L159.97,27.52L159.97,27.52z"/>
	<path style="fill:#FFFFFF;" d="M172.33,28.38h-5.46v-0.12c0.16,0.02,0.32-0.01,0.46-0.09c0.06-0.06,0.09-0.21,0.09-0.49v-6.71
		c0.02-0.17-0.01-0.34-0.09-0.49c-0.14-0.08-0.3-0.11-0.46-0.09v-0.12h5.34l0.03,1.22h-0.18c-0.03-0.31-0.12-0.49-0.27-0.55
		c-0.21-0.07-0.42-0.1-0.64-0.09h-2.41c-0.15,0-0.21,0.03-0.24,0.06c-0.03,0.03-0.03,0.09-0.03,0.24v2.75h2.44
		c0.11,0.01,0.23,0,0.34-0.03c0.09,0,0.18-0.03,0.24-0.09c0.07-0.04,0.13-0.1,0.15-0.18c0.04-0.11,0.06-0.22,0.06-0.34h0.15v1.83
		h-0.15c0-0.11-0.02-0.23-0.06-0.34c-0.02-0.08-0.08-0.15-0.15-0.18c-0.07-0.04-0.14-0.07-0.21-0.09h-2.78v3.14
		c0,0.06,0,0.12,0.06,0.15c0.04,0.04,0.1,0.06,0.15,0.06h2.35c0.18,0,0.37-0.03,0.49-0.03c0.13-0.02,0.25-0.06,0.37-0.12
		c0.12-0.07,0.23-0.16,0.31-0.27c0.11-0.13,0.2-0.27,0.27-0.43h0.18L172.33,28.38z"/>
	<path style="fill:#FFFFFF;" d="M182.88,28.38h-5.46v-0.12c0.16,0.02,0.32-0.01,0.46-0.09c0.06-0.06,0.09-0.21,0.09-0.49v-6.71
		c0.02-0.17-0.01-0.34-0.09-0.49c-0.14-0.08-0.3-0.11-0.46-0.09v-0.12h5.34v1.22h-0.18c-0.03-0.31-0.12-0.49-0.27-0.55
		c-0.21-0.07-0.42-0.1-0.64-0.09h-2.41c-0.09-0.01-0.17,0.01-0.24,0.06c-0.03,0.03-0.03,0.09-0.03,0.24v2.75h2.44
		c0.11,0.01,0.23,0,0.34-0.03c0.09,0,0.18-0.03,0.24-0.09c0.06-0.03,0.09-0.09,0.15-0.18c0.04-0.11,0.06-0.22,0.06-0.34h0.15v1.83
		h-0.15c-0.03-0.15-0.03-0.24-0.06-0.34c-0.02-0.08-0.08-0.15-0.15-0.18c-0.07-0.04-0.14-0.07-0.21-0.09h-2.78v3.14
		c0,0.11,0.09,0.21,0.2,0.21c0,0,0.01,0,0.01,0h2.35c0.18,0,0.37-0.03,0.49-0.03c0.13-0.02,0.25-0.06,0.37-0.12
		c0.12-0.07,0.22-0.17,0.31-0.27c0.11-0.12,0.2-0.27,0.24-0.43h0.18L182.88,28.38z"/>
	<path style="fill:#FFFFFF;" d="M191.46,28.38v-0.12c0.1,0.01,0.21,0,0.31-0.03c0.09-0.03,0.15-0.03,0.18-0.06
		c0.04-0.05,0.07-0.12,0.09-0.18c0.03-0.1,0.04-0.2,0.03-0.31v-6.47l-3.05,7.17h-0.43l-3.08-7.02v6.41c0,0.1,0.02,0.19,0.06,0.27
		c0.03,0.09,0.09,0.12,0.18,0.18c0.12,0.04,0.24,0.06,0.37,0.06v0.12h-1.92v-0.12c0.13,0,0.27-0.02,0.4-0.06
		c0.09-0.03,0.16-0.1,0.18-0.18c0.04-0.09,0.06-0.18,0.06-0.27c0-0.12,0.03-0.24,0.03-0.4v-6.41c0-0.15-0.03-0.24-0.03-0.34
		c-0.02-0.06-0.05-0.13-0.09-0.18c-0.06-0.04-0.14-0.06-0.21-0.06h-0.31v-0.12h1.86l2.93,6.65l2.84-6.65h1.83v0.12
		c-0.1-0.01-0.21,0-0.31,0.03c-0.07,0-0.14,0.04-0.18,0.09c-0.04,0.05-0.07,0.12-0.06,0.18c-0.03,0.1-0.04,0.2-0.03,0.31v6.71
		c-0.01,0.1,0,0.21,0.03,0.31c0.01,0.06,0.03,0.13,0.06,0.18c0.05,0.04,0.12,0.06,0.18,0.06c0.06,0,0.18,0.03,0.31,0.03v0.12h-2.23
		V28.38z"/>
	<path style="fill:#FFFFFF;" d="M196.98,27.68c-0.01,0.11,0,0.23,0.03,0.34c0.02,0.06,0.05,0.13,0.09,0.18
		c0.05,0.04,0.12,0.06,0.18,0.06h0.31v0.12h-2.2v-0.12c0.1,0.01,0.21,0,0.31-0.03c0.06-0.03,0.12-0.03,0.15-0.06
		c0.04-0.05,0.07-0.12,0.09-0.18c0-0.06,0.03-0.18,0.03-0.31v-6.71c0.01-0.1,0-0.21-0.03-0.31c0.01-0.07-0.03-0.15-0.09-0.18
		c-0.05-0.04-0.1-0.07-0.15-0.09c-0.1-0.03-0.2-0.04-0.31-0.03v-0.12h2.72c0.35-0.01,0.7,0.03,1.04,0.12
		c0.32,0.08,0.63,0.22,0.92,0.4c0.27,0.18,0.49,0.42,0.64,0.7c0.16,0.32,0.23,0.68,0.21,1.04c0.01,0.38-0.08,0.76-0.24,1.1
		c-0.16,0.3-0.39,0.55-0.67,0.73c-0.28,0.2-0.61,0.33-0.95,0.4c-0.36,0.09-0.73,0.12-1.1,0.09l-0.98-0.03L196.98,27.68z
		 M196.98,24.26l0.85,0.03c0.28,0,0.55-0.03,0.82-0.09c0.23-0.05,0.45-0.16,0.64-0.31c0.17-0.16,0.32-0.34,0.43-0.55
		c0.1-0.26,0.15-0.54,0.15-0.82c0.01-0.27-0.05-0.53-0.18-0.76c-0.1-0.2-0.25-0.38-0.43-0.52c-0.2-0.13-0.41-0.22-0.64-0.27
		c-0.25-0.06-0.51-0.09-0.76-0.09c-0.07,0.01-0.15,0-0.21-0.03c-0.08,0-0.17-0.01-0.24-0.03c-0.07,0-0.15,0.01-0.21,0.03
		c-0.08,0-0.15,0.02-0.21,0.06V24.26z"/>
	<path style="fill:#FFFFFF;" d="M207.14,28.38c-0.16-0.39-0.36-0.77-0.58-1.13c-0.19-0.33-0.39-0.64-0.61-0.95
		c-0.22-0.31-0.46-0.59-0.73-0.85c-0.27-0.27-0.55-0.55-0.88-0.85h-0.85v3.08c-0.01,0.11,0,0.23,0.03,0.34
		c-0.01,0.07,0.03,0.15,0.09,0.18c0.06,0.03,0.12,0.05,0.18,0.06h0.31v0.12h-2.17v-0.12c0.1,0.01,0.21,0,0.31-0.03
		c0.06-0.02,0.12-0.04,0.18-0.06c0.04-0.05,0.07-0.12,0.09-0.18c0-0.06,0.03-0.18,0.03-0.31v-6.71c0.01-0.1,0-0.21-0.03-0.31
		c0.01-0.07-0.03-0.15-0.09-0.18c-0.05-0.04-0.12-0.07-0.18-0.09c-0.1-0.03-0.2-0.04-0.31-0.03v-0.12h2.87
		c0.34-0.01,0.68,0.03,1.01,0.12c0.31,0.05,0.6,0.18,0.85,0.37c0.73,0.6,0.99,1.6,0.64,2.47c-0.11,0.22-0.27,0.42-0.46,0.58
		c-0.19,0.16-0.41,0.28-0.64,0.37c-0.25,0.1-0.52,0.17-0.79,0.21c0.19,0.15,0.38,0.31,0.55,0.49c0.14,0.12,0.26,0.25,0.37,0.4
		c0.11,0.13,0.21,0.26,0.31,0.4c0.09,0.12,0.24,0.27,0.37,0.46c0.12,0.18,0.31,0.43,0.46,0.67c0.15,0.24,0.27,0.49,0.4,0.7
		c0.12,0.21,0.24,0.4,0.34,0.55c0.09,0.15,0.21,0.21,0.31,0.21v0.12h-1.34V28.38z M203.45,24.02h0.58c0.29,0,0.57-0.02,0.85-0.06
		c0.26-0.06,0.52-0.15,0.76-0.27c0.22-0.14,0.4-0.32,0.52-0.55c0.16-0.25,0.23-0.55,0.21-0.85c0.01-0.25-0.05-0.5-0.15-0.73
		c-0.12-0.18-0.28-0.34-0.46-0.46c-0.19-0.12-0.41-0.19-0.64-0.21c-0.24-0.04-0.49-0.06-0.73-0.06h-0.49
		c-0.08,0-0.17,0.02-0.24,0.06c-0.09,0.03-0.12,0.09-0.18,0.12v3.02H203.45z"/>
	<path style="fill:#FFFFFF;" d="M215.53,28.38h-5.46v-0.12c0.16,0.02,0.32-0.01,0.46-0.09c0.06-0.06,0.09-0.21,0.09-0.49v-6.71
		c0.02-0.17-0.01-0.34-0.09-0.49c-0.14-0.08-0.3-0.11-0.46-0.09v-0.12h5.34l0.03,1.22h-0.15c-0.03-0.31-0.12-0.49-0.27-0.55
		c-0.21-0.07-0.42-0.1-0.64-0.09h-2.41c-0.09-0.01-0.17,0.01-0.24,0.06c-0.03,0.03-0.03,0.09-0.03,0.24v2.75h2.44
		c0.11,0.01,0.23,0,0.34-0.03c0.08,0.01,0.16-0.03,0.21-0.09c0.07-0.04,0.13-0.1,0.15-0.18c0.04-0.11,0.06-0.22,0.06-0.34h0.15v1.83
		h-0.15c0-0.11-0.02-0.23-0.06-0.34c-0.02-0.08-0.08-0.15-0.15-0.18c-0.07-0.04-0.14-0.07-0.21-0.09h-2.78v3.14
		c0,0.11,0.09,0.21,0.2,0.21c0,0,0.01,0,0.01,0h2.35c0.18,0,0.37-0.03,0.49-0.03c0.13-0.02,0.25-0.06,0.37-0.12
		c0.12-0.07,0.23-0.16,0.31-0.27c0.11-0.12,0.2-0.27,0.24-0.43h0.18L215.53,28.38z"/>
	<path style="fill:#FFFFFF;" d="M217.36,28.07c-0.04,0.04-0.06,0.1-0.06,0.15h-0.15l-0.06-1.68l0.03-0.03h0.12
		c0.11,0.31,0.31,0.59,0.58,0.79c0.22,0.19,0.48,0.34,0.76,0.43c0.26,0.09,0.55,0.12,0.82,0.09c0.26-0.01,0.52-0.07,0.76-0.18
		c0.22-0.11,0.41-0.28,0.55-0.49c0.31-0.48,0.28-1.1-0.06-1.56c-0.21-0.23-0.44-0.44-0.7-0.61c-0.29-0.2-0.6-0.37-0.92-0.52
		c-0.33-0.15-0.63-0.33-0.92-0.55c-0.27-0.21-0.51-0.45-0.7-0.73c-0.2-0.31-0.31-0.67-0.31-1.04c0-0.28,0.08-0.55,0.21-0.79
		c0.13-0.24,0.31-0.44,0.52-0.61c0.22-0.18,0.46-0.31,0.73-0.4c0.28-0.09,0.56-0.13,0.85-0.12c0.17-0.01,0.35,0.01,0.52,0.03
		c0.17,0.03,0.33,0.07,0.49,0.12c0.03,0,0.06,0.03,0.12,0.03s0.15,0.03,0.24,0.06c0.07,0.01,0.15,0.03,0.21,0.06
		c0.04,0,0.08,0.01,0.12,0.03c0.12-0.02,0.21-0.1,0.24-0.21h0.12c0.03,0.49,0.06,1.28,0.12,1.77h-0.12
		c-0.09-0.28-0.24-0.53-0.46-0.73c-0.2-0.19-0.44-0.33-0.7-0.43c-0.25-0.1-0.52-0.15-0.79-0.15c-0.25-0.01-0.5,0.03-0.73,0.12
		c-0.21,0.1-0.4,0.24-0.55,0.43c-0.15,0.19-0.23,0.43-0.21,0.67c-0.01,0.2,0.06,0.39,0.18,0.55c0.12,0.16,0.26,0.31,0.43,0.43
		l0.64,0.46c0.24,0.15,0.49,0.27,0.7,0.4l-0.09-0.03c0.26,0.12,0.52,0.27,0.76,0.43c0.23,0.15,0.45,0.32,0.64,0.52
		c0.19,0.19,0.34,0.4,0.46,0.64c0.12,0.27,0.17,0.56,0.15,0.85c0.01,0.31-0.06,0.61-0.21,0.88c-0.16,0.24-0.36,0.46-0.58,0.64
		c-0.25,0.18-0.53,0.31-0.82,0.4c-0.3,0.1-0.6,0.15-0.92,0.15c-0.33,0-0.66-0.04-0.98-0.12c-0.31-0.09-0.61-0.15-0.95-0.24
		C217.46,28.04,217.39,28.04,217.36,28.07z"/>
	<path style="fill:#FFFFFF;" d="M231.98,28.07c-0.04,0.04-0.06,0.1-0.06,0.15h-0.15l-0.06-1.68l0.03-0.03h0.12
		c0.11,0.31,0.31,0.59,0.58,0.79c0.22,0.19,0.48,0.34,0.76,0.43c0.26,0.09,0.55,0.12,0.82,0.09c0.26-0.01,0.52-0.07,0.76-0.18
		c0.22-0.11,0.41-0.28,0.55-0.49c0.31-0.48,0.28-1.1-0.06-1.56c-0.21-0.23-0.44-0.44-0.7-0.61c-0.29-0.2-0.6-0.37-0.92-0.52
		c-0.33-0.15-0.63-0.33-0.92-0.55c-0.27-0.21-0.51-0.45-0.7-0.73c-0.2-0.31-0.31-0.67-0.31-1.04c0-0.28,0.08-0.55,0.21-0.79
		c0.13-0.24,0.31-0.44,0.52-0.61c0.22-0.18,0.46-0.31,0.73-0.4c0.28-0.09,0.56-0.13,0.85-0.12c0.17-0.01,0.35,0.01,0.52,0.03
		c0.17,0.03,0.33,0.07,0.49,0.12c0.03,0,0.06,0.03,0.12,0.03c0.06,0,0.15,0.03,0.24,0.06c0.07,0.01,0.15,0.03,0.21,0.06
		c0.04,0,0.08,0.01,0.12,0.03c0.12-0.02,0.21-0.1,0.24-0.21h0.12c0.03,0.49,0.06,1.28,0.12,1.77h-0.12
		c-0.09-0.28-0.24-0.53-0.46-0.73c-0.2-0.19-0.44-0.33-0.7-0.43c-0.25-0.1-0.52-0.15-0.79-0.15c-0.25-0.01-0.5,0.03-0.73,0.12
		c-0.21,0.1-0.4,0.24-0.55,0.43c-0.15,0.19-0.23,0.43-0.21,0.67c-0.01,0.2,0.06,0.39,0.18,0.55c0.12,0.16,0.26,0.31,0.43,0.43
		l0.64,0.46c0.24,0.15,0.49,0.27,0.7,0.4l-0.09-0.03c0.26,0.12,0.52,0.27,0.76,0.43c0.23,0.15,0.45,0.32,0.64,0.52
		c0.19,0.19,0.34,0.4,0.46,0.64c0.12,0.27,0.17,0.56,0.15,0.85c0.01,0.31-0.06,0.61-0.21,0.88c-0.16,0.24-0.36,0.46-0.58,0.64
		c-0.25,0.18-0.53,0.31-0.82,0.4c-0.3,0.1-0.6,0.15-0.92,0.15c-0.33,0-0.66-0.04-0.98-0.12c-0.31-0.09-0.61-0.15-0.95-0.24
		C232.07,28.04,232.01,28.04,231.98,28.07z"/>
	<path style="fill:#FFFFFF;" d="M228.56,28.38v-0.12c0.14,0.01,0.28-0.02,0.4-0.09c0.09-0.06,0.09-0.21,0-0.4l-0.73-1.8h-3.6
		l-0.67,1.65c-0.08,0.15-0.11,0.32-0.09,0.49c0.03,0.12,0.18,0.15,0.43,0.15v0.12h-1.68v-0.12c0.09,0,0.18-0.03,0.24-0.09
		c0.06-0.06,0.12-0.09,0.18-0.15c0.06-0.07,0.11-0.14,0.15-0.21c0.04-0.08,0.07-0.16,0.09-0.24l3.08-7.29h0.67l3.17,7.6
		c0.09,0.22,0.29,0.37,0.52,0.4v0.12L228.56,28.38z M226.46,21.51l-1.59,3.88h3.17L226.46,21.51z"/>
	<path style="fill:#FFFFFF;" d="M81.76,41.65v-0.12h0.34c0.08,0,0.15-0.02,0.21-0.06c0.06-0.04,0.1-0.11,0.09-0.18
		c0-0.06,0.03-0.18,0.03-0.34v-6.71c0.01-0.11,0-0.23-0.03-0.34c-0.02-0.06-0.05-0.13-0.09-0.18c-0.06-0.04-0.14-0.06-0.21-0.06
		h-0.34v-0.12h2.32v0.12h-0.34c-0.07,0-0.13,0.02-0.18,0.06c-0.04,0.05-0.07,0.12-0.09,0.18c0,0.09-0.03,0.18-0.03,0.34v6.71
		c-0.01,0.11,0,0.23,0.03,0.34c0.02,0.07,0.05,0.13,0.09,0.18c0.06,0.03,0.12,0.05,0.18,0.06h0.34v0.12H81.76z"/>
	<path style="fill:#FFFFFF;" d="M92.93,33.72c-0.08,0.02-0.15,0.08-0.18,0.15c-0.04,0.09-0.06,0.18-0.06,0.27v7.51h-0.61l-4.82-6.83
		v6.26c0,0.09,0.02,0.19,0.06,0.27c0.06,0.06,0.09,0.12,0.18,0.15c0.12,0.04,0.24,0.06,0.37,0.06v0.12h-1.92v-0.12
		c0.12,0,0.25-0.02,0.37-0.06c0.08-0.03,0.16-0.09,0.21-0.15c0.04-0.09,0.06-0.18,0.06-0.27v-6.93c-0.03-0.08-0.08-0.17-0.12-0.24
		c-0.02-0.05-0.05-0.11-0.09-0.15c-0.04-0.04-0.1-0.06-0.15-0.06c-0.09-0.03-0.18-0.04-0.27-0.03v-0.12h1.59
		c0.73,1.1,1.5,2.17,2.26,3.23s1.5,2.14,2.23,3.23v-5.89c-0.01-0.09-0.03-0.19-0.06-0.27c-0.04-0.07-0.1-0.13-0.18-0.15
		c-0.13-0.03-0.26-0.04-0.4-0.03v-0.12h1.95v0.12C93.19,33.65,93.06,33.67,92.93,33.72z"/>
	<path style="fill:#FFFFFF;" d="M102.39,41.65v-0.12c0.1,0.01,0.21,0,0.31-0.03c0.09-0.03,0.15-0.03,0.18-0.06s0.06-0.09,0.09-0.18
		c0.03-0.09,0.03-0.18,0.03-0.31v-6.47l-3.08,7.17h-0.4l-3.08-7.02v6.41c0,0.1,0.02,0.19,0.06,0.27c0.03,0.09,0.09,0.12,0.18,0.18
		c0.12,0.04,0.24,0.06,0.37,0.06v0.12h-1.92v-0.12c0.13,0,0.27-0.02,0.4-0.06c0.09-0.03,0.16-0.1,0.18-0.18
		c0.04-0.09,0.06-0.18,0.06-0.27v-6.77c0.01-0.11,0-0.23-0.03-0.34c0-0.09-0.06-0.12-0.09-0.18c-0.06-0.04-0.14-0.06-0.21-0.06
		h-0.31v-0.15h1.86l2.9,6.65l2.84-6.65h1.83v0.12c-0.1-0.01-0.21,0-0.31,0.03c-0.07,0-0.14,0.04-0.18,0.09
		c-0.04,0.05-0.07,0.12-0.06,0.18c0,0.06-0.03,0.18-0.03,0.31v6.71c-0.01,0.1,0,0.21,0.03,0.31c0.01,0.06,0.03,0.13,0.06,0.18
		c0.05,0.04,0.12,0.06,0.18,0.06c0.09,0,0.18,0.03,0.31,0.03v0.12h-2.17V41.65z"/>
	<path style="fill:#FFFFFF;" d="M113.34,39.18c-0.17,0.47-0.42,0.9-0.73,1.28c-0.33,0.37-0.73,0.66-1.19,0.85
		c-1.04,0.41-2.19,0.41-3.23,0c-0.45-0.19-0.86-0.49-1.19-0.85c-0.34-0.37-0.59-0.81-0.73-1.28c-0.16-0.51-0.24-1.05-0.24-1.59
		c-0.02-0.62,0.09-1.23,0.34-1.8c0.2-0.48,0.49-0.91,0.85-1.28c0.35-0.34,0.76-0.6,1.22-0.76c0.91-0.33,1.9-0.33,2.81,0
		c0.46,0.17,0.87,0.43,1.22,0.76c0.38,0.36,0.67,0.8,0.85,1.28c0.23,0.56,0.34,1.16,0.34,1.77C113.6,38.11,113.5,38.65,113.34,39.18
		z M112.37,36.4c-0.09-0.4-0.26-0.79-0.49-1.13c-0.21-0.34-0.51-0.62-0.85-0.82c-0.38-0.23-0.81-0.35-1.25-0.34
		c-0.45-0.02-0.9,0.09-1.28,0.34c-0.33,0.22-0.62,0.5-0.85,0.82c-0.22,0.35-0.37,0.73-0.46,1.13c-0.09,0.4-0.15,0.81-0.15,1.22
		c0.01,0.42,0.06,0.84,0.15,1.25c0.08,0.4,0.24,0.78,0.46,1.13c0.21,0.34,0.51,0.62,0.85,0.82c0.39,0.22,0.83,0.33,1.28,0.31
		c0.44,0.02,0.87-0.09,1.25-0.31c0.34-0.21,0.63-0.49,0.85-0.82c0.22-0.35,0.37-0.73,0.46-1.13c0.1-0.41,0.15-0.83,0.15-1.25
		C112.51,37.21,112.47,36.8,112.37,36.4z"/>
	<path style="fill:#FFFFFF;" d="M114.87,41.53h0.34c0.08,0,0.15-0.02,0.21-0.06c0.06-0.04,0.1-0.11,0.09-0.18
		c0.03-0.11,0.04-0.22,0.03-0.34v-6.71c0-0.15-0.03-0.24-0.03-0.34c-0.02-0.07-0.06-0.14-0.12-0.18c-0.06-0.04-0.14-0.06-0.21-0.06
		h-0.31v-0.12h2.81c0.35,0,0.7,0.03,1.04,0.09c0.32,0.06,0.63,0.17,0.92,0.34c0.27,0.15,0.49,0.37,0.64,0.64
		c0.18,0.31,0.27,0.67,0.24,1.04c0.04,0.44-0.12,0.88-0.43,1.19c-0.33,0.29-0.73,0.49-1.16,0.58c0.25,0.05,0.5,0.13,0.73,0.24
		c0.22,0.1,0.43,0.23,0.61,0.4c0.17,0.17,0.31,0.37,0.43,0.58c0.1,0.25,0.15,0.52,0.15,0.79c0.01,0.37-0.08,0.74-0.24,1.07
		c-0.17,0.28-0.4,0.52-0.67,0.7c-0.29,0.18-0.61,0.31-0.95,0.37c-0.35,0.08-0.71,0.13-1.07,0.12h-3.05V41.53z M116.55,40.83
		c0.03,0.09,0.1,0.16,0.18,0.18c0.09,0.04,0.18,0.07,0.27,0.09h0.52c0.28-0.01,0.55-0.03,0.82-0.06c0.26-0.05,0.5-0.15,0.73-0.27
		c0.22-0.12,0.39-0.3,0.52-0.52c0.14-0.24,0.21-0.51,0.21-0.79c0.01-0.31-0.07-0.62-0.24-0.88c-0.16-0.22-0.37-0.4-0.61-0.52
		c-0.27-0.13-0.56-0.21-0.85-0.24c-0.3-0.05-0.61-0.07-0.92-0.06h-0.61v3.08L116.55,40.83z M116.58,37.14h1.16
		c0.24,0,0.47-0.03,0.7-0.09c0.2-0.06,0.4-0.14,0.58-0.24c0.17-0.11,0.31-0.27,0.4-0.46c0.1-0.22,0.16-0.46,0.15-0.7
		c0.01-0.26-0.05-0.51-0.18-0.73c-0.11-0.19-0.27-0.35-0.46-0.46c-0.2-0.12-0.41-0.2-0.64-0.24c-0.24-0.05-0.49-0.07-0.73-0.06
		h-0.52c-0.09,0-0.18,0.03-0.27,0.03c-0.08,0.02-0.15,0.06-0.21,0.12v2.84L116.58,37.14z"/>
	<path style="fill:#FFFFFF;" d="M122.25,41.65v-0.12h0.34c0.08,0,0.15-0.02,0.21-0.06c0.06-0.04,0.1-0.11,0.09-0.18
		c0.03-0.11,0.04-0.22,0.03-0.34v-6.71c0.01-0.11,0-0.23-0.03-0.34c0-0.07-0.03-0.14-0.09-0.18c-0.06-0.04-0.14-0.06-0.21-0.06
		h-0.34v-0.12h2.32v0.12h-0.34c-0.07,0-0.13,0.02-0.18,0.06c-0.05,0.05-0.09,0.11-0.09,0.18c-0.03,0.11-0.04,0.22-0.03,0.34v6.71
		c-0.01,0.11,0,0.23,0.03,0.34c0,0.07,0.04,0.14,0.09,0.18c0.05,0.04,0.12,0.06,0.18,0.06h0.34v0.12H122.25z"/>
	<path style="fill:#FFFFFF;" d="M131.84,41.65h-5.4v-0.12c0.1,0.01,0.21,0,0.31-0.03c0.06-0.03,0.12-0.03,0.15-0.06
		c0.04-0.05,0.07-0.12,0.09-0.18v-7.32c0.01-0.07-0.03-0.15-0.09-0.18c-0.05-0.04-0.1-0.07-0.15-0.09c-0.1-0.03-0.2-0.04-0.31-0.03
		v-0.09h2.2v0.12c-0.1-0.01-0.21,0-0.31,0.03c-0.07-0.01-0.15,0.03-0.18,0.09c-0.06,0.03-0.06,0.09-0.09,0.18s-0.03,0.18-0.03,0.34
		v6.56c0,0.06,0.02,0.11,0.06,0.15c0.06,0.03,0.09,0.06,0.15,0.06h2.11c0.21,0,0.4-0.03,0.58-0.03c0.15-0.01,0.3-0.05,0.43-0.12
		c0.13-0.06,0.25-0.16,0.34-0.27c0.11-0.16,0.21-0.32,0.31-0.49l0.15,0.03L131.84,41.65z"/>
	<path style="fill:#FFFFFF;" d="M133.09,41.65v-0.12h0.34c0.08,0,0.15-0.02,0.21-0.06c0.06-0.03,0.06-0.09,0.09-0.18
		c0.03-0.11,0.04-0.22,0.03-0.34v-6.71c0.01-0.11,0-0.23-0.03-0.34c-0.01-0.07-0.04-0.13-0.09-0.18c-0.06-0.04-0.14-0.06-0.21-0.06
		h-0.34v-0.12h2.32v0.12h-0.34c-0.07,0-0.13,0.02-0.18,0.06c-0.06,0.04-0.1,0.11-0.09,0.18c0,0.09-0.03,0.18-0.03,0.34v6.71
		c0,0.15,0.03,0.27,0.03,0.34c0.02,0.07,0.05,0.13,0.09,0.18c0.06,0.03,0.12,0.05,0.18,0.06h0.34v0.12H133.09z"/>
	<path style="fill:#FFFFFF;" d="M143.06,41.65v-0.12c0.14,0.01,0.28-0.02,0.4-0.09c0.09-0.06,0.09-0.21,0-0.4l-0.76-1.8h-3.57
		l-0.67,1.65c-0.08,0.15-0.11,0.32-0.09,0.49c0.03,0.12,0.18,0.15,0.43,0.15v0.12h-1.68v-0.12c0.09,0,0.18-0.03,0.24-0.09
		c0.06-0.06,0.12-0.09,0.18-0.15c0.06-0.06,0.1-0.13,0.12-0.21c0.05-0.08,0.09-0.16,0.12-0.24l3.05-7.29h0.67l3.2,7.6
		c0.09,0.22,0.29,0.37,0.52,0.4v0.12H143.06z M140.96,34.79l-1.59,3.88h3.17L140.96,34.79z"/>
	<path style="fill:#FFFFFF;" d="M87.68,28.38v-0.12c0.14,0.01,0.28-0.02,0.4-0.09c0.09-0.06,0.09-0.21,0-0.4l-0.76-1.8h-3.6
		l-0.67,1.65c-0.08,0.15-0.11,0.32-0.09,0.49c0.03,0.12,0.18,0.15,0.43,0.15v0.12h-1.62v-0.12c0.09,0,0.18-0.03,0.24-0.09
		c0.06-0.06,0.12-0.09,0.18-0.15c0.06-0.06,0.1-0.13,0.12-0.21c0.05-0.08,0.09-0.16,0.12-0.24l3.05-7.29h0.67l3.2,7.6
		c0.09,0.22,0.29,0.37,0.52,0.4v0.12L87.68,28.38z M85.58,21.51l-1.59,3.88h3.17L85.58,21.51z"/>
	<path style="fill:#FFFFFF;" d="M151.97,41.65c-0.18-0.43-0.4-0.79-0.58-1.13c-0.19-0.33-0.39-0.64-0.61-0.95
		c-0.22-0.31-0.46-0.59-0.73-0.85c-0.27-0.27-0.58-0.55-0.92-0.85h-0.85v3.08c-0.01,0.11,0,0.23,0.03,0.34
		c-0.01,0.07,0.03,0.15,0.09,0.18c0.05,0.04,0.12,0.06,0.18,0.06h0.31v0.12h-2.2v-0.12c0.1,0.01,0.21,0,0.31-0.03
		c0.06-0.03,0.12-0.03,0.18-0.06c0.04-0.05,0.07-0.12,0.09-0.18c0-0.06,0.03-0.18,0.03-0.31v-6.71c0.01-0.1,0-0.21-0.03-0.31
		c0.01-0.07-0.03-0.15-0.09-0.18c-0.05-0.04-0.12-0.07-0.18-0.09c-0.1-0.03-0.2-0.04-0.31-0.03v-0.09h2.87
		c0.34-0.01,0.68,0.03,1.01,0.12c0.31,0.05,0.6,0.18,0.85,0.37c0.25,0.17,0.45,0.4,0.58,0.67c0.16,0.31,0.23,0.66,0.21,1.01
		c0.01,0.28-0.05,0.55-0.18,0.79c-0.11,0.22-0.27,0.42-0.46,0.58c-0.2,0.16-0.43,0.28-0.67,0.37c-0.25,0.1-0.5,0.17-0.76,0.21
		c0.19,0.15,0.38,0.31,0.55,0.49c0.14,0.12,0.27,0.26,0.4,0.4c0.11,0.13,0.21,0.26,0.31,0.4c0.09,0.12,0.24,0.27,0.37,0.46
		c0.12,0.18,0.31,0.43,0.46,0.67c0.15,0.24,0.27,0.49,0.4,0.7s0.24,0.4,0.34,0.55c0.09,0.15,0.18,0.21,0.31,0.21v0.12L151.97,41.65z
		 M148.28,37.29h0.58c0.29,0,0.57-0.02,0.85-0.06c0.26-0.06,0.52-0.15,0.76-0.27c0.22-0.14,0.41-0.33,0.55-0.55
		c0.16-0.25,0.23-0.55,0.21-0.85c0.05-0.48-0.19-0.95-0.61-1.19c-0.19-0.12-0.41-0.19-0.64-0.21c-0.24-0.04-0.49-0.06-0.73-0.06
		h-0.49c-0.08,0.01-0.17,0.03-0.24,0.06c-0.07,0.03-0.13,0.07-0.18,0.12v3.02H148.28z"/>
	<path style="fill:#FFFFFF;" d="M154.99,41.65v-0.12h0.34c0.07,0,0.13-0.02,0.18-0.06c0.06-0.04,0.1-0.11,0.09-0.18
		c0.03-0.11,0.04-0.22,0.03-0.34v-6.71c0.01-0.11,0-0.23-0.03-0.34c0-0.09-0.06-0.12-0.09-0.18c-0.05-0.04-0.12-0.06-0.18-0.06
		h-0.34v-0.12h2.32v0.12h-0.34c-0.07,0-0.13,0.02-0.18,0.06c-0.06,0.04-0.1,0.11-0.09,0.18c0,0.09-0.03,0.18-0.03,0.34v6.71
		c-0.01,0.11,0,0.23,0.03,0.34c-0.01,0.07,0.03,0.15,0.09,0.18c0.05,0.04,0.12,0.06,0.18,0.06h0.34v0.12H154.99z"/>
	<path style="fill:#FFFFFF;" d="M164.82,41.65v-0.12c0.15,0.01,0.3-0.02,0.43-0.09c0.09-0.06,0.09-0.21,0-0.4l-0.73-1.8h-3.6
		l-0.67,1.65c-0.08,0.15-0.11,0.32-0.09,0.49c0.03,0.12,0.18,0.15,0.43,0.15v0.12h-1.68v-0.12c0.09,0,0.18-0.03,0.24-0.09
		c0.06-0.06,0.12-0.09,0.18-0.15c0.06-0.06,0.1-0.13,0.12-0.21c0.04-0.08,0.07-0.16,0.09-0.24l3.08-7.29h0.64l3.2,7.6
		c0.1,0.21,0.29,0.36,0.52,0.4v0.12H164.82z M162.71,34.79l-1.59,3.88h3.17L162.71,34.79z"/>
	<path style="fill:#FFFFFF;" d="M168.36,41.35c-0.04,0.04-0.06,0.1-0.06,0.15h-0.15l-0.06-1.68l0.03-0.03h0.09
		c0.12,0.31,0.32,0.58,0.58,0.79c0.23,0.19,0.5,0.34,0.79,0.43c0.26,0.09,0.55,0.12,0.82,0.09c0.26-0.01,0.52-0.08,0.76-0.18
		c0.23-0.1,0.42-0.27,0.55-0.49c0.13-0.22,0.21-0.47,0.21-0.73c0.01-0.3-0.09-0.59-0.27-0.82c-0.21-0.23-0.44-0.44-0.7-0.61
		c-0.29-0.2-0.6-0.37-0.92-0.52c-0.33-0.15-0.63-0.33-0.92-0.55c-0.27-0.21-0.51-0.45-0.7-0.73c-0.19-0.31-0.29-0.67-0.27-1.04
		c-0.01-0.28,0.05-0.55,0.18-0.79c0.13-0.24,0.31-0.44,0.52-0.61c0.22-0.18,0.46-0.31,0.73-0.4c0.28-0.09,0.56-0.13,0.85-0.12
		c0.16-0.01,0.33,0,0.49,0.03c0.17,0.03,0.33,0.07,0.49,0.12c0.04,0.02,0.08,0.03,0.12,0.03c0.06,0.03,0.15,0.03,0.24,0.06
		c0.08,0,0.15,0.02,0.21,0.06c0.04,0,0.08,0.01,0.12,0.03c0.12-0.03,0.21-0.09,0.21-0.21h0.12c0.03,0.27,0.06,0.58,0.09,0.88
		c0.02,0.28,0.04,0.57,0.03,0.85h-0.12c-0.09-0.28-0.24-0.53-0.46-0.73c-0.4-0.37-0.92-0.58-1.46-0.58
		c-0.25-0.01-0.5,0.03-0.73,0.12c-0.21,0.1-0.4,0.24-0.55,0.43c-0.15,0.19-0.23,0.43-0.21,0.67c-0.01,0.2,0.06,0.39,0.18,0.55
		c0.12,0.16,0.26,0.31,0.43,0.43l0.64,0.46c0.24,0.15,0.46,0.27,0.7,0.4l-0.09-0.03c0.24,0.12,0.52,0.27,0.76,0.43
		c0.23,0.15,0.45,0.32,0.64,0.52c0.19,0.19,0.34,0.4,0.46,0.64c0.13,0.27,0.19,0.56,0.18,0.85c0.01,0.31-0.06,0.61-0.21,0.88
		c-0.15,0.25-0.35,0.47-0.58,0.64c-0.25,0.18-0.53,0.31-0.82,0.4c-0.3,0.1-0.6,0.15-0.92,0.15c-0.33,0.01-0.66-0.03-0.98-0.12
		c-0.31-0.09-0.61-0.15-0.92-0.24C168.48,41.28,168.42,41.33,168.36,41.35z"/>
	<path style="fill:#FFFFFF;" d="M179.89,41.53h0.31c0.07,0,0.13-0.02,0.18-0.06c0.04-0.05,0.07-0.12,0.09-0.18
		c0-0.09,0.03-0.18,0.03-0.34v-6.71c0-0.12-0.03-0.24-0.03-0.34c0-0.07-0.04-0.14-0.09-0.18c-0.05-0.04-0.12-0.07-0.18-0.09h-0.31
		v-0.09h2.78c0.61,0,1.21,0.08,1.8,0.24c0.51,0.16,0.99,0.42,1.4,0.76c0.4,0.35,0.72,0.79,0.92,1.28c0.23,0.57,0.34,1.18,0.34,1.8
		c0,0.56-0.09,1.12-0.27,1.65c-0.21,0.51-0.53,0.97-0.95,1.34c-0.45,0.39-0.98,0.67-1.56,0.82c-0.58,0.15-1.17,0.22-1.77,0.21h-2.69
		V41.53z M181.48,40.8c0,0.07,0.04,0.14,0.09,0.18c0.07,0.04,0.14,0.07,0.21,0.09c0.08,0.03,0.16,0.04,0.24,0.03h0.18
		c0.53,0.01,1.07-0.05,1.59-0.18c0.45-0.11,0.86-0.32,1.22-0.61c0.35-0.29,0.62-0.67,0.76-1.1c0.2-0.51,0.29-1.04,0.27-1.59
		c0.01-0.53-0.08-1.06-0.27-1.56c-0.16-0.41-0.43-0.78-0.76-1.07c-0.33-0.31-0.74-0.53-1.19-0.64c-0.49-0.15-1.01-0.22-1.53-0.21
		c-0.15-0.01-0.31,0.01-0.46,0.03c-0.14,0.03-0.28,0.09-0.4,0.18v6.44L181.48,40.8z"/>
	<path style="fill:#FFFFFF;" d="M193.96,41.65h-5.46v-0.12c0.16,0.02,0.32-0.01,0.46-0.09c0.06-0.06,0.09-0.21,0.09-0.49v-6.71
		c0.02-0.17-0.01-0.34-0.09-0.49c-0.14-0.08-0.3-0.11-0.46-0.09v-0.12h5.34l0.03,1.22h-0.15c-0.03-0.31-0.12-0.49-0.27-0.55
		c-0.21-0.07-0.42-0.1-0.64-0.09h-2.41c-0.15,0-0.21,0.03-0.24,0.06c-0.03,0.03-0.03,0.09-0.03,0.24v2.75h2.44
		c0.11,0.01,0.23,0,0.34-0.03c0.09,0,0.18-0.03,0.24-0.09c0.06-0.04,0.11-0.11,0.12-0.18c0.04-0.11,0.06-0.22,0.06-0.34h0.15v1.83
		h-0.15c0-0.11-0.02-0.23-0.06-0.34c-0.01-0.08-0.06-0.14-0.12-0.18c-0.06-0.03-0.15-0.06-0.21-0.09h-2.78v3.11
		c0,0.11,0.09,0.21,0.2,0.21c0,0,0.01,0,0.01,0h2.32c0.18,0,0.37-0.03,0.49-0.03c0.13-0.02,0.25-0.06,0.37-0.12
		c0.12-0.07,0.23-0.16,0.31-0.27c0.1-0.13,0.18-0.27,0.24-0.43h0.18L193.96,41.65z"/>
	<path style="fill:#FFFFFF;" d="M200.8,41.65h-5.4v-0.12c0.1,0.01,0.21,0,0.31-0.03c0.06-0.03,0.12-0.03,0.18-0.06
		c0.04-0.05,0.07-0.12,0.09-0.18v-7.32c-0.03-0.09-0.03-0.15-0.09-0.18c-0.05-0.04-0.12-0.07-0.18-0.09
		c-0.1-0.03-0.2-0.04-0.31-0.03v-0.09h2.2v0.12c-0.1-0.01-0.21,0-0.31,0.03c-0.07-0.01-0.15,0.03-0.18,0.09
		c-0.04,0.05-0.07,0.12-0.09,0.18c-0.03,0.11-0.04,0.22-0.03,0.34v6.56c0,0.06,0.02,0.11,0.06,0.15c0.06,0.03,0.09,0.06,0.15,0.06
		h2.14c0.21,0,0.4-0.03,0.58-0.03c0.16-0.01,0.32-0.05,0.46-0.12c0.13-0.06,0.25-0.16,0.34-0.27c0.12-0.15,0.22-0.31,0.31-0.49
		l0.15,0.03L200.8,41.65z"/>
	<path style="fill:#FFFFFF;" d="M209.74,40.95c-0.01,0.11,0,0.23,0.03,0.34c0.01,0.07,0.04,0.13,0.09,0.18
		c0.06,0.03,0.12,0.05,0.18,0.06h0.31v0.12h-2.2v-0.12c0.1,0.01,0.21,0,0.31-0.03c0.06-0.03,0.12-0.03,0.18-0.06
		c0.04-0.05,0.07-0.12,0.09-0.18c0-0.06,0.03-0.18,0.03-0.31v-6.71c0.01-0.1,0-0.21-0.03-0.31c0.01-0.07-0.03-0.15-0.09-0.18
		c-0.05-0.04-0.12-0.07-0.18-0.09c-0.1-0.03-0.2-0.04-0.31-0.03v-0.09h2.72c0.35-0.01,0.7,0.03,1.04,0.12
		c0.32,0.08,0.63,0.22,0.92,0.4c0.27,0.18,0.49,0.42,0.64,0.7c0.17,0.32,0.25,0.68,0.24,1.04c0.01,0.38-0.08,0.76-0.24,1.1
		c-0.15,0.3-0.38,0.56-0.67,0.73c-0.28,0.2-0.61,0.33-0.95,0.4c-0.37,0.09-0.75,0.12-1.13,0.09l-0.98-0.03L209.74,40.95
		L209.74,40.95z M209.74,37.53l0.85,0.03c0.28,0,0.55-0.03,0.82-0.09c0.23-0.05,0.45-0.16,0.64-0.31c0.17-0.16,0.32-0.34,0.43-0.55
		c0.1-0.26,0.15-0.54,0.15-0.82c0-0.26-0.05-0.52-0.15-0.76c-0.1-0.2-0.25-0.38-0.43-0.52c-0.2-0.13-0.41-0.22-0.64-0.27
		c-0.25-0.06-0.51-0.09-0.76-0.09c-0.07,0-0.15-0.01-0.21-0.03c-0.08,0-0.16-0.01-0.24-0.03c-0.07-0.01-0.15,0-0.21,0.03
		c-0.07,0.01-0.15,0.03-0.21,0.06v3.36L209.74,37.53z"/>
	<path style="fill:#FFFFFF;" d="M220.2,41.65h-5.46v-0.12c0.16,0.02,0.32-0.01,0.46-0.09c0.06-0.06,0.09-0.21,0.09-0.49v-6.71
		c0.02-0.17-0.01-0.34-0.09-0.49c-0.14-0.08-0.3-0.11-0.46-0.09v-0.12h5.34v1.22h-0.15c-0.03-0.31-0.12-0.49-0.27-0.55
		c-0.21-0.07-0.42-0.1-0.64-0.09h-2.41c-0.15,0-0.21,0.03-0.24,0.06c-0.03,0.03-0.03,0.09-0.03,0.24v2.75h2.44
		c0.11,0.01,0.23,0,0.34-0.03c0.09,0,0.18-0.03,0.24-0.09c0.07-0.04,0.13-0.1,0.15-0.18c0.04-0.11,0.06-0.22,0.06-0.34h0.15v1.83
		h-0.15c-0.03-0.15-0.03-0.24-0.06-0.34c-0.02-0.08-0.08-0.15-0.15-0.18c-0.08-0.04-0.16-0.07-0.24-0.09h-2.78v3.11
		c0,0.11,0.09,0.21,0.2,0.21c0,0,0.01,0,0.01,0h2.35c0.18,0,0.37-0.03,0.49-0.03c0.13-0.02,0.25-0.06,0.37-0.12
		c0.12-0.07,0.23-0.16,0.31-0.27c0.11-0.12,0.2-0.27,0.24-0.43h0.21L220.2,41.65z"/>
	<path style="fill:#FFFFFF;" d="M226.98,41.65c-0.16-0.39-0.36-0.77-0.58-1.13c-0.19-0.33-0.39-0.64-0.61-0.95
		c-0.23-0.3-0.47-0.58-0.73-0.85c-0.27-0.27-0.58-0.55-0.92-0.85h-0.85v3.08c-0.01,0.11,0,0.23,0.03,0.34
		c0.03,0.09,0.03,0.15,0.09,0.18c0.05,0.04,0.12,0.06,0.18,0.06h0.31v0.12h-2.2v-0.12c0.1,0.01,0.21,0,0.31-0.03
		c0.06-0.03,0.12-0.03,0.18-0.06c0.04-0.05,0.07-0.12,0.06-0.18c0.03-0.1,0.04-0.2,0.03-0.31v-6.71c0.01-0.1,0-0.21-0.03-0.31
		c0-0.07-0.02-0.13-0.06-0.18c-0.05-0.04-0.12-0.07-0.18-0.09c-0.1-0.03-0.2-0.04-0.31-0.03v-0.09h2.87
		c0.34-0.01,0.68,0.03,1.01,0.12c0.31,0.05,0.6,0.18,0.85,0.37c0.25,0.17,0.45,0.4,0.58,0.67c0.26,0.57,0.28,1.22,0.06,1.8
		c-0.11,0.22-0.27,0.42-0.46,0.58c-0.2,0.16-0.43,0.29-0.67,0.37c-0.25,0.1-0.5,0.17-0.76,0.21c0.21,0.18,0.43,0.37,0.55,0.49
		c0.14,0.12,0.26,0.25,0.37,0.4c0.12,0.12,0.22,0.25,0.31,0.4c0.09,0.12,0.21,0.27,0.37,0.46c0.15,0.21,0.31,0.43,0.46,0.67
		c0.15,0.24,0.27,0.49,0.4,0.7c0.12,0.21,0.24,0.4,0.34,0.55c0.06,0.12,0.17,0.2,0.31,0.21v0.12L226.98,41.65z M223.28,37.29h0.58
		c0.27,0,0.55-0.03,0.85-0.06c0.26-0.06,0.52-0.15,0.76-0.27c0.22-0.14,0.41-0.33,0.55-0.55c0.15-0.26,0.22-0.56,0.21-0.85
		c0.05-0.48-0.19-0.95-0.61-1.19c-0.19-0.12-0.41-0.19-0.64-0.21c-0.24-0.04-0.49-0.06-0.73-0.06h-0.49c-0.08,0-0.17,0.02-0.24,0.06
		c-0.06,0.03-0.12,0.09-0.18,0.12v3.02H223.28z"/>
	<path style="fill:#FFFFFF;" d="M236.4,33.66c-0.1-0.01-0.2,0.03-0.27,0.09c-0.06,0.09-0.12,0.15-0.12,0.24
		c-0.03,0.1-0.04,0.2-0.03,0.31v4.36c0,0.98-0.27,1.71-0.79,2.23c-0.52,0.52-1.28,0.76-2.23,0.76c-0.82,0.04-1.63-0.23-2.26-0.76
		c-0.52-0.52-0.79-1.25-0.79-2.23v-4.39c0-0.14-0.02-0.29-0.06-0.43c-0.03-0.09-0.15-0.15-0.37-0.15h-0.18v-0.15h2.23v0.12h-0.31
		c-0.07,0-0.14,0.04-0.18,0.09c-0.04,0.05-0.07,0.12-0.09,0.18c-0.03,0.11-0.04,0.22-0.03,0.34v4.42c-0.03,0.62,0.15,1.24,0.52,1.74
		c0.34,0.43,0.88,0.64,1.65,0.64c0.6,0.04,1.19-0.19,1.62-0.61c0.41-0.45,0.62-1.04,0.58-1.65v-4.61c0-0.1-0.02-0.21-0.06-0.31
		c-0.03-0.09-0.1-0.16-0.18-0.18c-0.13-0.04-0.26-0.06-0.4-0.06v-0.12h1.92v0.12L236.4,33.66z M232.13,33.14
		c0.15-0.13,0.28-0.27,0.4-0.43c0.12-0.15,0.23-0.3,0.34-0.46l0.37-0.46c0.12-0.14,0.26-0.27,0.4-0.4c0.08-0.07,0.17-0.13,0.27-0.15
		c0.09-0.03,0.19-0.03,0.27,0c0.08,0.01,0.15,0.04,0.21,0.09c0.05,0.05,0.09,0.11,0.09,0.18c-0.01,0.05-0.03,0.09-0.06,0.12
		l-0.09,0.09c-0.3,0.21-0.58,0.43-0.85,0.67c-0.27,0.24-0.55,0.49-0.82,0.7L232.13,33.14z"/>
	<path style="fill:#FFFFFF;" d="M42.71,30.79c-0.56-0.59-1.18-1.11-1.86-1.56c-0.61-0.4-1.89-1.13-1.89-1.13
		c-0.64-0.34-1.28-0.73-1.92-1.1c-0.64-0.37-1.22-0.82-1.77-1.25c-0.4-0.34-0.76-0.73-1.07-1.16c-0.28-0.39-0.43-0.86-0.43-1.34
		c-0.02-0.61,0.17-1.21,0.52-1.71c0.35-0.47,0.81-0.84,1.34-1.07c1.25-0.49,2.64-0.48,3.88,0.03c0.66,0.28,1.26,0.68,1.77,1.19
		c0.53,0.54,0.94,1.2,1.19,1.92l0.09,0.27h1.01l-0.31-5.8h-1.07l-0.03,0.43c-0.03,0.12-0.15,0.21-0.27,0.18
		c-0.07-0.01-0.15-0.03-0.21-0.06c-0.18-0.06-0.4-0.12-0.64-0.18s-0.46-0.12-0.64-0.18c-0.11-0.02-0.21-0.05-0.31-0.09l-0.06-0.03
		c-0.46-0.12-0.92-0.24-1.37-0.34c-1.29-0.23-2.63-0.14-3.88,0.27c-0.78,0.27-1.51,0.66-2.17,1.16c-0.64,0.5-1.16,1.14-1.53,1.86
		c-0.4,0.76-0.6,1.61-0.58,2.47c-0.04,1.11,0.26,2.21,0.85,3.14c0.55,0.82,1.23,1.54,2.01,2.14c0.82,0.61,1.69,1.15,2.59,1.62
		c0.86,0.44,1.7,0.93,2.5,1.46c0.7,0.45,1.33,1.01,1.86,1.65c0.47,0.61,0.72,1.36,0.7,2.14c0.01,0.66-0.17,1.3-0.52,1.86
		c-0.35,0.52-0.82,0.95-1.37,1.25c-0.6,0.32-1.27,0.5-1.95,0.52c-0.72,0.04-1.45-0.07-2.14-0.31c-0.73-0.27-1.41-0.66-2.01-1.16
		c-0.66-0.58-1.17-1.32-1.5-2.14l-0.09-0.24h-1.01l0.18,5.71h1.16v-0.4c0-0.09,0-0.12,0.03-0.15c0.04-0.04,0.1-0.06,0.15-0.06
		c0.85,0.24,1.65,0.46,2.47,0.67c0.9,0.22,1.82,0.33,2.75,0.34c0.9-0.01,1.8-0.15,2.65-0.43c0.86-0.27,1.66-0.68,2.38-1.22
		c0.71-0.53,1.3-1.21,1.74-1.98c0.46-0.83,0.69-1.77,0.67-2.72c0.02-0.88-0.15-1.75-0.49-2.56C43.72,32.03,43.24,31.38,42.71,30.79z
		"/>
	<path style="fill:#FFFFFF;" d="M62.78,36.77l-0.09,0.24c-0.17,0.41-0.38,0.8-0.64,1.16c-0.2,0.26-0.45,0.48-0.73,0.64
		c-0.27,0.16-0.57,0.26-0.88,0.31c-0.43,0.07-0.87,0.1-1.31,0.09h-6.16c-0.28,0-0.52-0.23-0.52-0.51v-0.01v-7.81h6.32
		c0.3,0,0.59,0.02,0.88,0.06c0.16,0.03,0.31,0.08,0.46,0.15c0.11,0.1,0.2,0.22,0.24,0.37c0.08,0.28,0.14,0.57,0.18,0.85l0.03,0.37
		h1.16V26.7h-1.16l-0.03,0.37c-0.01,0.28-0.07,0.56-0.18,0.82c-0.04,0.14-0.12,0.26-0.24,0.34c-0.15,0.09-0.32,0.14-0.49,0.15
		c-0.29,0.04-0.59,0.06-0.88,0.06h-6.32v-8.3h7.02c0.55-0.02,1.1,0.06,1.62,0.24c0.27,0.12,0.46,0.58,0.55,1.28L61.62,22h1.19
		l-0.03-4.33h-15.5v1.13h0.79c0.58,0,0.76,0.37,0.76,0.85v20.11c0.02,0.38-0.27,0.71-0.65,0.73c-0.03,0-0.05,0-0.08,0h-0.82v1.13
		h15.78l0.98-4.88h-1.25V36.77z"/>
	<path style="fill:#FFFFFF;" d="M71.05,26.06L71.05,26.06v-6.38c0-0.47,0.38-0.85,0.85-0.85l0,0h0.92V17.7h-7.17v1.13h0.95
		c0.46,0.01,0.83,0.37,0.85,0.82v4.12l0,0v15.9c0,0.47-0.38,0.85-0.85,0.85l0,0h-0.92v1.13h7.17v-1.13h-0.95
		c-0.46-0.01-0.83-0.37-0.85-0.82V26.06L71.05,26.06z"/>
	<polygon style="fill:#F28F00;" points="50.18,11.51 50.18,1.62 44.78,1.62 44.78,7.23 36.88,1.01 17.47,16.08 17.44,16.11 
		19.49,16.11 21.22,20.42 26.81,16.08 36.88,8.27 46.79,16.08 56.01,16.08 	"/>
	<path style="fill:#FFFFFF;" d="M27.3,39.64l-8.88-21.97H16.1L7.55,38.75c-0.09,0.21-0.18,0.43-0.27,0.67
		c-0.08,0.18-0.19,0.36-0.31,0.52c-0.13,0.15-0.27,0.28-0.43,0.4c-0.14,0.1-0.31,0.16-0.49,0.15H5.72v1.13h5.4v-1.13h-0.85
		c-0.27,0-0.37-0.09-0.43-0.18c-0.06-0.11-0.06-0.25,0-0.37l2.01-5.25h9.43l1.89,4.94c0.18,0.43,0.18,0.55,0.09,0.7
		c-0.1,0.13-0.26,0.19-0.43,0.18h-0.82v1.13h6.71v-1.13h-0.46C27.69,40.43,27.48,40.13,27.3,39.64z M12.77,32.28l3.78-9.58
		l3.78,9.58H12.77z"/>
</g>
</svg>
