<svg id="Capa_1" data-name="Capa 1" xmlns="http://www.w3.org/2000/svg" xmlns:xlink="http://www.w3.org/1999/xlink" viewBox="0 0 1920 850"><defs><style>.cls-1{font-size:64.11px;letter-spacing:-0.02em;}.cls-1,.cls-11,.cls-12,.cls-13,.cls-14{fill:#717372;}.cls-1,.cls-22,.cls-23{font-family:ArgentumSans-LightItalic, Argentum Sans;}.cls-1,.cls-14,.cls-16,.cls-22,.cls-23,.cls-5,.cls-9{font-style:italic;}.cls-2{letter-spacing:-0.06em;}.cls-3{letter-spacing:-0.04em;}.cls-4{letter-spacing:-0.02em;}.cls-5{font-size:73.22px;fill:#ff8004;}.cls-15,.cls-16,.cls-5,.cls-9{font-family:Gardenia-BlackItalic, Gardenia-BlackItalic;}.cls-6{letter-spacing:-0.01em;}.cls-7{letter-spacing:-0.01em;}.cls-8{letter-spacing:-0.01em;}.cls-9{font-size:82.11px;letter-spacing:-0.03em;}.cls-15,.cls-9{fill:#f04;}.cls-10{letter-spacing:-0.04em;}.cls-12,.cls-13,.cls-14{font-family:Gardenia-BoldItalic, Gardenia-BoldItalic;}.cls-13{letter-spacing:-0.04em;}.cls-14{font-size:67.45px;letter-spacing:-0.03em;}.cls-15{letter-spacing:-0.03em;}.cls-16{font-size:45.99px;}.cls-16,.cls-22,.cls-23{fill:#fff;}.cls-17{letter-spacing:-0.08em;}.cls-18{letter-spacing:-0.01em;}.cls-19{letter-spacing:0em;}.cls-20{letter-spacing:0em;}.cls-21{letter-spacing:-0.03em;}.cls-22,.cls-23{font-size:31.8px;}.cls-22{letter-spacing:-0.02em;}.cls-23{letter-spacing:-0.02em;}.cls-24{font-size:11px;fill:#9b9b9b;font-family:MyriadPro-Regular, Myriad Pro;}.cls-25{letter-spacing:0.01em;}.cls-26{letter-spacing:-0.01em;}.cls-27{letter-spacing:-0.01em;}.cls-28{letter-spacing:-0.01em;}.cls-29{letter-spacing:-0.02em;}.cls-30{letter-spacing:-0.01em;}.cls-31{letter-spacing:0em;}.cls-32{letter-spacing:-0.01em;}.cls-33{letter-spacing:0.01em;}.cls-34{letter-spacing:0em;}.cls-35{letter-spacing:-0.01em;}.cls-36{letter-spacing:0.01em;}.cls-37{letter-spacing:-0.01em;}.cls-38{letter-spacing:0em;}.cls-39{letter-spacing:0.02em;}.cls-40{letter-spacing:-0.02em;}.cls-41{letter-spacing:-0.03em;}.cls-42{letter-spacing:-0.01em;}.cls-43{letter-spacing:0em;}.cls-44{letter-spacing:0em;}.cls-45{letter-spacing:-0.04em;}.cls-46{letter-spacing:-0.03em;}.cls-47{letter-spacing:-0.02em;}.cls-48{letter-spacing:-0.04em;}.cls-49{letter-spacing:0.03em;}.cls-50{letter-spacing:0.01em;}</style></defs><title>Mesa de trabajo 6</title><g id="FONDO_SLIDER.psd" data-name="FONDO SLIDER.psd"><image id="FONDO_SLIDER" data-name="FONDO SLIDER" width="8111" height="3565" transform="translate(0 -2) scale(0.24)" href="/assets/backgroundPiros.png"/></g><text class="cls-1" transform="translate(194.1 158.28)">¡Una <tspan class="cls-2" x="161.12" y="0">f</tspan><tspan x="177.79" y="0">amilia g</tspan><tspan class="cls-3" x="436.03" y="0">r</tspan><tspan class="cls-4" x="457.19" y="0">ande</tspan></text><text class="cls-5" transform="translate(98.47 225.78)">me<tspan class="cls-6" x="100.31" y="0">r</tspan><tspan x="129.3" y="0">e</tspan><tspan class="cls-7" x="169.5" y="0">c</tspan><tspan x="204.49" y="0">e un depa g</tspan><tspan class="cls-8" x="586.83" y="0">r</tspan><tspan x="615.82" y="0">ande! </tspan></text><text class="cls-9" transform="translate(1174 154.75)">So<tspan class="cls-10" x="88.35" y="0">l</tspan><tspan x="109.53" y="0">o 5</tspan><tspan class="cls-11" x="210.94" y="0"> </tspan><tspan class="cls-12" x="226.38" y="0">de nuest</tspan><tspan class="cls-13" x="523.94" y="0">r</tspan><tspan class="cls-12" x="552.19" y="0">os</tspan></text><text class="cls-14" transform="translate(1230.33 221.54)">depas de <tspan class="cls-15" x="276.33" y="0">3 dorms </tspan></text><text class="cls-16" transform="translate(1197.95 350.95)"><tspan class="cls-17">T</tspan><tspan x="21.52" y="0">end</tspan><tspan class="cls-18" x="99.56" y="0">r</tspan><tspan x="117.77" y="0">án un </tspan><tspan class="cls-19" x="242.11" y="0">D</tspan><tspan class="cls-20" x="271.45" y="0">SC</tspan><tspan class="cls-21" x="322.49" y="0">T</tspan><tspan x="346.4" y="0">O adicional</tspan></text><text class="cls-22" transform="translate(1465.19 395.43)">de</text><text class="cls-23" transform="translate(1504.74 384.85) scale(0.58)">*</text><text class="cls-24" transform="translate(1163.37 614.31)">*<tspan class="cls-25" x="4.56" y="0">I</tspan><tspan x="7.3" y="0">mágenes </tspan><tspan class="cls-26" x="51.74" y="0">r</tspan><tspan x="55.23" y="0">e</tspan><tspan class="cls-27" x="60.74" y="0">f</tspan><tspan x="63.81" y="0">e</tspan><tspan class="cls-26" x="69.32" y="0">r</tspan><tspan x="72.8" y="0">enciale</tspan><tspan class="cls-28" x="105.33" y="0">s</tspan><tspan x="109.57" y="0">. </tspan><tspan class="cls-29" x="114.17" y="0">P</tspan><tspan class="cls-30" x="119.85" y="0">r</tspan><tspan x="123.34" y="0">omoción </tspan><tspan class="cls-31" x="166.57" y="0">v</tspan><tspan x="171.81" y="0">álida desde el 25.10.19 al 15.11.19 y/o hasta agotar s</tspan><tspan class="cls-32" x="409.46" y="0">t</tspan><tspan x="413.04" y="0">oc</tspan><tspan class="cls-33" x="424.01" y="0">k</tspan><tspan x="429.32" y="0">. </tspan><tspan class="cls-34" x="433.93" y="0">S</tspan><tspan class="cls-35" x="439.32" y="0">t</tspan><tspan x="442.89" y="0">oc</tspan><tspan class="cls-36" x="453.86" y="0">k</tspan><tspan x="459.13" y="0">: 05 unidade</tspan><tspan class="cls-37" x="515.31" y="0">s</tspan><tspan x="519.55" y="0">. El mo</tspan><tspan class="cls-31" x="549.71" y="0">n</tspan><tspan class="cls-32" x="555.77" y="0">t</tspan><tspan x="559.34" y="0">o del descue</tspan><tspan class="cls-31" x="616.93" y="0">n</tspan><tspan class="cls-32" x="622.99" y="0">t</tspan><tspan x="626.56" y="0">o </tspan><tspan x="-7.62" y="13.2">depende</tspan><tspan class="cls-38" x="33.68" y="13.2">r</tspan><tspan x="37.22" y="13.2">á del </tspan><tspan class="cls-31" x="61.5" y="13.2">v</tspan><tspan x="66.75" y="13.2">alor del depa</tspan><tspan class="cls-39" x="126.53" y="13.2">r</tspan><tspan x="130.39" y="13.2">tame</tspan><tspan class="cls-31" x="154.02" y="13.2">n</tspan><tspan class="cls-32" x="160.08" y="13.2">t</tspan><tspan class="cls-40" x="163.65" y="13.2">o</tspan><tspan x="169.43" y="13.2">. </tspan><tspan class="cls-41" x="174.03" y="13.2">P</tspan><tspan x="179.6" y="13.2">a</tspan><tspan class="cls-38" x="184.9" y="13.2">r</tspan><tspan x="188.44" y="13.2">a m</tspan><tspan class="cls-42" x="205.25" y="13.2">a</tspan><tspan class="cls-30" x="210.46" y="13.2">y</tspan><tspan x="215.54" y="13.2">or in</tspan><tspan class="cls-27" x="236.18" y="13.2">f</tspan><tspan x="239.25" y="13.2">o</tspan><tspan class="cls-43" x="245.29" y="13.2">r</tspan><tspan x="248.93" y="13.2">mación </tspan><tspan class="cls-32" x="285.38" y="13.2">c</tspan><tspan x="290.25" y="13.2">onsultar en nuest</tspan><tspan class="cls-38" x="369.89" y="13.2">r</tspan><tspan x="373.43" y="13.2">a </tspan><tspan class="cls-44" x="381.07" y="13.2">S</tspan><tspan x="386.52" y="13.2">ala de</tspan><tspan class="cls-45" x="413.77" y="13.2"> </tspan><tspan class="cls-46" x="415.71" y="13.2">V</tspan><tspan x="421.48" y="13.2">e</tspan><tspan class="cls-31" x="426.99" y="13.2">n</tspan><tspan x="433.05" y="13.2">ta</tspan><tspan class="cls-28" x="442" y="13.2">s</tspan><tspan x="446.23" y="13.2">, ubicada en </tspan><tspan class="cls-47" x="503.75" y="13.2">A</tspan><tspan class="cls-48" x="510.25" y="13.2">v</tspan><tspan x="515.11" y="13.2">. </tspan><tspan class="cls-44" x="519.72" y="13.2">S</tspan><tspan x="525.17" y="13.2">al</tspan><tspan class="cls-42" x="533.07" y="13.2">a</tspan><tspan class="cls-26" x="538.29" y="13.2">v</tspan><tspan x="543.47" y="13.2">e</tspan><tspan class="cls-43" x="548.98" y="13.2">r</tspan><tspan class="cls-49" x="552.62" y="13.2">r</tspan><tspan x="556.49" y="13.2">y 475, Jesús </tspan><tspan class="cls-50" x="612.22" y="13.2">M</tspan><tspan x="621.13" y="13.2">a</tspan><tspan class="cls-43" x="626.44" y="13.2">r</tspan><tspan x="630.08" y="13.2">ía.</tspan></text></svg>