<?xml version="1.0" encoding="utf-8"?>
<!-- Generator: Adobe Illustrator 23.0.0, SVG Export Plug-In . SVG Version: 6.00 Build 0)  -->
<svg version="1.1" id="Layer_1" xmlns="http://www.w3.org/2000/svg" xmlns:xlink="http://www.w3.org/1999/xlink" x="0px" y="0px"
	 viewBox="0 0 154.6 70" style="enable-background:new 0 0 154.6 70;" xml:space="preserve">
<style type="text/css">
	.st0{fill:#019CDB;}
	.st1{clip-path:url(#SVGID_2_);fill:url(#SVGID_3_);}
	.st2{clip-path:url(#SVGID_5_);fill:url(#SVGID_6_);}
	.st3{fill:#8A8A8D;}
	.st4{fill:#7E7F80;}
</style>
<g>
	<path class="st0" d="M28.7,44L28.7,44c0-2.8,2.1-4.9,5-4.9c1.9,0,3.2,0.8,4,2l-2,1.5c-0.5-0.7-1.2-1.1-2.1-1.1
		c-1.3,0-2.2,1.1-2.2,2.5l0,0c0,1.4,0.9,2.5,2.2,2.5c1,0,1.6-0.5,2.1-1.1l2,1.4c-0.9,1.2-2.1,2.1-4.2,2.1
		C30.9,48.9,28.7,46.8,28.7,44"/>
	<path class="st0" d="M38.3,44L38.3,44c0-2.7,2.2-4.9,5.1-4.9c2.9,0,5.1,2.2,5.1,4.8l0,0c0,2.7-2.2,4.9-5.1,4.9
		C40.4,48.9,38.3,46.7,38.3,44 M45.8,44L45.8,44c0-1.4-1-2.6-2.4-2.6S41,42.6,41,43.9l0,0c0,1.3,1,2.5,2.4,2.5
		C44.8,46.5,45.8,45.4,45.8,44"/>
	<path class="st0" d="M51.7,45.6c0,1.1,0.7,1.4,1.8,1.4c0.7,0,1.5-0.3,1.5-0.9c0-0.8-1.3-1-2.7-1.3c-1.3-0.4-2.7-1-2.7-2.7
		c0-2,2-2.8,3.8-2.8c1.9,0,3.7,0.9,3.7,3h-2.4c0-0.8-0.8-1.1-1.5-1.1c-0.5,0-1.2,0.2-1.2,0.8c0,0.7,1.3,0.8,2.7,1.2
		c1.3,0.4,2.7,1,2.7,2.7c0,2.3-2,3.1-4,3.1c-2.1,0-4-0.9-4-3.3h2.3V45.6z"/>
	<path class="st0" d="M61.7,39.2h2.5l4,9.4h-2.8L64.8,47h-3.6l-0.7,1.7h-2.8L61.7,39.2z M64,45l-1-2.7L61.9,45H64z"/>
	<path class="st0" d="M69.2,39.3h4c2.4,0,3.9,1.2,3.9,3.3l0,0c0,2.2-1.7,3.4-4.1,3.4h-1.3v2.7h-2.6L69.2,39.3L69.2,39.3z M73,44
		c0.9,0,1.5-0.5,1.5-1.2l0,0c0-0.8-0.6-1.2-1.5-1.2h-1.2V44H73z"/>
	<rect x="78.3" y="39.3" class="st0" width="2.6" height="9.4"/>
	<g>
		<g>
			<defs>
				<path id="SVGID_1_" d="M90.4,44.1c0,13,10.6,23.6,23.7,23.6c12.1,0,22.1-9,23.6-20.6c0-0.1,0-0.2,0-0.3c0-1.1-0.9-2.1-2-2.3
					c-0.1,0-0.2,0-0.3,0c-1.2,0-2.1,0.8-2.3,2c-1.2,9.4-9.2,16.6-19,16.6l0,0c-5.3,0-10-2.1-13.5-5.6c-3.5-3.4-5.6-8.2-5.6-13.4l0,0
					H90.4z"/>
			</defs>
			<clipPath id="SVGID_2_">
				<use xlink:href="#SVGID_1_"  style="overflow:visible;"/>
			</clipPath>
			
				<linearGradient id="SVGID_3_" gradientUnits="userSpaceOnUse" x1="-2278.668" y1="-1320.11" x2="-2277.0757" y2="-1320.11" gradientTransform="matrix(29.7051 0 0 29.7051 67778.4609 39269.8984)">
				<stop  offset="0" style="stop-color:#ACD1EF"/>
				<stop  offset="1" style="stop-color:#E5EFF9"/>
			</linearGradient>
			<rect x="90.4" y="44.1" class="st1" width="47.3" height="23.6"/>
		</g>
	</g>
	<g>
		<g>
			<defs>
				<path id="SVGID_4_" d="M90.4,44L90.4,44l4.6,0.1V44c0-5.3,2.1-10,5.6-13.4s8.2-5.6,13.5-5.6l0,0c9.7,0,17.8,7.3,19,16.6v0.1
					c0.1,1.2,1.1,2,2.3,2c0.1,0,0.2,0,0.3,0c1.2-0.1,2-1.1,2-2.3c0-0.1,0-0.2,0-0.3s0-0.1,0-0.2c-1.5-11.6-11.5-20.6-23.6-20.6
					C101,20.4,90.4,31,90.4,44"/>
			</defs>
			<clipPath id="SVGID_5_">
				<use xlink:href="#SVGID_4_"  style="overflow:visible;"/>
			</clipPath>
			
				<linearGradient id="SVGID_6_" gradientUnits="userSpaceOnUse" x1="-2278.6655" y1="-1320.4143" x2="-2277.0735" y2="-1320.4143" gradientTransform="matrix(29.7109 0 0 29.7109 67791.6016 39262.9492)">
				<stop  offset="0" style="stop-color:#ACD1EF"/>
				<stop  offset="1" style="stop-color:#019CDB"/>
			</linearGradient>
			<rect x="90.4" y="20.4" class="st2" width="47.3" height="23.7"/>
		</g>
	</g>
	<polygon class="st0" points="6.6,51.4 7.4,51.4 12.2,57.4 12.2,51.4 13.1,51.4 13.1,58.9 12.4,58.9 7.5,52.7 7.5,58.9 6.6,58.9 	
		"/>
	<polygon class="st0" points="15.2,51.4 16.1,51.4 18.9,55.5 21.7,51.4 22.5,51.4 22.5,58.9 21.7,58.9 21.7,52.8 18.9,56.9 
		18.8,56.9 16.1,52.8 16.1,58.9 15.2,58.9 	"/>
	<path class="st0" d="M24.4,55.2L24.4,55.2c0-2.1,1.6-3.9,3.9-3.9s3.9,1.8,3.9,3.9l0,0c0,2.1-1.6,3.9-3.9,3.9
		C25.9,59.1,24.4,57.3,24.4,55.2 M31.2,55.2L31.2,55.2c0-1.7-1.3-3.1-3-3.1s-3,1.4-3,3.1l0,0c0,1.7,1.3,3.1,3,3.1
		C30,58.3,31.2,56.9,31.2,55.2"/>
	<path class="st0" d="M34,51.4h3.2c0.9,0,1.6,0.3,2,0.7c0.3,0.3,0.5,0.7,0.5,1.2l0,0c0,1-0.6,1.5-1.2,1.8c0.9,0.3,1.6,0.8,1.6,1.8
		l0,0c0,1.3-1.1,2.1-2.8,2.1H34V51.4z M37.1,54.7c1,0,1.8-0.5,1.8-1.3l0,0c0-0.7-0.6-1.2-1.7-1.2h-2.3v2.6L37.1,54.7L37.1,54.7z
		 M37.4,58.2c1.2,0,1.9-0.5,1.9-1.4l0,0c0-0.8-0.7-1.3-2-1.3h-2.4v2.7H37.4z"/>
	<rect x="41.9" y="51.4" class="st0" width="0.9" height="7.6"/>
	<polygon class="st0" points="45,51.4 45.9,51.4 45.9,58.1 50.1,58.1 50.1,58.9 45,58.9 	"/>
	<rect x="51.8" y="51.4" class="st0" width="0.9" height="7.6"/>
	<path class="st0" d="M57.7,51.3h0.8l3.5,7.6h-0.9l-0.9-2h-4.1l-0.9,2h-0.9L57.7,51.3z M59.9,56.2l-1.7-3.9l-1.7,3.9H59.9z"/>
	<path class="st0" d="M63.5,51.4h3.3c0.9,0,1.7,0.3,2.2,0.8c0.4,0.4,0.6,0.9,0.6,1.5l0,0c0,1.3-0.9,2-2.1,2.2l2.3,3.1h-1.1l-2.1-3
		h-2.2v2.9h-0.9V51.4z M66.7,55.2c1.1,0,2-0.6,2-1.6l0,0c0-0.9-0.7-1.5-1.9-1.5h-2.4v3.1H66.7z"/>
	<rect x="71.5" y="51.4" class="st0" width="0.9" height="7.6"/>
	<rect x="4" y="51.4" class="st0" width="0.9" height="7.6"/>
	<path class="st0" d="M77.4,51.3h0.8l3.5,7.6h-0.9l-0.9-2h-4.1l-0.9,2H74L77.4,51.3z M79.5,56.2l-1.7-3.9l-1.7,3.9H79.5z"/>
	<path class="st3" d="M151.6,44.3h0.5c0.1,0,0.1,0.1,0.1,0.2v2.3h2.3c0.1,0,0.1,0,0.1,0v0.1v0.5c0,0.1-0.1,0.1-0.2,0.1H152V50
		c0,0.1,0,0.2-0.1,0.2h-0.5c-0.1,0-0.2-0.1-0.2-0.2v-2.4H149c-0.1,0-0.2,0-0.2-0.1V47c0-0.1,0-0.1,0-0.1h0.1h2.4v-2.3
		C151.4,44.4,151.5,44.3,151.6,44.3"/>
	<g>
		<path class="st4" d="M6.8,3.1h1.4v4.6c-0.1,1,0,2.3,1.8,2.3s1.8-1.2,1.8-2.3V3.1h1.4v5c0,2-1.3,3-3.2,3s-3.2-1-3.2-3V3.1z"/>
		<path class="st4" d="M14.7,3.1h1.4l3.6,5.8l0,0V3.1H21v7.8h-1.4L16,5.2l0,0v5.7h-1.3V3.1z"/>
		<path class="st4" d="M25.7,3.1h3.4c2.2,0,2.7,1.4,2.7,2.4S31.4,8,29.1,8H27v3h-1.4V3.1H25.7z M27.1,6.8h2c0.6,0,1.4-0.3,1.4-1.3
			s-0.6-1.3-1.3-1.3h-2v2.6H27.1z"/>
		<path class="st4" d="M33,3.1h3.7c1.7,0,2.6,0.8,2.6,2.1c0,1.5-1,1.9-1.3,2l0,0c0.5,0.1,1.2,0.4,1.2,1.7c0,0.9,0.1,1.7,0.4,2.1
			h-1.5c-0.2-0.3-0.2-0.8-0.2-1.1c0-1.4-0.3-2.1-1.6-2.1h-2V11H33V3.1z M34.4,6.7h2.2c0.9,0,1.3-0.4,1.3-1.2c0-1-0.6-1.2-1.4-1.2
			h-2.2v2.4H34.4z"/>
		<path class="st4" d="M47.8,7c0,2.2-1.4,4.1-3.7,4.1S40.3,9.3,40.3,7c0-2.2,1.4-4,3.7-4S47.8,4.8,47.8,7z M41.6,7
			c0,1.5,0.7,3,2.4,3s2.4-1.5,2.4-3S45.7,4,44,4S41.6,5.5,41.6,7z"/>
		<path class="st4" d="M51,7.9l-2.9-4.7h1.6l2.1,3.5l2-3.5h1.5l-2.9,4.7V11H51V7.9z"/>
		<path class="st4" d="M56.1,3.1h5.6v1.2h-4.3v2h3.9v1.1h-3.9v2.3h4.3v1.2H56V3.1H56.1z"/>
		<path class="st4" d="M68.3,5.6C68.1,4.7,67.5,4,66.4,4C64.7,4,64,5.5,64,7s0.7,3,2.4,3c1.2,0,1.9-0.9,2-2h1.3
			c-0.1,1.9-1.4,3.2-3.3,3.2c-2.3,0-3.7-1.8-3.7-4.1C62.6,4.8,64,3,66.3,3c1.8,0,3.1,1,3.3,2.7L68.3,5.6L68.3,5.6z"/>
		<path class="st4" d="M70.2,3.1h6.3v1.2H74v6.6h-1.4V4.3h-2.5L70.2,3.1L70.2,3.1z"/>
		<path class="st4" d="M84.5,7c0,2.2-1.4,4.1-3.7,4.1S77,9.3,77,7c0-2.2,1.4-4,3.7-4S84.5,4.8,84.5,7z M78.3,7c0,1.5,0.7,3,2.4,3
			s2.4-1.5,2.4-3s-0.7-3-2.4-3S78.3,5.5,78.3,7z"/>
		<path class="st4" d="M88.7,3.1H92c2.4,0,3.4,1.8,3.4,3.9s-1,3.9-3.4,3.9h-3.2V3.1H88.7z M90.1,9.8h1.3C93.5,9.8,94,8.6,94,7
			s-0.5-2.8-2.6-2.8h-1.3V9.8z"/>
		<path class="st4" d="M96.6,3.1h5.6v1.2H98v2h3.9v1.1H98v2.3h4.3v1.2h-5.7C96.6,10.9,96.6,3.1,96.6,3.1z"/>
		<path class="st4" d="M103.5,5.4h1.5v1.5h-1.5V5.4z M103.5,9.5h1.5V11h-1.5V9.5z"/>
	</g>
</g>
</svg>
