<?xml version="1.0" encoding="utf-8"?>
<!-- Generator: Adobe Illustrator 23.0.0, SVG Export Plug-In . SVG Version: 6.00 Build 0)  -->
<!DOCTYPE svg PUBLIC "-//W3C//DTD SVG 1.1//EN" "http://www.w3.org/Graphics/SVG/1.1/DTD/svg11.dtd" [
	<!ENTITY st0 "clip-path:url(#SVGID_2_);">
	<!ENTITY st1 "clip-path:url(#SVGID_4_);">
	<!ENTITY st2 "clip-path:url(#SVGID_6_);">
	<!ENTITY st3 "fill:#0697D5;">
	<!ENTITY st4 "fill:url(#SVGID_7_);">
	<!ENTITY st5 "fill:#5F6161;">
]>
<svg version="1.1" id="Capa_1" xmlns="http://www.w3.org/2000/svg" xmlns:xlink="http://www.w3.org/1999/xlink" x="0px" y="0px"
	 viewBox="0 0 134.8 64.7" style="enable-background:new 0 0 134.8 64.7;" xml:space="preserve">
<g>
	<g>
		<defs>
			<rect id="SVGID_1_" x="-1234.3" y="2284.2" width="1477" height="711"/>
		</defs>
		<clipPath id="SVGID_2_">
			<use xlink:href="#SVGID_1_"  style="overflow:visible;"/>
		</clipPath>
		<g style="&st0;">
			<g>
				<defs>
					<rect id="SVGID_3_" x="-1232.3" y="2280.2" width="1473.1" height="764"/>
				</defs>
				<clipPath id="SVGID_4_">
					<use xlink:href="#SVGID_3_"  style="overflow:visible;"/>
				</clipPath>
				<g style="&st1;">
					<g>
						<defs>
							<rect id="SVGID_5_" x="-1234.7" y="1502.1" width="1477.9" height="1531.1"/>
						</defs>
						<clipPath id="SVGID_6_">
							<use xlink:href="#SVGID_5_"  style="overflow:visible;"/>
						</clipPath>
						<g style="&st2;">
							
								<image style="overflow:visible;enable-background:new    ;" width="5136" height="4916" xlink:href="../../../../../Proyectos Illustrator/Nesta-web-fase4/Nesta-4-web-INICIO_Carpeta/Links/render-Nesta-Ancho.png"  transform="matrix(0.885 0 0 0.8851 -2822.7637 -751.7977)">
							</image>
						</g>
					</g>
				</g>
			</g>
		</g>
	</g>
</g>
<g>
	<path style="&st3;" d="M22.5,32.3L22.5,32.3c0-2.4,1.8-4.4,4.4-4.4c1.7,0,2.8,0.7,3.5,1.7L28.7,31c-0.5-0.6-1-1-1.8-1
		c-1.2,0-2,1-2,2.2l0,0c0,1.2,0.9,2.2,2,2.2c0.9,0,1.3-0.4,2-1l1.7,1.2c-0.9,1.1-1.8,2-3.8,2C24.4,36.7,22.5,34.9,22.5,32.3"/>
	<path style="&st3;" d="M31,32.3L31,32.3c0-2.4,2-4.4,4.5-4.4c2.6,0,4.5,2,4.5,4.4l0,0c0,2.4-2,4.4-4.5,4.4
		C32.8,36.7,31,34.7,31,32.3 M37.6,32.3L37.6,32.3c0-1.2-0.9-2.3-2.2-2.3c-1.2,0-2.1,1-2.1,2.2l0,0c0,1.2,0.9,2.3,2.2,2.3
		C36.8,34.6,37.6,33.5,37.6,32.3"/>
	<path style="&st3;" d="M42.9,33.8c0,1,0.6,1.3,1.6,1.3c0.6,0,1.3-0.2,1.3-0.9c0-0.7-1.2-0.9-2.4-1.2c-1.2-0.4-2.4-0.9-2.4-2.4
		c0-1.8,1.8-2.6,3.4-2.6c1.7,0,3.3,0.9,3.3,2.7h-2.2c0-0.7-0.7-1-1.3-1c-0.5,0-1.1,0.1-1.1,0.7c0,0.6,1.2,0.7,2.4,1.1
		c1.2,0.4,2.4,0.9,2.4,2.4c0,2.1-1.8,2.8-3.7,2.8c-2,0-3.5-0.9-3.7-2.9h2.3V33.8z"/>
	<path style="&st3;" d="M51.9,28h2.2l3.5,8.4h-2.4L54.6,35h-3.3l-0.6,1.5h-2.4L51.9,28z M54,33.3l-1-2.4l-1,2.4H54z"/>
	<path style="&st3;" d="M58.5,28.1H62c2.1,0,3.5,1.1,3.5,2.9l0,0c0,2-1.5,3.1-3.7,3.1h-1.1v2.4h-2.3V28.1z M61.9,32.3
		c0.9,0,1.3-0.5,1.3-1.1l0,0c0-0.7-0.5-1.1-1.3-1.1h-1.1v2.2H61.9z"/>
	<rect x="66.7" y="28.1" style="&st3;" width="2.3" height="8.4"/>
	<g>
		<g>
			
				<linearGradient id="SVGID_7_" gradientUnits="userSpaceOnUse" x1="77.4123" y1="23.0772" x2="119.608" y2="23.0772" gradientTransform="matrix(1 0 0 -1 0 66)">
				<stop  offset="0.127" style="stop-color:#0697D5"/>
				<stop  offset="1" style="stop-color:#0697D5;stop-opacity:0"/>
			</linearGradient>
			<path id="SVGID_99_" style="&st4;" d="M77.4,32.4c0,11.7,9.5,21.1,21.1,21.1c10.7,0,19.7-8.1,21-18.6c0-0.1,0-0.1,0-0.2
				c0-1-0.7-2-1.8-2.1c-0.1,0-0.1,0-0.2,0c-1,0-2,0.7-2.1,1.8c-0.9,8.4-8.1,14.9-16.7,14.9l0,0c-4.8,0-8.9-2-12.1-5
				c-3.1-3.1-5-7.3-5-12.1l0,0L77.4,32.4z"/>
		</g>
	</g>
	<path style="&st3;" d="M98.4,11.2c-11.6,0.1-21,9.5-21,21.1l0,0h4.2l0,0c0-4.8,2-8.9,5-12.1c3.1-3.1,7.3-5,12.1-5l0,0
		c8.7,0,15.9,6.5,17,14.9v0.1c0.1,1.1,1,1.8,2.1,1.8c0.1,0,0.1,0,0.2,0c1.1-0.1,1.8-1,1.8-2.1c0-0.1,0-0.1,0-0.2v-0.1
		c-1.3-10.4-10.1-18.4-20.8-18.6h-0.6V11.2z"/>
	<rect y="38.9" style="&st3;" width="0.7" height="6.8"/>
	<polygon style="&st3;" points="2.7,38.9 3.4,38.9 7.7,44.4 7.7,38.9 8.4,38.9 8.4,45.7 7.8,45.7 3.4,40.1 3.4,45.7 2.7,45.7 	"/>
	<polygon style="&st3;" points="10.4,38.9 11.2,38.9 13.7,42.7 16.1,38.9 16.8,38.9 16.8,45.7 16.1,45.7 16.1,40.2 13.7,43.9 
		13.7,43.9 11.1,40.2 11.1,45.7 10.4,45.7 	"/>
	<path style="&st3;" d="M18.6,42.3L18.6,42.3c0-1.8,1.5-3.5,3.4-3.5c2.1,0,3.4,1.6,3.4,3.5l0,0c0,1.8-1.5,3.5-3.4,3.5
		C19.9,45.9,18.6,44.3,18.6,42.3 M24.7,42.3L24.7,42.3c0-1.6-1.1-2.8-2.7-2.8c-1.6,0-2.7,1.2-2.7,2.8l0,0c0,1.6,1.1,2.8,2.7,2.8
		C23.6,45.1,24.7,43.9,24.7,42.3"/>
	<path style="&st3;" d="M27.1,38.9H30c0.7,0,1.3,0.2,1.8,0.6c0.2,0.2,0.5,0.6,0.5,1.1l0,0c0,0.9-0.5,1.3-1.1,1.6
		c0.9,0.2,1.5,0.7,1.5,1.6l0,0c0,1.2-1,1.8-2.4,1.8h-3.1v-6.7H27.1z M29.9,41.9c1,0,1.6-0.4,1.6-1.2l0,0c0-0.6-0.5-1.1-1.5-1.1h-2.2
		v2.3H29.9z M30.2,45c1,0,1.7-0.5,1.7-1.2l0,0c0-0.7-0.6-1.2-1.8-1.2h-2.2V45H30.2z"/>
	<rect x="34.2" y="38.9" style="&st3;" width="0.7" height="6.8"/>
	<polygon style="&st3;" points="37,38.9 37.7,38.9 37.7,45 41.5,45 41.5,45.7 37,45.7 	"/>
	<rect x="43" y="38.9" style="&st3;" width="0.7" height="6.8"/>
	<path style="&st3;" d="M48.4,38.9h0.7l3.1,6.8h-0.9l-0.9-1.8h-3.7l-0.9,1.8h-0.7L48.4,38.9z M50.2,43.3l-1.6-3.5L47,43.2h3.2V43.3z
		"/>
	<path style="&st3;" d="M53.5,38.9h2.9c0.9,0,1.5,0.2,2,0.7c0.4,0.4,0.5,0.9,0.5,1.3l0,0c0,1.1-0.7,1.8-1.8,2l2.1,2.8h-1l-2-2.7h-2
		v2.7h-0.7V38.9z M56.3,42.4c1,0,1.7-0.5,1.7-1.3l0,0c0-0.9-0.6-1.3-1.7-1.3h-2.1v2.8h2.1V42.4z"/>
	<rect x="60.6" y="38.9" style="&st3;" width="0.7" height="6.8"/>
	<path style="&st3;" d="M65.8,38.9h0.7l3.1,6.8h-0.9l-0.9-1.8h-3.7l-0.9,1.8h-0.7L65.8,38.9z M67.8,43.3l-1.6-3.4l-1.6,3.4H67.8z"/>
	<path style="&st5;" d="M132,32.7h0.5c0.1,0,0.1,0,0.1,0.1v2.1h2.1h0.1c0,0,0,0,0,0.1v0.5c0,0.1,0,0.1-0.1,0.1h-2.1v2.2
		c0,0.1,0,0.1-0.1,0.1H132c-0.1,0-0.1-0.1-0.1-0.1v-2.2h-2.1c-0.1,0-0.1,0-0.1-0.1V35c0-0.1,0-0.1,0-0.1h0.1h2.1v-2.1
		C131.9,32.7,131.9,32.7,132,32.7"/>
</g>
</svg>
