<svg xmlns="http://www.w3.org/2000/svg" viewBox="0 0 733.84 280.58"><defs><style>.cls-1{fill:#fff;}.cls-2{fill:#fdfeff;}</style></defs><title>Recurso 2laptop</title><g id="Capa_2" data-name="Capa 2"><g id="Capa_1-2" data-name="Capa 1"><path class="cls-1" d="M331.52,128.37q10.75,0,17,6t6.2,16.38q0,10.37-6.2,16.16t-17,5.79h-14V128.37Zm-8.19,39.86h8.19q8.39,0,12.8-4.61t4.41-12.86q0-8.25-4.41-12.86t-12.8-4.61h-8.19Z"/><path class="cls-1" d="M386.74,128.37V133H369.08v15.1h15.74v4.55H369.08V168.1h17.66v4.61H363.26V128.37Z"/><path class="cls-1" d="M396.78,128.37h5.82v39.86h15.55v4.48H396.78Z"/><path class="cls-1" d="M450.08,166.69a23.37,23.37,0,0,1,0-32.41,22.12,22.12,0,0,1,16.06-6.36,23.39,23.39,0,0,1,12.31,3.26,19.34,19.34,0,0,1,8,9.41h-7q-4-7.49-13.24-7.49a16.07,16.07,0,0,0-11.94,4.77q-4.69,4.77-4.7,12.64c0,5.24,1.57,9.47,4.7,12.66a16,16,0,0,0,11.94,4.8A15.76,15.76,0,0,0,474,166a13.5,13.5,0,0,0,5.37-5.6h7a19.34,19.34,0,0,1-8,9.41,23.39,23.39,0,0,1-12.31,3.26A22,22,0,0,1,450.08,166.69Z"/><path class="cls-1" d="M496.79,128.37h5.82v39.86h15.54v4.48H496.79Z"/><path class="cls-1" d="M525.45,172.71V128.37h5.82v44.34Z"/><path class="cls-1" d="M565.56,128.37V133H547.9v15.1h15.75v4.55H547.9V168.1h17.66v4.61H542.08V128.37Z"/><path class="cls-1" d="M604.85,128.37h5.82v44.34h-5.82l-23.42-35.19v35.19h-5.82V128.37h5.82l23.42,35.19Z"/><path class="cls-1" d="M619.5,133v-4.67h29.24V133H637v39.67h-5.82V133Z"/><path class="cls-1" d="M681.11,128.37V133H663.45v15.1H679.2v4.55H663.45V168.1h17.66v4.61H657.63V128.37Z"/><path class="cls-1" d="M333.31,67.86q10.76,0,17.66,6.23a20.8,20.8,0,0,1,6.92,16.19A20.9,20.9,0,0,1,351,106.5q-6.9,6.27-17.66,6.27h-15.8V67.86Zm-4.86,36.59h4.86q6.27,0,9.86-3.83t3.58-10.31q0-6.45-3.58-10.3t-9.86-3.83h-4.86Z"/><path class="cls-1" d="M390.45,67.73v8.32H374.2v9.66h14.33V94H374.2v10.43h16.25v8.32H363.26v-45Z"/><path class="cls-1" d="M398.32,112.77V67.86h29.24v8.32h-18.3v9.65H423v8.32H409.26v18.62Z"/><path class="cls-1" d="M460.77,67.73v8.32H444.51v9.66h14.34V94H444.51v10.43h16.26v8.32H433.58v-45Z"/><path class="cls-1" d="M497.88,67.73h10.94v45H497.88l-18.3-28.34v28.34H468.64v-45h10.94l18.3,28.34Z"/><path class="cls-1" d="M532.11,75.85a5.1,5.1,0,0,0-3.36,1.09,3.84,3.84,0,0,0-1.32,3.14,4.52,4.52,0,0,0,1.22,3.29,8,8,0,0,0,3.17,1.92c1.3.45,2.75.87,4.35,1.28s3.19.9,4.77,1.47a21.24,21.24,0,0,1,4.32,2.15,9.32,9.32,0,0,1,3.16,3.61,12,12,0,0,1,1.22,5.6,12.55,12.55,0,0,1-4.64,9.76q-4.63,4.07-12.22,4.06t-12.22-3.65q-4.63-3.64-4.64-10.36h11.64q.45,5.37,5.51,5.37a5.21,5.21,0,0,0,3.71-1.25,4.13,4.13,0,0,0,1.34-3.16A4.26,4.26,0,0,0,536.9,97a8.44,8.44,0,0,0-3.16-1.92c-1.3-.47-2.75-.9-4.35-1.31a42.39,42.39,0,0,1-4.77-1.5,22.91,22.91,0,0,1-4.32-2.15,9.11,9.11,0,0,1-3.17-3.58A11.84,11.84,0,0,1,515.92,81,12.26,12.26,0,0,1,520.59,71c3.11-2.51,7.09-3.78,11.93-3.78s8.76,1.11,11.74,3.3,4.55,5.67,4.67,10.4H537a6.05,6.05,0,0,0-1.56-3.75A4.58,4.58,0,0,0,532.11,75.85Z"/><path class="cls-1" d="M560.8,106.69a22.07,22.07,0,0,1-6.68-16.5,22,22,0,0,1,6.68-16.48,23.81,23.81,0,0,1,32.7,0,22.12,22.12,0,0,1,6.62,16.48,22.16,22.16,0,0,1-6.65,16.5,23.7,23.7,0,0,1-32.67,0Zm25-7.1q3.22-3.51,3.23-9.4t-3.23-9.41a12.36,12.36,0,0,0-17.28,0q-3.22,3.52-3.23,9.41t3.23,9.4a12.36,12.36,0,0,0,17.28,0Z"/><path class="cls-1" d="M616.56,95.3v17.47H605.62V67.86h17.72q7.81,0,12.16,4a12.77,12.77,0,0,1,4.35,9.72,14,14,0,0,1-2.37,7.62c-1.57,2.47-4.16,4.22-7.74,5.24l11,18.3H628L617.84,95.3Zm0-19.12V87h6.78a5.26,5.26,0,0,0,3.94-1.47,5.33,5.33,0,0,0,1.44-3.88,5.46,5.46,0,0,0-1.47-3.93,5.16,5.16,0,0,0-3.91-1.53Z"/><path class="cls-1" d="M646.83,112.77V67.86h10.93v44.91Z"/><path class="cls-1" d="M694.36,112.77l-2.49-7.55H675.74l-2.49,7.55H661.6l15.62-45h13.3l15.55,45ZM678.5,96.9h10.62l-5.32-16Z"/><rect class="cls-1" x="317.76" y="189.5" width="3.98" height="43.64"/><polygon class="cls-1" points="334.01 189.5 334.01 233.14 337.99 233.14 337.99 196.41 337.99 195.59 338.45 196.27 363.13 233.14 367.23 233.14 367.23 189.5 363.25 189.5 363.25 226.23 363.25 227.05 362.79 226.37 338.11 189.5 334.01 189.5"/><polygon class="cls-1" points="415.43 189.5 399.95 224.03 399.72 224.52 399.49 224.03 383.25 189.5 379.46 189.5 372.3 233.14 376.28 233.14 382.59 199.34 382.73 198.6 383.06 199.27 399.79 232.83 415.97 199.59 416.3 198.92 416.44 199.65 423.15 233.14 427.13 233.14 419.22 189.5 415.43 189.5"/><path class="cls-1" d="M455,189.05a21.87,21.87,0,0,0-15.82,6.29,23.12,23.12,0,0,0,0,32,23,23,0,0,0,31.61,0A22.27,22.27,0,0,0,455,189.05Zm12.91,36a18.7,18.7,0,0,1-25.94,0c-3.43-3.47-5.16-8.08-5.16-13.71s1.73-10.23,5.16-13.67a18.83,18.83,0,0,1,26,0c3.4,3.44,5.12,8,5.12,13.67S471.31,221.56,467.88,225Z"/><path class="cls-1" d="M507.3,210.86l-1.14-.19,1.12-.3c5.55-1.47,8.26-4.53,8.26-9.35a10.72,10.72,0,0,0-3.54-8.29c-2.35-2.15-5.79-3.23-10.22-3.23H487.12v43.64h15.36a15.23,15.23,0,0,0,10.2-3.33,9.9,9.9,0,0,0,3.88-7.68,11.39,11.39,0,0,0-2.57-7.49A10.74,10.74,0,0,0,507.3,210.86Zm-16.2-2V192.64h10.68a10.56,10.56,0,0,1,7.13,2.24,7.59,7.59,0,0,1,2.58,6,7.5,7.5,0,0,1-2.58,6,10.65,10.65,0,0,1-7.13,2.2H491.1ZM510,227.69c-1.79,1.58-4.34,2.37-7.59,2.37H491.1V212.22h10.74a12.24,12.24,0,0,1,7.86,2.39,8,8,0,0,1,3,6.56A8.24,8.24,0,0,1,510,227.69Z"/><rect class="cls-1" x="527.36" y="189.5" width="3.98" height="43.64"/><polygon class="cls-1" points="547.59 229.94 547.59 189.5 543.61 189.5 543.61 233.14 563.65 233.14 563.65 230.19 547.84 230.19 547.59 230.19 547.59 229.94"/><rect class="cls-1" x="572.4" y="189.5" width="3.98" height="43.64"/><path class="cls-1" d="M603.42,189.5l-16.07,43.64h3.95L595,223l.06-.17H616l.06.17,3.65,10.13h3.94l-16-43.64Zm11.44,30.26H596.17l.12-.34,9-24.69.23-.65.24.65,9,24.69Z"/><path class="cls-1" d="M651,214.46c3.89-.5,6.85-1.86,8.8-4a12.53,12.53,0,0,0,2.94-8.64A11.53,11.53,0,0,0,659,193c-2.5-2.31-6.23-3.48-11.09-3.48H634.66v43.64h4V214.65h7.3l.07.12,11.89,18.37h5.22l-12.28-18.29-.22-.34Zm-12.13-3h-.25V192.64h9.28c7.17,0,10.8,3.18,10.8,9.43s-3.63,9.44-10.8,9.44Z"/><rect class="cls-1" x="675.41" y="189.5" width="3.98" height="43.64"/><path class="cls-1" d="M727.45,195.34a23.18,23.18,0,1,0,6.39,16A21.69,21.69,0,0,0,727.45,195.34ZM724.57,225a18.7,18.7,0,0,1-25.94,0c-3.43-3.47-5.16-8.08-5.16-13.71s1.73-10.23,5.16-13.67a18.83,18.83,0,0,1,26,0c3.4,3.44,5.12,8,5.12,13.67S728,221.56,724.57,225Z"/><path class="cls-2" d="M0,0V242.24a38.35,38.35,0,0,0,38.34,38.34H280.58V0ZM266.7,266.7h-218a34.8,34.8,0,0,1-34.8-34.8v-218H182.82A83.87,83.87,0,0,1,266.7,97.76Z"/><path class="cls-1" d="M70.46,105.45H36.68v90.16H70.46c28.77,0,47.27-18.37,47.27-45.08S99.23,105.45,70.46,105.45ZM69.05,176.6H58.64V124.2H69.05c16.57,0,26.33,9.76,26.33,26.33S85.62,176.6,69.05,176.6Z"/><path class="cls-1" d="M171.41,124.46c7.35,0,13.51,3,17.42,9l.17-.62,20.23-8.94c-7.63-12.25-21-19.45-37.56-19.45-26.59,0-45.34,19-45.34,46s18.75,45.86,45.34,45.86c16.27,0,29.49-6.89,37.18-18.72l-21.18-8.64c-3.91,4.93-9.58,7.44-16.26,7.44-13.48,0-22.73-10-22.73-25.94S157.93,124.46,171.41,124.46Z"/><polygon class="cls-1" points="221.93 105.45 221.93 119.52 221.93 182.88 221.93 195.61 243.9 195.61 243.9 191.84 243.9 113.5 243.9 105.45 221.93 105.45"/></g></g></svg>