<?xml version="1.0" encoding="utf-8"?>
<!-- Generator: Adobe Illustrator 23.0.1, SVG Export Plug-In . SVG Version: 6.00 Build 0)  -->
<svg version="1.1" id="Capa_1" xmlns="http://www.w3.org/2000/svg" xmlns:xlink="http://www.w3.org/1999/xlink" x="0px" y="0px"
	 viewBox="0 0 1499.5 29.7" style="enable-background:new 0 0 1499.5 29.7;" xml:space="preserve">
<style type="text/css">
	.st0{fill:#FFFFFF;}
</style>
<g>
	<path class="st0" d="M77,24.9c18.8-0.7,41-9.8,58.7-5.4c8.2,2,18.9-1.4,26.2,2.7c8.2,4.6,37.8,0.3,44.4,0.9
		c30.5,2.6,63.4-0.4,95.6-1.6c45.5-1.7,83.4,0.4,128,4.2c39.3,3.3,110.6-6.4,150.8-7.9c40.5-1.5,80.5,8.3,118.3,6.9
		c26-0.9,53.1-2.8,78.3-0.6c12.6,1.1,25.7-0.9,38.3-1.4c8.5-0.3,207.4-2.4,225.4-1.5c17.1,0.8,33.8,3.2,52.3,2.6
		c35.4-1.3,180.3-13,214.7-14.3c65.4-2.4,133.4,13.7,196.8,3.3l-1.9-119.5H-4.1l-0.3,125C7.7,20,20,21.4,32.3,22.1
		C47.3,22.9,61.9,25.4,77,24.9z"/>
</g>
</svg>
