<?xml version="1.0" encoding="utf-8"?>
<!-- Generator: Adobe Illustrator 23.0.1, SVG Export Plug-In . SVG Version: 6.00 Build 0)  -->
<svg version="1.1" id="Capa_1" xmlns="http://www.w3.org/2000/svg" xmlns:xlink="http://www.w3.org/1999/xlink" x="0px" y="0px"
	 viewBox="0 0 411 32.52" style="enable-background:new 0 0 411 32.52;" xml:space="preserve">
<g>
	<g>
		<path d="M-97.18-16.43c8.45-0.32,18.47,0.11,26.44,2.15c3.7,0.95,8.68,1.82,11.93,3.73c3.67,2.16,4.63,7.46,8.35,10.32
			c2.48,1.91,4.05,2.75,6.77,3.95c13.48,5.95,30.07,8.11,44.57,7.56c20.51-0.77,40.77-0.93,60.87,0.85
			c17.69,1.56,35.55,1.8,53.67,1.12c18.23-0.69,36.27,3.87,53.27,3.23c11.72-0.44,23.91-1.32,35.28-0.28
			c5.66,0.51,11.58-0.44,17.26-0.65c3.84-0.14,13.94-2.27,8.05,4.45c5.4,4.68,10.11,1.44,15.72,3.02c4.56,1.29,5.97,1.06,10.58-0.41
			c2.5-0.8,4.28-0.49,6.62-1.28c1.59-0.54,2.53-2.09,4.14-2.25c2.2-0.21-0.69,1.19,2.59,1.92c3.24,0.73,5.84-1.2,8.96-1.41
			c2.45-0.16,5.01-0.24,6.9-0.13c8.67,0.5,17.29-2.42,25.41-2.03c7.7,0.37,15.24,1.52,23.53,1.21c15.93-0.6,29.9-1.83,44.56-5.89
			c5.59-1.55,11.05-3.36,16.55-4.79c4.96-1.29,10.96-1.76,15.02-4.2c13.56-8.19,31.74-3.84,47.21-4.42
			c29.47-1.11,59.24-0.02,87.78-4.91v-113.08h-678.72v99.1c5.49,0.84,11,1.51,16.57,1.84C-110.55-17.32-103.97-16.17-97.18-16.43z"
			/>
	</g>
</g>
</svg>
