<svg xmlns="http://www.w3.org/2000/svg" viewBox="0 0 812.91 115.63"><defs><style>.cls-1{fill:#f0f0f2;}</style></defs><title>Recurso 4icono-new</title><g id="Capa_2" data-name="Capa 2"><g id="Capa_1-2" data-name="Capa 1"><path class="cls-1" d="M812.89,38a2.38,2.38,0,0,1-.59.07A48.1,48.1,0,0,1,811.71,28a41.08,41.08,0,0,0-7.1-.2c-.45-2.1-1.31-4.62-2.82-4.39-.6.07-1.14.62-1.74.81-1.77.55-3.16-2-3.9-4.41-.21-.67-.5-1.45-1-1.59a1.35,1.35,0,0,0-1,.3c-1.1.69-2.18,1.38-3.28,2.05A23.81,23.81,0,0,0,787,23.89a4.19,4.19,0,0,0-2.77-1.64,85.68,85.68,0,0,0-13.08-2.42,1.84,1.84,0,0,0-1.75.46c-.84.92-.57,2.77-.23,4.2-2.4.09-4.8.12-7.19.05a2.69,2.69,0,0,1-1.78-.51A8.64,8.64,0,0,1,759.05,22c-1.17-2.19-3.39-3.07-5.22-2a82.91,82.91,0,0,1-6.6-15.19A9.56,9.56,0,0,1,745.71,9a1.53,1.53,0,0,1-2.79-.49c-.2-.76-.06-1.68-.31-2.42-.62-1.83-2.52-.67-3.94-.79C735.93,5,734.31-.83,731.61.14a22.55,22.55,0,0,0,1.65,6.18c-1.55-.46-3.29.54-4.27,2.43a8.72,8.72,0,0,0-.37,6.58c-1.48,1.24-2.89-1.39-4.07-3.05a5.15,5.15,0,0,0-5.27-2.42c-1.36.27-2.61,1.17-3.95,1.61-3.47,1.13-7-1-10.5-.71-3.74.34-8.06,3.25-10.88-.19a1.25,1.25,0,0,1-.47,1.73c-.51.16-1-.3-1.46-.71.27,2.3-1.24,4.75-2.85,4.59a9,9,0,0,0-1.14-4,3.16,3.16,0,0,1-2.92,1.18,11,11,0,0,0-.43-4.94c-1.08,1.91-2.58,3.62-4.27,3.69s-3.41-2.05-3.1-4.5c-.95,1.66-2.54,2.49-3.95,2-.16,1.52-.32,3.05-.5,4.57-1.32-1.66-3.38-.05-4.85,1.5s-3.71,2.89-4.81.93c-.8-1.37-2.06-3.28-3.26-2.77s-2.21,1.82-3.38,2.53c-1.56.95-3.29.81-4.95.7-2.75-.23-5.66-.53-7.9-2.75-1-1-2.06-2.45-3.28-2.06-.78.26-1.39,1.23-2.17,1.48-1,.33-1.87-.46-2.77-1s-2.1-.78-2.72.35a9.73,9.73,0,0,1-.74,1.48c-.75.83-1.8-.44-2.71-.12s-1.16,1.71-1.74,2.61c-1.52,2.38-4.17,1-6.05-.6,0,.83-.11,1.66-.15,2.49-1.25-2.37-3.93-1.68-5.71.05s-3.25,4.25-5.27,5.17A14.32,14.32,0,0,0,607,19.46a72.42,72.42,0,0,1-.52,7.34c-2.25-.28-4.51-.53-6.76-.81-1.46-.16-3.31,0-4,1.89-1-.39-.64-3.3-1.69-3.69-.37-.16-.77.14-1.11.44-1,.76-1.91,1.52-2.87,2.31a16,16,0,0,0-2.94-5.87c-.57-.69-1.31-1.29-2-1-.9.42-1.21,2-1.86,3a2.75,2.75,0,0,1-3.39,1.15,9.48,9.48,0,0,1-3.07-2.56c-2-2.19-4-4.36-6-6.56-1.06-1.15-2.42-2.37-3.69-1.59-2.81,1.78-6.48-.83-7-5.15l-2.9,2.45A12,12,0,0,1,556,7.2c-.94,1.18-2.05,2.4-3.22,2.1A5.65,5.65,0,0,1,551,8.19a3.8,3.8,0,0,0-4.61.17c-1,.73-1.78,3-.82,3.8a3.51,3.51,0,0,1-5-1.06c-.61-.83-1-1.89-1.67-2.68S537.29,7.29,536.6,8s-.8,2.52-1.56,3.23c-1.11,1-2.33-.8-3.58-1.24s-2.38.39-3.23,1.64a17.61,17.61,0,0,0-1.83,4.45l-3.55-2.88c0,.83-.08,1.66-.13,2.51-1.1,0-2.2.12-3.3.19-.12.69-.27,1.36-.41,2-.8-.34-1.67-.69-2.41-.16s-1,2.43-.24,2.84a2.18,2.18,0,0,1-2.56,1.6,3.32,3.32,0,0,1-2-3,6.36,6.36,0,0,1-2.63,2.22.83.83,0,0,1-1.06-.12c-.67-.9.56-2.24.83-3.53a2.3,2.3,0,0,0-1.37-2.68,3.62,3.62,0,0,0-2.55.74,5.42,5.42,0,0,0-.61-3.78,1.48,1.48,0,0,0-2.54-.12c-1.14,1.64-.5,5.24-2,6s-2.29-2.44-3.73-2.93a19.17,19.17,0,0,0-.35,5.36,3.77,3.77,0,0,0-5.46.8c-.67.79-1.33,1.92-2.15,1.78-1.28-.23-1.94-3.3-3.14-2.56a6.26,6.26,0,0,0-.47,2.4c-.88-.6-2.12-1.09-2.7.11-.18.37-.25.84-.42,1.27-.62,1.5-2.21,1.09-3.24.23s-2.28-1.91-3.34-1a5.41,5.41,0,0,0-.91,1.2c-1.39,2-3.41,2.63-5.31,3.18s-3.74,1-5.6,1.6a4.27,4.27,0,0,1-3.1.09c-.95-.49-1.7-1.64-2.7-1.85-1.65-.32-2.95,1.94-4.26,3.53-1.92,2.34-4.39,3.4-6.76,4.41a2.63,2.63,0,0,1-1.62.33c-.63-.17-1.12-.81-1.68-1.27a3.65,3.65,0,0,0-3.15-.86c-.6,1.37.49,3.17.08,4.69-.26,1-1.05,1.41-1.66,2a7.05,7.05,0,0,0-1.33,6.28c-1.09.28-2.17.58-3.26.88-1.32.32-3-3.46-4.24-2.68-.55.35-.78,1.27-1,2.1a11.18,11.18,0,0,1-2.18,4.64c-1.05,1.16-2.49,1.64-3.64.86-.79-.54-1.36-1.6-2.19-2a1.43,1.43,0,0,0-1.88,1.61c-.87-1.29-2.74.12-2.55,1.92-.65-.56-1.3-1.11-1.95-1.69-.31-.25-.66-.55-1-.46a.92.92,0,0,0-.52,1.13c-.77-1.45-2.34-.16-3.6.24a4.59,4.59,0,0,1-2.75-.26l-3.75-1.11a1.63,1.63,0,0,1-1.06-.62c-.53-.76-.4-2.19-1-2.79s-1.25-.12-1.85.23a6.68,6.68,0,0,1-7.7-.83A27.69,27.69,0,0,0,392,41.66a4.88,4.88,0,0,1-4.6.37c-.53-.25-1.12-.57-1.63-.2-.83.59-.72,2.42-1.29,3.46-.89,1.64-2.61.57-4,.09-2.29-.88-4.75.37-6.93,1.94A11.11,11.11,0,0,0,371.81,44a1.93,1.93,0,0,0-2.7-.48c-.76.6-1.16,1.89-1.83,2.74s-1.95,1-2.13-.27c.08,2.51-2.31,4-3.9,3s-2.5-3.28-3.51-5.29-2.46-4-4.2-3.72c.29-1.7-.93-3.48-2.11-3.06-.7.25-1.24,1-1.84,1.63a3.7,3.7,0,0,1-4,1,6.51,6.51,0,0,0-2.65,2.51c-.73,1.13-1.84,2.1-2.78,1.48-.46-.32-.87-1-1.38-.9-1,.25-.58,2.81-1.39,3.76a15.59,15.59,0,0,1-4.1-6.11c-.17,2.26-.36,4.47-.55,6.71a4.2,4.2,0,0,1-.7,2.45c-.7.76-1.71.16-2.51.74-1.19.83-1,3.39-1.69,5.05s-2.37,2.15-3.37,1a10,10,0,0,0,1.36-3.51c.18-1.32-.21-2.86-1.07-3.23-.34-.14-.7-.09-1-.28-1.56-.81-.4-4.64-1.32-6.65a2.29,2.29,0,0,0-3-1.1c-1.08.27-2.18.89-3.23.53s-2-1.85-3.17-2.27c-2-.76-4.48,1.57-6-.41a18,18,0,0,0-.33-6.53c-.62-2-2.34-3.35-3.7-2.33-.74.53-1.25,1.68-2,2.05-1.19.6-2.5-1.32-2.1-3.05-.44.81-.89,1.64-1.34,2.5-.53-.79-1.59-.47-1.91.53-.58-2.13-2-3.63-3.63-3.72-1.46-1.52-4.17.67-5.34-1.32-.59-1-.64-2.81-1.52-3s-1.36,1.5-2.21,1.75a1.4,1.4,0,0,1-1-.11l-15.81-5.91a6.71,6.71,0,0,1-4-2.91,21.26,21.26,0,0,1-1.34-5c-.37-1.74-1.12-3.51-2.36-3.84-1.47-.34-3,1.57-4.41.88A4,4,0,0,1,252.8,8q-2.64-3.88-5.16-8c-.22,2.24-.43,4.5-.65,6.72a1.19,1.19,0,0,1-1.23-.28c.08.67.17,1.36.26,2a4.15,4.15,0,0,0-2.46-1.57c-.14,2.43-.28,4.89-.43,7.34a43.83,43.83,0,0,0-13.54,8.7c-1.7,1.57-4,3.3-5.47,1.55-1.15-1.32-1.73-4.41-3.18-3.9-.71.23-1.11,1.27-1.68,1.92-1.09,1.24-2.58,1.08-3.94.92a22.58,22.58,0,0,0-12.13,2.35,2.65,2.65,0,0,1-.89,3.07,2.21,2.21,0,0,1-2.47-.67c.21-1.47-1.58-2.84-2.63-2.74s-2.14.6-3-.07c-1.15-.9-1.25-3.19-1.67-5s-2.11-3.41-2.95-1.87c-.33.65-.36,1.64-.8,2.18-1.14,1.29-2.24-2.34-3.64-2.08-1.17.21-1.44,2.7-2.49,3.51s-2-.3-2.61-1.53a20.56,20.56,0,0,0-1.7-3.69,1.45,1.45,0,0,0-2.64.46,3.3,3.3,0,0,0-1.61-1.71c-.3,1-.59,2.1-.87,3.17-.44-3.61-3.34-5-5.79-5.84a3.32,3.32,0,0,1-2.1,3.92c-1.29.3-2.6-.25-3.9.09-2.53.67-4.82,4.69-7.19,3.35a16.25,16.25,0,0,1-1.67-1.48c-1.78-1.52-4.38-.71-5.69,1.76a19.67,19.67,0,0,1-1.29-6.35,6.58,6.58,0,0,1-5.77,3.05c-1.35-.14-3-.58-3.8,1.08-.59-.72-1.18-1.41-1.75-2.12-.39.73-.8,1.45-1.2,2.21-1-1.57-2-3.16-3-4.71a11.93,11.93,0,0,0-.3,4.62c-3.4-1-5.24-6.09-6.66-10.69-.16-.51-.35-1-.71-1.22s-1,.35-1.35.81c-3.16,3.69-7.47,4.06-11.46,4.25-1.47.09-3.19,0-4-1.74a1.12,1.12,0,0,1-1.76-.6c-.17.86-.35,1.71-.54,2.56a2.2,2.2,0,0,0-3.37.07c-.66-.83-1.31-1.68-2-2.53-.22-.28-.47-.56-.75-.49-.47.14-.55,1-.79,1.59-.7,1.67-2.39.81-3.54-.07s-3.07-1.1-3.32.79c-1.23,1.13-2.49,1.78-3.71,2.91a15.22,15.22,0,0,0-2.49-2.82c-.19-.16-.41-.34-.64-.3-.58.14-.65,1.32-.9,2.13-.43,1.52-1.82,1.84-2.94,1.91-1.67.12-3.33.25-5,.35a2.24,2.24,0,0,0-1.86.87,4.63,4.63,0,0,0-.45,2.29,29,29,0,0,0,.56,6.35,5.3,5.3,0,0,0-3-1.5A2.75,2.75,0,0,0,66.68,26c-.38-.25-.75-.53-1.13-.8a4.13,4.13,0,0,0-.23,1.66c-.73-.21-1.43-.42-2.14-.6A35.09,35.09,0,0,0,62.9,31a5.91,5.91,0,0,0-2.38-1.31c-.15,1.29-.31,2.58-.48,3.85a16.41,16.41,0,0,0-8.08.3A91.55,91.55,0,0,1,55,24.12L49.78,28.3c-1.72,1.38-3.71,3.44-3.53,6.21A6.82,6.82,0,0,0,44.44,32a1.53,1.53,0,0,0-2.35.7c-1.18-1-2.66-2.06-3.86-1A10.1,10.1,0,0,0,37,33.22a2.66,2.66,0,0,1-3.18,1c-1.88,1.29-4.58-.91-5.75-3.28-.36-.79-.85-1.8-1.48-1.5s-.62,2-1.23,2.67c-1,1.07-2.28-1.36-3.33-.53-.82.65-.61,2.66-1.36,3.44-1.21,1.32-3.15-1.89-4.15-.27-.25.39-.32,1-.61,1.31-.57.67-1.31-.21-1.92-.71-1.27-1-3.09-.17-3.79,1.73a2.69,2.69,0,0,0-3.51-2c-1.35.43-2.59,1.52-3.95,1.84a11.4,11.4,0,0,1-1.82.26C.57,37.87.35,38.32,0,39v76.64H812.91V39.1C812.91,38.75,812.91,38.38,812.89,38Z"/></g></g></svg>