<?xml version="1.0" encoding="utf-8"?>
<!-- Generator: Adobe Illustrator 23.0.1, SVG Export Plug-In . SVG Version: 6.00 Build 0)  -->
<svg version="1.1" id="Capa_1" xmlns="http://www.w3.org/2000/svg" xmlns:xlink="http://www.w3.org/1999/xlink" x="0px" y="0px"
	 viewBox="0 0 790 126" style="enable-background:new 0 0 790 126;" xml:space="preserve">
<path id="XMLID_461_" style="fill:#90A733;" d="M655.73,71.68c-2.15-0.04-9.96,0.92-11.25-1.84c0.61-0.96,3.83-1.19,4.7-1.45
	c2.21-0.65,1.91-0.99,3.5-3.12c1.39-1.85,5.6-2.9,1.6-4.87c-1.45-0.71-3.07-0.86-4.7-0.92c-1.51-0.06-9.01,1.11-9.85-0.17
	c-1.7-2.58,7.19-2.41,8.16-4.02c-1.63-1.64-4.85-0.38-7-0.41c-2.27-0.04-4.72-0.71-6.68-0.75c-0.38-1.33,2.98-1.6,3.2-2.09
	c-0.08,0.17-5.96-1.05-6.71-1.15c-2.67-0.38-5.42-0.09-8.46-0.14c-3.57-0.06-7.44,0.41-10.98-0.18c-1.04-0.18-4.75-0.61-2.4-2.97
	c-0.94-0.45-4.02,0.46-3.94-1.29c0.06-1.41,2.86-0.82,3.47-0.88c0.98-0.1,3.49-0.13,4.6-0.56c0.18-0.07,2.88-1.89,2.99-2.06
	c0.63-1.03-3.05-1.12-3.13-1.12c-0.62-2.15,8.52-5.14,9.44-6.68c1.45-2.43-3.16-3.83-3.34-6.32c-0.08-1.15,1.64-1.71,1.27-3.82
	c0.07,0.41-1.86-2.34-1.53-2.16c-0.77-0.43-2.05,0.14-2.9-0.06c0.08,0.02-0.76-1.19-0.94-1.25c-2.24-0.85-2.67-0.51-4.73-2.02
	c-1.53-1.12-3.41-3.32-5.3-3.64c-1.38-0.23-3.87,0.29-5.56,0.26c-1.39-0.02-2.42-0.92-3.88-1.29c-1.4-0.35-3.32-0.58-4.57-0.72
	c-2.55-0.29-4.89-1.1-7.21-1.43c-9.21-1.27-18.68-0.89-27.78-0.14c-6.77,0.56-13.68,1.95-20.51,1.84c-8.2-0.14-16.41,1.67-24.7,1.53
	c-7.26-0.12-14.74,2-21.96,2.81c-9.68,1.08-20.01-0.47-29.32-1.75c-5.04-0.7-10.36-0.02-15.33-0.57c-4.36-0.49-9.02-1.01-13.24-1.17
	c-19.81-0.78-39.86-2.27-59.86-2.57c-30.41-0.45-63.4,0.57-93.79,3.09c-15.97,1.33-31.21,3.77-47.19,5.07
	c-8.21,0.67-16.55,2-24.81,0.94c-4.74-0.61-9.33-0.9-13.92-0.98c-1.03-0.02-2.92-0.42-3.81-0.06c-0.75,0.29-0.8,1.48-1.25,1.68
	c-0.69,0.31-3.95,0.62-4.22,0.97c0.06,0.4,0.24,0.55,0.52,0.44c0.4,1.66-7.64,1.44-8.53,1.45c-2.02,0.02-5.01,0.27-6.89,0.2
	c-0.66-0.02-3.29-0.16-3.37-0.2c0.54,0.26,5.56,2.53,5.56,2.53c-1.21,2.34-8.73,0.74-10.56,0.71c-1.56-0.03-3.16-0.21-4.71-0.08
	c-0.26,0.02-0.43,1.27-0.36,1.27c-0.91,0.08-1.4-0.9-2.72-0.69c-0.42,0.07-1.2,0.81-1.86,1.23c-1.67,1.08-2.26,1.25-4.38,1.21
	c-2.75-0.05-8.92-2.11-11.27,0.19c1.16,1.17,7.48,2.11,5.07,5.65c-1.43,2.09-2.37-1-1.98,1.66c0.27,1.88,1.42,2.05,2.57,2.59
	c1.88,0.88,5.49,0.21,7.02,2.22c1.26,1.67-0.14,3.28,0.07,4.27c0.04,0.21,1.28,1.01,1.29,1c-0.42,2.23-0.24,0.26-1.22,1.75
	c-0.32,0.49,7.31,1.78,7.64,2.09c3.37,3.18-6.16,2.21-6.38,1.99c2.05,2.16,5.61,0.94,7.65,2.85c0.82,0.77,0.99,2.42,2.21,3.2
	c-0.02-0.01,1.48-0.33,1.72-0.27c0.37,0.1,0.56,0.74,0.8,0.85c1.77,0.79,3.64,1.26,4.99,1.47c2.06,0.33,4.37,0.29,6.52,0.74
	c0.5,0.11,2.37,1.12,3.15,1.33c1.06,0.28,4.67,0.14,5.3,1.67c1.99,4.85-10.41,2.09-12.06,2.05c-2.02-0.05-3.75-0.06-5.62-0.43
	c-0.72-0.14-6.69-1.63-4.6,1.36c0.59,0.85,4.57,0.34,2.2,3.18c-0.26,0.31-5.68,0.64-5.42,1.17c1.35,2.7,6.55,1.42,8.92,3.81
	c-0.98,0.97-2.21-0.24-3.19,0.66c3.21,3.43-1.97,2.99-2.93,2.88c-1.27-0.14-5.06-0.88-3.07,1.75c0.08,0.11,2.12,0.63,2.55,0.88
	c0.27,0.16,1.56,1.97,2.2,2.26c1.03,0.47,5.69,0.35,3.68,2.42c1.33,1.34,3.24,1.1,4.82,1.65c1.53,0.53,3.07,1.43,4.59,1.98
	c5.84,2.14-3,0.88-0.91,4.92c0.71,1.38,6.27,1.92,7.5,2.19c3.05,0.69,6.02,1.57,9.36,2.06c7.17,1.07,14.09,3.41,21.44,3.54
	c10.94,0.19,21.7,2.35,32.92,1.19c9.9-1.03,21-1.42,30.65-0.23c3.2,0.4,4.48,2.65,7.54,3.07c3.66,0.5,6.78,1.24,10.12,2.39
	c16.47,5.64,34.63,3.44,51.5,4.08c4.87,0.18,9.2-0.01,13.24,0.22c1.17,0.07,1.06,0.53,1.8,0.62c1.36,0.17,2.85-1.02,3.66-1.01
	c1.46,0.02,2.68,1.54,4.27,1.83c0.37,0.07,1.66-0.39,2.29-0.28c0.64,0.11,1.63,0.87,2.32,1.11c1.21,0.43,2.24,0.5,3.68-0.08
	c3.09-1.24,6.61,0.19,9.63-2.65c-2.77-3.15,0.21-2.89,2.69-2.85c2.85,0.05,5.69,0.09,8.54,0.14c6.58,0.11,13.43-0.41,20.22-0.3
	c9.24,0.15,18.22-1.81,27.5-2.72c11.27-1.11,22.3,0.39,33.35-0.72c10.61-1.06,21.97-2.18,32.85-2c10.76,0.18,20.99-0.3,30.99-3.93
	c2.86-1.04,5.29-1.55,7.75-4.19c1.58-1.69,2.31-4.64,4.14-5.81c1.15-0.73,2.94-1.04,4.27-1.47c8.15-2.68,16.89-2.5,25.46-3.12
	c4.49-0.33,8.95-1.33,13.39-1.68c4.29-0.33,8.9-2.32,13.31-2.97c7.78-1.14,15.34-3.86,22.64-6.62c2.01-0.76,3.5,0.16,5.61-0.6
	c1.73-0.62,3.49-2.06,5.14-2.39c2.92-0.59,5.58-0.21,8.5-0.49c1.93-0.19,6.05,0.72,7.49-0.79
	C656.36,72.35,656.05,72.01,655.73,71.68C653.59,71.64,656.12,71.97,655.73,71.68z"/>
</svg>
