<?xml version="1.0" encoding="utf-8"?>
<!-- Generator: Adobe Illustrator 23.0.3, SVG Export Plug-In . SVG Version: 6.00 Build 0)  -->
<!DOCTYPE svg PUBLIC "-//W3C//DTD SVG 1.1//EN" "http://www.w3.org/Graphics/SVG/1.1/DTD/svg11.dtd" [
	<!ENTITY st0 "fill:#90A733;">
]>
<svg version="1.1" id="Capa_1" xmlns="http://www.w3.org/2000/svg" xmlns:xlink="http://www.w3.org/1999/xlink" x="0px" y="0px"
	 viewBox="0 0 523.3 126" style="enable-background:new 0 0 523.3 126;" xml:space="preserve">
<path id="XMLID_461_" style="&st0;" d="M522.4,71.7c-2.2,0-10,0.9-11.3-1.8c0.6-1,3.8-1.2,4.7-1.4c2.2-0.7,1.9-1,3.5-3.1
	c1.4-1.8,5.6-2.9,1.6-4.9c-1.5-0.7-3.1-0.9-4.7-0.9c-1.5-0.1-9,1.1-9.8-0.2c-1.7-2.6,7.2-2.4,8.2-4c-1.6-1.6-4.8-0.4-7-0.4
	c-2.3,0-4.7-0.7-6.7-0.8c-0.4-1.3,3-1.6,3.2-2.1c-0.1,0.2-6-1-6.7-1.2c-2.7-0.4-5.4-0.1-8.5-0.1c-3.6-0.1-7.4,0.4-11-0.2
	c-1-0.2-4.8-0.6-2.4-3c-0.9-0.5-4,0.5-3.9-1.3c0.1-1.4,2.9-0.8,3.5-0.9c1-0.1,3.5-0.1,4.6-0.6c0.2-0.1,2.9-1.9,3-2.1
	c0.6-1-3-1.1-3.1-1.1c-0.6-2.2,8.5-5.1,9.4-6.7c1.5-2.4-3.2-3.8-3.3-6.3c-0.1-1.1,1.6-1.7,1.3-3.8c0.1,0.4-1.9-2.3-1.5-2.2
	c-0.8-0.4-2,0.1-2.9-0.1c0.1,0-0.8-1.2-0.9-1.3c-2.2-0.9-2.7-0.5-4.7-2c-1.5-1.1-3.4-3.3-5.3-3.6c-1.4-0.2-3.9,0.3-5.6,0.3
	c-1.4,0-2.4-0.9-3.9-1.3c-1.4-0.4-3.3-0.6-4.6-0.7c-2.5-0.3-4.9-1.1-7.2-1.4c-9.2-1.3-18.7-0.9-27.8-0.1c-6.8,0.6-13.7,1.9-20.5,1.8
	c-8.2-0.1-16.4,1.7-24.7,1.5c-7.3-0.1-14.7,2-22,2.8c-9.7,1.1-20-0.5-29.3-1.8c-5-0.7-10.4,0-15.3-0.6c-4.4-0.5-9-1-13.2-1.2
	c-19.8-0.8-39.9-2.3-59.9-2.6c-30.4-0.4-63.4,0.6-93.8,3.1c-16,1.3-31.2,3.8-47.2,5.1c-8.2,0.7-16.6,2-24.8,0.9
	c-4.7-0.6-9.3-0.9-13.9-1c-1,0-2.9-0.4-3.8-0.1c-0.8,0.3-0.8,1.5-1.3,1.7c-0.7,0.3-3.9,0.6-4.2,1c0.1,0.4,0.2,0.5,0.5,0.4
	c0.4,1.7-7.6,1.4-8.5,1.5c-2,0-5,0.3-6.9,0.2c-0.7,0-3.3-0.2-3.4-0.2c0.5,0.3,5.6,2.5,5.6,2.5c-1.2,2.3-8.7,0.7-10.6,0.7
	c-1.6,0-3.2-0.2-4.7-0.1c-0.3,0-0.4,1.3-0.4,1.3c-0.9,0.1-1.4-0.9-2.7-0.7c-0.4,0.1-1.2,0.8-1.9,1.2c-1.7,1.1-2.3,1.3-4.4,1.2
	c-2.8,0-8.9-2.1-11.3,0.2c1.2,1.2,7.5,2.1,5.1,5.6c-1.4,2.1-2.4-1-2,1.7c0.3,1.9,1.4,2,2.6,2.6c1.9,0.9,5.5,0.2,7,2.2
	c1.3,1.7-0.1,3.3,0.1,4.3c0,0.2,1.3,1,1.3,1c-0.4,2.2-0.2,0.3-1.2,1.8c-0.3,0.5,7.3,1.8,7.6,2.1c3.4,3.2-6.2,2.2-6.4,2
	c2.1,2.2,5.6,0.9,7.6,2.8c0.8,0.8,1,2.4,2.2,3.2c0,0,1.5-0.3,1.7-0.3c0.4,0.1,0.6,0.7,0.8,0.8c1.8,0.8,3.6,1.3,5,1.5
	c2.1,0.3,4.4,0.3,6.5,0.7c0.5,0.1,2.4,1.1,3.1,1.3c1.1,0.3,4.7,0.1,5.3,1.7c2,4.8-10.4,2.1-12.1,2.1c-2-0.1-3.8-0.1-5.6-0.4
	c-0.7-0.1-6.7-1.6-4.6,1.4c0.6,0.8,4.6,0.3,2.2,3.2c-0.3,0.3-5.7,0.6-5.4,1.2c1.4,2.7,6.6,1.4,8.9,3.8c-1,1-2.2-0.2-3.2,0.7
	c3.2,3.4-2,3-2.9,2.9c-1.3-0.1-5.1-0.9-3.1,1.8c0.1,0.1,2.1,0.6,2.6,0.9c0.3,0.2,1.6,2,2.2,2.3c1,0.5,5.7,0.3,3.7,2.4
	c1.3,1.3,3.2,1.1,4.8,1.7c1.5,0.5,3.1,1.4,4.6,2c5.8,2.1-3,0.9-0.9,4.9c0.7,1.4,6.3,1.9,7.5,2.2c3.1,0.7,6,1.6,9.4,2.1
	c7.2,1.1,14.1,3.4,21.4,3.5c10.9,0.2,21.7,2.3,32.9,1.2c9.9-1,21-1.4,30.7-0.2c3.2,0.4,4.5,2.7,7.5,3.1c3.7,0.5,6.8,1.2,10.1,2.4
	c16.5,5.6,34.6,3.4,51.5,4.1c4.9,0.2,9.2,0,13.2,0.2c1.2,0.1,1.1,0.5,1.8,0.6c1.4,0.2,2.9-1,3.7-1c1.5,0,2.7,1.5,4.3,1.8
	c0.4,0.1,1.7-0.4,2.3-0.3c0.6,0.1,1.6,0.9,2.3,1.1c1.2,0.4,2.2,0.5,3.7-0.1c3.1-1.2,6.6,0.2,9.6-2.7c-2.8-3.2,0.2-2.9,2.7-2.8
	c2.9,0.1,5.7,0.1,8.5,0.1c6.6,0.1,13.4-0.4,20.2-0.3c9.2,0.2,18.2-1.8,27.5-2.7c11.3-1.1,22.3,0.4,33.4-0.7c10.6-1.1,22-2.2,32.8-2
	c10.8,0.2,21-0.3,31-3.9c2.9-1,5.3-1.6,7.8-4.2c1.6-1.7,2.3-4.6,4.1-5.8c1.2-0.7,2.9-1,4.3-1.5c8.2-2.7,16.9-2.5,25.5-3.1
	c4.5-0.3,9-1.3,13.4-1.7c4.3-0.3,8.9-2.3,13.3-3c7.8-1.1,15.3-3.9,22.6-6.6c2-0.8,3.5,0.2,5.6-0.6c1.7-0.6,3.5-2.1,5.1-2.4
	c2.9-0.6,5.6-0.2,8.5-0.5c1.9-0.2,6,0.7,7.5-0.8C523,72.3,522.7,72,522.4,71.7C520.3,71.6,522.8,72,522.4,71.7z"/>
</svg>
