<svg xmlns="http://www.w3.org/2000/svg" viewBox="0 0 799.24 750.89"><defs><style>.cls-1{fill:#004a43;}</style></defs><title>Recurso 3icono-new</title><g id="Capa_2" data-name="Capa 2"><g id="Capa_1-2" data-name="Capa 1"><path class="cls-1" d="M794.84,27.88c-1.94-.4-1.17-3.3-3.11-3.7a3.27,3.27,0,0,0-2.06.44l-5.3,2.31a15.84,15.84,0,0,0-5.43-5.86,5,5,0,0,0-3.74-1c-1.66.41-2.23,2-3.43,3-1.55,1.32-4.11,1.59-6.26,1.16a19.59,19.59,0,0,1-5.67-2.57c-3.72-2.19-7.44-4.36-11.15-6.55-2-1.15-4.48-2.38-6.81-1.59-5.19,1.77-12-.83-13-5.15-1.8.81-3.57,1.64-5.35,2.45a8.57,8.57,0,0,1-2-3.67c-1.74,1.18-3.79,2.4-6,2.1a13.48,13.48,0,0,1-3.18-1.11,12.09,12.09,0,0,0-8.52.16c-1.84.74-3.3,3.05-1.52,3.81a10.2,10.2,0,0,1-9.21-1.06c-1.13-.83-1.91-1.89-3.09-2.68A4.45,4.45,0,0,0,685.74,8c-1.36.81-1.48,2.52-2.89,3.23-2.05,1-4.31-.81-6.62-1.25a7.59,7.59,0,0,0-6,1.64,15.21,15.21,0,0,0-3.4,4.46l-6.55-2.89c-.05.83-.14,1.66-.23,2.52-2,0-4.06.11-6.09.18-.23.69-.51,1.36-.77,2a7.71,7.71,0,0,0-4.45-.16c-1.38.55-1.87,2.42-.44,2.84a5,5,0,0,1-4.73,1.59,4.12,4.12,0,0,1-3.67-3,12.6,12.6,0,0,1-4.87,2.21,2.61,2.61,0,0,1-2-.11c-1.22-.9,1-2.24,1.55-3.53s-.95-2.47-2.54-2.68a11,11,0,0,0-4.71.74A3.42,3.42,0,0,0,626.29,12a4.18,4.18,0,0,0-4.68-.11c-2.1,1.64-.93,5.24-3.7,6S613.69,15.46,611,15a11,11,0,0,0-.64,5.35,11.21,11.21,0,0,0-10.09.81c-1.22.78-2.44,1.91-4,1.78-2.36-.24-3.58-3.31-5.8-2.57a3.94,3.94,0,0,0-.87,2.4c-1.62-.6-3.9-1.08-5,.12a13.75,13.75,0,0,0-.76,1.27c-1.15,1.5-4.08,1.08-6,.23s-4.2-1.92-6.16-1a8.19,8.19,0,0,0-1.69,1.2c-2.56,2-6.3,2.63-9.8,3.19s-6.9,1-10.34,1.59a14,14,0,0,1-5.72.09c-1.76-.48-3.14-1.64-5-1.84-3.05-.33-5.45,1.93-7.87,3.53-3.55,2.33-8.1,3.39-12.48,4.4a8.09,8.09,0,0,1-3,.33,11.64,11.64,0,0,1-3.1-1.27,11.1,11.1,0,0,0-5.81-.86c-1.11,1.37.9,3.17.14,4.69-.49,1-1.94,1.41-3.07,2-2.47,1.36-3.55,4.13-2.45,6.28-2,.28-4,.58-6,.88-2.45.32-5.54-3.46-7.82-2.68a3.55,3.55,0,0,0-1.87,2.1,10.58,10.58,0,0,1-4,4.64,8.21,8.21,0,0,1-6.72.85c-1.45-.53-2.51-1.59-4-2s-3.79.37-3.49,1.62c-1.59-1.29-5.05.12-4.71,1.92-1.2-.56-2.4-1.11-3.6-1.69a3.65,3.65,0,0,0-1.91-.46c-.65.07-1.29.67-1,1.13-1.41-1.45-4.32-.16-6.65.23a15.22,15.22,0,0,1-5.07-.25l-6.93-1.11a4.13,4.13,0,0,1-2-.62c-1-.77-.74-2.2-1.87-2.8-1-.53-2.31-.11-3.41.24a21,21,0,0,1-14.22-.84,17,17,0,0,0,2.33-6.16,15.81,15.81,0,0,1-8.49.37,5.08,5.08,0,0,0-3-.21c-1.53.6-1.32,2.43-2.38,3.47-1.64,1.63-4.82.57-7.34.09-4.22-.88-8.77.37-12.78,1.94A11.37,11.37,0,0,0,381.38,44a5.7,5.7,0,0,0-5-.48c-1.41.59-2.15,1.89-3.37,2.74s-3.6,1-3.95-.28c.16,2.52-4.27,4-7.2,3s-4.61-3.27-6.48-5.28-4.55-4-7.76-3.72c.53-1.7-1.71-3.48-3.9-3.06a12.06,12.06,0,0,0-3.39,1.63,11.18,11.18,0,0,1-7.45,1,12.16,12.16,0,0,0-4.9,2.51c-1.33,1.13-3.39,2.1-5.12,1.48-.85-.32-1.61-1-2.56-.9-1.85.25-1.06,2.81-2.56,3.76a19.64,19.64,0,0,1-7.57-6.11c-.32,2.26-.67,4.47-1,6.71a3,3,0,0,1-1.29,2.45c-1.29.76-3.16.16-4.64.74-2.19.83-1.84,3.39-3.11,5.05a5.22,5.22,0,0,1-6.23,1,8.28,8.28,0,0,0,2.51-3.5,2.64,2.64,0,0,0-2-3.23c-.63-.14-1.29-.1-1.89-.28-2.89-.81-.74-4.64-2.45-6.65-1.09-1.31-3.49-1.41-5.47-1.11s-4,.9-5.95.54c-2.15-.4-3.72-1.85-5.86-2.27-3.63-.76-8.27,1.57-11-.41.3-2.19.56-4.52-.6-6.53a5.93,5.93,0,0,0-6.83-2.33c-1.36.53-2.3,1.68-3.76,2.05-2.19.6-4.61-1.31-3.87-3.05-.81.81-1.64,1.64-2.47,2.5a2.68,2.68,0,0,0-3.53.53c-1.07-2.12-3.77-3.63-6.7-3.72-2.7-1.52-7.7.67-9.87-1.31-1.09-1-1.18-2.82-2.8-3s-2.51,1.5-4.08,1.76a4.67,4.67,0,0,1-1.78-.12l-29.19-5.91c-2.72-.55-5.63-1.2-7.36-2.9-1.41-1.46-1.75-3.33-2.47-5.06a5.71,5.71,0,0,0-4.36-3.83c-2.72-.34-5.54,1.57-8.15.88A6.62,6.62,0,0,1,161.6,8c-3.25-2.59-6.44-5.26-9.53-8-.42,2.24-.81,4.5-1.2,6.72a3.7,3.7,0,0,1-2.29-.28c.17.67.33,1.36.49,2a9.85,9.85,0,0,0-4.55-1.57c-.25,2.42-.5,4.89-.78,7.34a105,105,0,0,0-25,8.7c-3.14,1.57-7.29,3.3-10.1,1.54-2.13-1.31-3.19-4.4-5.87-3.9-1.31.23-2,1.27-3.11,1.92-2,1.25-4.75,1.08-7.27.92A73.22,73.22,0,0,0,70,25.78c.93,1-.11,2.63-1.64,3.07a6.74,6.74,0,0,1-4.57-.67c.4-1.48-2.9-2.84-4.84-2.75S55,26,53.3,25.36c-2.12-.9-2.31-3.18-3.07-5s-3.9-3.42-5.44-1.87c-.63.65-.67,1.64-1.48,2.17-2.12,1.29-4.15-2.33-6.74-2.08-2.15.21-2.65,2.7-4.59,3.51-1.73.69-3.76-.3-4.82-1.52S25.45,17.88,24,16.92s-4.18-1-4.87.46a5.56,5.56,0,0,0-3-1.71c-.55,1-1.08,2.1-1.61,3.16-.81-3.6-6.17-5-10.69-5.84,1,1.71-1.49,3.62-3.87,3.92V734.36a22.11,22.11,0,0,1,7.2,2.15c1.89,1,3.8,2.45,6.06,2.06,1.43-.26,2.57-1.23,4-1.48,1.75-.32,3.46.46,5.12,1s3.88.78,5-.35c.48-.44.74-1.11,1.36-1.47,1.39-.84,3.32.43,5,.11,1.5-.32,2.15-1.71,3.21-2.61,2.81-2.37,7.7-1,11.17.6.09-.83.2-1.66.27-2.49,2.31,2.38,7.27,1.68,10.55,0s6-4.24,9.74-5.16a19.55,19.55,0,0,0,6.34,4.73,40.92,40.92,0,0,1,1-7.34l12.49.8c2.7.17,6.11.05,7.38-1.89,1.94.39,1.18,3.3,3.12,3.7a3.24,3.24,0,0,0,2-.44l5.31-2.31a15.73,15.73,0,0,0,5.42,5.86,5,5,0,0,0,3.74,1c1.66-.42,2.24-2,3.44-3,1.54-1.32,4.11-1.6,6.25-1.16a19.74,19.74,0,0,1,5.68,2.56c3.71,2.2,7.43,4.37,11.14,6.56,2,1.15,4.48,2.37,6.81,1.59,5.19-1.78,12,.83,13,5.15,1.8-.81,3.58-1.64,5.35-2.45a8.63,8.63,0,0,1,2.06,3.67c1.73-1.18,3.78-2.4,5.95-2.1a13.4,13.4,0,0,1,3.19,1.11,12.06,12.06,0,0,0,8.51-.16c1.85-.74,3.3-3,1.52-3.81a10.2,10.2,0,0,1,9.21,1.06c1.13.83,1.92,1.89,3.09,2.68a4.5,4.5,0,0,0,4.3.39c1.36-.81,1.47-2.52,2.88-3.23,2.06-1,4.32.81,6.62,1.24a7.55,7.55,0,0,0,6-1.64,15.18,15.18,0,0,0,3.39-4.45l6.55,2.89c.05-.83.14-1.67.23-2.52q3.06-.07,6.1-.18c.23-.7.5-1.37.76-2a7.8,7.8,0,0,0,4.45.16c1.39-.55,1.87-2.42.44-2.84a5,5,0,0,1,4.73-1.59,4.11,4.11,0,0,1,3.67,3,12.66,12.66,0,0,1,4.87-2.21,2.61,2.61,0,0,1,2,.11c1.22.9-1,2.24-1.54,3.53s.94,2.47,2.53,2.68a11,11,0,0,0,4.71-.74,3.44,3.44,0,0,0,1.13,3.79,4.2,4.2,0,0,0,4.69.11c2.1-1.64.92-5.24,3.69-6s4.22,2.45,6.9,2.93a10.9,10.9,0,0,0,.65-5.35,11.19,11.19,0,0,0,10.08-.81c1.22-.78,2.45-1.92,4-1.78,2.35.23,3.58,3.3,5.79,2.57a3.89,3.89,0,0,0,.88-2.4c1.61.6,3.9,1.08,5-.12a11.84,11.84,0,0,0,.76-1.27c1.16-1.5,4.09-1.08,6-.23s4.2,1.92,6.17,1a8.4,8.4,0,0,0,1.68-1.2c2.56-2,6.3-2.63,9.81-3.19s6.9-1,10.34-1.59a14,14,0,0,1,5.72-.09c1.75.48,3.14,1.63,5,1.84,3,.33,5.45-1.94,7.87-3.53,3.56-2.33,8.1-3.39,12.49-4.41a8.25,8.25,0,0,1,3-.32,11.71,11.71,0,0,1,3.09,1.27,11.23,11.23,0,0,0,5.81.85c1.11-1.36-.9-3.16-.13-4.68.48-1,1.93-1.41,3.06-2,2.47-1.37,3.56-4.14,2.45-6.28,2-.28,4-.58,6-.88,2.45-.32,5.54,3.46,7.83,2.68a3.61,3.61,0,0,0,1.87-2.1,10.49,10.49,0,0,1,4-4.64,8.22,8.22,0,0,1,6.72-.85c1.45.53,2.51,1.59,4,2s3.78-.37,3.48-1.61c1.59,1.29,5.06-.12,4.71-1.92,1.2.56,2.4,1.11,3.6,1.69a3.69,3.69,0,0,0,1.92.46c.64-.07,1.29-.67,1-1.13,1.41,1.45,4.32.16,6.65-.23a15,15,0,0,1,5.08.25l6.92,1.11a4.09,4.09,0,0,1,2,.62c1,.76.74,2.19,1.87,2.79,1,.54,2.31.12,3.42-.23a21,21,0,0,1,14.21.83,17.37,17.37,0,0,0-2.33,6.16,15.92,15.92,0,0,1,8.49-.36,5.11,5.11,0,0,0,3,.2c1.52-.6,1.31-2.42,2.37-3.46,1.64-1.64,4.83-.57,7.34-.09,4.22.88,8.77-.37,12.79-1.94a11.46,11.46,0,0,0,3.2,3.28,5.72,5.72,0,0,0,5,.48c1.41-.6,2.14-1.89,3.37-2.74s3.6-1,3.94.27c-.16-2.51,4.27-4,7.2-3s4.62,3.28,6.49,5.29,4.54,4,7.75,3.71c-.53,1.71,1.71,3.49,3.9,3.07a11.7,11.7,0,0,0,3.39-1.64,11.27,11.27,0,0,1,7.46-1,12.24,12.24,0,0,0,4.89-2.51c1.34-1.13,3.39-2.1,5.12-1.48.86.32,1.62,1,2.56.9,1.85-.25,1.07-2.81,2.57-3.76a19.68,19.68,0,0,1,7.56,6.11c.33-2.26.67-4.47,1-6.71a3.07,3.07,0,0,1,1.29-2.45c1.29-.76,3.16-.16,4.64-.74,2.19-.83,1.85-3.39,3.12-5a5.22,5.22,0,0,1,6.23-1,8.34,8.34,0,0,0-2.52,3.51,2.65,2.65,0,0,0,2,3.23c.62.14,1.29.1,1.89.28,2.88.81.74,4.64,2.44,6.65,1.09,1.31,3.49,1.4,5.47,1.1s4-.9,6-.53c2.14.39,3.71,1.85,5.86,2.26,3.62.77,8.26-1.56,11,.42-.3,2.19-.55,4.52.6,6.53a5.93,5.93,0,0,0,6.83,2.33c1.36-.53,2.31-1.68,3.76-2,2.19-.6,4.62,1.31,3.88,3,.81-.8,1.64-1.63,2.47-2.49a2.68,2.68,0,0,0,3.53-.53c1.06,2.12,3.76,3.62,6.69,3.72,2.7,1.52,7.71-.67,9.88,1.31,1.08,1,1.17,2.82,2.79,3s2.51-1.5,4.08-1.76a4.67,4.67,0,0,1,1.78.12l29.19,5.9c2.73.56,5.63,1.2,7.36,2.91,1.41,1.46,1.76,3.33,2.47,5.06a5.75,5.75,0,0,0,4.36,3.83c2.73.34,5.54-1.57,8.15-.88a6.62,6.62,0,0,1,2.35,1.36q4.89,3.89,9.53,8c.42-2.24.81-4.5,1.2-6.72a3.7,3.7,0,0,1,2.29.28c-.16-.67-.32-1.36-.49-2a9.89,9.89,0,0,0,4.55,1.57c.25-2.42.51-4.89.79-7.34a104.75,104.75,0,0,0,25-8.7c3.14-1.57,7.29-3.3,10.11-1.55,2.12,1.32,3.18,4.41,5.86,3.9,1.31-.23,2-1.27,3.11-1.91,2-1.25,4.76-1.09,7.27-.92l.87,0V26C797.39,26.13,795.67,26.62,794.84,27.88Z"/></g></g></svg>